<svg width="160" height="80" viewBox="0 0 160 80" fill="none" xmlns="http://www.w3.org/2000/svg">
<g clip-path="url(#clip0_355_975)">
<path fill-rule="evenodd" clip-rule="evenodd" d="M9.39746 48.4414L14.4591 44.5645C17.1469 48.0737 20.0013 49.6908 23.182 49.6908C26.3451 49.6908 29.121 48.0923 31.6884 44.6109L36.8197 48.395C33.118 53.4146 28.5126 56.0665 23.182 56.0665C17.8691 56.0665 13.2209 53.4332 9.39746 48.4414Z" fill="url(#paint0_linear_355_975)"/>
<path fill-rule="evenodd" clip-rule="evenodd" d="M23.1658 31.5915L14.157 39.3543L9.99512 34.5244L23.1837 23.1599L36.2698 34.5332L32.0874 39.3454L23.1658 31.5915Z" fill="url(#paint1_linear_355_975)"/>
<path d="M71.3706 29.7134H66.27V50.9658H71.3706V29.7134Z" fill="#B1B1B1"/>
<path fill-rule="evenodd" clip-rule="evenodd" d="M55.9618 51.0596C52.955 51.0596 50.4494 50.0852 48.417 48.1363C46.3846 46.1596 45.3823 43.6261 45.3823 40.5358C45.3823 37.4176 46.4125 34.8563 48.4448 32.8518C50.505 30.8194 53.0107 29.8171 55.9897 29.8171C59.6645 29.8171 62.922 31.404 64.815 33.8819L61.502 37.362C59.915 35.6637 58.1891 34.8006 56.3237 34.8006C54.7368 34.8006 53.4283 35.3296 52.3425 36.4154C51.2846 37.5012 50.7556 38.8654 50.7556 40.508C50.7556 42.0949 51.2846 43.4312 52.3425 44.517C53.4283 45.575 54.7368 46.1039 56.2959 46.1039C58.3283 46.1039 60.11 45.213 61.5855 43.4591L65.038 46.7721C64.0915 48.0249 62.8105 49.055 61.2235 49.8624C59.637 50.6698 57.8828 51.0596 55.9618 51.0596Z" fill="#B1B1B1"/>
<path fill-rule="evenodd" clip-rule="evenodd" d="M79.0211 31.4137C79.0211 32.9396 77.7846 34.1765 76.2586 34.1765C74.7326 34.1765 73.4956 32.9396 73.4956 31.4137C73.4956 29.8878 74.7326 28.6509 76.2586 28.6509C77.7846 28.6509 79.0211 29.8878 79.0211 31.4137ZM78.8086 35.4516H73.7081V50.9659H78.8086V35.4516Z" fill="#B1B1B1"/>
<path fill-rule="evenodd" clip-rule="evenodd" d="M88.668 51.0875C86.246 51.0875 84.297 50.3358 82.766 48.8324C81.2625 47.329 80.5105 45.408 80.5105 43.0416C80.5105 40.6751 81.2625 38.7541 82.7935 37.2507C84.325 35.7473 86.3015 34.9956 88.7515 34.9956C91.9535 34.9956 94.765 36.5547 96.0735 39.478L92.148 41.5382C91.3685 40.2297 90.283 39.5615 88.863 39.5615C87.833 39.5615 86.9975 39.8956 86.3295 40.5637C85.689 41.2319 85.355 42.0671 85.355 43.0416C85.355 45.0739 86.8305 46.5773 88.8075 46.5773C90.227 46.5773 91.5355 45.7978 92.0925 44.6006L96.018 46.9393C94.6815 49.5006 91.9255 51.0875 88.668 51.0875Z" fill="#B1B1B1"/>
<path fill-rule="evenodd" clip-rule="evenodd" d="M102.4 29.7134H97.2991V50.9658H102.4V45.5555L102.997 44.9981L107.66 50.9658H113.593L106.43 41.7972L113.235 35.4515H107.002L102.4 39.7437V29.7134Z" fill="#B1B1B1"/>
<path fill-rule="evenodd" clip-rule="evenodd" d="M114.513 42.9349V29.7134H119.826V42.6389C119.826 44.9497 121.173 46.0633 123.12 46.0633C125.039 46.0633 126.414 44.894 126.414 42.6389V29.7134H131.727V42.9349C131.727 49.0042 127.466 51.2871 123.12 51.2871C118.802 51.2871 114.513 49.0042 114.513 42.9349Z" fill="#B1B1B1"/>
<path fill-rule="evenodd" clip-rule="evenodd" d="M143.204 51.3909C147.312 51.3909 150.643 47.7752 150.643 43.3149C150.643 38.8547 147.312 35.239 143.204 35.239C141.53 35.239 139.985 35.8398 138.741 36.8535V35.4516H133.853V57.3416H138.741V49.7764C139.985 50.7901 141.53 51.3909 143.204 51.3909ZM138.741 43.3232V43.3066C138.746 41.3151 140.314 39.702 142.248 39.702C144.185 39.702 145.755 41.3196 145.755 43.3149C145.755 45.3103 144.185 46.9278 142.248 46.9278C140.314 46.9278 138.746 45.3148 138.741 43.3232Z" fill="#B1B1B1"/>
</g>
<defs>
<linearGradient id="paint0_linear_355_975" x1="9.39746" y1="58.1376" x2="36.8197" y2="58.1376" gradientUnits="userSpaceOnUse">
<stop stop-color="#8930FD"/>
<stop offset="1" stop-color="#49CCF9"/>
</linearGradient>
<linearGradient id="paint1_linear_355_975" x1="9.99512" y1="42.2702" x2="36.2698" y2="42.2702" gradientUnits="userSpaceOnUse">
<stop stop-color="#FF02F0"/>
<stop offset="1" stop-color="#FFC800"/>
</linearGradient>
<clipPath id="clip0_355_975">
<rect width="142" height="34.5" fill="white" transform="translate(9 23)"/>
</clipPath>
</defs>
</svg>
