<svg width="160" height="80" viewBox="0 0 160 80" fill="none" xmlns="http://www.w3.org/2000/svg">
<g clip-path="url(#clip0_355_508)">
<path d="M49.7126 30.8047H56.3701C62.0713 30.8047 65.6759 34.4828 65.6759 40.2208C65.6759 45.9587 62.0897 49.6369 56.3701 49.6369H49.7126V30.8047ZM56.223 46.1978C59.8092 46.1978 61.777 43.8989 61.777 40.2392C61.777 36.561 59.8092 34.2622 56.223 34.2622H53.6115V46.1978H56.223V46.1978Z" fill="#007EE5"/>
<path d="M75.7724 39.6874C75.2574 39.3748 74.577 39.2276 73.8597 39.2276C72.5724 39.2276 71.5241 39.9081 71.2482 41.1587V49.6552H67.4597V35.9357H71.2666V37.2782C71.8551 36.3035 72.977 35.623 74.3379 35.623C74.9816 35.623 75.5701 35.7518 75.7724 35.8621V39.6874Z" fill="#007EE5"/>
<path d="M83.3678 49.9679C79.3769 49.9679 76.6367 47.0253 76.6367 42.8139C76.6367 38.584 79.3769 35.623 83.3678 35.623C87.3586 35.623 90.0804 38.5656 90.0804 42.8139C90.0804 47.0253 87.3586 49.9679 83.3678 49.9679ZM83.3678 38.8598C81.4551 38.8598 80.4252 40.515 80.4252 42.8139C80.4252 45.0759 81.4735 46.7495 83.3678 46.7495C85.262 46.7495 86.3103 45.0943 86.3103 42.8139C86.3103 40.515 85.262 38.8598 83.3678 38.8598Z" fill="#007EE5"/>
<path d="M95.5242 54.731H91.7173V35.9356H95.5242V37.0758C96.1311 36.3402 97.492 35.6414 98.9633 35.6414C102.954 35.6414 105.216 38.9517 105.216 42.8322C105.216 46.6942 102.954 49.9862 98.9633 49.9862C97.492 49.9862 96.1311 49.2873 95.5242 48.5517V54.731V54.731ZM95.5242 45.0575C95.984 46.0138 96.9954 46.6574 98.0989 46.6574C100.159 46.6574 101.391 45.0023 101.391 42.8138C101.391 40.6069 100.159 38.9517 98.0989 38.9517C96.9587 38.9517 95.984 39.6322 95.5242 40.5517V45.0575Z" fill="#007EE5"/>
<path d="M110.696 49.6552H106.853V29.7012H110.696V37.0759C111.303 36.3403 112.664 35.6414 114.136 35.6414C118.126 35.6414 120.37 38.8966 120.37 42.8322C120.37 46.7678 118.126 49.9862 114.136 49.9862C112.664 49.9862 111.303 49.2874 110.696 48.5517V49.6552ZM110.696 45.0575C111.119 46.0138 112.131 46.6575 113.271 46.6575C115.331 46.6575 116.563 45.0023 116.563 42.8138C116.563 40.6069 115.331 38.9517 113.271 38.9517C112.168 38.9517 111.119 39.6322 110.696 40.5517V45.0575Z" fill="#007EE5"/>
<path d="M128.462 50.0047C124.471 50.0047 121.731 47.0622 121.731 42.8507C121.731 38.6208 124.471 35.6599 128.462 35.6599C132.453 35.6599 135.175 38.6024 135.175 42.8507C135.175 47.0622 132.434 50.0047 128.462 50.0047ZM128.462 38.8967C126.549 38.8967 125.519 40.5519 125.519 42.8507C125.519 45.1128 126.568 46.7863 128.462 46.7863C130.356 46.7863 131.405 45.1312 131.405 42.8507C131.405 40.5519 130.356 38.8967 128.462 38.8967Z" fill="#007EE5"/>
<path d="M143.726 42.5748L148.729 49.6736H144.517L141.575 45.3702L138.595 49.6736H134.604L139.552 42.6667L134.899 35.9541H139.11L141.759 39.853L144.444 35.9541H148.434L143.726 42.5748Z" fill="#007EE5"/>
<path d="M21.0965 24.3494L11.1838 30.731L18.0436 36.2666L28.0114 30.1057L21.0965 24.3494Z" fill="#007EE5"/>
<path d="M11.1838 41.6735L21.0965 48.1838L28.0114 42.4275L18.0436 36.2666L11.1838 41.6735Z" fill="#007EE5"/>
<path d="M28.0115 42.4275L34.9264 48.1838L44.8023 41.7471L37.9609 36.2666L28.0115 42.4275Z" fill="#007EE5"/>
<path d="M44.8023 30.7861L34.9264 24.3494L28.0115 30.1057L37.9609 36.2666L44.8023 30.7861Z" fill="#007EE5"/>
<path d="M28.0298 43.6597L21.0965 49.416L18.1172 47.485V49.6551L28.0298 55.5953L37.9241 49.6551V47.485L34.9632 49.416L28.0298 43.6597Z" fill="#007EE5"/>
</g>
<defs>
<clipPath id="clip0_355_508">
<rect width="137.931" height="32" fill="white" transform="translate(11 24)"/>
</clipPath>
</defs>
</svg>
