<svg width="240" height="80" viewBox="0 0 240 80" fill="none" xmlns="http://www.w3.org/2000/svg">
<g clip-path="url(#clip0_355_509)">
<path d="M52.1685 35.4642L66.1778 41.8604L80.3173 29.4772C80.5208 28.4554 80.6221 27.4158 80.6187 26.3739C80.618 23.0009 79.5378 19.7167 77.5359 17.0018C75.5344 14.2869 72.7166 12.2838 69.4942 11.2858C66.2723 10.2878 62.8155 10.3471 59.6297 11.4551C56.4439 12.5632 53.6963 14.6617 51.7889 17.4437L49.4336 29.626L52.1685 35.4642Z" fill="#FEC514"/>
<path d="M37.668 50.2997C37.4614 51.3374 37.358 52.3931 37.3591 53.4513C37.3592 56.8385 38.445 60.1363 40.4571 62.8608C42.4692 65.5856 45.3017 67.5934 48.5389 68.5899C51.7761 69.5864 55.2474 69.519 58.4435 68.3975C61.6396 67.2764 64.392 65.16 66.2968 62.3592L68.6298 50.2029L65.5154 44.2495L51.454 37.842L37.668 50.2997Z" fill="#00BFB3"/>
<path d="M37.5824 26.0576L47.1825 28.3236L49.2848 17.4064C47.979 16.4163 46.3877 15.8758 44.7491 15.8659C43.1104 15.8559 41.5126 16.377 40.1949 17.3511C38.8772 18.3252 37.9105 19.7 37.4396 21.2695C36.9686 22.8391 37.0187 24.5189 37.5824 26.0576Z" fill="#F04E98"/>
<path d="M36.7488 28.3423C34.6425 29.0531 32.81 30.4026 31.5062 32.2032C30.2025 34.0038 29.4923 36.1659 29.4744 38.3888C29.4729 40.5372 30.1253 42.6352 31.3449 44.4038C32.5645 46.1726 34.2936 47.5281 36.3023 48.2902L49.7721 36.1153L47.2976 30.8316L36.7488 28.3423Z" fill="#1BA9F5"/>
<path d="M68.76 62.359C70.0638 63.3439 71.6512 63.8812 73.285 63.8898C74.9189 63.8984 76.5118 63.3785 77.8257 62.4074C79.1399 61.4362 80.1044 60.0658 80.5758 58.5012C81.0469 56.9369 80.9993 55.2617 80.44 53.7265L70.8474 51.4939L68.76 62.359Z" fill="#93C90E"/>
<path d="M70.7098 48.9675L81.2698 51.4345C83.3774 50.7257 85.211 49.3768 86.5152 47.5755C87.8194 45.7746 88.5286 43.6115 88.5442 41.388C88.5424 39.2442 87.8886 37.1515 86.67 35.3878C85.451 33.6241 83.7249 32.2726 81.72 31.5127L67.908 43.6057L70.7098 48.9675Z" fill="#0077CC"/>
<path d="M116.511 52.8001L117.791 52.6699L117.88 55.2745C115.032 55.7047 112.158 55.941 109.277 55.9815C106.102 55.9815 103.852 55.0625 102.527 53.2243C101.203 51.3862 100.542 48.5259 100.544 44.6439C100.544 36.9118 103.618 33.0445 109.765 33.042C112.741 33.042 114.962 33.873 116.425 35.535C117.889 37.197 118.623 39.8017 118.628 43.349L118.453 45.8643H103.897C103.897 48.3052 104.338 50.1136 105.221 51.2894C106.105 52.4652 107.64 53.0532 109.828 53.0532C112.021 53.0606 114.248 52.9761 116.511 52.8001ZM115.32 43.2299C115.32 40.5236 114.887 38.6122 114.021 37.4959C113.156 36.3797 111.744 35.8203 109.787 35.8178C107.83 35.8178 106.359 36.4057 105.374 37.5815C104.389 38.7573 103.882 40.6401 103.852 43.2299H115.32Z" fill="#0077CC"/>
<path d="M123.242 55.8065V26.7832H126.55V55.8065H123.242Z" fill="#0077CC"/>
<path d="M147.383 40.1413V51.2669C147.383 52.3832 150.129 52.3237 150.129 52.3237L149.962 55.2483C147.636 55.2483 145.713 55.4418 144.559 54.3218C142.061 55.4314 139.355 55.9959 136.622 55.9776C134.595 55.9776 133.051 55.4035 131.99 54.2548C130.928 53.1062 130.398 51.4556 130.401 49.3023C130.401 47.1542 130.945 45.5728 132.034 44.5581C133.123 43.5435 134.829 42.9234 137.151 42.6976L144.075 42.039V40.1413C144.075 38.653 143.753 37.5789 143.108 36.919C142.754 36.5873 142.338 36.3306 141.882 36.1643C141.427 35.998 140.943 35.9257 140.459 35.9516H131.766V33.0381H140.239C142.739 33.0381 144.555 33.6124 145.686 34.7609C146.818 35.9094 147.383 37.7029 147.383 40.1413ZM133.791 49.1385C133.791 51.8448 134.907 53.1981 137.139 53.1981C139.154 53.1959 141.153 52.8524 143.052 52.1823L144.064 51.8288V44.5506L137.549 45.1683C136.224 45.2874 135.268 45.6695 134.68 46.3144C134.092 46.9592 133.795 47.9006 133.791 49.1385Z" fill="#0077CC"/>
<path d="M160.299 35.9963C157.091 35.9963 155.487 37.1126 155.487 39.3451C155.487 40.3771 155.86 41.1051 156.604 41.5293C157.348 41.9535 159.024 42.3951 161.631 42.854C164.25 43.3129 166.103 43.9529 167.19 44.774C168.276 45.5952 168.821 47.1379 168.823 49.4028C168.823 51.67 168.095 53.3321 166.639 54.3888C165.183 55.4456 163.058 55.9751 160.265 55.9777C158.442 55.9777 152.354 55.3005 152.354 55.3005L152.533 52.4354C156.031 52.7702 158.557 53.0195 160.265 53.0195C161.973 53.0195 163.272 52.7479 164.168 52.2047C165.065 51.6614 165.512 50.7498 165.512 49.4698C165.512 48.1898 165.14 47.3228 164.366 46.8651C163.592 46.4074 161.925 45.9758 159.339 45.5628C156.753 45.1498 154.911 44.547 153.824 43.7544C152.738 42.9619 152.191 41.4884 152.191 39.3414C152.191 37.1944 152.935 35.6205 154.464 34.5786C155.993 33.5368 157.869 33.0344 160.131 33.0344C161.925 33.0344 168.15 33.4921 168.15 33.4921V36.3758C164.864 36.2307 162.178 35.9963 160.299 35.9963Z" fill="#0077CC"/>
<path d="M184.767 36.3461H177.753V46.8912C177.753 49.4188 177.937 51.0798 178.304 51.8735C178.676 52.6698 179.547 53.0642 180.927 53.0642L184.853 52.8L185.076 55.5349C183.59 55.8099 182.085 55.9725 180.574 56.0223C178.282 56.0223 176.694 55.4631 175.811 54.3442C174.928 53.2253 174.488 51.0932 174.49 47.9479V36.3461H171.372V33.481H174.505V26.7312H177.768V33.481H184.767V36.3461Z" fill="#0077CC"/>
<path d="M189.366 30.6642V26.8242H192.674V30.6642H189.366ZM189.366 55.8065V33.481H192.674V55.8065H189.366Z" fill="#0077CC"/>
<path d="M207.004 33.0381C208.656 33.1086 210.301 33.2863 211.93 33.5702L212.987 33.7004L212.857 36.3906C211.128 36.1716 209.39 36.04 207.648 35.9962C205.147 35.9962 203.449 36.5916 202.554 37.7823C201.658 38.973 201.209 41.1783 201.207 44.3981C201.207 47.623 201.626 49.8652 202.464 51.1255C203.303 52.3858 205.051 53.0184 207.711 53.0232L212.92 52.6288L213.054 55.3637C211.026 55.7071 208.978 55.9136 206.922 55.9813C203.484 55.9813 201.11 55.0984 199.8 53.332C198.49 51.5657 197.835 48.589 197.835 44.4018C197.835 40.212 198.541 37.2713 199.953 35.5795C201.364 33.8877 203.715 33.0406 207.004 33.0381Z" fill="#0077CC"/>
</g>
<defs>
<clipPath id="clip0_355_509">
<rect width="186.047" height="64" fill="white" transform="translate(27 8)"/>
</clipPath>
</defs>
</svg>
