<svg width="123" height="40" viewBox="0 0 123 40" fill="none" xmlns="http://www.w3.org/2000/svg">
<path d="M15.7812 18.4375V14.1406H30C30.163 15.0165 30.2415 15.906 30.2344 16.7969C30.2344 19.9219 29.375 23.9062 26.5625 26.6406C23.8281 29.5312 20.3906 31.0156 15.7031 31.0156C7.1875 31.0156 0 24.0625 0 15.5469C0 7.03125 7.1875 0 15.7031 0C20.4688 0 23.8281 1.875 26.4062 4.29688L23.3594 7.26562C21.7723 5.75097 19.7717 4.74088 17.6106 4.36307C15.4496 3.98526 13.225 4.25669 11.2181 5.14305C9.21129 6.02941 7.5123 7.49089 6.33597 9.34272C5.15964 11.1946 4.55879 13.3536 4.60938 15.5469C4.60938 21.7969 9.53125 26.7969 15.7031 26.7969C19.7656 26.7969 22.1094 25.1562 23.5938 23.6719C24.7656 22.5 25.5469 20.7812 25.8594 18.4375H15.7812Z" fill="#4285F4"/>
<path d="M51.875 21.0156C51.875 26.7969 47.3438 31.0156 41.7969 31.0156C36.25 31.0156 31.7969 26.7969 31.7969 21.0156C31.7969 15.2344 36.3281 11.0156 41.7969 11.0156C47.2656 11.0156 51.875 15.2344 51.875 21.0156ZM47.4219 21.0156C47.4219 17.4219 44.8438 15 41.7969 15C38.75 15 36.1719 17.4219 36.1719 21.0156C36.1719 24.6094 38.8281 27.1094 41.7969 27.1094C44.7656 27.1094 47.4219 24.6094 47.4219 21.0156Z" fill="#EA4335"/>
<path d="M73.75 21.0156C73.75 26.7969 69.2188 31.0156 63.6719 31.0156C58.125 31.0156 53.6719 26.7969 53.6719 21.0156C53.6719 15.2344 58.2031 11.0156 63.6719 11.0156C69.1406 11.0156 73.75 15.2344 73.75 21.0156ZM69.2969 21.0156C69.2969 17.4219 66.7188 15 63.6719 15C60.625 15 58.0469 17.4219 58.0469 21.0156C58.0469 24.6094 60.7031 27.1094 63.6719 27.1094C66.6406 27.1094 69.2969 24.6094 69.2969 21.0156Z" fill="#FBBC04"/>
<path d="M94.6875 11.6406V29.6094C94.6875 36.9531 90.3125 40 85.1562 40C80.3125 40 77.4219 36.7188 76.3281 34.0625L80.1562 32.5C80.8594 34.1406 82.5 36.0938 85.1562 36.0938C88.5156 36.0938 90.5469 33.9844 90.5469 30.2344V28.75H90.3906C89.7258 29.4946 88.9052 30.0836 87.987 30.4751C87.0688 30.8667 86.0757 31.0512 85.0781 31.0156C80.1562 31.0156 75.5469 26.6406 75.5469 21.0938C75.5469 15.4688 80.1562 11.0156 85.0781 11.0156C87.5 11.0156 89.375 12.1094 90.3906 13.2812H90.5469V11.6406H94.6875ZM90.8594 21.0938C90.8594 17.5781 88.5156 15 85.4688 15C82.5 15 79.9219 17.5781 79.9219 21.0938C79.9219 24.5312 82.5 27.1094 85.4688 27.1094C88.5156 27.1094 90.8594 24.5312 90.8594 21.0938Z" fill="#4285F4"/>
<path d="M97.7344 1.17188H102.109V30.4688H97.7344V1.17188Z" fill="#34A853"/>
<path d="M119.062 24.2969L122.5 26.6406C121.406 28.2031 118.75 31.0156 114.141 31.0156C108.438 31.0156 104.219 26.6406 104.219 21.0156C104.219 15.0781 108.516 11.0156 113.672 11.0156C118.828 11.0156 121.406 15.1562 122.188 17.4219L122.656 18.5156L109.297 24.0625C110.312 26.0938 111.875 27.1094 114.141 27.1094C116.406 27.1094 117.891 26.0156 119.062 24.2969ZM108.594 20.7031L117.5 17.0312C117.031 15.7812 115.547 14.9219 113.828 14.9219C111.562 14.9219 108.438 16.875 108.594 20.7031Z" fill="#EA4335"/>
</svg>
