<svg width="160" height="80" viewBox="0 0 160 80" fill="none" xmlns="http://www.w3.org/2000/svg">
<path d="M26.7562 35.4728H28.7463C29.9901 35.4728 31.2836 35.7215 31.2836 37.1643C31.2836 38.4081 30.4876 39.3036 28.1493 39.3036H25.9602L26.7562 35.4728ZM18 49.5524H23.7711L24.9652 43.831H28.8955C33.8706 43.831 37.1045 40.5474 37.1045 36.7166C37.1045 32.5375 34.8657 30.5972 31.3831 30.5972H21.9801L18 49.5524Z" fill="#004B8D"/>
<path d="M44.219 37.1146L44.9155 42.7862H41.2837L44.219 37.1146ZM31.7314 49.5524H37.7016L39.1444 46.8658H45.3135L45.612 49.5524H51.3334L48.4479 30.5972H42.6767L31.7314 49.5524Z" fill="#004B8D"/>
<path d="M53.7713 42.5872L49.6917 30.5972H55.5623L57.3533 37.6618L61.9802 30.5972H68.8459L59.5921 42.5375L58.1494 49.5524H52.3285L53.7713 42.5872Z" fill="#004B8D"/>
<path d="M82.7762 42.3384C82.4279 44.2787 80.9354 50.0001 73.0249 50.0001C67.5025 50.0001 64.8657 46.418 64.8657 41.3434C64.8657 35.224 68.6966 30.0996 75.1642 30.0996C79.3931 30.0996 83.1742 31.9404 83.2737 37.612H77.7513C77.801 35.821 76.9553 34.826 75.1642 34.826C71.9304 34.826 70.7364 38.5573 70.7364 41.2439C70.7364 42.8359 71.1344 45.224 73.8209 45.224C75.6617 45.224 76.7065 43.9802 77.0548 42.2887L82.7762 42.3384Z" fill="#004B8D"/>
<path d="M86.1591 30.5972H92.0298L90.6367 37.1643H95.9601L97.3531 30.5972H103.224L99.2437 49.5524H93.4228L94.9651 42.04H89.6417L88.0497 49.5524H82.2288L86.1591 30.5972Z" fill="#004B8D"/>
<path d="M104.766 30.5972H120.438L119.443 35.4728H109.592L109.095 37.8111H118.249L117.304 42.3385H108.149L107.652 44.6768H117.702L116.707 49.5524H100.786L104.766 30.5972Z" fill="#004B8D"/>
<path d="M124.468 39.5026L120.09 30.5972H126.458L128.298 35.5225L132.08 30.5972H138.995L131.085 39.5026L135.711 49.5524H129.144L127.055 44.2788L122.627 49.5524H115.463L124.468 39.5026Z" fill="#004B8D"/>
<path d="M139.741 31.4428C139.741 30.7463 140.239 30.199 140.935 30.199C141.582 30.199 142.129 30.7463 142.129 31.4428C142.129 32.1393 141.632 32.6866 140.935 32.6866C140.288 32.6866 139.741 32.1393 139.741 31.4428ZM139.492 31.4428C139.492 32.2886 140.139 32.8856 140.935 32.8856C141.731 32.8856 142.378 32.2886 142.378 31.4428C142.378 30.6468 141.731 30 140.935 30C140.139 30 139.492 30.6468 139.492 31.4428ZM140.388 32.2886H140.637V31.592H140.885L141.333 32.3383H141.632L141.134 31.592C141.383 31.592 141.582 31.4428 141.582 31.1443C141.582 30.796 141.383 30.6468 140.985 30.6468H140.388V32.2886ZM140.637 30.8458H140.985C141.184 30.8458 141.333 30.8955 141.333 31.0945C141.333 31.3433 141.134 31.393 140.885 31.393H140.637V30.8458V30.8458Z" fill="#004B8D"/>
</svg>
