<svg width="240" height="80" viewBox="0 0 240 80" fill="none" xmlns="http://www.w3.org/2000/svg">
<g clip-path="url(#clip0_358_1380)">
<path d="M57.0024 32.5811H34.141C33.7049 32.5811 33.3513 32.9346 33.3513 33.3707V36.0324C33.3513 36.4685 33.7049 36.822 34.141 36.822H57.0024C57.4385 36.822 57.7921 36.4685 57.7921 36.0324V33.3707C57.7921 32.9346 57.4385 32.5811 57.0024 32.5811Z" fill="#52BD94"/>
<path d="M41.8804 43.178H19.0189C18.5828 43.178 18.2292 43.5315 18.2292 43.9676V46.6293C18.2292 47.0654 18.5828 47.4189 19.0189 47.4189H41.8804C42.3165 47.4189 42.67 47.0654 42.67 46.6293V43.9676C42.67 43.5315 42.3165 43.178 41.8804 43.178Z" fill="#52BD94"/>
<path fill-rule="evenodd" clip-rule="evenodd" d="M21.1613 35.4828C21.3618 35.5346 21.5747 35.5058 21.7543 35.4026C21.9339 35.2994 22.0659 35.13 22.1221 34.9306C23.388 30.9681 26.0886 27.6216 29.6943 25.5473C33.3 23.4729 37.5505 22.8205 41.6123 23.718C41.8089 23.7585 42.0135 23.7221 42.184 23.6163C42.3545 23.5105 42.478 23.3433 42.529 23.1492L43.2193 20.5732C43.2463 20.4698 43.2521 20.362 43.2363 20.2562C43.2206 20.1505 43.1836 20.0491 43.1276 19.958C43.0716 19.867 42.9978 19.7882 42.9106 19.7264C42.8234 19.6646 42.7246 19.6211 42.6201 19.5985C37.4872 18.4432 32.1075 19.2645 27.5532 21.8988C22.9989 24.5332 19.6046 28.787 18.0468 33.8124C18.0175 33.9132 18.0086 34.0188 18.0205 34.1231C18.0325 34.2274 18.0652 34.3283 18.1166 34.4198C18.168 34.5113 18.2372 34.5917 18.32 34.6561C18.4028 34.7206 18.4977 34.7679 18.599 34.7953L21.1613 35.4828Z" fill="#52BD94"/>
<path fill-rule="evenodd" clip-rule="evenodd" d="M54.8655 44.506C54.6635 44.4517 54.4481 44.4792 54.2662 44.5826C54.0843 44.6859 53.9504 44.8569 53.8936 45.0583C52.6305 49.0233 49.931 52.373 46.325 54.4501C42.7191 56.5271 38.467 57.1815 34.4034 56.2847C34.2068 56.2435 34.0019 56.2796 33.8312 56.3855C33.6605 56.4914 33.5372 56.659 33.4868 56.8534L32.8103 59.4157C32.7829 59.5193 32.7768 59.6274 32.7923 59.7334C32.8079 59.8394 32.8448 59.9412 32.9008 60.0326C32.9568 60.1239 33.0307 60.203 33.1182 60.265C33.2056 60.3269 33.3047 60.3705 33.4095 60.3931C38.5425 61.5457 43.9214 60.7228 48.4751 58.0883C53.0288 55.4538 56.4233 51.2009 57.9828 46.1765C58.0124 46.0759 58.0216 45.9703 58.0098 45.8661C57.998 45.7619 57.9653 45.6611 57.9139 45.5697C57.8624 45.4783 57.7931 45.3981 57.71 45.334C57.627 45.2699 57.532 45.223 57.4305 45.1963L54.8655 44.506Z" fill="#52BD94"/>
<path d="M50.0943 27.926C51.3783 27.926 52.4191 26.8851 52.4191 25.6012C52.4191 24.3172 51.3783 23.2764 50.0943 23.2764C48.8104 23.2764 47.7695 24.3172 47.7695 25.6012C47.7695 26.8851 48.8104 27.926 50.0943 27.926Z" fill="#52BD94"/>
<path d="M25.9325 56.7209C27.2164 56.7209 28.2573 55.68 28.2573 54.3961C28.2573 53.1121 27.2164 52.0713 25.9325 52.0713C24.6485 52.0713 23.6077 53.1121 23.6077 54.3961C23.6077 55.68 24.6485 56.7209 25.9325 56.7209Z" fill="#52BD94"/>
<path fill-rule="evenodd" clip-rule="evenodd" d="M114.728 35.784C115.575 34.8531 116.611 34.1128 117.766 33.612C118.921 33.1113 120.17 32.8616 121.429 32.8793C123.875 32.8793 125.78 33.6359 126.984 35.0882V33.8844C126.992 33.718 127.061 33.5604 127.178 33.4421C127.296 33.3238 127.453 33.2532 127.619 33.2438H130.844C131.01 33.2538 131.167 33.3246 131.284 33.4428C131.401 33.561 131.47 33.7182 131.479 33.8844V51.7897C131.579 54.3163 130.798 56.7992 129.27 58.8138C127.531 60.9288 124.891 62.0001 121.423 62.0001C116.602 62.0001 112.798 58.9491 112.171 54.5922C112.156 54.435 112.196 54.2775 112.285 54.1469C112.373 54.0163 112.505 53.9208 112.657 53.8771L115.807 53.1371C115.824 53.1358 115.84 53.1358 115.857 53.1371C115.939 53.1246 116.023 53.1285 116.104 53.1486C116.184 53.1686 116.26 53.2045 116.327 53.254C116.394 53.3035 116.45 53.3658 116.492 53.4372C116.535 53.5086 116.563 53.5877 116.575 53.67C116.715 54.8488 117.291 55.9327 118.189 56.7095C119.087 57.4862 120.242 57.8999 121.429 57.8696C125.195 57.8696 126.951 55.9368 126.951 51.8974V50.3291C126.26 51.1035 125.407 51.7166 124.453 52.125C123.498 52.5335 122.466 52.7272 121.429 52.6926C116.07 52.6926 112.182 48.5317 112.182 42.8053C112.134 40.2308 113.041 37.7297 114.728 35.784V35.784ZM177.263 32.6336H177.431C183.193 32.7109 186.763 36.7227 186.763 43.1422C186.763 43.4825 186.744 43.8226 186.708 44.161C186.69 44.3126 186.617 44.4523 186.503 44.554C186.389 44.6556 186.242 44.7123 186.09 44.7132H172.392C172.433 46.0959 173.017 47.4069 174.016 48.3632C175.016 49.3194 176.351 49.8441 177.735 49.8239C178.818 49.8915 179.892 49.5902 180.782 48.9689C181.672 48.3476 182.326 47.4432 182.636 46.4029C182.693 46.2508 182.807 46.1266 182.953 46.0562C183.1 45.9857 183.268 45.9745 183.422 46.0247L186.148 46.991C186.226 47.0168 186.299 47.0588 186.36 47.1145C186.422 47.1702 186.47 47.2382 186.504 47.3141C186.541 47.3874 186.563 47.4675 186.569 47.5496C186.575 47.6316 186.564 47.714 186.537 47.7918C185.919 49.623 184.729 51.2073 183.142 52.3109C181.555 53.4144 179.656 53.979 177.724 53.9213C176.436 53.9338 175.159 53.6909 173.966 53.2065C172.773 52.7222 171.688 52.006 170.774 51.0995C169.776 50.0502 168.998 48.8121 168.486 47.458C167.973 46.1038 167.736 44.6609 167.789 43.2139C167.789 36.5874 172.605 32.6198 177.257 32.6198L177.263 32.6336ZM99.7655 32.6336C105.63 32.6336 109.275 36.662 109.275 43.1449C109.274 43.4853 109.256 43.8253 109.219 44.1637C109.203 44.316 109.131 44.4568 109.016 44.5588C108.902 44.6608 108.754 44.7168 108.601 44.7159H94.9033C94.9417 46.1064 95.5284 47.4253 96.5355 48.3849C97.5426 49.3444 98.8884 49.8666 100.279 49.8377C101.363 49.9064 102.437 49.6054 103.328 48.984C104.218 48.3626 104.871 47.4575 105.18 46.4167C105.236 46.2633 105.349 46.1378 105.496 46.0671C105.643 45.9964 105.812 45.9861 105.967 46.0385L108.703 47.0021C108.782 47.0275 108.855 47.0694 108.916 47.1252C108.977 47.1809 109.026 47.249 109.059 47.3251C109.091 47.4009 109.107 47.482 109.107 47.564C109.107 47.6459 109.091 47.7271 109.059 47.8028C108.441 49.6332 107.252 51.2167 105.666 52.3202C104.081 53.4237 102.183 53.9888 100.251 53.9323C98.9618 53.9462 97.6822 53.704 96.4869 53.2196C95.2916 52.7352 94.2043 52.0183 93.2881 51.1105C92.2922 50.06 91.5154 48.8217 91.0029 47.4678C90.4905 46.114 90.2527 44.6717 90.3034 43.225C90.3034 36.5985 95.1187 32.6309 99.7738 32.6309L99.7655 32.6336ZM79.0191 32.6336C81.6503 32.6336 83.7791 33.2714 85.3556 34.5332C86.4203 35.3824 87.2099 36.5275 87.6252 37.8244C87.6383 37.8795 87.6403 37.9367 87.6311 37.9926C87.6219 38.0485 87.6016 38.102 87.5716 38.15C87.5415 38.1981 87.5023 38.2397 87.456 38.2724C87.4098 38.3051 87.3575 38.3283 87.3022 38.3407L84.0359 39.4203C83.8909 39.4755 83.7308 39.4755 83.5858 39.4203C83.5242 39.3918 83.4694 39.3505 83.4251 39.299C83.3808 39.2476 83.348 39.1872 83.329 39.1221C83.0529 38.0646 82.1031 36.2892 79.0135 36.2892C76.8572 36.2892 75.565 37.5262 75.565 38.7245C75.565 39.5197 75.9764 40.544 77.9202 40.914L81.5095 41.5877C85.5213 42.3967 87.8185 44.5917 87.8185 47.6482V47.5957C87.8185 50.6329 84.8973 53.8771 79.4691 53.8771C73.1739 53.8771 70.7 50.3153 70.2445 48.2142C70.2294 48.1044 70.255 47.993 70.3166 47.9009C70.3782 47.8088 70.4714 47.7425 70.5785 47.7144L73.947 46.6652C74.0073 46.6542 74.069 46.6542 74.1292 46.6652C74.2254 46.6635 74.3204 46.6863 74.4053 46.7315C74.4664 46.7609 74.5204 46.8033 74.5633 46.8558C74.6062 46.9083 74.6371 46.9695 74.6538 47.0352C75.079 49.0563 76.9041 50.2601 79.5298 50.2601C81.9734 50.2601 83.0861 48.9818 83.0861 47.8221C83.0861 46.6625 82.0949 45.8093 80.3913 45.467L76.6142 44.7325C73.0911 44.0671 70.8961 41.8776 70.8961 39.0282C70.8961 35.5603 74.6207 32.6336 79.0191 32.6336ZM217.775 27.0149C217.947 27.0254 218.108 27.1011 218.225 27.2263C218.343 27.3515 218.408 27.5169 218.408 27.6886V33.2107H221.95C222.12 33.2232 222.279 33.2996 222.396 33.4245C222.512 33.5495 222.577 33.7137 222.577 33.8844V36.8276C222.578 36.9951 222.512 37.1561 222.395 37.2756C222.277 37.395 222.117 37.4633 221.95 37.4654H218.408V47.292C218.408 48.921 219.054 49.5947 220.716 49.5947C221.095 49.5884 221.473 49.557 221.848 49.5008C221.939 49.4854 222.032 49.4899 222.12 49.5143C222.209 49.5386 222.291 49.5821 222.361 49.6416C222.428 49.7038 222.482 49.7789 222.519 49.8625C222.556 49.946 222.576 50.0362 222.577 50.1276V52.8886C222.578 53.026 222.534 53.1601 222.453 53.2706C222.371 53.3811 222.256 53.4622 222.124 53.5016C221.316 53.7282 220.479 53.837 219.639 53.8246C216.088 53.8246 213.888 51.5412 213.888 47.858V37.5069H210.823C210.657 37.4968 210.501 37.4259 210.384 37.3077C210.268 37.1894 210.199 37.0322 210.191 36.8663V33.9175C210.19 33.7456 210.255 33.5798 210.372 33.4545C210.49 33.3291 210.651 33.2537 210.823 33.2438H211.618C212.582 33.2438 214.205 32.907 214.205 30.6098V27.6886C214.204 27.5167 214.269 27.3509 214.387 27.2256C214.505 27.1002 214.666 27.0248 214.838 27.0149H217.775ZM151.289 35.9248C151.982 34.8664 152.938 34.0064 154.063 33.4294C155.189 32.8523 156.445 32.5781 157.709 32.6336V32.6336C161.21 32.6336 164.747 35.0992 164.747 40.486V52.9549C164.738 53.1211 164.669 53.2783 164.552 53.3965C164.434 53.5146 164.278 53.5855 164.112 53.5955H160.884C160.718 53.5848 160.562 53.5137 160.446 53.3956C160.329 53.2775 160.26 53.1206 160.252 52.9549V40.8864C160.252 39.3595 159.774 36.7862 156.541 36.7862C154.177 36.7862 152.499 38.6444 152.499 41.3392V52.9549C152.491 53.1208 152.422 53.278 152.305 53.3963C152.189 53.5145 152.032 53.5854 151.866 53.5955H148.597C148.431 53.5855 148.275 53.5146 148.158 53.3965C148.04 53.2783 147.971 53.1211 147.962 52.9549V40.8864C147.968 39.3595 147.493 36.7752 144.257 36.7752C141.8 36.7752 140.143 38.6196 140.143 41.3668V52.9549C140.135 53.1206 140.065 53.2775 139.949 53.3956C139.832 53.5137 139.676 53.5848 139.511 53.5955H136.286C136.121 53.5841 135.966 53.5126 135.851 53.3945C135.735 53.2764 135.667 53.12 135.659 52.9549V33.843C135.667 33.6781 135.736 33.522 135.851 33.404C135.967 33.286 136.121 33.2143 136.286 33.2024H139.389C139.555 33.213 139.711 33.2841 139.827 33.4023C139.944 33.5204 140.013 33.6772 140.022 33.843V34.9943C140.713 34.2381 141.556 33.6367 142.497 33.2298C143.437 32.823 144.453 32.6198 145.477 32.6336C146.654 32.5992 147.818 32.8877 148.843 33.4679C149.867 34.0481 150.714 34.8978 151.289 35.9248V35.9248ZM200.466 32.6336C201.499 32.5895 202.527 32.7805 203.475 33.1924C204.422 33.6042 205.264 34.226 205.936 35.0109C207.19 36.661 207.827 38.6972 207.739 40.7677V52.9549C207.732 53.1197 207.664 53.2761 207.549 53.3943C207.434 53.5125 207.28 53.5841 207.115 53.5955H203.849C203.683 53.5849 203.526 53.5139 203.409 53.3958C203.292 53.2778 203.223 53.1209 203.214 52.9549V41.4193C203.214 38.4014 201.794 36.8663 199.1 36.8663C198.513 36.8474 197.93 36.9667 197.398 37.2147C196.866 37.4627 196.4 37.8323 196.038 38.2938C195.307 39.3446 194.938 40.6043 194.986 41.8831V52.9549C194.977 53.1206 194.908 53.2775 194.792 53.3956C194.675 53.5137 194.519 53.5848 194.353 53.5955H191.093C190.927 53.5848 190.771 53.5137 190.654 53.3956C190.538 53.2775 190.469 53.1206 190.46 52.9549V33.8291C190.467 33.6625 190.535 33.5043 190.652 33.3854C190.769 33.2664 190.926 33.1953 191.093 33.1858H194.279C194.443 33.1965 194.598 33.2674 194.714 33.3851C194.83 33.5027 194.898 33.6589 194.906 33.8236V35.171C195.581 34.356 196.432 33.7043 197.395 33.2649C198.358 32.8255 199.408 32.6097 200.466 32.6336ZM121.989 36.9077C118.808 36.9077 116.79 39.169 116.79 42.8053C116.79 46.4416 118.784 48.7001 121.989 48.7001C125.046 48.7001 127.105 46.3284 127.105 42.8053C127.105 39.2822 125.046 36.9077 121.989 36.9077ZM99.7987 36.7255C98.6251 36.7052 97.4861 37.1236 96.6047 37.8988C95.7233 38.674 95.1629 39.7502 95.0331 40.9167H104.614C104.385 38.3297 102.546 36.7255 99.7987 36.7255V36.7255ZM177.315 36.7255C176.142 36.7072 175.005 37.1265 174.125 37.9014C173.245 38.6763 172.685 39.7514 172.555 40.9167H182.139C181.901 38.3297 180.073 36.7255 177.312 36.7255H177.315Z" fill="#52BD94"/>
<path d="M75.6478 19.7091V26.1313H73.8283V19.7091H71.313V18.1519H78.1908V19.7091H75.6478Z" fill="#52BD94"/>
<path d="M89.5469 26.1589H87.6556L85.9216 20.2779L84.1573 26.1589H82.3047L79.9578 18.1519H81.8905L83.3787 23.9197L85.0574 18.1519H86.9901L88.6468 23.9197L90.088 18.1519H91.8661L89.5469 26.1589Z" fill="#52BD94"/>
<path d="M94.3706 26.1313V18.1519H96.1625V26.1313H94.3706Z" fill="#52BD94"/>
<path d="M99.3872 26.1313V18.1519H101.207V24.5602H104.321V26.1313H99.3872Z" fill="#52BD94"/>
<path d="M107.033 26.1313V18.1519H108.838V26.1313H107.033Z" fill="#52BD94"/>
<path d="M115.595 26.2832C113.386 26.2832 111.619 24.6984 111.619 22.1555C111.619 19.6126 113.411 18.0139 115.608 18.0139C117.806 18.0139 119.582 19.5988 119.582 22.1555C119.582 24.7122 117.803 26.2832 115.595 26.2832ZM115.595 19.4745C114.214 19.4745 113.411 20.6121 113.411 22.1417C113.411 23.6713 114.239 24.8227 115.595 24.8227C116.95 24.8227 117.748 23.6575 117.748 22.1555C117.748 20.6535 116.942 19.4745 115.608 19.4745H115.595Z" fill="#52BD94"/>
</g>
<defs>
<clipPath id="clip0_358_1380">
<rect width="204.577" height="44" fill="white" transform="translate(18 18)"/>
</clipPath>
</defs>
</svg>
