<svg width="240" height="80" viewBox="0 0 240 80" fill="none" xmlns="http://www.w3.org/2000/svg">
<path fill-rule="evenodd" clip-rule="evenodd" d="M64.736 33.8585C62.5331 33.8519 60.3976 34.6186 58.702 36.0249V34.0766H53.1914V55.5374H58.9201V41.8263C59.5362 41.0247 60.3229 40.3701 61.2231 39.9099C62.1234 39.4497 63.1147 39.1954 64.1254 39.1656C64.907 39.1229 65.689 39.2417 66.4227 39.5145V34.0039C65.866 33.9044 65.3015 33.8557 64.736 33.8585" fill="#293E40"/>
<path fill-rule="evenodd" clip-rule="evenodd" d="M14.7771 48.9945C16.4044 50.3665 18.4646 51.1184 20.593 51.1173C22.1343 51.1173 23.3265 50.3612 23.3265 49.2998C23.3701 46.0719 13.0178 47.2642 13.0178 40.3142C13.0178 36.1994 16.9872 33.6404 21.2183 33.6404C23.8011 33.6375 26.3283 34.3906 28.4882 35.8068L25.7547 39.9943C24.5684 39.1025 23.1376 38.5951 21.6544 38.5403C20.0696 38.5403 18.7465 39.1655 18.7465 40.2706C18.7465 43.0622 29.0988 41.9572 29.0988 49.387C29.0988 53.4582 25.0858 55.9881 20.593 55.9881C17.4953 55.9401 14.4903 54.9232 12 53.0801L14.7771 48.9945Z" fill="#293E40"/>
<path fill-rule="evenodd" clip-rule="evenodd" d="M50.7486 44.6034C50.7486 38.6275 46.5612 33.6404 40.6434 33.6404C34.3041 33.6404 30.2475 38.8602 30.2475 44.8215C30.1811 46.3081 30.4255 47.7921 30.9651 49.1789C31.5046 50.5657 32.3274 51.8247 33.381 52.8755C34.4346 53.9263 35.6957 54.7459 37.0839 55.2818C38.4721 55.8178 39.9568 56.0583 41.4431 55.9881C43.0859 56.0006 44.7126 55.665 46.2163 55.0034C47.7199 54.3418 49.0664 53.3692 50.167 52.1496L46.8956 48.849C46.212 49.6038 45.3833 50.2129 44.4589 50.6401C43.5346 51.0673 42.5336 51.3038 41.5158 51.3354C40.079 51.3937 38.6747 50.8983 37.5925 49.9513C36.5103 49.0044 35.8328 47.6782 35.6999 46.2464H50.6032C50.6988 45.7039 50.7474 45.1542 50.7486 44.6034ZM36.0634 42.0444C36.2697 40.982 36.8399 40.0248 37.6758 39.3374C38.5118 38.6501 39.5612 38.2757 40.6434 38.2786C41.6877 38.2787 42.6955 38.6622 43.4755 39.3565C44.2555 40.0507 44.7534 41.0072 44.8745 42.0444H36.0634Z" fill="#293E40"/>
<path fill-rule="evenodd" clip-rule="evenodd" d="M80.0754 47.177L85.9349 34.0767H91.8963L82.0528 55.5374H78.098L68.269 34.0767H74.2158L80.0754 47.177Z" fill="#293E40"/>
<path fill-rule="evenodd" clip-rule="evenodd" d="M96.6945 24.0005C97.4195 24.0119 98.1249 24.2374 98.7221 24.6485C99.3194 25.0596 99.7818 25.638 100.051 26.3111C100.321 26.9842 100.385 27.722 100.237 28.4317C100.089 29.1414 99.7337 29.7914 99.217 30.3C98.7003 30.8087 98.0448 31.1533 97.3329 31.2906C96.6209 31.4279 95.8843 31.3517 95.2155 31.0717C94.5467 30.7916 93.9756 30.3202 93.5739 29.7166C93.1722 29.113 92.9579 28.4041 92.9578 27.679C92.9577 27.191 93.0547 26.7079 93.2432 26.2577C93.4317 25.8076 93.7079 25.3995 94.0557 25.0571C94.4034 24.7148 94.8159 24.445 95.2689 24.2636C95.7219 24.0822 96.2066 23.9927 96.6945 24.0005" fill="#293E40"/>
<path d="M99.5588 34.0767H93.8301V55.5374H99.5588V34.0767Z" fill="#293E40"/>
<path fill-rule="evenodd" clip-rule="evenodd" d="M123.259 51.1608C122.174 52.7115 120.718 53.9658 119.024 54.809C117.33 55.6523 115.452 56.0576 113.561 55.988C110.599 55.988 107.759 54.8116 105.665 52.7174C103.571 50.6233 102.394 47.783 102.394 44.8214C102.394 41.8599 103.571 39.0196 105.665 36.9255C107.759 34.8313 110.599 33.6549 113.561 33.6549C115.294 33.6488 117.006 34.0387 118.565 34.7946C120.125 35.5505 121.492 36.6526 122.561 38.0168L118.548 41.4482C117.98 40.6663 117.237 40.0279 116.379 39.5836C115.521 39.1393 114.571 38.9016 113.604 38.8892C112.834 38.8891 112.072 39.0419 111.362 39.3388C110.651 39.6356 110.007 40.0705 109.466 40.6183C108.925 41.166 108.498 41.8158 108.21 42.5298C107.922 43.2439 107.779 44.008 107.788 44.7778C107.766 45.5552 107.903 46.3289 108.193 47.0506C108.483 47.7723 108.918 48.4265 109.472 48.9723C110.026 49.5181 110.687 49.9438 111.413 50.2228C112.139 50.5018 112.915 50.6281 113.691 50.5938C114.711 50.5744 115.711 50.3059 116.603 49.8118C117.495 49.3176 118.252 48.6127 118.81 47.7585L123.259 51.1608Z" fill="#293E40"/>
<path fill-rule="evenodd" clip-rule="evenodd" d="M144.065 52.135C142.965 53.3546 141.618 54.3272 140.114 54.9889C138.611 55.6505 136.984 55.9861 135.341 55.9736C133.857 56.0414 132.374 55.7997 130.988 55.2638C129.602 54.728 128.343 53.9097 127.29 52.8609C126.237 51.8121 125.414 50.5558 124.872 49.1718C124.331 47.7878 124.084 46.3063 124.146 44.8215C124.146 38.8602 128.202 33.6404 134.556 33.6404C140.459 33.6404 144.647 38.6275 144.647 44.6034C144.65 45.1538 144.606 45.7035 144.516 46.2464H129.656C129.789 47.6782 130.467 49.0044 131.549 49.9513C132.631 50.8983 134.035 51.3937 135.472 51.3354C136.49 51.3038 137.491 51.0673 138.415 50.6401C139.34 50.2129 140.168 49.6038 140.852 48.849L144.065 52.135ZM138.744 42.0444C138.602 41.0159 138.098 40.0716 137.322 39.3813C136.547 38.691 135.551 38.3 134.512 38.2786C133.428 38.2723 132.375 38.6451 131.536 39.3328C130.697 40.0204 130.125 40.9795 129.918 42.0444H138.744Z" fill="#293E40"/>
<path fill-rule="evenodd" clip-rule="evenodd" d="M146.872 55.5372V34.0765H152.382V35.8067C154.081 34.396 156.223 33.629 158.431 33.6403C159.842 33.6362 161.236 33.9428 162.515 34.5384C163.794 35.1339 164.926 36.0038 165.832 37.0862C167.286 38.7728 168.042 40.9393 168.042 44.6033V55.5372H162.298V44.1671C162.378 43.4448 162.306 42.7138 162.089 42.0206C161.871 41.3273 161.512 40.6868 161.033 40.1396C160.157 39.3309 158.997 38.9022 157.806 38.9473C156.798 38.9766 155.81 39.2291 154.913 39.6868C154.015 40.1444 153.23 40.7957 152.615 41.5935V55.5372H146.872Z" fill="#293E40"/>
<path fill-rule="evenodd" clip-rule="evenodd" d="M182.785 33.6404C180.272 33.6375 177.816 34.389 175.735 35.7977C173.655 37.2065 172.045 39.2075 171.114 41.5416C170.184 43.8757 169.975 46.4355 170.516 48.8893C171.057 51.3432 172.322 53.5781 174.148 55.3047C174.577 55.7138 175.138 55.9561 175.73 55.9881C176.322 56.0201 176.905 55.8396 177.376 55.4792C178.92 54.3286 180.794 53.7071 182.719 53.7071C184.645 53.7071 186.519 54.3286 188.063 55.4792C188.537 55.8388 189.124 56.0173 189.719 55.9827C190.313 55.948 190.876 55.7025 191.305 55.2902C193.119 53.5695 194.377 51.3464 194.918 48.9059C195.46 46.4654 195.26 43.9187 194.344 41.5925C193.429 39.2663 191.84 37.2666 189.78 35.8498C187.72 34.4329 185.284 33.6636 182.785 33.6404V33.6404ZM182.785 52.4404C181.96 52.4624 181.139 52.3161 180.372 52.0104C179.605 51.7048 178.909 51.2461 178.325 50.6624C177.741 50.0788 177.283 49.3824 176.977 48.6156C176.671 47.8489 176.525 47.0279 176.547 46.2028C176.506 45.3574 176.638 44.5124 176.933 43.7193C177.228 42.9261 177.682 42.2011 178.266 41.5883C178.85 40.9756 179.552 40.4878 180.33 40.1544C181.108 39.8211 181.946 39.6493 182.792 39.6493C183.638 39.6493 184.476 39.8211 185.254 40.1544C186.032 40.4878 186.734 40.9756 187.318 41.5883C187.902 42.2011 188.356 42.9261 188.651 43.7193C188.946 44.5124 189.078 45.3574 189.037 46.2028C189.059 47.0292 188.912 47.8514 188.606 48.6191C188.299 49.3869 187.839 50.084 187.254 50.6679C186.669 51.2517 185.97 51.7101 185.202 52.0148C184.434 52.3196 183.611 52.4644 182.785 52.4404" fill="#81B5A1"/>
<path fill-rule="evenodd" clip-rule="evenodd" d="M206.557 55.5374H202.283L193.777 34.0767H199.491L204.158 46.3483L208.738 34.0767H213.522L218.058 46.3483L222.755 34.0767H228.483L219.963 55.5374H215.703L211.123 43.324L206.557 55.5374Z" fill="#293E40"/>
<path d="M225.343 52.8184V53.2836H224.616V55.5373H224.092V53.2836H223.365V52.8184H225.343Z" fill="#293E40"/>
<path d="M227.117 54.4468L228.105 52.8184H228.483V55.5373H227.96V54.0106L227.306 55.0866H226.928L226.288 54.0106V55.5373H225.75V52.8184H226.128L227.117 54.4468Z" fill="#293E40"/>
</svg>
