<svg width="525" height="525" viewBox="0 0 525 525" fill="none" xmlns="http://www.w3.org/2000/svg">
<path d="M225.364 337.806L224.398 343.717L223.369 350.07L213.919 407.998H198.473L207.913 350.07L208.952 343.717L209.918 337.806H225.364Z" fill="#EBEBEB"/>
<path d="M223.127 337.806C222.308 343.675 221.437 349.534 220.555 355.383L217.825 372.949L214.969 390.484L213.499 399.241L211.966 407.998L213.226 399.199L214.538 390.411L217.3 372.855L220.156 355.32C221.09 349.471 222.077 343.633 223.127 337.806Z" fill="#C7C7C7"/>
<path d="M224.398 343.717L223.369 350.07H207.913L208.952 343.717H224.398Z" fill="#C7C7C7"/>
<path d="M301.636 337.806L302.602 343.717L303.631 350.07L313.081 407.998H328.526L319.087 350.07L318.047 343.717L317.081 337.806H301.636Z" fill="#EBEBEB"/>
<path d="M303.925 337.806C304.733 343.675 305.615 349.534 306.497 355.383L309.217 372.949L312.073 390.484L313.553 399.241L315.086 407.998L313.826 399.199L312.514 390.411L309.784 372.855L306.928 355.32C305.951 349.471 304.964 343.633 303.925 337.806Z" fill="#C7C7C7"/>
<path d="M302.602 343.717H318.047L319.087 350.07H303.631L302.602 343.717Z" fill="#C7C7C7"/>
<path d="M224.797 321.51H212.554L214.076 310.086H223.274L224.797 321.51Z" fill="#C7C7C7"/>
<path d="M229.923 303.93C231.019 297.722 226.875 291.802 220.667 290.706C214.459 289.61 208.539 293.754 207.443 299.962C206.348 306.169 210.492 312.09 216.699 313.186C222.907 314.281 228.827 310.137 229.923 303.93Z" fill="#DBDBDB"/>
<path d="M227.125 303.932C228.231 299.265 225.344 294.586 220.678 293.48C216.011 292.375 211.332 295.261 210.226 299.928C209.12 304.594 212.007 309.274 216.673 310.379C221.34 311.485 226.019 308.599 227.125 303.932Z" fill="white"/>
<path d="M225.931 301.423C225.85 300.388 225.557 299.382 225.069 298.466C224.581 297.55 223.909 296.744 223.096 296.1C222.277 295.464 221.337 295.001 220.333 294.739C219.33 294.477 218.283 294.422 217.258 294.577C216.24 294.737 215.267 295.11 214.402 295.671C213.537 296.232 212.8 296.968 212.239 297.832C211.646 298.756 211.258 299.797 211.1 300.883C210.943 301.97 211.019 303.078 211.325 304.132C211.847 305.954 213.065 307.497 214.717 308.427C216.328 309.341 218.218 309.633 220.03 309.246C221.782 308.871 223.353 307.907 224.482 306.516C225.596 305.14 226.24 303.444 226.319 301.675C226.319 301.602 226.319 301.528 226.246 301.528C226.172 301.528 226.172 301.591 226.172 301.675C226.132 302.391 225.995 303.097 225.763 303.775C225.521 304.441 225.2 305.076 224.807 305.665C224.393 306.237 223.914 306.758 223.379 307.219C222.83 307.678 222.227 308.07 221.584 308.385C220.659 308.82 219.655 309.058 218.633 309.083C217.612 309.109 216.596 308.921 215.651 308.532C214.704 308.13 213.854 307.528 213.162 306.767C212.47 306.005 211.95 305.103 211.64 304.122C211.322 303.114 211.224 302.049 211.355 300.999C211.485 299.95 211.84 298.942 212.396 298.042C212.933 297.189 213.647 296.461 214.489 295.906C215.331 295.352 216.283 294.985 217.279 294.829C218.625 294.615 220.003 294.769 221.269 295.273C222.535 295.778 223.641 296.615 224.471 297.696C224.871 298.253 225.195 298.86 225.437 299.502C225.671 300.153 225.826 300.83 225.899 301.518C225.899 301.518 225.899 301.518 225.899 301.518C225.899 301.518 225.931 301.455 225.931 301.423Z" fill="#EBEBEB"/>
<path d="M224.912 301.434C224.837 300.548 224.58 299.687 224.158 298.905C223.735 298.122 223.155 297.436 222.455 296.887C221.753 296.348 220.951 295.953 220.094 295.726C219.238 295.498 218.345 295.444 217.468 295.564C216.591 295.695 215.751 296.01 215.004 296.487C214.256 296.965 213.618 297.595 213.131 298.336C212.613 299.127 212.271 300.02 212.126 300.955C211.981 301.889 212.037 302.844 212.291 303.754C212.508 304.543 212.88 305.281 213.385 305.924C213.889 306.568 214.517 307.104 215.231 307.503C216.634 308.305 218.286 308.552 219.862 308.196C221.382 307.868 222.743 307.026 223.715 305.812C224.678 304.617 225.234 303.146 225.301 301.612C225.301 301.549 225.301 301.486 225.238 301.486C225.175 301.486 225.154 301.539 225.154 301.612C225.068 302.843 224.655 304.028 223.957 305.045C223.259 306.063 222.302 306.875 221.185 307.398C220.39 307.785 219.522 307.998 218.639 308.023C217.755 308.048 216.877 307.885 216.061 307.545C215.24 307.198 214.505 306.676 213.907 306.016C213.309 305.356 212.861 304.573 212.596 303.723C212.323 302.85 212.244 301.928 212.364 301.022C212.484 300.115 212.799 299.245 213.289 298.473C213.751 297.744 214.366 297.125 215.091 296.657C215.817 296.19 216.635 295.885 217.489 295.764C218.632 295.594 219.8 295.73 220.873 296.158C221.946 296.586 222.887 297.29 223.6 298.2C223.943 298.674 224.225 299.189 224.44 299.733C224.637 300.291 224.774 300.868 224.849 301.455L224.912 301.434Z" fill="#EBEBEB"/>
<path d="M223.894 301.445C223.818 300.707 223.593 299.992 223.232 299.344C222.871 298.695 222.382 298.128 221.794 297.675C220.613 296.777 219.128 296.378 217.657 296.562C216.92 296.659 216.213 296.912 215.581 297.303C214.949 297.694 214.408 298.214 213.992 298.83C213.543 299.495 213.242 300.249 213.11 301.041C212.977 301.833 213.017 302.643 213.226 303.419C213.402 304.094 213.714 304.727 214.142 305.279C214.569 305.832 215.104 306.292 215.714 306.632C216.918 307.304 218.329 307.507 219.673 307.199C220.969 306.897 222.119 306.155 222.928 305.099C223.728 304.085 224.197 302.849 224.272 301.56C224.272 301.497 224.272 301.445 224.198 301.445C224.186 301.446 224.174 301.45 224.163 301.456C224.152 301.462 224.142 301.47 224.134 301.479C224.127 301.489 224.121 301.5 224.117 301.512C224.114 301.525 224.113 301.537 224.114 301.55C224.033 302.583 223.681 303.577 223.096 304.432C222.51 305.286 221.71 305.973 220.775 306.422C220.106 306.752 219.374 306.936 218.628 306.962C217.882 306.987 217.139 306.853 216.449 306.569C215.752 306.28 215.127 305.84 214.621 305.281C214.114 304.722 213.738 304.057 213.52 303.335C213.302 302.599 213.246 301.825 213.355 301.066C213.463 300.307 213.735 299.58 214.15 298.935C214.546 298.334 215.067 297.827 215.678 297.446C216.289 297.065 216.975 296.821 217.688 296.73C218.632 296.619 219.589 296.73 220.481 297.056C221.38 297.396 222.168 297.977 222.76 298.736C223.052 299.122 223.292 299.546 223.474 299.996C223.65 300.456 223.774 300.935 223.841 301.424V301.424C223.841 301.424 223.904 301.455 223.894 301.445Z" fill="#EBEBEB"/>
<path d="M222.886 301.455C222.731 300.271 222.116 299.196 221.174 298.462C220.232 297.757 219.058 297.435 217.888 297.559C217.293 297.629 216.718 297.823 216.203 298.128C215.687 298.434 215.242 298.845 214.895 299.334C214.519 299.873 214.263 300.487 214.143 301.133C214.024 301.78 214.044 302.444 214.202 303.082C214.342 303.644 214.595 304.171 214.948 304.63C215.3 305.089 215.743 305.47 216.25 305.749C217.248 306.302 218.416 306.463 219.526 306.201C220.581 305.945 221.518 305.338 222.182 304.479C222.814 303.64 223.18 302.63 223.232 301.581C223.234 301.57 223.233 301.559 223.23 301.548C223.227 301.537 223.222 301.527 223.215 301.518C223.209 301.509 223.2 301.502 223.19 301.497C223.181 301.491 223.17 301.488 223.159 301.486C223.159 301.486 223.085 301.486 223.075 301.57C223.012 302.402 222.738 303.204 222.279 303.901C221.819 304.597 221.19 305.165 220.45 305.55C219.909 305.832 219.314 305.994 218.704 306.023C218.095 306.052 217.487 305.948 216.922 305.718C216.349 305.482 215.837 305.119 215.424 304.658C215.012 304.196 214.709 303.646 214.538 303.051C214.37 302.454 214.334 301.827 214.432 301.214C214.53 300.601 214.759 300.017 215.105 299.502C215.43 299.028 215.853 298.629 216.346 298.334C216.839 298.039 217.39 297.853 217.961 297.79C218.708 297.723 219.461 297.82 220.166 298.074C220.875 298.336 221.502 298.782 221.983 299.365C222.214 299.674 222.407 300.009 222.56 300.363C222.709 300.732 222.819 301.115 222.886 301.507V301.507V301.455Z" fill="#EBEBEB"/>
<path d="M314.183 321.51H301.93L303.452 310.086H312.661L314.183 321.51Z" fill="#C7C7C7"/>
<path d="M319.53 302.933C320.475 296.692 316.183 290.867 309.942 289.921C303.702 288.976 297.877 293.268 296.931 299.509C295.985 305.749 300.278 311.575 306.518 312.52C312.759 313.466 318.584 309.173 319.53 302.933Z" fill="#DBDBDB"/>
<path d="M316.633 303.234C317.356 298.493 314.099 294.064 309.358 293.341C304.617 292.618 300.187 295.875 299.464 300.616C298.742 305.357 301.999 309.786 306.74 310.509C311.481 311.232 315.91 307.975 316.633 303.234Z" fill="white"/>
<path d="M315.317 301.424C315.235 300.389 314.941 299.383 314.453 298.467C313.965 297.552 313.294 296.746 312.482 296.1C311.663 295.465 310.723 295.002 309.719 294.74C308.716 294.479 307.67 294.423 306.644 294.578C305.626 294.738 304.653 295.111 303.789 295.671C302.924 296.232 302.187 296.968 301.625 297.833C301.028 298.755 300.637 299.795 300.48 300.883C300.322 301.97 300.401 303.079 300.712 304.133C301.229 305.957 302.449 307.501 304.103 308.427C305.714 309.343 307.605 309.634 309.416 309.246C311.169 308.871 312.74 307.908 313.868 306.516C314.983 305.141 315.627 303.444 315.706 301.676C315.706 301.602 315.706 301.529 315.632 301.529C315.559 301.529 315.559 301.592 315.548 301.676C315.507 302.39 315.373 303.096 315.149 303.776C314.909 304.444 314.584 305.079 314.183 305.666C313.362 306.836 312.252 307.773 310.96 308.385C310.038 308.824 309.035 309.063 308.015 309.088C306.994 309.114 305.98 308.924 305.038 308.532C304.089 308.131 303.238 307.529 302.543 306.768C301.849 306.007 301.328 305.104 301.016 304.122C300.699 303.113 300.604 302.048 300.736 300.999C300.868 299.949 301.225 298.941 301.783 298.043C302.32 297.189 303.034 296.461 303.876 295.907C304.718 295.353 305.669 294.985 306.665 294.83C308.011 294.616 309.39 294.769 310.656 295.274C311.922 295.778 313.028 296.615 313.858 297.696C314.253 298.256 314.578 298.862 314.824 299.502C315.054 300.154 315.206 300.83 315.275 301.518C315.275 301.518 315.275 301.518 315.275 301.518C315.275 301.518 315.317 301.455 315.317 301.424Z" fill="#EBEBEB"/>
<path d="M314.299 301.434C314.219 300.549 313.96 299.69 313.538 298.908C313.115 298.127 312.538 297.439 311.842 296.887C311.14 296.348 310.337 295.953 309.481 295.726C308.625 295.498 307.732 295.444 306.854 295.564C305.975 295.694 305.134 296.008 304.384 296.485C303.635 296.963 302.996 297.594 302.507 298.336C301.989 299.127 301.647 300.02 301.502 300.955C301.357 301.889 301.413 302.844 301.667 303.754C301.884 304.543 302.256 305.281 302.761 305.924C303.265 306.568 303.893 307.104 304.607 307.503C306.011 308.303 307.662 308.55 309.238 308.196C310.762 307.87 312.127 307.028 313.102 305.812C314.06 304.615 314.615 303.145 314.687 301.612C314.687 301.549 314.687 301.486 314.614 301.486C314.54 301.486 314.54 301.539 314.53 301.612C314.446 302.842 314.035 304.027 313.339 305.044C312.643 306.062 311.687 306.874 310.571 307.398C309.777 307.785 308.909 307.998 308.025 308.023C307.142 308.048 306.263 307.885 305.447 307.545C304.625 307.2 303.887 306.679 303.287 306.018C302.686 305.358 302.238 304.575 301.972 303.723C301.703 302.849 301.626 301.928 301.745 301.022C301.865 300.116 302.179 299.247 302.665 298.473C303.129 297.746 303.745 297.128 304.47 296.661C305.194 296.193 306.011 295.887 306.865 295.764C308.011 295.589 309.183 295.722 310.261 296.151C311.339 296.579 312.283 297.286 312.997 298.2C313.344 298.671 313.626 299.187 313.837 299.733C314.043 300.288 314.181 300.866 314.246 301.455C314.256 301.455 314.266 301.453 314.275 301.45C314.284 301.446 314.292 301.441 314.299 301.434V301.434Z" fill="#EBEBEB"/>
<path d="M313.28 301.444C313.2 300.707 312.973 299.994 312.612 299.347C312.251 298.699 311.765 298.131 311.18 297.675C309.999 296.779 308.515 296.38 307.043 296.562C306.311 296.662 305.607 296.915 304.979 297.306C304.351 297.697 303.813 298.216 303.4 298.83C302.951 299.495 302.65 300.249 302.516 301.04C302.382 301.831 302.418 302.642 302.623 303.418C302.805 304.093 303.119 304.725 303.548 305.277C303.977 305.828 304.512 306.289 305.122 306.631C306.322 307.303 307.729 307.505 309.07 307.198C310.368 306.897 311.522 306.155 312.335 305.098C313.138 304.086 313.604 302.849 313.669 301.56C313.669 301.497 313.669 301.444 313.606 301.444C313.593 301.445 313.581 301.449 313.57 301.455C313.559 301.461 313.55 301.469 313.542 301.479C313.534 301.489 313.528 301.5 313.525 301.512C313.521 301.524 313.52 301.537 313.522 301.549C313.438 302.582 313.086 303.575 312.5 304.429C311.915 305.284 311.116 305.971 310.183 306.421C309.514 306.752 308.782 306.936 308.036 306.961C307.29 306.987 306.547 306.853 305.857 306.568C305.159 306.28 304.535 305.84 304.028 305.281C303.522 304.721 303.146 304.057 302.927 303.334C302.71 302.599 302.654 301.825 302.762 301.066C302.871 300.306 303.142 299.58 303.557 298.935C303.95 298.333 304.47 297.825 305.079 297.444C305.688 297.063 306.373 296.82 307.085 296.73C308.032 296.618 308.993 296.729 309.889 297.055C310.788 297.396 311.576 297.977 312.167 298.735C312.46 299.122 312.7 299.545 312.881 299.995C313.048 300.459 313.171 300.937 313.249 301.423V301.423C313.257 301.433 313.268 301.441 313.28 301.444V301.444Z" fill="#EBEBEB"/>
<path d="M312.262 301.455C312.189 300.869 312.002 300.303 311.71 299.789C311.418 299.275 311.028 298.825 310.561 298.463C309.618 297.758 308.444 297.436 307.274 297.56C306.678 297.624 306.102 297.816 305.586 298.122C305.07 298.428 304.625 298.842 304.282 299.334C303.906 299.873 303.649 300.487 303.53 301.133C303.41 301.78 303.43 302.444 303.589 303.083C303.728 303.644 303.982 304.171 304.334 304.63C304.686 305.089 305.13 305.47 305.636 305.75C306.631 306.301 307.795 306.462 308.902 306.201C309.959 305.943 310.899 305.337 311.569 304.479C312.201 303.64 312.567 302.63 312.619 301.581C312.622 301.571 312.623 301.56 312.621 301.549C312.62 301.538 312.616 301.528 312.61 301.519C312.604 301.51 312.596 301.502 312.586 301.497C312.577 301.491 312.567 301.488 312.556 301.487C312.534 301.487 312.512 301.495 312.496 301.511C312.481 301.527 312.472 301.548 312.472 301.571C312.395 302.407 312.105 303.209 311.629 303.9C311.152 304.592 310.506 305.149 309.752 305.519C309.213 305.799 308.619 305.96 308.012 305.989C307.405 306.018 306.798 305.915 306.235 305.687C305.662 305.451 305.15 305.088 304.737 304.626C304.325 304.164 304.022 303.615 303.851 303.02C303.683 302.422 303.647 301.795 303.745 301.183C303.843 300.57 304.072 299.986 304.418 299.471C304.743 298.996 305.166 298.597 305.659 298.302C306.152 298.006 306.703 297.821 307.274 297.759C308.018 297.692 308.767 297.788 309.469 298.043C310.18 298.302 310.807 298.748 311.285 299.334C311.523 299.64 311.721 299.975 311.873 300.332C312.022 300.7 312.132 301.084 312.199 301.476V301.476C312.199 301.476 312.272 301.466 312.262 301.455Z" fill="#EBEBEB"/>
<path d="M340.465 315.693H186.524V345.135H340.465V315.693Z" fill="#DBDBDB"/>
<path d="M218.171 315.693L206.999 345.135H187.112L198.284 315.693H218.171Z" fill="#EBEBEB"/>
<path d="M258.922 315.693L247.75 345.135H227.863L239.035 315.693H258.922Z" fill="#EBEBEB"/>
<path d="M299.662 315.693L288.5 345.135H268.613L279.785 315.693H299.662Z" fill="#EBEBEB"/>
<path d="M340.423 315.693L329.251 345.135H309.364L320.536 315.693H340.423Z" fill="#EBEBEB"/>
<path d="M337.357 372.361H189.643V390.999H337.357V372.361Z" fill="#DBDBDB"/>
<path d="M219.998 372.361L209.288 390.988H190.21L200.93 372.361H219.998Z" fill="#EBEBEB"/>
<path d="M259.111 372.361L248.391 390.988H229.302L240.022 372.361H259.111Z" fill="#EBEBEB"/>
<path d="M298.202 372.361L287.482 390.988H268.403L279.124 372.361H298.202Z" fill="#EBEBEB"/>
<path d="M337.304 372.361L326.584 390.988H307.505L318.226 372.361H337.304Z" fill="#EBEBEB"/>
<path d="M492.19 175.465H373.351C373.351 175.465 385.132 143.283 403.265 143.283C421.399 143.283 427.079 165.49 427.079 165.49C427.079 165.49 439.312 153.426 449.371 153.426C459.43 153.426 468.155 169.375 468.155 169.375C468.155 169.375 482.362 160.797 492.19 175.465Z" fill="#848484" fill-opacity="0.09"/>
<path d="M387 107H301C301 107 309.526 89 322.648 89C335.771 89 339.882 101.421 339.882 101.421C339.882 101.421 348.734 94.6731 356.013 94.6731C363.293 94.6731 369.607 103.594 369.607 103.594C369.607 103.594 379.888 98.7958 387 107Z" fill="#848484" fill-opacity="0.09"/>
<path d="M155.535 101.976H100C100 101.976 112.401 84 122.187 84C131.973 84 134.85 95.9805 134.85 95.9805C134.85 95.9805 141.748 90.3945 148.142 91.392C154.537 92.3895 155.535 101.976 155.535 101.976Z" fill="#848484" fill-opacity="0.09"/>
<path d="M107.534 214.976H52C52 214.976 64.411 197 74.1865 197C83.962 197 86.8495 208.981 86.8495 208.981C86.8495 208.981 93.748 203.384 100.142 204.392C106.537 205.4 107.534 214.976 107.534 214.976Z" fill="#848484" fill-opacity="0.09"/>
<path d="M284.181 150.258H176C176 150.258 190.816 117.183 206.66 115.115C222.504 113.046 230.085 139.685 230.085 139.685C230.085 139.685 240.312 130.235 248.345 130.235C256.377 130.235 262.583 142.635 262.583 142.635C262.583 142.635 278.69 134.172 284.181 150.258Z" fill="#848484" fill-opacity="0.09"/>
<path d="M37.7056 408.261L93.3766 408.009L149.058 407.914L260.4 407.736L371.753 407.914L427.424 408.009L483.095 408.261L427.424 408.513L371.753 408.607L260.4 408.786L149.058 408.607L93.3766 408.513L37.7056 408.261Z" fill="#263238"/>
<path d="M262.5 491.012C384.331 491.012 483.094 479.499 483.094 465.297C483.094 451.095 384.331 439.583 262.5 439.583C140.669 439.583 41.9055 451.095 41.9055 465.297C41.9055 479.499 140.669 491.012 262.5 491.012Z" fill="#848484" fill-opacity="0.09"/>
<path d="M291.344 470.096C293.528 470.831 356.045 471.051 358.439 469.55C359.352 468.983 359.909 459.879 360.276 448.865C360.36 446.481 360.423 444.024 360.486 441.515L365.547 408.177L323.757 407.904L319.809 441.263L319.967 448.613C319.967 448.613 295.995 459.239 293.549 461.16C291.102 463.082 289.17 469.35 291.344 470.096Z" fill="#EB9481"/>
<path d="M291.344 470.096C293.528 470.831 356.045 471.051 358.439 469.55C359.541 468.857 360.15 455.564 360.486 441.525L319.809 441.273L319.967 448.623C319.967 448.623 295.995 459.249 293.549 461.171C291.102 463.092 289.17 469.35 291.344 470.096Z" fill="white"/>
<path d="M291.344 470.096C293.528 470.831 356.045 471.051 358.439 469.55C359.352 468.983 359.909 459.879 360.276 448.865L319.967 448.602C319.967 448.602 295.995 459.228 293.549 461.15C291.102 463.071 289.17 469.35 291.344 470.096Z" fill="#FFC727"/>
<path d="M292.257 467.597C302.757 467.376 345.03 467.471 355.404 468.048C355.488 468.048 355.488 468.111 355.404 468.122C345.019 468.563 302.725 468.122 292.246 467.765C292.026 467.754 292.036 467.597 292.257 467.597Z" fill="#263238"/>
<path d="M297.58 458.913C298.753 458.88 299.919 459.093 301.004 459.538C302.089 459.982 303.069 460.65 303.88 461.496C305.347 462.997 306.182 465.004 306.211 467.103C306.211 467.166 306.085 467.166 306.075 467.103C305.732 465.034 304.729 463.131 303.215 461.679C301.7 460.227 299.757 459.305 297.675 459.05C297.657 459.062 297.634 459.067 297.613 459.063C297.591 459.059 297.572 459.047 297.559 459.029C297.547 459.01 297.542 458.988 297.546 458.966C297.55 458.945 297.562 458.926 297.58 458.913V458.913Z" fill="#263238"/>
<path d="M315.903 449.631C320.103 449.631 324.954 451.091 327.547 454.524C327.652 454.661 327.463 454.797 327.337 454.734C323.661 452.8 319.789 451.262 315.787 450.146C315.719 450.131 315.66 450.089 315.622 450.03C315.585 449.971 315.573 449.899 315.588 449.831C315.603 449.763 315.645 449.703 315.704 449.666C315.763 449.629 315.835 449.616 315.903 449.631V449.631Z" fill="#263238"/>
<path d="M312.659 450.881C316.859 450.881 321.71 452.34 324.303 455.784C324.408 455.91 324.219 456.057 324.093 455.984C320.419 454.046 316.547 452.511 312.543 451.406C312.484 451.381 312.435 451.336 312.405 451.28C312.376 451.223 312.367 451.157 312.381 451.095C312.395 451.032 312.43 450.976 312.481 450.937C312.532 450.898 312.594 450.878 312.659 450.881V450.881Z" fill="#263238"/>
<path d="M309.414 452.141C313.614 452.088 318.465 453.59 321.069 457.034C321.163 457.16 320.974 457.307 320.848 457.244C317.177 455.298 313.304 453.76 309.298 452.655C309.23 452.64 309.171 452.598 309.133 452.539C309.096 452.48 309.084 452.408 309.099 452.34C309.114 452.272 309.156 452.213 309.215 452.175C309.274 452.138 309.346 452.125 309.414 452.141V452.141Z" fill="#263238"/>
<path d="M306.17 453.39C310.37 453.39 315.231 454.839 317.825 458.283C317.919 458.409 317.73 458.556 317.604 458.493C313.933 456.548 310.06 455.009 306.054 453.905C305.986 453.889 305.926 453.848 305.889 453.789C305.852 453.729 305.839 453.658 305.855 453.59C305.87 453.521 305.912 453.462 305.971 453.425C306.03 453.387 306.101 453.375 306.17 453.39V453.39Z" fill="#263238"/>
<path d="M352.8 458.084C357.515 458.084 357.473 465.434 352.8 465.434C348.128 465.434 348.054 458.052 352.8 458.084Z" fill="#263238"/>
<path d="M311.724 444.57C313.971 447.5 317.415 449.358 320.397 451.427C320.467 451.466 320.545 451.489 320.626 451.493C320.706 451.497 320.786 451.482 320.86 451.449C320.933 451.416 320.998 451.367 321.049 451.305C321.1 451.242 321.136 451.169 321.153 451.091C321.169 451.094 321.186 451.094 321.203 451.089C321.219 451.085 321.233 451.077 321.246 451.065C321.258 451.054 321.268 451.04 321.273 451.024C321.279 451.008 321.281 450.992 321.279 450.975C320.987 447.126 319.687 443.421 317.51 440.234C316.208 438.396 313.541 436.674 311.409 438.428C309.278 440.181 310.401 442.869 311.724 444.57ZM311.535 441.095C311.976 436.538 316.082 440.045 316.985 441.441C317.554 442.352 318.062 443.299 318.507 444.276C319.391 446.311 320.173 448.389 320.849 450.503C319.452 449.39 317.961 448.403 316.523 447.353C314.811 446.103 311.304 443.615 311.535 441.095Z" fill="#263238"/>
<path d="M336.189 448.35C335.874 445.61 332.745 445.011 330.54 445.421C326.763 446.213 323.259 447.979 320.376 450.545C320.361 450.554 320.348 450.567 320.339 450.583C320.331 450.599 320.326 450.616 320.326 450.634C320.326 450.652 320.331 450.67 320.339 450.685C320.348 450.701 320.361 450.714 320.376 450.723C320.332 450.791 320.304 450.868 320.296 450.949C320.288 451.029 320.299 451.111 320.329 451.186C320.359 451.261 320.406 451.328 320.468 451.381C320.529 451.434 320.602 451.471 320.68 451.49C324.271 452.057 328.03 453.117 331.695 452.54C333.837 452.246 336.493 450.944 336.189 448.35ZM326.308 451.238C324.534 451.007 322.791 450.681 321.058 450.513C323.043 449.516 324.975 448.413 327.054 447.647C328.053 447.25 329.077 446.92 330.12 446.66C331.737 446.292 337.134 446.597 334.32 450.188C332.671 452.162 328.419 451.5 326.308 451.238Z" fill="#263238"/>
<path d="M426.972 254.037C426.972 254.037 378.43 336.609 377.128 342.405C375.133 351.32 364.528 439.289 364.528 439.289L314.023 438.386C314.023 438.386 322.728 360.812 330.97 335.265C336.913 316.859 379.743 255.812 379.743 255.812L426.972 254.037Z" fill="#37474F"/>
<path d="M318.633 430.637C325.888 430.584 351.592 430.301 361.242 431.193C361.261 431.193 361.28 431.201 361.294 431.215C361.308 431.229 361.315 431.247 361.315 431.267C361.315 431.286 361.308 431.305 361.294 431.319C361.28 431.333 361.261 431.34 361.242 431.34C357.924 431.813 325.888 431.067 318.633 430.836C318.617 430.842 318.6 430.843 318.584 430.84C318.568 430.838 318.552 430.831 318.539 430.822C318.525 430.812 318.514 430.799 318.507 430.784C318.499 430.77 318.495 430.753 318.495 430.737C318.495 430.72 318.499 430.704 318.507 430.689C318.514 430.674 318.525 430.661 318.539 430.652C318.552 430.642 318.568 430.635 318.584 430.633C318.6 430.63 318.617 430.632 318.633 430.637V430.637Z" fill="#263238"/>
<path d="M418.687 261.618C415.537 266.606 412.146 271.488 408.891 276.434C405.636 281.379 402.402 286.335 399.199 291.323C392.808 301.277 386.564 311.322 380.467 321.458C377.512 326.123 374.978 331.042 372.897 336.158C371.002 341.299 369.578 346.602 368.644 352.002C367.647 357.431 366.996 362.901 366.387 368.372C365.729 374.196 365.078 380.02 364.434 385.844C363.104 397.744 361.774 409.665 360.444 421.607C360.276 423.066 360.118 424.536 359.971 425.996C359.971 426.216 360.328 426.258 360.36 425.996C361.84 414.152 363.079 402.276 364.434 390.411L366.45 372.75C367.069 367.259 367.668 361.767 368.55 356.297C369.338 350.916 370.528 345.602 372.109 340.4C373.84 335.009 376.168 329.828 379.05 324.954C384.898 314.864 391.093 304.941 397.288 295.05C403.483 285.159 409.836 275.1 416.377 265.304C417.175 264.096 417.994 262.889 418.834 261.702C418.95 261.608 418.75 261.524 418.687 261.618Z" fill="#263238"/>
<path d="M384.058 477.036C386.358 477.183 448.392 460.834 450.324 458.776C450.409 458.652 450.46 458.507 450.471 458.356C450.712 456.319 447.541 448.707 445.315 438.952C445.179 438.333 444.013 435.372 442.375 431.371C437.871 420.399 429.838 401.541 429.838 401.541L389.34 411.936L404.25 441.913L406.266 448.959C406.266 448.959 385.78 465.349 383.911 467.859C382.042 470.368 381.769 476.868 384.058 477.036Z" fill="#EB9481"/>
<path d="M384.058 477.036C386.358 477.183 448.392 460.835 450.324 458.777C450.409 458.652 450.46 458.507 450.471 458.357C450.712 456.32 447.541 448.707 445.315 438.953C445.179 438.333 444.013 435.372 442.375 431.372L404.26 441.872L406.276 448.917C406.276 448.917 385.791 465.308 383.922 467.817C382.053 470.327 381.769 476.868 384.058 477.036Z" fill="white"/>
<path d="M384.058 477.026C386.358 477.194 448.392 460.835 450.324 458.777C451.059 458 449.452 449.61 445.315 438.953L406.276 448.97C406.276 448.97 385.791 465.339 383.922 467.87C382.053 470.4 381.769 476.868 384.058 477.026Z" fill="#FFC727"/>
<path d="M384.3 474.38C394.38 471.503 435.309 460.835 445.494 458.745C445.578 458.745 445.588 458.745 445.494 458.819C435.571 461.885 394.558 472.227 384.331 474.569C384.132 474.6 384.09 474.443 384.3 474.38Z" fill="#263238"/>
<path d="M387.251 464.636C388.37 464.312 389.545 464.226 390.7 464.381C391.855 464.537 392.966 464.931 393.96 465.539C395.758 466.619 397.073 468.348 397.635 470.369C397.635 470.432 397.53 470.463 397.509 470.369C396.645 468.448 395.181 466.86 393.336 465.843C391.492 464.826 389.367 464.436 387.282 464.73C387.276 464.74 387.266 464.748 387.256 464.752C387.245 464.757 387.233 464.759 387.221 464.757C387.21 464.756 387.199 464.751 387.19 464.744C387.181 464.736 387.174 464.726 387.17 464.715C387.166 464.704 387.166 464.692 387.168 464.68C387.171 464.669 387.177 464.658 387.186 464.65C387.194 464.642 387.204 464.636 387.216 464.634C387.227 464.631 387.239 464.632 387.251 464.636V464.636Z" fill="#263238"/>
<path d="M402.602 450.996C406.644 449.883 411.726 450.093 415.107 452.76C415.244 452.865 415.107 453.054 414.96 453.023C410.928 452.076 406.806 451.565 402.665 451.5C402.607 451.493 402.554 451.466 402.513 451.425C402.472 451.384 402.446 451.33 402.439 451.272C402.431 451.215 402.443 451.157 402.473 451.107C402.502 451.057 402.548 451.018 402.602 450.996Z" fill="#263238"/>
<path d="M399.788 453.033C403.83 451.92 408.912 452.13 412.293 454.797C412.43 454.902 412.293 455.091 412.136 455.06C408.101 454.133 403.979 453.644 399.84 453.6C399.765 453.607 399.69 453.584 399.632 453.536C399.574 453.488 399.537 453.418 399.53 453.343C399.523 453.268 399.546 453.193 399.595 453.135C399.643 453.077 399.712 453.04 399.788 453.033V453.033Z" fill="#263238"/>
<path d="M396.963 455.07C401.016 453.957 406.088 454.167 409.479 456.834C409.605 456.939 409.479 457.118 409.322 457.097C405.289 456.152 401.167 455.645 397.026 455.585C396.964 455.583 396.904 455.558 396.858 455.516C396.812 455.474 396.783 455.416 396.775 455.354C396.768 455.293 396.783 455.23 396.817 455.178C396.851 455.126 396.903 455.088 396.963 455.07Z" fill="#263238"/>
<path d="M394.149 457.097C398.191 455.994 403.273 456.204 406.654 458.871C406.791 458.976 406.654 459.155 406.507 459.123C402.474 458.189 398.352 457.685 394.212 457.622C394.142 457.63 394.072 457.61 394.017 457.567C393.962 457.524 393.926 457.46 393.918 457.391C393.91 457.321 393.929 457.251 393.973 457.196C394.016 457.141 394.079 457.105 394.149 457.097V457.097Z" fill="#263238"/>
<path d="M440.412 449.789C444.969 448.613 446.796 455.7 442.228 456.866C437.661 458.031 435.844 450.954 440.412 449.789Z" fill="#263238"/>
<path d="M397.267 447.164C400.197 449.421 403.998 450.314 407.4 451.584C407.478 451.606 407.56 451.609 407.639 451.593C407.718 451.577 407.792 451.542 407.856 451.492C407.919 451.442 407.97 451.378 408.004 451.304C408.038 451.231 408.054 451.151 408.051 451.07C408.068 451.07 408.085 451.065 408.1 451.057C408.115 451.048 408.128 451.036 408.137 451.022C408.147 451.007 408.152 450.991 408.154 450.973C408.155 450.956 408.152 450.939 408.145 450.923C406.883 447.268 404.681 444.009 401.761 441.473C400.039 440.034 397.015 439.037 395.398 441.284C393.781 443.531 395.566 445.851 397.267 447.164ZM396.217 443.856C395.482 439.331 400.344 441.693 401.572 442.806C402.357 443.539 403.091 444.325 403.767 445.158C405.145 446.896 406.432 448.704 407.62 450.576C405.982 449.862 404.292 449.295 402.633 448.634C400.638 447.857 396.616 446.345 396.207 443.856H396.217Z" fill="#263238"/>
<path d="M421.89 444.591C420.893 442.019 417.69 442.239 415.685 443.205C412.229 444.925 409.289 447.526 407.159 450.744C407.147 450.758 407.14 450.774 407.136 450.791C407.133 450.808 407.134 450.826 407.139 450.843C407.145 450.859 407.154 450.874 407.166 450.887C407.179 450.899 407.194 450.908 407.211 450.912C407.188 450.989 407.184 451.07 407.198 451.149C407.212 451.228 407.244 451.303 407.292 451.367C407.34 451.431 407.402 451.483 407.474 451.519C407.545 451.555 407.624 451.574 407.705 451.574C411.327 451.206 415.233 451.269 418.625 449.81C420.609 448.959 422.846 447.017 421.89 444.591ZM413.07 449.904C411.306 450.125 409.532 450.261 407.82 450.545C409.437 449.029 411.13 447.595 412.892 446.25C413.756 445.614 414.661 445.036 415.601 444.518C417.071 443.741 422.373 442.67 420.525 446.859C419.465 449.18 415.191 449.642 413.07 449.904V449.904Z" fill="#263238"/>
<path d="M401.478 439.95L446.859 428.043C446.859 428.043 403.41 342.542 403.809 336.641C404.124 331.391 435.634 285.527 437.409 276.938C440.254 262.878 433.408 250.32 426.772 242.55L379.837 255.78C379.837 255.78 383.575 263.897 390.442 269.021C390.442 269.021 360.948 318.266 360.192 334.478C359.436 350.69 401.478 439.95 401.478 439.95Z" fill="#37474F"/>
<path d="M400.617 431.55C407.19 429.67 405.279 430.122 411.884 428.306C415.118 427.424 436.359 421.617 439.509 421.312C439.583 421.312 439.614 421.418 439.509 421.449C436.611 422.751 415.275 428.19 412.031 429.009C405.395 430.689 407.274 430.133 400.617 431.75C400.544 431.76 400.491 431.55 400.617 431.55Z" fill="#263238"/>
<path d="M383.166 267.162C387.663 268.831 392.008 270.883 396.154 273.294C396.188 273.311 396.213 273.34 396.225 273.376C396.237 273.411 396.234 273.45 396.217 273.483C396.201 273.517 396.171 273.542 396.136 273.554C396.101 273.566 396.062 273.563 396.029 273.546C391.65 271.635 387.177 269.808 382.914 267.666C382.855 267.629 382.813 267.57 382.795 267.503C382.776 267.436 382.783 267.364 382.815 267.302C382.846 267.239 382.899 267.191 382.964 267.165C383.029 267.139 383.101 267.138 383.166 267.162V267.162Z" fill="#263238"/>
<path d="M388.678 266.007C389.012 266.832 389.292 267.677 389.518 268.538C389.765 269.209 389.875 269.923 389.844 270.638C389.83 270.662 389.81 270.682 389.786 270.695C389.762 270.709 389.735 270.717 389.707 270.717C389.68 270.717 389.653 270.709 389.629 270.695C389.605 270.682 389.585 270.662 389.571 270.638C389.177 270.01 388.88 269.327 388.689 268.611C388.405 267.824 388.101 267.047 387.849 266.259C387.67 265.755 388.5 265.503 388.678 266.007Z" fill="#263238"/>
<path d="M388.678 261.755C388.489 261.03 388.3 260.316 388.101 259.592C387.901 258.867 387.628 258.122 387.481 257.366C387.481 257.25 387.271 257.303 387.303 257.366C387.481 258.09 387.565 258.846 387.691 259.581C387.817 260.316 387.964 261.051 388.111 261.776C388.388 263.151 388.739 264.511 389.161 265.85C388.422 265.796 387.705 265.577 387.061 265.209C386.435 264.691 385.987 263.99 385.78 263.204C385.486 262.385 385.224 261.555 384.919 260.747C384.542 259.86 384.24 258.944 384.016 258.006C384.016 257.88 383.806 257.933 383.827 258.006C384.189 259.986 384.749 261.924 385.497 263.792C385.822 264.527 386.064 265.283 386.788 265.64C387.585 265.977 388.443 266.145 389.308 266.133C389.403 266.133 389.55 266.133 389.529 265.997C389.308 264.653 389.035 263.172 388.678 261.755Z" fill="#263238"/>
<path d="M389.455 270.659C387.67 273.882 385.633 276.959 383.722 280.109C381.811 283.259 380.089 286.325 378.346 289.475C374.839 295.838 371.584 302.369 368.613 309.005C367.143 312.288 365.743 315.609 364.413 318.969C363.029 322.313 361.889 325.752 361 329.259C360.165 332.76 360.008 336.389 360.538 339.948C361.202 343.599 362.143 347.193 363.352 350.7C365.785 358.734 368.745 366.598 372.214 374.241C372.33 374.493 372.75 374.304 372.655 374.042C370.177 367.049 367.615 360.077 365.379 353.042C363.226 346.175 360.664 339.056 361.851 331.758C362.514 328.258 363.512 324.83 364.833 321.521C366.107 318.119 367.465 314.755 368.907 311.43C371.763 304.868 374.955 298.494 378.231 292.142C380.058 288.582 381.979 285.065 383.838 281.516C385.696 277.967 387.523 274.292 389.613 270.848C389.676 270.648 389.55 270.564 389.455 270.659Z" fill="#263238"/>
<path d="M423.633 263.77C422.782 263.634 421.533 263.928 417.868 263.676C416.85 263.586 415.839 263.421 414.844 263.182C413.835 263.025 412.876 262.637 412.041 262.048C410.71 260.789 409.624 259.294 408.838 257.638C407.856 255.932 407.104 254.103 406.602 252.199C406.602 252.084 406.402 252.136 406.423 252.252C406.623 253.302 406.728 254.352 407.011 255.465C407.281 256.465 407.633 257.441 408.061 258.384C408.736 260.249 409.865 261.917 411.348 263.235C413.007 264.484 415.327 264.715 417.333 264.862C418.498 264.946 423.066 264.862 423.633 264.169C423.801 264.054 423.79 263.802 423.633 263.77Z" fill="#263238"/>
<path d="M435.592 418.278C429.866 406.644 424.266 394.937 418.792 383.156C413.318 371.375 408.005 359.506 402.853 347.55C401.428 344.743 400.292 341.799 399.462 338.762C398.758 335.433 399.787 332.462 401.194 329.448C403.812 323.984 406.739 318.672 409.962 313.541C413.112 308.375 416.514 303.324 419.842 298.253C423.284 293.285 426.44 288.125 429.292 282.797C431.875 277.641 433.314 272.15 432.579 266.375C431.844 260.6 429.355 255.266 426.699 250.194C425.995 248.861 425.271 247.538 424.599 246.194C424.546 246.099 424.389 246.194 424.452 246.288C427.413 251.601 430.258 257.177 431.644 263.088C432.358 266.035 432.578 269.079 432.295 272.097C431.926 275.144 431.068 278.112 429.754 280.886C427.287 286.304 423.843 291.302 420.598 296.268C417.354 301.235 413.899 306.401 410.665 311.546C407.38 316.696 404.362 322.013 401.625 327.474C400.428 329.921 399.115 332.472 398.821 335.213C398.506 338.226 399.588 341.103 400.753 343.823C405.793 355.646 411.106 367.374 416.503 379.04C421.9 390.705 427.497 402.413 433.177 414.005L435.277 418.383C435.414 418.625 435.676 418.457 435.592 418.278Z" fill="#263238"/>
<path d="M378.798 154.98C379.848 150.182 385.182 139.325 395.714 141.446C410.75 144.48 412.923 173.45 420.41 182.48C433.965 198.839 434.406 215.03 423.297 217.623C410.844 220.521 398.727 207.123 399.147 178.248C399.431 160.167 394.338 152.156 390.747 152.691C387.156 153.227 385.172 157.794 385.172 157.794L378.798 154.98Z" fill="#263238"/>
<path d="M379.302 153.185C380.046 150.946 381.058 148.806 382.315 146.811C383.577 144.767 385.251 143.008 387.23 141.645C389.278 140.261 391.709 139.556 394.181 139.629C396.631 139.703 399.027 140.37 401.163 141.572C403.246 142.818 405.036 144.497 406.413 146.496C407.774 148.46 408.905 150.574 409.783 152.796C411.452 157.202 412.621 161.78 413.27 166.446C412.125 161.935 410.644 157.516 408.839 153.227C407.902 151.129 406.751 149.134 405.405 147.273C404.098 145.436 402.416 143.897 400.47 142.758C398.522 141.647 396.337 141.017 394.096 140.921C391.879 140.817 389.682 141.388 387.796 142.559C385.862 143.779 384.183 145.362 382.851 147.221C382.155 148.149 381.514 149.117 380.93 150.119C380.342 151.085 379.806 152.124 379.302 153.185Z" fill="#263238"/>
<path d="M399.095 168.284C399.252 171.15 399.095 174.027 399.032 176.894C398.969 179.76 398.853 182.616 398.843 185.472C398.832 188.328 398.927 191.174 399.221 193.998C399.46 196.81 399.974 199.592 400.754 202.304C401.492 204.998 402.735 207.528 404.418 209.759C406.183 211.93 408.315 213.774 410.718 215.208C413.123 216.668 415.84 217.539 418.646 217.749C420.049 217.858 421.461 217.784 422.846 217.529C423.557 217.396 424.259 217.213 424.946 216.983C425.629 216.78 426.28 216.48 426.878 216.09C425.707 216.943 424.374 217.547 422.961 217.865C421.552 218.232 420.101 218.412 418.646 218.4C417.177 218.373 415.717 218.165 414.299 217.781C412.884 217.383 411.521 216.823 410.235 216.111C408.947 215.405 407.73 214.575 406.602 213.633L405.773 212.919L404.975 212.174C404.433 211.664 403.928 211.116 403.463 210.536C401.657 208.194 400.317 205.528 399.515 202.682C398.06 197.061 397.5 191.246 397.856 185.451C397.94 182.574 398.16 179.708 398.412 176.852C398.664 173.996 399 171.15 399.095 168.284Z" fill="#263238"/>
<path d="M377.937 155.064C377.769 153.731 378.577 151.914 379.417 151.589C380.257 151.263 386.956 153.416 387.66 155.022C388.363 156.629 385.654 158.34 385.654 158.34L377.937 155.064Z" fill="#FFC727"/>
<path d="M385.959 202.356C381.832 208.247 351.991 232.617 335.716 233.52C328.366 233.919 299.617 230.79 293.212 228.155C285.348 224.921 300.898 205.443 305.812 206.273C311.965 207.323 333.784 209.622 338.131 209.738C345.103 209.916 366.481 198.188 380.877 195.132C388.321 193.568 389.151 197.82 385.959 202.356Z" fill="#EB9481"/>
<path d="M385.633 203.469C381.076 211.418 364.99 225.047 364.99 225.047L362.25 219.986L353.178 203.28C353.178 203.28 368.424 197.211 378.536 194.261C379.723 193.896 380.938 193.629 382.168 193.463C388.699 192.623 389.55 196.644 385.633 203.469Z" fill="#DBDBDB"/>
<path d="M385.633 203.469C381.076 211.418 364.99 225.047 364.99 225.047L362.25 219.986L360.381 216.542L353.167 203.291C353.167 203.291 368.424 197.201 378.535 194.25C379.725 193.896 380.939 193.633 382.168 193.463C382.298 193.453 382.428 193.453 382.557 193.463C388.731 192.791 389.487 196.781 385.633 203.469Z" fill="#DBDBDB"/>
<path d="M366.618 199.174C366.968 200.624 366.968 202.135 366.618 203.584C366.268 202.135 366.268 200.624 366.618 199.174V199.174ZM362.302 207.826C361.562 207.815 360.824 207.903 360.108 208.089C360.825 208.27 361.563 208.358 362.302 208.351C363.046 208.358 363.786 208.269 364.507 208.089C363.787 207.904 363.046 207.815 362.302 207.826V207.826ZM384.604 195.499C383.861 195.488 383.119 195.577 382.399 195.762C383.119 195.947 383.861 196.036 384.604 196.024C385.344 196.03 386.081 195.942 386.799 195.762C386.081 195.582 385.344 195.494 384.604 195.499V195.499ZM376.015 206.461C376.535 206.99 377.121 207.449 377.758 207.826C377.381 207.189 376.922 206.603 376.393 206.083C375.872 205.557 375.286 205.099 374.65 204.718C375.031 205.354 375.489 205.94 376.015 206.461V206.461ZM367.542 216.961C368.061 217.493 368.647 217.956 369.285 218.337C368.911 217.697 368.452 217.111 367.92 216.594C367.401 216.062 366.815 215.6 366.177 215.218C366.539 215.855 366.984 216.442 367.5 216.961H367.542Z" fill="white"/>
<path d="M367.794 221.319C366.271 218.243 359.551 205.853 357.924 203.27C357.808 203.091 357.672 203.112 357.756 203.27C360.733 209.46 364.042 215.485 367.668 221.319C367.71 221.445 367.836 221.403 367.794 221.319Z" fill="#263238"/>
<path d="M385.634 203.469C381.077 211.418 364.991 225.047 364.991 225.047L362.25 219.986L360.381 216.542C369.107 207.932 379.617 197.337 382.557 193.442C388.731 192.791 389.487 196.781 385.634 203.469Z" fill="#A6A6A6"/>
<path d="M370.755 240.083L373.139 266.333C376.349 266.185 379.549 265.862 382.725 265.367C391.1 264.11 399.398 262.382 407.579 260.19C415.695 258.09 425.208 255.192 436.086 251.328C436.086 251.328 411.485 206.955 394.506 194.712C394.118 194.429 393.74 194.166 393.351 193.925C393.278 193.862 393.204 193.83 393.131 193.778C385.413 188.895 378.431 192.728 374.567 198.167C373.59 199.532 364.14 221.015 364.613 228.218C365.043 234.549 370.755 240.083 370.755 240.083Z" fill="#DBDBDB"/>
<path d="M384.405 211.985C384.591 212.701 384.679 213.439 384.668 214.179C384.679 214.923 384.59 215.664 384.405 216.384C384.22 215.664 384.131 214.923 384.143 214.179C384.136 213.44 384.224 212.702 384.405 211.985V211.985ZM390.127 239.474C390.121 240.217 390.21 240.958 390.39 241.679C390.581 240.96 390.669 240.217 390.652 239.474C390.664 238.73 390.575 237.989 390.39 237.269C390.21 237.99 390.121 238.731 390.127 239.474V239.474ZM408.45 223.829C408.439 224.572 408.527 225.314 408.712 226.034C409.063 224.585 409.063 223.073 408.712 221.624C408.527 222.344 408.439 223.085 408.45 223.829V223.829ZM374.85 236.124C374.839 236.868 374.927 237.609 375.112 238.329C375.463 236.88 375.463 235.368 375.112 233.919C374.927 234.639 374.839 235.381 374.85 236.124V236.124ZM396.018 216.773C395.275 216.767 394.534 216.855 393.813 217.035C395.262 217.385 396.774 217.385 398.223 217.035C397.505 216.856 396.768 216.768 396.029 216.773H396.018ZM411.642 236.355C410.898 236.339 410.156 236.427 409.437 236.618C410.886 236.968 412.398 236.968 413.847 236.618C413.13 236.433 412.392 236.345 411.652 236.355H411.642ZM387.891 251.874C387.151 251.862 386.413 251.951 385.696 252.137C386.413 252.323 387.151 252.411 387.891 252.399C388.634 252.41 389.376 252.322 390.096 252.137C389.378 251.957 388.641 251.869 387.901 251.874H387.891ZM415.558 248.85C414.819 248.844 414.081 248.932 413.364 249.113C414.81 249.463 416.318 249.463 417.763 249.113C417.043 248.932 416.302 248.844 415.558 248.85ZM384.605 195.468C383.861 195.457 383.12 195.545 382.4 195.731C383.12 195.916 383.861 196.004 384.605 195.993C385.344 195.999 386.082 195.91 386.799 195.731C386.08 195.562 385.343 195.484 384.605 195.5V195.468ZM395.839 200.33C396.359 200.862 396.945 201.324 397.582 201.705C397.211 201.063 396.751 200.477 396.218 199.962C395.698 199.43 395.112 198.968 394.475 198.587C394.853 199.236 395.316 199.833 395.85 200.361L395.839 200.33ZM418.782 224.889C419.301 225.421 419.887 225.883 420.525 226.265C420.15 225.625 419.691 225.039 419.16 224.522C418.639 223.992 418.053 223.53 417.417 223.146C417.792 223.795 418.251 224.392 418.782 224.921V224.889ZM382.095 227.514C382.614 228.046 383.2 228.508 383.838 228.89C383.054 227.604 381.974 226.524 380.688 225.74C381.075 226.402 381.548 227.009 382.095 227.546V227.514ZM403.2 245.291C403.719 245.823 404.305 246.285 404.943 246.666C404.159 245.38 403.079 244.3 401.793 243.516C402.182 244.167 402.655 244.764 403.2 245.291V245.291ZM376.068 206.441C376.587 206.969 377.173 207.428 377.811 207.806C377.433 207.168 376.975 206.582 376.446 206.063C375.924 205.537 375.339 205.078 374.703 204.698C375.066 205.338 375.506 205.93 376.015 206.462L376.068 206.441ZM374.577 220.238C375.106 219.716 375.569 219.131 375.952 218.495C375.313 218.869 374.726 219.328 374.21 219.86C373.678 220.379 373.215 220.965 372.834 221.603C373.45 221.225 374.017 220.773 374.525 220.259L374.577 220.238ZM424.399 238.991C424.931 238.474 425.39 237.888 425.764 237.248C424.475 238.028 423.395 239.109 422.614 240.398C423.249 240.012 423.832 239.547 424.347 239.012L424.399 238.991ZM377.296 246.509C377.825 245.989 378.284 245.403 378.662 244.766C377.372 245.546 376.292 246.627 375.512 247.916C376.146 247.53 376.729 247.065 377.244 246.53L377.296 246.509ZM405.415 210.315C405.947 209.796 406.41 209.21 406.791 208.572C406.151 208.951 405.565 209.413 405.048 209.948C404.516 210.467 404.054 211.053 403.673 211.691C404.291 211.312 404.859 210.857 405.363 210.336L405.415 210.315ZM398.443 257.46C398.978 256.943 399.44 256.357 399.819 255.717C399.179 256.096 398.593 256.558 398.076 257.093C397.544 257.612 397.082 258.198 396.7 258.836C397.319 258.457 397.887 258.002 398.391 257.481L398.443 257.46ZM398.443 229.11C398.981 228.596 399.444 228.009 399.819 227.367C398.533 228.151 397.453 229.231 396.669 230.517C397.311 230.126 397.898 229.649 398.412 229.1L398.443 229.11Z" fill="white"/>
<path d="M388.311 193.326C388.164 194.376 383.985 201.201 379.428 201.38C377.937 201.432 377.275 193.347 377.275 193.347L377.086 192.759L374.493 184.559L383.775 177.45L385.129 176.495C385.129 176.495 385.686 178.794 386.358 181.65L386.452 182.06C386.452 182.217 386.536 182.364 386.568 182.522L386.883 183.813C386.956 184.149 387.03 184.475 387.093 184.863L387.313 185.913C387.815 188.358 388.148 190.835 388.311 193.326V193.326Z" fill="#EB9481"/>
<path d="M386.4 181.65C385.759 184.073 384.598 186.327 382.996 188.254C381.395 190.182 379.393 191.737 377.128 192.812L374.535 184.611L383.775 177.45L385.129 176.495C385.129 176.495 385.686 178.742 386.4 181.65Z" fill="#263238"/>
<path d="M362.985 172.2C362.912 187.299 371.952 189.053 375.207 189.063C378.158 189.063 388.227 188.738 389.907 173.723C391.587 158.708 384.542 153.909 377.79 153.521C371.039 153.132 363.059 157.07 362.985 172.2Z" fill="#EB9481"/>
<path d="M389.036 174.741C386.568 174.993 385.886 169.817 385.886 169.817C385.886 169.817 380.856 169.964 379.019 162.761C379.213 164.927 380.038 166.99 381.392 168.693C381.392 168.693 372.477 168 368.55 160.65C368.55 160.65 370.136 164.399 371.564 165.711C369.297 165.072 367.311 163.688 365.925 161.784C365.925 161.784 364.476 166.11 363.311 167.318C363.311 167.318 361.589 159.716 364.749 155.768C371.406 147.368 382.337 154.718 382.337 154.718C382.337 154.718 388.448 155.642 390.632 160.22C394.002 167.223 389.036 174.741 389.036 174.741Z" fill="#263238"/>
<path d="M387.45 174.836C387.45 174.836 390.348 169.869 392.585 170.867C394.821 171.864 392.9 178.878 390.485 180.012C390.186 180.18 389.857 180.287 389.516 180.325C389.176 180.363 388.831 180.332 388.503 180.234C388.175 180.136 387.87 179.973 387.606 179.754C387.342 179.536 387.125 179.266 386.967 178.962L387.45 174.836Z" fill="#EB9481"/>
<path d="M364.875 169.145C365.23 169.083 365.581 168.999 365.925 168.893C366.296 168.851 366.643 168.689 366.912 168.431C366.986 168.336 367.026 168.22 367.026 168.1C367.026 167.98 366.986 167.864 366.912 167.769C366.733 167.612 366.515 167.505 366.281 167.459C366.046 167.413 365.804 167.429 365.579 167.507C365.098 167.598 364.668 167.863 364.371 168.252C364.313 168.341 364.281 168.444 364.278 168.549C364.274 168.655 364.3 168.759 364.352 168.852C364.404 168.944 364.48 169.02 364.572 169.071C364.665 169.123 364.769 169.148 364.875 169.145V169.145Z" fill="#263238"/>
<path d="M374.724 170.321C374.371 170.286 374.02 170.23 373.674 170.153C373.29 170.145 372.92 170.008 372.624 169.764C372.548 169.671 372.507 169.554 372.507 169.433C372.507 169.313 372.548 169.196 372.624 169.103C372.788 168.931 372.996 168.807 373.226 168.744C373.455 168.681 373.697 168.682 373.926 168.746C374.413 168.8 374.864 169.027 375.197 169.386C375.265 169.473 375.307 169.577 375.318 169.686C375.328 169.796 375.308 169.906 375.258 170.004C375.209 170.102 375.132 170.184 375.037 170.24C374.943 170.296 374.834 170.324 374.724 170.321V170.321Z" fill="#263238"/>
<path d="M372.75 173.408C372.75 173.408 372.823 173.408 372.823 173.502C372.823 174.552 372.96 175.728 373.873 176.054V176.117C372.75 175.97 372.529 174.395 372.75 173.408Z" fill="#263238"/>
<path d="M373.622 172.316C375.281 172.158 375.47 175.466 373.926 175.644C372.383 175.823 372.225 172.442 373.622 172.316Z" fill="#263238"/>
<path d="M374.283 172.452C374.588 172.631 374.892 172.946 375.249 172.967C375.606 172.988 375.942 172.61 376.194 172.263H376.246C376.246 172.904 376.079 173.576 375.407 173.712C374.735 173.849 374.357 173.292 374.105 172.662C374.073 172.568 374.168 172.389 374.283 172.452Z" fill="#263238"/>
<path d="M366.965 173.46C366.965 173.46 366.881 173.512 366.891 173.554C366.986 174.604 366.891 175.791 366.009 176.19C366.009 176.19 366.009 176.253 366.009 176.19C367.154 176.011 367.217 174.426 366.965 173.46Z" fill="#263238"/>
<path d="M365.967 172.442C364.297 172.442 364.381 175.76 365.967 175.781C367.552 175.802 367.374 172.463 365.967 172.442Z" fill="#263238"/>
<path d="M365.285 172.673C365.022 172.862 364.77 173.187 364.455 173.219C364.14 173.25 363.804 172.893 363.562 172.547H363.51C363.51 173.187 363.741 173.849 364.361 173.954C364.98 174.059 365.316 173.492 365.411 172.851C365.484 172.778 365.4 172.599 365.285 172.673Z" fill="#263238"/>
<path d="M368.697 178.038C368.697 178.038 368.55 179.55 368.55 180.317C369.963 180.274 371.376 180.422 372.75 180.758C373.075 180.852 373.054 180.579 372.687 180.38C371.591 179.79 370.345 179.538 369.106 179.655C369.054 179.456 369.379 177.272 369.264 177.272C368.7 177.343 368.149 177.491 367.626 177.713C367.836 174.468 368.571 171.276 368.728 168.042C368.728 168.017 368.718 167.993 368.701 167.975C368.683 167.958 368.659 167.948 368.634 167.948C368.609 167.948 368.585 167.958 368.567 167.975C368.549 167.993 368.539 168.017 368.539 168.042C367.652 171.43 367.103 174.899 366.901 178.395C366.933 178.784 368.413 178.175 368.697 178.038Z" fill="#263238"/>
<path d="M370.261 180.317C370.788 181.008 371.525 181.509 372.361 181.745C373.632 181.871 373.716 180.695 372.298 180.159C371.618 180.024 370.913 180.079 370.261 180.317V180.317Z" fill="#263238"/>
<path d="M372.383 181.745C371.904 181.664 371.457 181.454 371.091 181.136C371.322 180.726 371.91 180.264 373.296 180.926C373.517 181.409 373.191 181.829 372.383 181.745Z" fill="#FF99BA"/>
<path d="M386.095 191.52C387.943 191.52 391.051 191.982 395.251 195.174C395.251 195.174 386.494 202.22 378.346 202.22C375.438 202.22 374.566 198.156 374.566 198.156C374.566 198.156 378.483 191.583 386.095 191.52Z" fill="#EB9481"/>
<path d="M524.433 493.836H490.13C465.203 493.836 449.957 476.606 447.216 445.326C445.862 429.902 445.032 411.233 444.161 391.472C441.473 330.75 437.787 247.622 414.152 247.622H386.988V241.322H414.152C443.804 241.322 447.185 317.52 450.45 391.209C451.322 410.907 452.151 429.513 453.495 444.759C455.207 464.268 462.945 487.526 490.13 487.526H524.433V493.836Z" fill="#FFC727"/>
<path opacity="0.2" d="M406.938 241.301L405.594 247.601H386.988V241.301H406.938Z" fill="black"/>
<path d="M335.79 206.745H324.807V283.49H335.79V206.745Z" fill="#FFC727"/>
<path d="M324.818 212.415H283.059V277.032H324.818V212.415Z" fill="#FFC727"/>
<path opacity="0.2" d="M324.807 212.426V277.043H314.433L309.781 212.426H324.807Z" fill="black"/>
<path d="M251.013 224.018H283.048V233.678H251.013C249.916 233.678 248.864 233.242 248.088 232.466C247.312 231.69 246.876 230.638 246.876 229.541V228.165C246.875 227.621 246.981 227.082 247.188 226.579C247.395 226.076 247.7 225.618 248.084 225.233C248.468 224.848 248.925 224.542 249.427 224.333C249.93 224.125 250.469 224.018 251.013 224.018V224.018Z" fill="#DBDBDB"/>
<path d="M283.049 224.018H271.803V233.667H283.049V224.018Z" fill="#A6A6A6"/>
<path d="M251.013 255.78H283.048V265.44H251.013C249.916 265.44 248.864 265.004 248.088 264.229C247.312 263.453 246.876 262.4 246.876 261.303V259.928C246.875 259.384 246.981 258.845 247.188 258.341C247.395 257.838 247.7 257.381 248.084 256.996C248.468 256.61 248.925 256.305 249.427 256.096C249.93 255.888 250.469 255.78 251.013 255.78Z" fill="#DBDBDB"/>
<path d="M283.049 255.78H271.803V265.43H283.049V255.78Z" fill="#A6A6A6"/>
<path d="M400.69 238.56H368.067V251.444H400.69V238.56Z" fill="#FFC727"/>
<path d="M400.69 238.571H368.067V251.454H400.69V238.571Z" fill="#FFC727"/>
<path opacity="0.2" d="M379.522 238.571L378.451 251.454H368.067V238.571H379.522Z" fill="black"/>
<path d="M335.79 214.851H361.61C363.322 214.851 364.965 215.531 366.176 216.742C367.387 217.953 368.067 219.596 368.067 221.309V268.149C368.067 269.862 367.387 271.504 366.176 272.715C364.965 273.926 363.322 274.607 361.61 274.607H335.79V214.851Z" fill="#FFC727"/>
<path opacity="0.2" d="M349.524 214.851L344.873 274.607H335.801V214.851H349.524Z" fill="black"/>
<g opacity="0.2">
<path d="M347.12 226.926H345.062V262.521H347.12V226.926Z" fill="black"/>
<path d="M352.957 226.926H350.899V262.521H352.957V226.926Z" fill="black"/>
<path d="M358.796 226.926H356.738V262.521H358.796V226.926Z" fill="black"/>
</g>
<path d="M397.667 202.514C401.279 212.646 396.102 249.764 389.981 257.628C380.888 269.283 362.922 280.004 356.055 283.353C353.052 284.813 339.602 263.309 342.531 261.303C348.831 256.988 368.897 246.687 370.598 244.64C372.299 242.592 381.455 222.926 385.119 211.869C390.044 197.022 395.85 197.4 397.667 202.514Z" fill="#EB9481"/>
<path d="M356.034 283.416C346.511 288.855 327.558 288.057 324.975 287.27L321.636 286.22C317.657 285.096 316.586 282.902 316.586 282.902C316.586 282.902 311.609 282.965 311.063 279.962C310.454 276.591 317.562 277.158 321.668 275.079C331.118 270.323 343.109 260.915 345.681 259.277L356.034 283.416Z" fill="#EB9481"/>
<path d="M335.034 277.032C332.3 278.465 329.468 279.703 326.561 280.739C323.316 281.68 320.006 282.382 316.659 282.839C316.643 282.845 316.629 282.855 316.619 282.87C316.61 282.884 316.604 282.9 316.604 282.917C316.604 282.935 316.61 282.951 316.619 282.965C316.629 282.98 316.643 282.99 316.659 282.996C323.229 282.818 329.624 280.842 335.15 277.284C335.286 277.2 335.171 276.969 335.034 277.032Z" fill="#263238"/>
<path d="M338.73 282.293C335.937 283.448 331.012 285.443 321.625 286.136C321.625 286.136 321.625 286.188 321.625 286.199C327.587 286.611 333.546 285.357 338.835 282.576C339.003 282.45 338.919 282.219 338.73 282.293Z" fill="#263238"/>
<path d="M332.64 268.643C333.617 267.593 333.039 267.026 330.456 267.488C327.873 267.95 318.056 272.003 316.932 268.464C315.809 264.926 329.753 259.403 334.11 258.951C338.047 258.748 341.994 258.864 345.912 259.298C343.413 260.915 337.491 265.409 332.64 268.643Z" fill="#EB9481"/>
<path d="M387.534 205.065C393.887 191.699 399.683 195.237 400.239 208.457C400.427 217.637 400.013 226.82 399 235.946L375.974 229.352C375.974 229.352 383.471 213.623 387.534 205.065Z" fill="#DBDBDB"/>
<path d="M393.267 197.274C394.553 198.058 395.633 199.138 396.417 200.424C395.131 199.64 394.051 198.56 393.267 197.274V197.274ZM384.142 214.2C384.131 214.944 384.22 215.685 384.405 216.405C384.59 215.685 384.679 214.944 384.667 214.2C384.679 213.46 384.591 212.722 384.405 212.006C384.224 212.723 384.136 213.461 384.142 214.2ZM396.029 216.794C395.285 216.788 394.544 216.876 393.823 217.056C395.273 217.406 396.784 217.406 398.233 217.056C397.513 216.869 396.773 216.774 396.029 216.773V216.794ZM382.095 227.546C382.614 228.078 383.2 228.54 383.838 228.921C383.054 227.635 381.974 226.555 380.688 225.771C381.077 226.422 381.55 227.019 382.095 227.546V227.546ZM398.412 229.1C398.949 228.586 399.412 227.999 399.787 227.357C398.501 228.141 397.421 229.221 396.637 230.507C397.29 230.121 397.887 229.648 398.412 229.1V229.1Z" fill="white"/>
<path d="M385.35 209.139C384.489 210.893 383.586 212.615 382.683 214.389C382.837 213.57 382.963 212.741 383.061 211.901H382.998C382.872 212.552 382.714 213.203 382.588 213.854C382.536 214.169 382.473 214.484 382.41 214.799C382.41 214.862 382.41 214.925 382.41 214.998C381.706 216.342 381.013 217.697 380.31 219.062C379.512 220.7 378.766 222.348 378.01 223.997C377.254 225.645 376.551 227.661 375.7 229.331C376.424 229.632 377.177 229.857 377.947 230.003C378.147 230.076 378.252 229.877 378.042 229.845C377.832 229.814 376.11 229.131 376.089 229.121C376.845 227.451 377.779 225.876 378.577 224.238C379.375 222.6 380.194 220.983 380.961 219.335C382.515 215.996 383.88 212.562 385.423 209.213C385.423 209.129 385.35 209.097 385.35 209.139Z" fill="#263238"/>
<path d="M401.195 217.098C400.985 217.781 400.743 218.463 400.565 219.198C400.502 219.492 400.428 219.776 400.355 220.07C400.439 217.676 400.516 215.289 400.586 212.909C400.26 216.815 399.924 220.71 399.672 224.616C399.307 228.357 399.135 232.114 399.158 235.872C398.467 235.709 397.765 235.6 397.058 235.547C397.821 235.871 398.622 236.1 399.441 236.229C400.019 232.449 400.061 228.27 400.25 224.469C400.302 223.419 400.334 222.369 400.376 221.246C400.502 220.584 400.691 219.933 400.869 219.282C401.048 218.631 401.184 217.875 401.331 217.182C401.279 217.077 401.205 217.056 401.195 217.098Z" fill="#263238"/>
<path d="M398.065 232.459C394.821 231.304 381.381 227.062 378.42 226.338C378.21 226.285 378.126 226.401 378.336 226.474C384.778 228.868 391.347 230.905 398.013 232.575C398.097 232.606 398.149 232.48 398.065 232.459Z" fill="#263238"/>
<path d="M285.18 228.9C288.33 229.866 287.69 225.561 287.69 225.561C287.69 225.561 290.157 231.525 293.822 231.263C297.486 231 296.352 225.824 296.289 225.446C296.415 225.761 298.83 231.179 302.484 230.538C306.138 229.898 304.385 224.837 304.259 224.522C304.479 224.774 307.409 228.123 310.097 227C314.675 225.068 307.367 216.29 307.902 212.3L314.339 212.489C314.55 212.468 314.76 212.437 314.969 212.394L315.21 209.108C313.153 208.273 311.166 207.276 309.267 206.126C306.842 204.761 304.5 203.522 302.757 203.48C301.975 203.438 301.2 203.649 300.548 204.082C299.895 204.516 299.4 205.147 299.135 205.884C299.135 205.884 297.245 202.902 294.347 203.322C292.866 203.543 291.9 206.115 291.9 206.115C291.435 205.457 290.796 204.94 290.054 204.623C289.313 204.306 288.498 204.201 287.7 204.32C285.663 204.74 285.012 207.26 285.012 207.26C285.012 207.26 282.429 205.737 280.487 206.85C276.591 209.013 278.376 226.8 285.18 228.9Z" fill="#EB9481"/>
<path d="M308.7 211.922L314.307 212.436C314.518 212.416 314.729 212.384 314.937 212.342C322.014 211.061 326.424 202.955 321.237 202.377C317.341 201.926 313.12 207.102 309.183 206.063L308.7 211.922Z" fill="#EB9481"/>
<path d="M284.876 207.585H284.781C283.888 213.796 284.907 220.131 287.7 225.75C287.795 225.928 288.12 225.844 288.057 225.634C286.125 219.805 285.053 213.724 284.876 207.585Z" fill="#263238"/>
<path d="M291.9 205.978C291.9 205.905 291.784 205.905 291.774 205.978C290.828 212.827 292.363 219.787 296.1 225.603C296.236 225.802 296.562 225.844 296.415 225.603C294.084 221.55 291.9 211.743 291.9 205.978Z" fill="#263238"/>
<path d="M304.678 224.774C301.056 219.062 299.617 212.762 299.082 206.084C299.082 206 298.956 206.021 298.935 206.084C298.315 209.423 299.103 213.644 299.985 216.878C300.755 219.893 302.301 222.655 304.468 224.889C304.573 224.984 304.762 224.9 304.678 224.774Z" fill="#263238"/>
<path d="M215.985 464.1C213.812 464.825 151.578 464.646 149.205 463.145C148.313 462.578 147.809 453.506 147.515 442.533C147.441 440.171 147.399 437.724 147.357 435.236C147.357 432.296 147.273 429.314 147.252 426.416C147.179 413.417 147.357 401.972 147.357 401.972H187.877V426.416V435.236L187.667 442.533C187.667 442.533 211.46 453.264 213.917 455.196C216.374 457.128 218.159 463.428 215.985 464.1Z" fill="#AD6359"/>
<path d="M215.985 464.1C213.811 464.825 151.578 464.646 149.205 463.145C148.312 462.578 147.808 453.506 147.514 442.533C147.441 440.171 147.399 437.724 147.357 435.236C147.357 432.296 147.273 429.314 147.252 426.416H187.855V435.236L187.645 442.533C187.645 442.533 211.438 453.264 213.895 455.196C216.352 457.128 218.158 463.428 215.985 464.1Z" fill="white"/>
<path d="M216.174 464.237C214.756 464.709 188.254 464.804 168.924 464.405C164.451 464.3 160.366 464.184 157.08 464.037C152.533 463.827 149.488 463.586 148.995 463.271C147.892 462.567 147.378 449.253 147.126 435.204H187.834L187.624 442.554C187.624 442.554 211.554 453.348 213.99 455.291C216.426 457.233 218.4 463.502 216.174 464.237Z" fill="#FFC727"/>
<path d="M215.25 461.737C204.75 461.443 162.435 461.275 152.04 461.79C151.956 461.79 151.956 461.842 152.04 461.853C162.435 462.367 204.761 462.189 215.25 461.905C215.502 461.895 215.513 461.737 215.25 461.737Z" fill="#263238"/>
<path d="M189.147 440.223C185.02 439.446 179.97 440.066 176.809 442.995C176.683 443.111 176.809 443.279 176.988 443.237C180.936 441.972 185.009 441.138 189.137 440.748C189.206 440.75 189.273 440.723 189.324 440.675C189.374 440.627 189.403 440.561 189.404 440.491C189.406 440.421 189.379 440.354 189.331 440.304C189.283 440.254 189.217 440.225 189.147 440.223V440.223Z" fill="#263238"/>
<path d="M192.15 442.05C188.023 441.263 182.973 441.882 179.802 444.822C179.686 444.927 179.802 445.106 179.98 445.064C183.935 443.791 188.015 442.95 192.15 442.554C192.205 442.538 192.252 442.505 192.286 442.46C192.321 442.414 192.339 442.359 192.339 442.302C192.339 442.245 192.321 442.19 192.286 442.145C192.252 442.099 192.205 442.066 192.15 442.05Z" fill="#263238"/>
<path d="M195.101 443.835C190.974 443.048 185.924 443.667 182.763 446.597C182.637 446.712 182.763 446.891 182.931 446.849C186.881 445.587 190.953 444.75 195.08 444.35C195.14 444.34 195.194 444.31 195.235 444.265C195.275 444.22 195.299 444.162 195.301 444.101C195.304 444.04 195.285 443.981 195.248 443.932C195.212 443.884 195.16 443.849 195.101 443.835V443.835Z" fill="#263238"/>
<path d="M198.072 445.641C193.946 444.854 188.895 445.473 185.735 448.403C185.609 448.518 185.735 448.697 185.913 448.655C189.857 447.387 193.927 446.55 198.051 446.156C198.111 446.146 198.166 446.116 198.206 446.071C198.247 446.026 198.27 445.968 198.273 445.907C198.275 445.846 198.257 445.787 198.22 445.738C198.183 445.69 198.131 445.655 198.072 445.641V445.641Z" fill="#263238"/>
<path d="M196.801 430.7C195.184 428.463 192.16 429.461 190.438 430.899C187.519 433.435 185.317 436.694 184.054 440.349C184.047 440.365 184.045 440.382 184.046 440.4C184.047 440.417 184.053 440.434 184.062 440.448C184.072 440.463 184.084 440.475 184.1 440.483C184.115 440.491 184.132 440.496 184.149 440.496C184.149 440.811 184.443 441.147 184.789 441.011C188.202 439.761 192.013 438.848 194.932 436.58C196.644 435.257 198.334 432.821 196.801 430.7ZM189.577 438.05C187.918 438.701 186.228 439.278 184.59 439.992C185.781 438.118 187.067 436.306 188.443 434.564C189.117 433.728 189.85 432.941 190.638 432.212C191.866 431.088 196.738 428.726 195.993 433.262C195.583 435.75 191.562 437.262 189.577 438.05Z" fill="#263238"/>
<path d="M173.565 439.225C176.956 440.685 180.915 440.622 184.485 440.989C184.565 440.989 184.644 440.97 184.716 440.934C184.788 440.898 184.851 440.846 184.9 440.783C184.948 440.719 184.982 440.644 184.997 440.566C185.013 440.487 185.01 440.405 184.989 440.328C185.002 440.318 185.013 440.305 185.02 440.291C185.027 440.276 185.031 440.26 185.031 440.244C185.031 440.228 185.027 440.212 185.02 440.197C185.013 440.182 185.002 440.17 184.989 440.16C182.87 436.942 179.945 434.335 176.505 432.6C174.468 431.634 171.255 431.424 170.289 433.996C169.323 436.569 171.58 438.375 173.565 439.225ZM171.706 436.285C169.858 432.085 175.161 433.135 176.631 433.923C177.573 434.446 178.482 435.028 179.35 435.666C181.118 437.008 182.814 438.442 184.432 439.96C182.668 439.677 180.894 439.54 179.119 439.32C176.998 439.057 172.725 438.595 171.706 436.285Z" fill="#263238"/>
<path d="M193.631 432.348L143.42 433.251C143.42 433.251 136.584 388.825 132.09 361.2C130.389 350.815 129.045 342.793 128.499 340.378C127.197 334.614 101.756 243.117 101.756 243.117L138.254 243.064H150.728C150.728 243.064 149.93 258.363 150.402 259.969C156.912 282.114 170.216 321.384 174.374 335.065C180.747 356.097 193.631 432.348 193.631 432.348Z" fill="#A6A6A6"/>
<path d="M189.063 424.652C181.86 424.599 156.303 424.316 146.706 425.208C146.692 425.213 146.681 425.223 146.672 425.235C146.664 425.247 146.66 425.262 146.66 425.276C146.66 425.291 146.664 425.305 146.672 425.318C146.681 425.33 146.692 425.339 146.706 425.345C150.013 425.817 181.86 425.082 189.073 424.851C189.089 424.855 189.106 424.856 189.122 424.852C189.139 424.849 189.154 424.842 189.167 424.831C189.179 424.821 189.19 424.807 189.196 424.792C189.203 424.777 189.206 424.761 189.205 424.744C189.204 424.728 189.2 424.711 189.191 424.697C189.183 424.683 189.172 424.671 189.158 424.662C189.144 424.653 189.128 424.647 189.111 424.645C189.095 424.643 189.078 424.646 189.063 424.652V424.652Z" fill="#263238"/>
<path d="M144.239 386.789C142.503 375.302 140.567 363.843 138.432 352.412C137.382 346.794 136.238 341.187 134.768 335.612C133.298 330.036 131.429 324.524 129.518 319.053C125.759 308.175 122.168 297.245 118.797 286.241C115.427 275.237 112.287 264.191 109.347 253.05C108.969 251.643 108.602 250.236 108.192 248.85C108.192 248.735 107.993 248.787 108.014 248.85C109.158 254.457 110.639 260.012 112.056 265.556C113.474 271.1 114.996 276.623 116.582 282.125C119.774 293.171 123.235 304.14 126.966 315.032C128.825 320.45 130.757 325.857 132.405 331.349C134.054 336.84 135.335 342.405 136.479 348.012C138.8 359.394 140.774 370.85 142.601 382.305C144.428 393.761 145.992 405.405 147.525 416.955C147.725 418.415 147.914 419.885 148.103 421.355C148.155 421.764 148.806 421.764 148.764 421.355C147.578 409.836 145.95 398.297 144.239 386.789Z" fill="#263238"/>
<path d="M138.254 243.043L132.09 361.2C130.389 350.815 129.045 342.793 128.499 340.378C127.197 334.614 101.756 243.117 101.756 243.117L138.254 243.043Z" fill="#263238"/>
<path d="M153.709 474.054C151.536 474.779 89.3025 474.6 86.9295 473.088C86.037 472.532 85.533 463.46 85.239 452.487C85.1655 450.114 85.1235 447.678 85.0815 445.19C85.0815 442.239 84.9975 439.268 84.9765 436.37C84.903 423.371 85.0815 411.926 85.0815 411.926H125.59V445.2L125.38 452.498C125.38 452.498 149.173 463.229 151.63 465.161C154.087 467.093 155.883 473.34 153.709 474.054Z" fill="#AD6359"/>
<path d="M153.71 474.054C151.536 474.779 89.3026 474.6 86.9296 473.088C86.0371 472.532 85.5331 463.46 85.2391 452.487C85.1656 450.114 85.1236 447.678 85.0816 445.19C85.0816 442.239 84.9976 439.268 84.9766 436.37H125.58V445.2L125.37 452.498C125.37 452.498 149.163 463.229 151.62 465.161C154.077 467.093 155.883 473.34 153.71 474.054Z" fill="white"/>
<path d="M153.899 474.149C152.481 474.611 125.969 474.705 106.649 474.306C102.186 474.212 98.1016 474.086 94.8046 473.949C90.2686 473.739 87.2236 473.487 86.7196 473.172C85.6696 472.469 85.1026 459.165 84.8611 445.116H125.57L125.36 452.466C125.36 452.466 149.31 463.25 151.746 465.15C154.182 467.051 156.083 473.414 153.899 474.149Z" fill="#FFC727"/>
<path d="M153.006 471.639C142.506 471.356 100.18 471.177 89.7959 471.692C89.7119 471.692 89.7119 471.755 89.7959 471.765C100.18 472.269 142.516 472.101 153.006 471.818C153.226 471.807 153.226 471.65 153.006 471.639Z" fill="#263238"/>
<path d="M126.872 450.135C122.745 449.348 117.695 449.967 114.534 452.897C114.408 453.012 114.534 453.191 114.702 453.149C118.652 451.888 122.724 451.05 126.851 450.65C126.911 450.64 126.965 450.61 127.006 450.565C127.046 450.52 127.07 450.462 127.072 450.401C127.075 450.34 127.056 450.281 127.019 450.232C126.983 450.184 126.931 450.15 126.872 450.135V450.135Z" fill="#263238"/>
<path d="M129.843 451.941C125.717 451.153 120.666 451.773 117.506 454.702C117.38 454.818 117.506 454.996 117.684 454.954C121.632 453.686 125.705 452.848 129.833 452.455C129.892 452.445 129.946 452.414 129.986 452.367C130.025 452.321 130.047 452.263 130.048 452.203C130.05 452.142 130.03 452.083 129.992 452.035C129.955 451.987 129.902 451.954 129.843 451.941V451.941Z" fill="#263238"/>
<path d="M132.825 453.737C128.699 452.96 123.648 453.579 120.477 456.509C120.362 456.624 120.477 456.792 120.656 456.75C124.605 455.491 128.678 454.657 132.804 454.262C132.874 454.264 132.942 454.239 132.993 454.192C133.044 454.145 133.074 454.079 133.077 454.01C133.08 453.94 133.055 453.872 133.008 453.821C132.96 453.77 132.895 453.739 132.825 453.737V453.737Z" fill="#263238"/>
<path d="M135.796 455.543C131.67 454.766 126.619 455.385 123.459 458.315C123.333 458.43 123.459 458.598 123.627 458.556C127.577 457.298 131.649 456.464 135.775 456.068C135.845 456.07 135.913 456.045 135.964 455.998C136.015 455.951 136.046 455.885 136.048 455.816C136.051 455.746 136.026 455.678 135.979 455.627C135.932 455.576 135.866 455.545 135.796 455.543V455.543Z" fill="#263238"/>
<path d="M134.526 440.612C132.909 438.365 129.885 439.362 128.153 440.811C125.233 443.347 123.031 446.606 121.769 450.261C121.764 450.278 121.763 450.295 121.766 450.313C121.769 450.33 121.776 450.346 121.786 450.36C121.796 450.374 121.809 450.386 121.824 450.394C121.839 450.403 121.856 450.407 121.874 450.408C121.869 450.489 121.883 450.569 121.916 450.642C121.949 450.716 121.998 450.78 122.061 450.831C122.124 450.881 122.198 450.916 122.276 450.932C122.355 450.948 122.437 450.945 122.514 450.923C125.927 449.673 129.728 448.76 132.657 446.492C134.4 445.2 136.049 442.722 134.526 440.612ZM127.302 447.962C125.633 448.623 123.953 449.19 122.315 449.915C123.564 448.077 124.73 446.198 126.158 444.486C126.837 443.652 127.57 442.863 128.352 442.124C129.591 441.011 134.453 438.648 133.718 443.174C133.35 445.662 129.287 447.174 127.302 447.951V447.962Z" fill="#263238"/>
<path d="M111.3 449.138C114.702 450.597 118.65 450.534 122.231 450.902C122.312 450.902 122.392 450.884 122.465 450.847C122.538 450.811 122.601 450.757 122.649 450.692C122.697 450.626 122.729 450.55 122.742 450.47C122.755 450.389 122.749 450.307 122.724 450.23C122.74 450.224 122.755 450.215 122.768 450.203C122.78 450.191 122.79 450.177 122.796 450.161C122.802 450.145 122.804 450.127 122.803 450.11C122.801 450.093 122.796 450.077 122.787 450.062C120.647 446.847 117.705 444.249 114.251 442.523C112.214 441.557 109.001 441.347 108.035 443.919C107.069 446.492 109.295 448.287 111.3 449.138ZM109.452 446.187C107.604 441.987 112.907 443.037 114.377 443.835C115.321 444.351 116.23 444.929 117.096 445.568C118.861 446.917 120.557 448.353 122.178 449.873C120.404 449.579 118.629 449.453 116.855 449.232C114.723 448.97 110.45 448.508 109.431 446.187H109.452Z" fill="#263238"/>
<path d="M131.25 441.662H82.1206C82.1206 441.662 92.7991 289.328 91.0771 280.791C88.2526 266.816 90.1321 250.761 96.7471 242.991H140.459C140.459 242.991 141.33 255.255 136.815 262.584C136.815 262.584 132.71 265.178 130.725 266.322L131.25 441.662Z" fill="#A6A6A6"/>
<path d="M126.672 433.713C119.868 433.545 121.831 433.493 115.017 433.398C111.688 433.346 89.8169 433.041 86.6669 433.535C86.5934 433.535 86.5934 433.661 86.6669 433.671C89.8169 434.207 111.678 434.133 115.017 434.112C121.821 434.112 119.868 434.018 126.672 433.913C126.693 433.906 126.711 433.893 126.724 433.875C126.737 433.857 126.744 433.835 126.744 433.813C126.744 433.791 126.737 433.769 126.724 433.751C126.711 433.734 126.693 433.72 126.672 433.713V433.713Z" fill="#263238"/>
<path d="M139.545 260.663C135.247 262.735 131.134 265.169 127.25 267.939C127.217 267.959 127.195 267.99 127.186 268.027C127.177 268.063 127.183 268.102 127.202 268.134C127.222 268.166 127.253 268.189 127.29 268.197C127.326 268.206 127.364 268.2 127.397 268.181C131.597 265.881 135.796 263.655 139.828 261.135C139.891 261.098 139.936 261.037 139.954 260.966C139.972 260.895 139.961 260.82 139.923 260.757C139.885 260.695 139.824 260.649 139.754 260.632C139.683 260.614 139.608 260.625 139.545 260.663Z" fill="#263238"/>
<path d="M133.97 260.033C133.72 260.881 133.524 261.743 133.382 262.616C133.203 263.301 133.157 264.013 133.245 264.716C133.245 264.852 133.466 264.842 133.529 264.716C133.858 264.054 134.085 263.346 134.201 262.616C134.411 261.807 134.642 261.009 134.82 260.201C134.946 259.686 134.138 259.508 133.97 260.033Z" fill="#263238"/>
<path d="M133.581 255.822C133.696 255.087 133.812 254.363 133.948 253.638C134.085 252.914 134.274 252.126 134.347 251.37C134.347 251.244 134.557 251.286 134.536 251.37C134.421 252.105 134.41 252.861 134.347 253.596C134.284 254.331 134.221 255.077 134.148 255.812C134 257.197 133.783 258.574 133.497 259.938C134.222 259.815 134.911 259.531 135.513 259.109C136.071 258.534 136.438 257.8 136.563 257.009C136.773 256.169 136.962 255.329 137.182 254.489C137.48 253.579 137.694 252.644 137.823 251.696C137.823 251.57 138.033 251.612 138.012 251.696C137.841 253.692 137.468 255.665 136.899 257.586C136.776 258.348 136.385 259.04 135.796 259.539C135.038 259.944 134.206 260.19 133.35 260.264C133.255 260.264 133.108 260.264 133.119 260.148C133.201 258.699 133.355 257.256 133.581 255.822V255.822Z" fill="#263238"/>
<path d="M98.175 280.235C97.86 277.022 97.335 273.83 96.9885 270.617C96.3319 264.184 96.722 257.688 98.1435 251.381C98.1435 251.265 97.986 251.213 97.965 251.381C96.7218 256.92 96.1437 262.588 96.243 268.265C96.5265 273.935 97.5345 279.521 97.6185 285.201C97.7025 290.882 97.2615 296.699 96.894 302.432C96.5265 308.165 96.1485 313.982 95.781 319.746C94.29 342.941 92.9145 366.135 91.497 389.34C91.105 395.808 90.727 402.283 90.363 408.765C89.985 415.349 89.523 421.943 89.313 428.547C89.313 429.114 90.132 429.072 90.1845 428.547C91.1715 416.903 91.7385 405.216 92.484 393.572C93.2295 381.927 93.891 370.472 94.584 358.922C95.277 347.372 95.9805 335.822 96.684 324.272C97.02 318.504 97.37 312.736 97.734 306.968C98.07 301.224 98.49 295.47 98.574 289.716C98.6202 286.551 98.487 283.385 98.175 280.235Z" fill="#263238"/>
<path d="M113.652 250.95C113.643 250.935 113.629 250.922 113.614 250.914C113.598 250.905 113.581 250.9 113.563 250.9C113.545 250.9 113.527 250.905 113.512 250.914C113.496 250.922 113.483 250.935 113.473 250.95C113.213 251.711 113.074 252.508 113.064 253.313C112.928 254.173 112.728 255.023 112.465 255.854C111.983 257.524 111.079 259.043 109.84 260.264C107.089 262.836 103.404 263.792 99.855 264.653C99.8315 264.66 99.811 264.675 99.7964 264.694C99.7818 264.714 99.7739 264.738 99.7739 264.763C99.7739 264.787 99.7818 264.811 99.7964 264.831C99.811 264.851 99.8315 264.866 99.855 264.873C101.964 264.968 104.07 264.64 106.05 263.907C107.816 263.367 109.445 262.454 110.828 261.23C112.147 259.974 113.049 258.343 113.41 256.557C113.598 255.624 113.697 254.674 113.704 253.722C113.704 253.271 113.704 252.819 113.704 252.357C113.78 251.889 113.762 251.411 113.652 250.95V250.95Z" fill="#263238"/>
<path d="M134.232 192.024C135.135 199.164 149.121 225.708 164.01 237.468C169.47 241.784 198.418 244.335 205.663 243.768C214.137 243.117 215.407 222.947 210.661 221.372C204.729 219.408 177.282 216.983 171.895 215.072C165.343 212.699 153.415 197.463 142.075 188.034C136.248 183.152 133.539 186.533 134.232 192.024Z" fill="#AD6359"/>
<path d="M205.663 243.779C208.341 243.705 220.594 242.298 223.923 241.143C227.251 239.988 236.523 235.977 235.935 233.342C235.347 230.706 232.491 231.662 232.491 231.662C232.491 231.662 236.155 229.341 235.284 226.748C234.412 224.154 230.034 225.792 230.034 225.792C230.034 225.792 233.625 223.136 232.564 220.605C231.504 218.075 227.419 220.458 227.419 220.458C227.419 220.458 230.821 218.18 229.078 216.458C226.978 214.358 221.182 219.303 217.423 220.301C216.562 220.532 199.762 223.671 199.762 223.671L205.663 243.779Z" fill="#AD6359"/>
<path d="M227.85 220.259C223.576 223.85 221.088 224.69 215.649 225.435C215.63 225.442 215.614 225.454 215.603 225.47C215.592 225.486 215.585 225.505 215.585 225.524C215.585 225.544 215.592 225.563 215.603 225.579C215.614 225.595 215.63 225.607 215.649 225.614C221.035 225.362 224.311 224.763 228.028 220.458C228.186 220.248 228.018 220.091 227.85 220.259Z" fill="#263238"/>
<path d="M230.402 225.498C225.645 228.9 222.957 229.772 217.35 231C217.277 231 217.298 231.158 217.35 231.147C222.978 230.423 226.233 229.751 230.549 225.782C230.727 225.582 230.622 225.341 230.402 225.498Z" fill="#263238"/>
<path d="M232.197 231.714C227.357 234.623 224.448 235.767 218.82 236.24C218.792 236.24 218.766 236.251 218.746 236.27C218.726 236.29 218.715 236.317 218.715 236.345C218.715 236.372 218.726 236.399 218.746 236.419C218.766 236.438 218.792 236.45 218.82 236.45C223.727 236.745 228.554 235.101 232.26 231.872C232.544 231.651 232.502 231.536 232.197 231.714Z" fill="#263238"/>
<path d="M195.877 221.466C198.706 219.639 201.664 218.021 204.729 216.626C207.69 215.576 220.185 215.576 220.321 218.285C220.51 221.771 213.297 223.167 209.674 223.398C209.674 223.398 210.126 231.452 205.159 233.583C200.193 235.715 195.877 221.466 195.877 221.466Z" fill="#AD6359"/>
<path d="M220.07 219.261C217.97 222.558 213.171 222.547 209.675 223.03C209.622 223.033 209.57 223.049 209.525 223.077C209.48 223.105 209.443 223.143 209.417 223.189C209.39 223.235 209.376 223.287 209.375 223.34C209.375 223.393 209.387 223.446 209.412 223.492C209.412 226.884 208.362 231.651 205.37 233.656C205.275 233.719 205.37 233.856 205.443 233.803C208.919 232.081 210.326 227.503 210.126 223.755C213.717 223.324 218.526 223.125 220.101 219.271C220.112 219.25 220.08 219.24 220.07 219.261Z" fill="#263238"/>
<path d="M180.653 243.39C180.653 243.39 165.827 239.337 164.021 237.92C162.05 236.371 160.171 234.709 158.393 232.943C144.9 219.681 136.752 201.6 134.547 195.3C132.216 188.591 134.358 182.165 140.606 186.491C141.108 186.847 141.592 187.229 142.055 187.635C149.405 194.04 169.061 213.518 171.455 214.515C173.849 215.513 185.388 217.025 185.388 217.025L180.653 243.39Z" fill="#455A64"/>
<path d="M158.393 232.943C144.9 219.681 136.752 201.6 134.547 195.3C132.216 188.591 134.358 182.165 140.606 186.491L158.393 232.943Z" fill="#263238"/>
<path d="M180.6 216.563C179.91 218.589 179.338 220.654 178.889 222.747C178.374 224.847 177.839 226.947 177.408 229.047C176.473 233.166 175.772 237.334 175.308 241.532C175.308 241.557 175.318 241.581 175.336 241.598C175.353 241.616 175.378 241.626 175.403 241.626C175.428 241.626 175.452 241.616 175.469 241.598C175.487 241.581 175.497 241.557 175.497 241.532C176.631 237.416 177.471 233.205 178.332 229.026C178.763 226.926 179.151 224.889 179.582 222.831C180.012 220.773 180.527 218.631 180.758 216.594C180.762 216.573 180.757 216.552 180.746 216.534C180.734 216.516 180.715 216.504 180.695 216.5C180.674 216.495 180.652 216.5 180.634 216.512C180.617 216.523 180.604 216.542 180.6 216.563V216.563Z" fill="#263238"/>
<path d="M148.617 206.567C148.963 208.121 149.236 209.717 149.446 211.355C149.441 211.292 149.441 211.229 149.446 211.166C149.53 210.273 149.593 209.36 149.751 208.478C149.751 208.478 149.835 208.425 149.835 208.478C149.889 209.386 149.854 210.296 149.73 211.197C149.677 211.628 149.625 212.058 149.562 212.478C149.635 213.203 149.698 213.927 149.74 214.641C149.824 216.006 150.087 221.834 150.055 222.831C150.055 223.041 149.814 223.062 149.761 222.831C149.562 221.781 149.037 215.807 148.89 214.431C148.615 211.808 148.482 209.173 148.491 206.535C148.512 206.504 148.596 206.514 148.617 206.567Z" fill="#263238"/>
<path d="M150.287 250.184C148.187 252.074 145.625 254.835 130.883 255.864C129.959 255.864 129.014 255.938 128.069 255.864C113.873 255.465 93.9541 244.314 92.7676 243.432C92.7676 243.432 108.066 202.041 128.3 186.155C131.187 183.876 137.382 185 141.257 187.341C142.643 188.181 147.221 195.836 148.145 202.808C149.069 209.78 152.376 248.294 150.287 250.184Z" fill="#455A64"/>
<path d="M138.789 197.715C135.219 198.009 130.106 191.835 128.426 187.215C128.31 186.9 129.234 183.886 130.179 180.169C130.746 177.912 131.324 175.392 131.681 173.05C131.754 172.567 133.256 173.701 133.256 173.701L136.175 174.898L145.835 178.867C144.544 181.667 143.602 184.616 143.031 187.645C143 187.974 143 188.304 143.031 188.632C143.036 188.685 143.036 188.738 143.031 188.79C143 190.648 142.233 197.4 138.789 197.715Z" fill="#AD6359"/>
<path d="M142.989 188.622C142.994 188.674 142.994 188.727 142.989 188.78C142.478 188.773 141.969 188.724 141.467 188.633C131.597 186.9 132.3 174.122 132.3 174.122L136.185 174.888L145.845 178.857C144.554 181.657 143.613 184.605 143.042 187.635C142.993 187.962 142.975 188.292 142.989 188.622V188.622Z" fill="#263238"/>
<path d="M130.683 157.668C128.804 162.855 130.809 178.206 134.379 181.818C139.556 187.068 148.428 187.94 152.933 181.619C157.311 175.508 154.34 155.537 150.318 152.219C144.386 147.357 133.455 150.014 130.683 157.668Z" fill="#AD6359"/>
<path d="M144.669 168.294C144.669 168.294 144.596 168.357 144.606 168.399C144.764 169.449 144.785 170.635 143.882 171.097C143.882 171.097 143.882 171.16 143.882 171.15C145.026 170.845 144.995 169.239 144.669 168.294Z" fill="#263238"/>
<path d="M143.609 167.328C141.929 167.412 142.223 170.762 143.777 170.688C145.331 170.615 145.016 167.255 143.609 167.328Z" fill="#263238"/>
<path d="M151.032 167.601C151.032 167.601 151.116 167.601 151.116 167.685C151.179 168.735 151.421 169.911 152.387 170.184C151.2 170.174 150.917 168.599 151.032 167.601Z" fill="#263238"/>
<path d="M151.872 166.436C153.531 166.173 153.972 169.512 152.408 169.764C150.843 170.016 150.476 166.667 151.872 166.436Z" fill="#263238"/>
<path d="M142.306 164.85C142.747 164.693 143.136 164.472 143.566 164.273C144.035 164.136 144.445 163.848 144.732 163.454C144.802 163.313 144.822 163.152 144.79 162.998C144.757 162.844 144.674 162.705 144.553 162.603C144.281 162.446 143.971 162.363 143.656 162.363C143.341 162.363 143.031 162.446 142.758 162.603C142.155 162.831 141.66 163.277 141.372 163.853C141.319 163.986 141.306 164.131 141.332 164.272C141.359 164.413 141.425 164.543 141.523 164.647C141.621 164.752 141.747 164.827 141.886 164.862C142.024 164.898 142.17 164.894 142.306 164.85V164.85Z" fill="#263238"/>
<path d="M152.922 165.302C152.463 165.251 152.007 165.174 151.557 165.071C151.066 165.055 150.593 164.878 150.213 164.567C150.119 164.443 150.069 164.292 150.069 164.136C150.069 163.981 150.119 163.83 150.213 163.706C150.429 163.476 150.703 163.31 151.007 163.225C151.31 163.14 151.631 163.139 151.935 163.223C152.578 163.289 153.173 163.593 153.604 164.073C153.695 164.192 153.749 164.334 153.76 164.483C153.771 164.632 153.738 164.781 153.666 164.911C153.593 165.042 153.484 165.148 153.352 165.217C153.22 165.287 153.071 165.316 152.922 165.302V165.302Z" fill="#263238"/>
<path d="M149.572 173.25C149.678 174.006 149.744 174.766 149.772 175.529C148.352 175.535 146.939 175.732 145.572 176.117C145.257 176.222 145.257 175.949 145.572 175.739C146.641 175.102 147.879 174.806 149.121 174.888C149.121 174.689 148.764 172.515 148.879 172.505C149.443 172.562 149.998 172.693 150.528 172.893C150.202 169.659 149.362 166.499 149.079 163.275C149.079 163.16 149.236 163.118 149.268 163.223C150.283 166.58 150.954 170.031 151.273 173.523C151.368 173.933 149.866 173.366 149.572 173.25Z" fill="#263238"/>
<path d="M131.796 170.468C134.442 170.279 134.106 163.811 134.106 163.811C134.106 163.811 138.138 163.034 140.038 157.511C140.038 157.511 145.288 160.661 149.625 159.863C156.429 158.54 156.135 149.667 153.562 147.893C149.908 145.373 143.503 149.184 143.503 149.184C143.503 149.184 133.717 146.591 130.903 153.227C129.64 153.33 128.463 153.909 127.609 154.846C126.756 155.783 126.29 157.01 126.304 158.277C126.052 163.055 129.832 170.604 131.796 170.468Z" fill="#263238"/>
<path d="M133.171 164.588C135.129 164.225 136.91 163.22 138.232 161.732C138.943 160.927 139.448 159.962 139.706 158.92C139.964 157.878 139.966 156.79 139.713 155.747C139.719 155.728 139.731 155.712 139.747 155.701C139.763 155.689 139.783 155.683 139.802 155.683C139.822 155.683 139.841 155.689 139.857 155.701C139.873 155.712 139.885 155.728 139.891 155.747C140.206 156.839 140.275 157.987 140.093 159.109C139.911 160.23 139.484 161.298 138.841 162.236C138.2 163.124 137.337 163.829 136.339 164.282C135.341 164.735 134.242 164.92 133.15 164.819C133.087 164.766 133.056 164.609 133.171 164.588Z" fill="#263238"/>
<path d="M143.241 149.478C144.084 148.086 145.405 147.048 146.958 146.559C148.846 146.023 150.864 146.203 152.628 147.063C153.329 147.431 153.922 147.977 154.346 148.646C154.77 149.315 155.01 150.083 155.043 150.875C155.064 152.711 154.452 154.498 153.31 155.936C153.31 155.936 153.216 155.936 153.247 155.936C154.159 154.578 154.625 152.971 154.581 151.337C154.552 150.559 154.305 149.805 153.866 149.163C153.428 148.52 152.817 148.014 152.103 147.704C149.289 146.496 145.194 146.748 143.388 149.615C143.335 149.678 143.178 149.573 143.241 149.478Z" fill="#263238"/>
<path d="M133.35 170.226C133.35 170.226 130.064 165.197 127.785 166.362C125.507 167.528 127.89 174.762 130.484 175.812C130.806 175.97 131.158 176.061 131.516 176.079C131.875 176.098 132.234 176.044 132.571 175.92C132.909 175.797 133.218 175.606 133.48 175.36C133.741 175.114 133.951 174.818 134.096 174.489L133.35 170.226Z" fill="#AD6359"/>
<path d="M128.468 168.41C128.468 168.41 128.468 168.462 128.468 168.483C129.298 168.93 130.025 169.545 130.602 170.29C131.179 171.036 131.593 171.894 131.817 172.809C131.716 172.621 131.576 172.456 131.405 172.328C131.235 172.199 131.038 172.109 130.829 172.064C130.62 172.019 130.404 172.02 130.196 172.067C129.987 172.114 129.792 172.206 129.623 172.337C129.623 172.337 129.623 172.442 129.623 172.431C129.949 172.339 130.296 172.349 130.615 172.462C130.935 172.575 131.212 172.784 131.408 173.061C131.733 173.527 132.008 174.027 132.227 174.552C132.311 174.72 132.605 174.636 132.552 174.447C132.699 172.064 130.977 168.725 128.468 168.41Z" fill="#263238"/>
<path d="M34.3035 493.836H0V487.536H34.3035C61.4775 487.536 69.2265 464.279 70.938 444.77C72.282 429.492 73.101 410.886 73.9725 391.22C77.238 317.531 80.619 241.332 110.271 241.332H137.445V247.632H110.25C86.625 247.632 82.95 330.782 80.2515 391.482C79.3695 411.254 78.54 429.923 77.196 445.347C74.466 476.606 59.2305 493.836 34.3035 493.836Z" fill="#FFC727"/>
<path opacity="0.2" d="M137.445 241.301V247.601H115.773L114.429 241.301H137.445Z" fill="black"/>
<path d="M231.714 285.148H243.285V204.319H231.714V285.148Z" fill="#FFC727"/>
<path d="M231.714 208.152H187.74V280.476H231.714V208.152Z" fill="#FFC727"/>
<path opacity="0.2" d="M231.714 208.152V280.476H220.794L215.891 208.152H231.714Z" fill="black"/>
<path d="M121.128 250.887H153.751V238.004H121.128V250.887Z" fill="#FFC727"/>
<path d="M153.751 238.014H121.128V250.898H153.751V238.014Z" fill="#FFC727"/>
<path opacity="0.2" d="M142.296 250.887L143.367 238.014H153.751V250.887H142.296Z" fill="black"/>
<path d="M187.74 276.192H160.209C158.496 276.192 156.854 275.512 155.643 274.301C154.432 273.09 153.751 271.448 153.751 269.735V219.713C153.751 218 154.432 216.358 155.643 215.147C156.854 213.936 158.496 213.255 160.209 213.255H187.74V276.192Z" fill="#FFC727"/>
<path opacity="0.2" d="M173.271 276.192L178.174 213.266H187.74V276.192H173.271Z" fill="black"/>
<g opacity="0.2">
<path d="M175.802 263.466H177.975V225.981H175.802V263.466Z" fill="black"/>
<path d="M169.659 263.466H171.833V225.981H169.659V263.466Z" fill="black"/>
<path d="M163.506 263.466H165.68V225.981H163.506V263.466Z" fill="black"/>
</g>
<path d="M119.123 200.708C118.073 215.87 116.876 246.75 123.575 255.812C132.363 267.698 157.175 274.911 164.525 277.074C167.675 278.009 175.224 257.124 173.355 254.121C171.486 251.118 145.877 244.671 143.861 242.907C141.845 241.143 135.461 216.531 132.426 203.994C128.499 188.181 119.553 194.723 119.123 200.708Z" fill="#AD6359"/>
<path d="M192.276 262.143C196.318 263.109 202.45 261.03 202.65 264.128C202.828 266.879 198.45 267.897 198.45 267.897C198.45 267.897 203.763 268.349 203.112 271.362C202.461 274.376 197.421 274.512 197.421 274.512C197.421 274.512 202.293 275.174 201.421 278.135C200.55 281.096 195.877 281.505 195.877 281.505C195.877 281.505 197.106 282.419 195.552 284.235C193.336 286.839 185.944 286.535 182.133 285.464C178.321 284.393 165.123 277.631 163.117 276.549L169.806 251.979C169.806 251.979 177.481 250.761 181.45 250.614C185.419 250.467 198.618 253.617 198.061 256.914C197.505 260.211 188.212 257.859 185.808 257.775C183.403 257.691 182.983 258.227 184.033 259.109C184.716 259.728 190.48 261.713 192.276 262.143Z" fill="#AD6359"/>
<path d="M198.208 267.844C192.003 268.894 189.105 268.201 183.414 265.744C183.298 265.692 183.204 265.849 183.319 265.912C188.674 268.8 192.192 270.112 198.271 268.128C198.576 268.044 198.513 267.802 198.208 267.844Z" fill="#263238"/>
<path d="M197.662 274.407C191.121 274.88 187.981 274.218 181.828 272.097C181.744 272.097 181.681 272.213 181.765 272.255C187.635 274.827 191.163 276.077 197.641 274.743C197.935 274.691 197.967 274.386 197.662 274.407Z" fill="#263238"/>
<path d="M195.794 281.463C189.42 281.463 185.944 280.875 180.232 278.061C180.206 278.048 180.176 278.046 180.148 278.054C180.12 278.063 180.096 278.082 180.081 278.107C180.067 278.132 180.062 278.162 180.069 278.191C180.075 278.22 180.093 278.245 180.117 278.261C185.661 281.705 189.997 282.461 195.772 281.663C196.161 281.6 196.193 281.463 195.794 281.463Z" fill="#263238"/>
<path d="M145.152 272.15C145.152 272.15 125.129 262.091 122.052 254.384C118.272 244.766 116.729 216.72 118.199 202.335C119.669 187.95 129.686 189.735 132.899 202.451C136.049 214.862 143.157 239.652 143.892 240.818C144.827 242.319 156.251 245.144 156.251 245.144" fill="#455A64"/>
<path d="M143.147 237.604C142.8 236.418 142.191 233.74 141.845 232.585C141.141 230.275 140.438 227.955 139.745 225.645C139.052 223.335 138.306 221.014 137.54 218.715C137.403 218.326 137.277 217.927 137.151 217.539C137.214 217.287 136.931 214.242 136.952 213.496C136.952 213.381 136.763 213.37 136.773 213.496C136.801 214.243 136.776 214.99 136.7 215.733C136.7 215.869 136.7 216.016 136.7 216.153C136.217 214.641 135.734 213.139 135.24 211.669C135.24 211.564 135.03 211.606 135.062 211.669C136.007 214.819 136.469 216.804 137.162 219.355C137.855 221.907 138.569 224.28 139.262 226.705C139.955 229.131 140.763 231.598 141.53 234.055C141.961 235.512 142.465 236.945 143.042 238.35C143.483 239.295 143.504 238.854 143.147 237.604Z" fill="#263238"/>
<path d="M120.561 246.078C120.151 243.485 119.742 240.828 119.427 238.266C118.786 233.016 118.377 227.85 118.146 222.6C118.009 219.597 117.789 216.615 117.621 213.623C117.621 213.592 117.609 213.563 117.587 213.541C117.565 213.52 117.536 213.507 117.505 213.507C117.475 213.507 117.445 213.52 117.424 213.541C117.402 213.563 117.39 213.592 117.39 213.623C117.39 216.29 117.295 218.946 117.39 221.613C117.39 222.002 117.39 222.39 117.39 222.779L117.264 222.233C116.875 220.71 116.329 219.219 115.993 217.676C115.984 217.658 115.969 217.644 115.95 217.636C115.932 217.629 115.911 217.628 115.892 217.635C115.873 217.641 115.857 217.654 115.847 217.671C115.836 217.688 115.833 217.709 115.836 217.728C116.214 219.261 116.413 220.878 116.77 222.38C116.959 223.146 117.148 223.913 117.358 224.679L117.463 225.005C117.526 226.538 117.6 228.071 117.705 229.604C117.99 234.865 118.596 240.104 119.521 245.291C120.156 248.683 121.072 252.016 122.262 255.255C122.268 255.271 122.279 255.285 122.293 255.295C122.307 255.305 122.324 255.31 122.341 255.31C122.358 255.31 122.375 255.305 122.389 255.295C122.403 255.285 122.413 255.271 122.419 255.255C121.8 252.662 120.981 248.672 120.561 246.078Z" fill="#263238"/>
<path d="M152.534 245.133C151.437 247.018 150.455 248.968 149.594 250.971C148.67 252.945 147.735 254.919 146.864 256.914C145.096 260.842 143.551 264.867 142.233 268.968C142.231 268.991 142.236 269.014 142.248 269.034C142.26 269.054 142.278 269.069 142.299 269.077C142.321 269.085 142.345 269.087 142.367 269.08C142.389 269.074 142.408 269.06 142.422 269.041C144.375 265.156 146.045 261.114 147.746 257.113C148.586 255.139 149.394 253.144 150.224 251.17C151.053 249.196 151.998 247.212 152.639 245.175C152.66 245.112 152.565 245.08 152.534 245.133Z" fill="#263238"/>
<path d="M262.668 190.796C262.529 190.796 262.395 190.74 262.297 190.642C262.198 190.543 262.143 190.41 262.143 190.271V175.497C262.143 175.358 262.198 175.224 262.297 175.126C262.395 175.027 262.529 174.972 262.668 174.972C262.807 174.972 262.941 175.027 263.039 175.126C263.138 175.224 263.193 175.358 263.193 175.497V190.271C263.193 190.41 263.138 190.543 263.039 190.642C262.941 190.74 262.807 190.796 262.668 190.796V190.796Z" fill="#263238"/>
<path d="M235.935 197.873C235.842 197.873 235.75 197.849 235.669 197.803C235.588 197.757 235.521 197.691 235.473 197.61L228.123 184.811C228.08 184.751 228.05 184.684 228.034 184.612C228.019 184.54 228.019 184.466 228.034 184.394C228.049 184.322 228.079 184.254 228.122 184.194C228.165 184.135 228.22 184.085 228.284 184.048C228.347 184.011 228.418 183.988 228.491 183.98C228.564 183.972 228.638 183.98 228.708 184.002C228.778 184.024 228.842 184.061 228.897 184.11C228.952 184.159 228.996 184.219 229.026 184.286L236.376 197.085C236.412 197.144 236.435 197.21 236.445 197.278C236.454 197.346 236.45 197.416 236.433 197.482C236.415 197.549 236.384 197.611 236.342 197.666C236.3 197.72 236.247 197.766 236.187 197.799C236.111 197.846 236.024 197.872 235.935 197.873V197.873Z" fill="#263238"/>
<path d="M228.249 303.208C228.156 303.209 228.065 303.184 227.987 303.135C227.928 303.097 227.877 303.047 227.839 302.989C227.8 302.931 227.773 302.866 227.76 302.797C227.747 302.728 227.749 302.657 227.764 302.589C227.78 302.521 227.809 302.457 227.85 302.4L235.2 289.611C235.235 289.551 235.281 289.498 235.335 289.456C235.39 289.414 235.453 289.383 235.52 289.365C235.586 289.347 235.656 289.342 235.725 289.351C235.793 289.36 235.859 289.382 235.919 289.417C235.979 289.451 236.032 289.497 236.074 289.552C236.116 289.607 236.147 289.669 236.165 289.736C236.183 289.803 236.188 289.873 236.179 289.941C236.17 290.01 236.148 290.076 236.114 290.136L228.764 302.925C228.716 303.018 228.641 303.095 228.55 303.145C228.458 303.196 228.353 303.218 228.249 303.208Z" fill="#263238"/>
<path d="M262.332 312.427C262.193 312.427 262.059 312.372 261.961 312.274C261.862 312.175 261.807 312.042 261.807 311.902V297.15C261.807 297.011 261.862 296.877 261.961 296.779C262.059 296.68 262.193 296.625 262.332 296.625C262.471 296.628 262.603 296.684 262.7 296.782C262.798 296.88 262.854 297.012 262.857 297.15V311.924C262.852 312.059 262.794 312.187 262.696 312.281C262.598 312.375 262.468 312.428 262.332 312.427Z" fill="#263238"/>
<path d="M296.457 303.376C296.365 303.376 296.276 303.351 296.196 303.305C296.117 303.259 296.051 303.193 296.006 303.114L288.656 290.325C288.621 290.265 288.599 290.199 288.59 290.13C288.581 290.062 288.586 289.992 288.604 289.925C288.622 289.858 288.653 289.796 288.695 289.741C288.737 289.686 288.79 289.64 288.85 289.606C288.91 289.571 288.976 289.549 289.045 289.54C289.113 289.531 289.183 289.536 289.25 289.554C289.316 289.572 289.379 289.603 289.434 289.645C289.489 289.687 289.535 289.74 289.569 289.8L296.919 302.589C296.955 302.648 296.978 302.714 296.988 302.782C296.997 302.85 296.993 302.919 296.976 302.986C296.958 303.053 296.927 303.115 296.885 303.169C296.843 303.224 296.79 303.269 296.73 303.303C296.648 303.354 296.553 303.379 296.457 303.376V303.376Z" fill="#263238"/>
<path d="M289.359 198.041C289.266 198.041 289.176 198.016 289.097 197.967C289.037 197.933 288.984 197.888 288.942 197.833C288.9 197.779 288.869 197.717 288.851 197.65C288.833 197.583 288.829 197.514 288.839 197.446C288.849 197.378 288.872 197.312 288.908 197.253L296.258 184.454C296.334 184.348 296.447 184.275 296.574 184.249C296.701 184.222 296.834 184.243 296.946 184.308C297.059 184.374 297.143 184.478 297.182 184.602C297.222 184.726 297.214 184.86 297.161 184.979L289.811 197.778C289.763 197.856 289.697 197.921 289.618 197.967C289.539 198.013 289.45 198.038 289.359 198.041V198.041Z" fill="#263238"/>
</svg>
