<svg width="551" height="477" viewBox="0 0 551 477" fill="none" xmlns="http://www.w3.org/2000/svg">
<g clip-path="url(#clip0_309_1116)">
<g opacity="0.29">
<path d="M78.9176 436.609C184.157 490.456 354.785 490.456 460.012 436.609C565.24 382.763 565.252 295.408 460.012 241.621C354.773 187.834 184.157 187.774 78.9176 241.621C-26.3216 295.467 -26.3097 382.775 78.9176 436.609Z" fill="#F5F5F5" fill-opacity="0.5"/>
</g>
<path d="M423.091 350.595C428.865 353.929 440.2 352.778 448.405 348.032L495.736 320.516C503.953 315.769 505.921 309.219 500.147 305.873C494.373 302.527 483.05 303.714 474.833 308.46L427.525 336C419.309 340.711 417.329 347.261 423.091 350.595Z" fill="#EBEBEB" fill-opacity="0.1"/>
<path d="M138.035 375.976L89.885 348.151L138.035 320.314V375.976Z" fill="#EBEBEB"/>
<path d="M274.16 392.623L196.535 347.747L274.184 302.954L274.16 392.623Z" fill="#EBEBEB"/>
<path d="M72.8826 310.916C73.0249 299.644 65.1521 276.185 53.6393 261.413C42.1266 246.64 23.8437 235.712 10.8014 240.019C-1.41089 244.041 -0.28451 260.012 14.3584 270.775C29.0013 281.537 50.9953 295.087 57.2674 313.491L70.6061 336.036L72.8826 310.916Z" fill="#147799"/>
<path opacity="0.1" d="M72.8826 310.916C73.0249 299.644 65.1521 276.185 53.6393 261.413C42.1266 246.64 23.8437 235.712 10.8014 240.019C-1.41089 244.041 -0.28451 260.012 14.3584 270.775C29.0013 281.537 50.9953 295.087 57.2674 313.491L70.6061 336.036L72.8826 310.916Z" fill="#147799"/>
<path d="M73.5346 326.354C73.3546 326.338 73.1849 326.263 73.052 326.141C72.919 326.018 72.8302 325.855 72.7995 325.677C65.6855 287.102 34.9769 255.444 16.445 248.313C16.3331 248.282 16.2287 248.229 16.1388 248.155C16.0488 248.082 15.9752 247.991 15.9228 247.887C15.8704 247.783 15.8402 247.67 15.8343 247.554C15.8284 247.438 15.8469 247.322 15.8886 247.213C15.9302 247.105 15.9942 247.007 16.0762 246.924C16.1583 246.842 16.2566 246.778 16.3649 246.737C16.4732 246.695 16.5891 246.676 16.705 246.682C16.8209 246.688 16.9343 246.718 17.0379 246.77C35.9254 254.044 67.2269 286.224 74.412 325.381C74.4326 325.487 74.4321 325.596 74.4104 325.701C74.3887 325.807 74.3464 325.908 74.2858 325.997C74.2252 326.086 74.1475 326.163 74.0572 326.222C73.967 326.281 73.8659 326.322 73.7599 326.342L73.5346 326.354Z" fill="#147799"/>
<path d="M67.4997 350.915C65.7687 344.555 58.1567 334.007 45.7547 325.214C32.0248 315.496 14.5719 310.893 10.6236 303.405C5.88098 294.411 13.5048 286.058 27.6971 287.98C41.8895 289.902 66.6461 309.647 70.2979 338.907L67.4997 350.915Z" fill="#147799"/>
<path d="M70.3333 344.294C70.175 344.281 70.0238 344.223 69.8977 344.126C69.7716 344.029 69.6759 343.898 69.6219 343.749C58.2277 310.631 33.234 298.754 21.6145 297.105C21.3991 297.075 21.2044 296.96 21.0732 296.787C20.942 296.613 20.8851 296.395 20.915 296.179C20.9449 295.963 21.0591 295.769 21.2325 295.637C21.406 295.506 21.6244 295.449 21.8398 295.479C34.6924 297.306 59.5557 309.409 71.187 343.203C71.2558 343.411 71.241 343.637 71.1459 343.834C71.0507 344.031 70.8826 344.184 70.6772 344.259C70.566 344.293 70.4492 344.305 70.3333 344.294Z" fill="#147799"/>
<path d="M493.282 278.796C493.282 278.796 494.859 255.064 508.85 237.385C522.841 219.705 521.987 212.467 512.336 208.907C502.684 205.347 480.323 226.646 485.255 255.064C490.187 283.483 493.282 278.796 493.282 278.796Z" fill="#147799"/>
<path opacity="0.1" d="M493.282 278.796C493.282 278.796 494.859 255.064 508.85 237.385C522.841 219.705 521.987 212.467 512.336 208.907C502.684 205.347 480.323 226.646 485.255 255.064C490.187 283.483 493.282 278.796 493.282 278.796Z" fill="#147799"/>
<path d="M489.002 265.245C488.862 265.246 488.727 265.193 488.624 265.099C488.52 265.004 488.456 264.874 488.444 264.735C486.82 238.559 505.281 217.082 512.158 212.218C512.216 212.175 512.281 212.144 512.351 212.128C512.421 212.111 512.494 212.109 512.565 212.121C512.636 212.133 512.703 212.159 512.764 212.199C512.824 212.238 512.876 212.288 512.916 212.348C513 212.468 513.033 212.616 513.009 212.76C512.985 212.905 512.905 213.034 512.786 213.119C506.004 217.866 487.887 238.951 489.5 264.664C489.506 264.808 489.457 264.949 489.362 265.057C489.267 265.166 489.133 265.233 488.99 265.245H489.002Z" fill="#147799"/>
<path d="M489.476 298.445C495.777 300.506 502.231 302.061 508.779 303.097C519.616 304.805 524.406 299.62 524.406 299.62C524.406 299.62 520.137 289.451 513.984 286.568C520.642 288.065 526.999 290.676 532.788 294.292C532.788 294.292 539.404 294.399 542.036 284.29C542.036 284.29 538.124 278.203 524.963 274.916C524.963 274.916 532.966 272.899 544.503 275.841C545.368 276.185 549.056 263.121 550.17 257.094C551.285 251.066 548.866 251.161 544.171 249.867C539.475 248.574 523.908 245.121 520.967 247.696C518.027 250.271 516.533 259.123 516.533 259.123C515.368 255.499 515.216 251.625 516.094 247.921C516.094 247.921 511.873 246.272 505.305 248.182C499.945 249.737 499.685 253.391 499.922 257.521C500.239 261.108 501.037 264.636 502.293 268.01C502.293 268.01 498.108 262.647 497.977 251.006C497.977 251.006 486.998 256.465 485.125 267.381C484.034 273.302 482.587 290.662 489.476 298.445Z" fill="#147799"/>
<path d="M491.539 296.333C491.655 296.333 491.768 296.3 491.866 296.24C491.964 296.179 492.044 296.092 492.096 295.989C500.835 277.799 533.357 256.666 545 254.4C545.079 254.386 545.155 254.356 545.222 254.312C545.289 254.269 545.347 254.212 545.392 254.146C545.438 254.08 545.469 254.005 545.485 253.926C545.502 253.848 545.502 253.767 545.487 253.688C545.452 253.529 545.358 253.39 545.223 253.299C545.088 253.208 544.923 253.173 544.763 253.202C532.907 255.515 499.874 276.933 490.994 295.455C490.924 295.602 490.915 295.77 490.968 295.923C491.021 296.076 491.133 296.202 491.278 296.274C491.361 296.31 491.449 296.33 491.539 296.333Z" fill="#147799"/>
<path d="M68.6377 359.316C67.2979 359.316 66.4917 358.213 66.4917 356.35V156.757L310.773 15.639V214.425C310.689 216.084 310.216 217.701 309.392 219.144C308.568 220.587 307.417 221.815 306.031 222.731L70.5822 358.711C69.9981 359.08 69.3276 359.288 68.6377 359.316Z" fill="#FAFAFA"/>
<path d="M310.038 16.8374V214.425C309.939 215.964 309.486 217.46 308.715 218.795C307.944 220.131 306.875 221.271 305.592 222.125L70.2385 358.106C69.7593 358.416 69.2076 358.596 68.6378 358.628C67.3217 358.628 67.1795 357.026 67.1795 356.35V157.161L310.038 16.8374ZM311.425 14.4642L65.7922 156.354V356.35C65.7922 358.723 66.9779 360.016 68.6378 360.016C69.4486 359.987 70.2375 359.745 70.9261 359.316L306.292 223.324C307.785 222.348 309.029 221.034 309.921 219.488C310.813 217.942 311.328 216.207 311.425 214.425V14.4286V14.4642Z" fill="#E0E0E0"/>
<path d="M65.8042 156.354V189.744L311.426 47.8305V14.4286L65.8042 156.354Z" fill="#147799"/>
<path d="M85.0593 158.134V162.88C85.0593 163.853 85.7589 164.256 86.6007 163.77L162.115 120.14V111.834L86.6007 155.464C86.1546 155.759 85.7832 156.154 85.5157 156.617C85.2482 157.08 85.092 157.6 85.0593 158.134Z" fill="#FAFAFA"/>
<path d="M170.213 107.159C171.067 106.661 171.755 107.064 171.755 108.049V112.795C171.724 113.33 171.568 113.849 171.301 114.313C171.033 114.777 170.661 115.171 170.213 115.465L162.115 120.14V111.834L170.213 107.159Z" fill="#455A64"/>
<path d="M65.7922 145.592C65.8896 143.809 66.4051 142.075 67.297 140.528C68.189 138.982 69.4322 137.668 70.9261 136.693L306.292 0.700079C309.125 -0.937384 311.425 0.391571 311.425 3.6665V14.4287L65.7922 156.354V145.592Z" fill="#455A64"/>
<path d="M284.12 19.1037C283.425 19.5629 282.849 20.1792 282.437 20.9028C282.025 21.6263 281.789 22.4368 281.748 23.2686C281.748 24.8111 282.827 25.4281 284.12 24.6687C284.814 24.207 285.39 23.5885 285.802 22.863C286.214 22.1376 286.45 21.3254 286.491 20.492C286.538 18.9376 285.459 18.3325 284.12 19.1037Z" fill="#27DEBF"/>
<path d="M291.803 14.6897C291.108 15.1489 290.532 15.7652 290.12 16.4887C289.708 17.2123 289.472 18.0228 289.431 18.8546C289.431 20.3971 290.51 21.0141 291.803 20.2547C292.496 19.7916 293.071 19.1728 293.483 18.4476C293.895 17.7224 294.131 16.911 294.174 16.078C294.174 14.5355 293.083 13.9184 291.803 14.6897Z" fill="#27DEBF"/>
<path d="M299.379 10.2756C298.685 10.7348 298.108 11.3511 297.696 12.0747C297.285 12.7982 297.049 13.6087 297.008 14.4405C297.008 15.983 298.087 16.6 299.379 15.8406C300.072 15.3775 300.648 14.7587 301.059 14.0335C301.471 13.3084 301.708 12.4969 301.75 11.6639C301.786 10.1214 300.707 9.50438 299.379 10.2756Z" fill="#27DEBF"/>
<g opacity="0.1">
<path d="M234.358 69.5685C232.826 70.5711 231.553 71.9209 230.64 73.5084C229.728 75.0958 229.202 76.8762 229.105 78.705C229.105 82.063 231.477 83.4513 234.358 81.7426C235.891 80.7439 237.167 79.3968 238.082 77.8112C238.997 76.2256 239.524 74.4462 239.622 72.6179C239.634 69.26 237.263 67.8954 234.358 69.5685Z" fill="black"/>
<path d="M210.289 83.4869C208.755 84.4857 207.479 85.8327 206.565 87.4183C205.65 89.0039 205.122 90.7833 205.024 92.6116C205.024 95.9696 207.396 97.3579 210.289 95.6611C211.82 94.6584 213.094 93.3086 214.006 91.7211C214.919 90.1337 215.445 88.3533 215.541 86.5245C215.541 83.1665 213.194 81.8257 210.289 83.4869Z" fill="black"/>
<path d="M258.439 55.7212C256.907 56.7213 255.634 58.0689 254.721 59.6544C253.808 61.2399 253.282 63.0186 253.186 64.8459C253.186 68.2039 255.557 69.5922 258.439 67.8835C259.973 66.8854 261.249 65.5386 262.164 63.9528C263.079 62.367 263.606 60.5873 263.703 58.7588C263.703 55.3415 261.355 53.9769 258.439 55.7212Z" fill="black"/>
<path d="M282.531 41.7197C280.998 42.7185 279.722 44.0655 278.807 45.6511C277.892 47.2367 277.364 49.0161 277.267 50.8444C277.267 54.2024 279.638 55.5907 282.531 53.882C284.064 52.8832 285.34 51.5362 286.255 49.9506C287.17 48.365 287.698 46.5856 287.795 44.7573C287.795 41.3993 285.436 40.0348 282.531 41.7197Z" fill="black"/>
</g>
<path d="M90.2406 192.354L147.401 159.32C150.235 157.683 152.535 159.012 152.535 162.287V217.213C152.438 218.996 151.922 220.73 151.03 222.276C150.138 223.822 148.895 225.137 147.401 226.112L90.2406 259.134C87.4069 260.772 85.1067 259.443 85.1067 256.168V201.254C85.204 199.471 85.7195 197.737 86.6115 196.19C87.5034 194.644 88.7467 193.33 90.2406 192.354Z" fill="#E0E0E0"/>
<path d="M172.051 145.046L291.803 75.8928C294.637 74.2435 296.937 75.5725 296.937 78.8593V133.774C296.839 135.556 296.324 137.291 295.432 138.837C294.54 140.383 293.297 141.697 291.803 142.673L172.051 211.826C169.217 213.463 166.917 212.134 166.917 208.86V153.945C167.015 152.163 167.53 150.428 168.422 148.882C169.314 147.336 170.557 146.022 172.051 145.046Z" fill="#E0E0E0"/>
<path d="M90.2406 275.829L181.11 223.324C183.955 221.686 186.255 222.849 186.255 225.922C186.129 227.648 185.598 229.319 184.706 230.801C183.814 232.284 182.586 233.535 181.121 234.454L90.2406 286.959C87.4069 288.597 85.1067 287.434 85.1067 284.361C85.2334 282.635 85.7642 280.964 86.656 279.482C87.5479 278 88.7759 276.749 90.2406 275.829Z" fill="#E0E0E0"/>
<path d="M90.2406 295.313L181.11 242.807C183.955 241.17 186.255 242.333 186.255 245.406C186.129 247.131 185.598 248.803 184.706 250.285C183.814 251.767 182.586 253.018 181.121 253.937L90.2406 306.443C87.4069 308.08 85.1067 306.917 85.1067 303.844C85.2334 302.119 85.7642 300.447 86.656 298.965C87.5479 297.483 88.7759 296.232 90.2406 295.313Z" fill="#E0E0E0"/>
<path d="M90.2406 314.784L181.11 262.279C183.955 260.641 186.255 261.804 186.255 264.877C186.129 266.603 185.598 268.274 184.706 269.756C183.814 271.239 182.586 272.49 181.121 273.409L90.2406 325.914C87.4069 327.552 85.1067 326.389 85.1067 323.316C85.2334 321.59 85.7642 319.919 86.656 318.437C87.5479 316.955 88.7759 315.703 90.2406 314.784Z" fill="#E0E0E0"/>
<path d="M133.221 248.74C133.281 247.671 133.592 246.631 134.127 245.703C134.663 244.776 135.408 243.987 136.303 243.401L293.89 152.355C294.845 151.87 295.901 151.616 296.972 151.616C298.044 151.616 299.1 151.87 300.055 152.355L303.529 154.361C304.424 154.946 305.169 155.735 305.702 156.663C306.236 157.591 306.543 158.631 306.6 159.7V280.588C306.541 281.656 306.233 282.696 305.7 283.623C305.166 284.551 304.423 285.34 303.529 285.927L145.967 376.972C145.011 377.458 143.955 377.711 142.884 377.711C141.812 377.711 140.756 377.458 139.801 376.972L136.327 374.967C135.431 374.381 134.685 373.593 134.15 372.665C133.614 371.738 133.304 370.697 133.244 369.628L133.221 248.74Z" fill="#147799" stroke="black" stroke-width="0.25" stroke-miterlimit="10"/>
<path opacity="0.4" d="M134.11 245.702L142.86 250.757L305.687 156.662C305.166 155.723 304.42 154.928 303.517 154.349L300.102 152.355C299.151 151.87 298.099 151.617 297.031 151.617C295.964 151.617 294.912 151.87 293.961 152.355L136.303 243.401C135.39 243.97 134.635 244.762 134.11 245.702Z" fill="#147799" stroke="black" stroke-width="0.5" stroke-miterlimit="10"/>
<path opacity="0.4" d="M133.221 248.74V369.628C133.28 370.697 133.591 371.738 134.126 372.665C134.662 373.593 135.407 374.381 136.303 374.967L139.777 376.972C140.044 377.127 140.326 377.255 140.619 377.352C141.032 377.491 141.457 377.59 141.888 377.649C142.698 377.748 143.519 377.716 144.318 377.554C144.523 377.517 144.725 377.465 144.923 377.4L145.291 377.257C145.057 377.358 144.805 377.41 144.55 377.41C144.295 377.41 144.043 377.358 143.809 377.257C143.48 377.039 143.219 376.733 143.054 376.375C142.889 376.017 142.826 375.62 142.872 375.228V254.317C142.841 253.767 142.977 253.221 143.263 252.751C143.549 252.28 143.971 251.908 144.473 251.683L142.872 250.757L134.11 245.703C133.561 246.623 133.255 247.668 133.221 248.74Z" fill="#147799" stroke="black" stroke-width="0.5" stroke-miterlimit="10"/>
<path opacity="0.4" d="M143.002 250.757L215.98 278.048C218.503 278.99 221.272 279.043 223.83 278.2C226.388 277.356 228.583 275.667 230.054 273.409L241.78 255.444L306.422 156.33L244.116 256.121L306.742 280.647C306.69 281.737 306.36 282.795 305.782 283.72L243.938 256.429L230.326 278.203C228.813 280.624 226.477 282.419 223.748 283.256C221.019 284.093 218.08 283.916 215.47 282.759L205.771 278.475L143.951 377.281C143.622 377.063 143.359 376.758 143.191 376.4C143.024 376.042 142.959 375.645 143.002 375.252V373.247L205.475 278.404L143.002 250.757Z" fill="#147799" stroke="black" stroke-width="0.5" stroke-miterlimit="10"/>
<path d="M272.892 111.976V389.514C272.892 392.789 275.192 394.118 278.026 392.481L402.615 320.492C404.109 319.516 405.352 318.202 406.244 316.656C407.136 315.11 407.651 313.375 407.749 311.593V34.0545C407.749 30.7796 405.448 29.4506 402.615 31.0881L278.026 103.077C276.53 104.051 275.286 105.365 274.394 106.912C273.502 108.458 272.987 110.193 272.892 111.976Z" fill="#FAFAFA" stroke="#E0E0E0" stroke-width="1.17" stroke-miterlimit="10"/>
<path d="M280.112 117.138C280.152 116.698 280.294 116.274 280.527 115.899C280.759 115.525 281.076 115.209 281.452 114.978L295.68 106.779C296.415 106.352 297.008 106.637 297.008 107.408C296.97 107.847 296.83 108.27 296.6 108.645C296.369 109.02 296.054 109.336 295.68 109.568L281.452 117.767C280.717 118.194 280.112 117.909 280.112 117.138Z" fill="#455A64"/>
<path d="M280.112 122.667C280.151 122.228 280.293 121.803 280.526 121.428C280.758 121.053 281.076 120.738 281.452 120.508L295.68 112.309C296.415 111.881 297.008 112.166 297.008 112.926C296.972 113.366 296.833 113.792 296.602 114.17C296.372 114.547 296.056 114.864 295.68 115.097L281.452 123.284C280.717 123.712 280.112 123.439 280.112 122.667Z" fill="#455A64"/>
<path d="M280.112 128.197C280.151 127.757 280.293 127.333 280.526 126.958C280.758 126.583 281.076 126.267 281.452 126.037L295.68 117.838C296.415 117.411 297.008 117.684 297.008 118.455C296.972 118.894 296.833 119.319 296.602 119.694C296.371 120.069 296.056 120.385 295.68 120.615L281.452 128.814C280.717 129.288 280.112 128.968 280.112 128.197Z" fill="#455A64"/>
<path d="M398.121 57.0265V54.8076C398.122 54.7806 398.116 54.7539 398.103 54.73C398.091 54.7061 398.072 54.686 398.049 54.6716C398.026 54.6572 398 54.649 397.973 54.6479C397.946 54.6467 397.92 54.6527 397.896 54.6652L396.188 55.4365C396.161 55.4498 396.132 55.4569 396.102 55.4574C396.072 55.4578 396.042 55.4515 396.015 55.439C395.988 55.4265 395.964 55.4081 395.944 55.3851C395.925 55.362 395.911 55.335 395.904 55.3059C395.813 55.0101 395.686 54.727 395.524 54.4635C395.492 54.399 395.475 54.3279 395.475 54.2558C395.475 54.1837 395.492 54.1126 395.524 54.0482L396.71 51.7462C396.739 51.6879 396.744 51.6204 396.724 51.5583C396.704 51.4962 396.661 51.4444 396.603 51.414L395.418 50.7021C395.362 50.6735 395.297 50.6662 395.236 50.6815C395.175 50.6968 395.122 50.7336 395.086 50.7851L393.663 52.9209C393.621 52.9782 393.565 53.0243 393.501 53.0553C393.437 53.0863 393.366 53.1013 393.295 53.0989C392.984 53.0964 392.674 53.1282 392.37 53.1939C392.341 53.2029 392.311 53.2052 392.281 53.2007C392.251 53.1962 392.222 53.185 392.197 53.1679C392.172 53.1508 392.151 53.1282 392.136 53.1019C392.121 53.0756 392.112 53.0462 392.11 53.0159L391.92 51.153C391.92 51.0224 391.801 50.9631 391.695 51.0343L389.774 52.1378C389.713 52.1777 389.662 52.2301 389.623 52.2914C389.584 52.3528 389.559 52.4218 389.549 52.4938L389.359 54.6296C389.333 54.7812 389.263 54.9217 389.157 55.033C388.772 55.4014 388.416 55.798 388.09 56.2196C388.044 56.2728 387.984 56.3114 387.917 56.3304C387.849 56.3494 387.778 56.348 387.711 56.3264L386.525 55.8992C386.462 55.8791 386.393 55.881 386.331 55.9047C386.268 55.9284 386.216 55.9724 386.181 56.0298L384.77 58.4741C384.742 58.5321 384.732 58.5978 384.743 58.6616C384.753 58.7255 384.784 58.7845 384.83 58.8301L385.826 59.6844C385.874 59.7331 385.909 59.7942 385.926 59.8611C385.942 59.928 385.941 59.9981 385.92 60.0641C385.738 60.5521 385.587 61.0515 385.47 61.5592C385.43 61.703 385.347 61.8313 385.233 61.927L383.478 63.1136C383.419 63.1589 383.371 63.2162 383.336 63.2817C383.302 63.3472 383.281 63.4193 383.276 63.4933V65.7003C383.271 65.7287 383.273 65.7582 383.285 65.7848C383.296 65.8115 383.315 65.8341 383.34 65.8496C383.364 65.8651 383.393 65.8727 383.422 65.8715C383.451 65.8702 383.479 65.8602 383.502 65.8427L385.209 65.0714C385.237 65.0603 385.267 65.0553 385.297 65.0566C385.327 65.0579 385.356 65.0655 385.383 65.0789C385.41 65.0924 385.434 65.1113 385.453 65.1346C385.472 65.1578 385.486 65.1848 385.494 65.2138C385.584 65.5096 385.711 65.7927 385.873 66.0562C385.905 66.1207 385.922 66.1918 385.922 66.2639C385.922 66.336 385.905 66.4071 385.873 66.4715L384.687 68.7616C384.66 68.8222 384.656 68.8905 384.676 68.9538C384.696 69.0171 384.738 69.0711 384.794 69.1057L385.98 69.8177C386.036 69.8462 386.1 69.8535 386.161 69.8382C386.222 69.823 386.276 69.7862 386.312 69.7346L387.734 67.5988C387.777 67.5415 387.832 67.4954 387.896 67.4644C387.96 67.4334 388.031 67.4184 388.102 67.4208C388.413 67.4233 388.723 67.3915 389.027 67.3259C389.056 67.3169 389.087 67.3145 389.117 67.319C389.147 67.3235 389.175 67.3347 389.2 67.3518C389.225 67.3689 389.246 67.3915 389.261 67.4178C389.276 67.4442 389.286 67.4736 389.288 67.5039L389.477 69.3668C389.477 69.4973 389.584 69.5566 389.703 69.4854L391.623 68.3819C391.684 68.3391 391.735 68.2845 391.774 68.2212C391.813 68.158 391.838 68.0875 391.849 68.0141L392.038 65.8783C392.062 65.7294 392.132 65.5921 392.24 65.4867C392.625 65.1184 392.981 64.7217 393.307 64.3001C393.353 64.2469 393.413 64.2083 393.481 64.1893C393.548 64.1703 393.62 64.1717 393.686 64.1933L394.872 64.6205C394.936 64.6407 395.004 64.6387 395.067 64.615C395.129 64.5914 395.182 64.5473 395.216 64.49L396.627 62.0457C396.657 61.985 396.666 61.9162 396.654 61.8497C396.641 61.7832 396.606 61.7228 396.556 61.6778L395.572 60.8353C395.523 60.7866 395.488 60.7256 395.472 60.6587C395.455 60.5918 395.457 60.5216 395.477 60.4556C395.659 59.9677 395.81 59.4682 395.927 58.9606C395.961 58.8139 396.045 58.6837 396.165 58.5927L397.919 57.4062C397.977 57.3598 398.024 57.3023 398.059 57.237C398.094 57.1717 398.115 57.1001 398.121 57.0265ZM390.616 64.0272C388.825 65.0714 387.379 64.2289 387.379 62.1643C387.434 61.0372 387.757 59.9394 388.32 58.9615C388.882 57.9836 389.669 57.1536 390.616 56.54C392.406 55.5077 393.853 56.3501 393.853 58.4147C393.795 59.5398 393.472 60.6352 392.909 61.6109C392.346 62.5866 391.56 63.4147 390.616 64.0272Z" fill="#37474F"/>
<path d="M340.32 111.727C354.88 103.314 366.677 110.137 366.677 126.963C366.677 143.788 354.88 164.233 340.32 172.646C325.76 181.058 313.963 174.236 313.963 157.422C313.963 140.608 325.76 120.14 340.32 111.727Z" fill="#455A64"/>
<path d="M340.142 124.969C344.885 122.24 348.691 124.447 348.691 129.905C348.528 132.872 347.67 135.759 346.184 138.332C344.699 140.905 342.629 143.091 340.142 144.714C335.4 147.443 331.582 145.236 331.582 139.778C331.745 136.81 332.605 133.922 334.092 131.349C335.58 128.776 337.652 126.59 340.142 124.969Z" fill="#147799" stroke="#147799" stroke-miterlimit="10"/>
<path d="M357.014 154.064C357.014 145.105 350.718 141.463 342.964 145.948L338.043 148.748C330.289 153.233 323.993 164.173 323.993 173.108V175.564C325.457 176.033 326.986 176.269 328.523 176.265C332.682 176.123 336.733 174.896 340.273 172.705C347.045 168.542 352.772 162.879 357.014 156.152V154.064Z" fill="#147799"/>
<path d="M316.536 197.67L364.128 170.178C365.539 169.359 366.689 169.94 366.689 171.483C366.625 172.344 366.36 173.178 365.915 173.918C365.47 174.657 364.858 175.283 364.128 175.742L316.547 203.235C315.125 204.066 313.975 203.473 313.975 201.942C314.036 201.079 314.3 200.242 314.745 199.5C315.19 198.757 315.803 198.131 316.536 197.67Z" fill="#147799"/>
<path d="M311.425 217.344L369.215 183.87C370.637 183.052 371.787 183.633 371.787 185.176C371.723 186.038 371.456 186.873 371.009 187.613C370.562 188.353 369.948 188.978 369.215 189.436L311.425 222.909C310.003 223.727 308.853 223.146 308.853 221.603C308.917 220.741 309.183 219.906 309.63 219.166C310.077 218.426 310.692 217.801 311.425 217.344Z" fill="#455A64"/>
<path d="M370.756 210.853L386.94 201.503C387.794 201.016 388.482 201.242 388.482 202.013C388.417 202.486 388.245 202.938 387.978 203.333C387.71 203.728 387.355 204.056 386.94 204.291L370.756 213.641C369.914 214.128 369.215 213.902 369.215 213.143C369.28 212.669 369.452 212.216 369.72 211.819C369.987 211.422 370.341 211.092 370.756 210.853Z" fill="#37474F"/>
<path d="M289.906 252.015L313.678 238.286C315.089 237.468 316.239 238.132 316.239 239.77V256.097C316.19 256.987 315.933 257.854 315.488 258.627C315.043 259.4 314.423 260.057 313.678 260.546L289.906 274.275C288.495 275.094 287.345 274.429 287.345 272.792V256.465C287.394 255.574 287.651 254.707 288.096 253.935C288.541 253.162 289.161 252.504 289.906 252.015Z" fill="#147799"/>
<path d="M293.7 254.293L309.884 244.943C310.738 244.457 311.425 244.682 311.425 245.441C311.363 245.916 311.191 246.371 310.924 246.768C310.656 247.165 310.301 247.495 309.884 247.732L293.7 257.082C292.846 257.568 292.158 257.343 292.158 256.583C292.221 256.108 292.393 255.654 292.66 255.257C292.927 254.859 293.283 254.53 293.7 254.293Z" fill="#FAFAFA"/>
<path d="M292.158 262.528V267.274C292.158 268.259 292.846 268.651 293.7 268.164L309.884 258.814C310.333 258.522 310.706 258.128 310.974 257.664C311.242 257.2 311.396 256.679 311.425 256.144V251.398C311.425 250.413 310.738 250.022 309.884 250.508L293.7 259.811C293.246 260.109 292.87 260.511 292.602 260.984C292.334 261.456 292.182 261.985 292.158 262.528Z" fill="#FAFAFA"/>
<path d="M328.44 229.755L352.153 216.026C353.576 215.208 354.726 215.872 354.726 217.51V233.837C354.677 234.729 354.419 235.597 353.972 236.37C353.525 237.143 352.902 237.8 352.153 238.286L328.44 252.015C327.017 252.834 325.879 252.169 325.879 250.532V234.205C325.925 233.313 326.181 232.446 326.626 231.672C327.071 230.899 327.693 230.242 328.44 229.755Z" fill="#147799"/>
<path d="M332.234 232.033L348.418 222.683C349.26 222.197 349.948 222.422 349.948 223.181C349.885 223.655 349.714 224.107 349.449 224.504C349.184 224.902 348.831 225.232 348.418 225.471L332.234 234.822C331.38 235.308 330.692 235.083 330.692 234.311C330.757 233.838 330.929 233.387 331.196 232.992C331.464 232.596 331.819 232.268 332.234 232.033Z" fill="#FAFAFA"/>
<path d="M330.93 239.473V243.946C330.93 244.872 331.606 245.24 332.447 244.777L348.43 236.079C348.866 235.816 349.232 235.45 349.497 235.014C349.761 234.578 349.916 234.085 349.948 233.576V229.102C349.948 228.189 349.26 227.809 348.418 228.272L332.435 237.017C332.006 237.276 331.646 237.634 331.384 238.061C331.122 238.489 330.966 238.973 330.93 239.473Z" fill="#FAFAFA"/>
<path d="M366.974 207.495L390.687 193.755C392.098 192.936 393.248 193.6 393.248 195.238V211.577C393.199 212.467 392.942 213.334 392.497 214.107C392.052 214.88 391.432 215.537 390.687 216.026L366.974 229.755C365.551 230.574 364.401 229.909 364.401 228.272V211.945C364.449 211.053 364.708 210.185 365.155 209.411C365.602 208.638 366.225 207.982 366.974 207.495Z" fill="#147799"/>
<path d="M370.756 209.773L386.94 200.482C387.794 199.984 388.482 200.209 388.482 200.981C388.42 201.455 388.249 201.907 387.981 202.303C387.713 202.699 387.357 203.026 386.94 203.259L370.756 212.609C369.914 213.107 369.215 212.882 369.215 212.111C369.27 211.627 369.438 211.164 369.706 210.758C369.974 210.352 370.334 210.014 370.756 209.773Z" fill="#FAFAFA"/>
<path d="M369.215 218.008V222.754C369.215 223.727 369.914 224.131 370.756 223.644L386.94 214.282C387.39 213.991 387.763 213.597 388.031 213.133C388.299 212.669 388.454 212.148 388.482 211.612V206.866C388.482 205.881 387.794 205.478 386.94 205.976L370.756 215.326C370.306 215.621 369.933 216.017 369.665 216.483C369.397 216.949 369.243 217.471 369.215 218.008Z" fill="#FAFAFA"/>
<path d="M292.479 289.475L388.161 234.193C391.007 232.555 393.295 233.718 393.295 236.791C393.171 238.518 392.642 240.19 391.75 241.673C390.858 243.155 389.628 244.406 388.161 245.323L292.479 300.605C289.645 302.242 287.345 301.08 287.345 298.006C287.471 296.281 288.002 294.609 288.894 293.127C289.786 291.645 291.014 290.394 292.479 289.475Z" fill="#E0E0E0"/>
<path d="M292.479 311.747L388.161 256.465C391.007 254.827 393.295 255.99 393.295 259.063C393.171 260.789 392.642 262.462 391.75 263.944C390.858 265.427 389.628 266.678 388.161 267.595L292.479 322.889C289.645 324.526 287.345 323.363 287.345 320.278C287.471 318.553 288.002 316.881 288.894 315.399C289.786 313.917 291.014 312.666 292.479 311.747Z" fill="#E0E0E0"/>
<path d="M325.238 313.361L374.562 284.657C376.661 283.471 378.356 284.432 378.356 286.864V302.871C378.287 304.195 377.908 305.485 377.249 306.635C376.59 307.785 375.669 308.764 374.562 309.492L325.238 338.195C323.14 339.382 321.444 338.421 321.444 335.988V319.982C321.513 318.657 321.893 317.368 322.552 316.218C323.211 315.068 324.131 314.089 325.238 313.361Z" fill="#147799"/>
<path d="M294.565 291.124C293.871 291.586 293.295 292.205 292.883 292.93C292.471 293.656 292.235 294.468 292.194 295.301C292.194 296.832 293.273 297.461 294.565 296.689C295.26 296.228 295.836 295.609 296.248 294.884C296.66 294.158 296.896 293.346 296.937 292.513C296.972 290.982 295.893 290.353 294.565 291.124Z" fill="#FAFAFA"/>
<path d="M302.201 286.71C301.505 287.171 300.928 287.789 300.516 288.515C300.104 289.24 299.869 290.053 299.83 290.887C299.83 292.418 300.897 293.047 302.201 292.275C302.896 291.814 303.472 291.195 303.884 290.47C304.296 289.744 304.532 288.932 304.572 288.099C304.608 286.568 303.529 285.915 302.201 286.71Z" fill="#FAFAFA"/>
<path d="M309.825 282.356C309.13 282.817 308.554 283.436 308.142 284.161C307.73 284.887 307.494 285.699 307.454 286.532C307.454 288.063 308.533 288.692 309.825 287.921C310.519 287.459 311.096 286.84 311.508 286.115C311.92 285.389 312.155 284.577 312.196 283.744C312.232 282.154 311.153 281.525 309.825 282.356Z" fill="#FAFAFA"/>
<path d="M317.46 277.882C316.765 278.343 316.188 278.962 315.776 279.687C315.364 280.413 315.129 281.225 315.089 282.059C315.089 283.59 316.168 284.218 317.46 283.447C318.155 282.985 318.731 282.367 319.143 281.641C319.555 280.916 319.791 280.104 319.832 279.27C319.867 277.74 318.788 277.111 317.46 277.882Z" fill="#FAFAFA"/>
<path d="M325.084 273.468C324.39 273.93 323.813 274.548 323.401 275.274C322.99 275.999 322.754 276.811 322.713 277.645C322.713 279.175 323.792 279.804 325.084 279.033C325.779 278.571 326.355 277.953 326.767 277.227C327.179 276.502 327.415 275.69 327.456 274.856C327.491 273.326 326.412 272.697 325.084 273.468Z" fill="#FAFAFA"/>
<path d="M332.708 269.054C332.014 269.516 331.437 270.134 331.025 270.86C330.614 271.585 330.378 272.397 330.337 273.231C330.337 274.762 331.416 275.39 332.708 274.619C333.404 274.159 333.981 273.541 334.393 272.815C334.806 272.089 335.041 271.276 335.08 270.442C335.115 268.912 334.048 268.283 332.708 269.054Z" fill="#FAFAFA"/>
<path d="M340.344 264.64C339.649 265.102 339.073 265.72 338.661 266.446C338.249 267.171 338.013 267.983 337.972 268.817C337.972 270.347 339.051 270.976 340.344 270.205C341.038 269.743 341.615 269.125 342.026 268.399C342.438 267.674 342.674 266.862 342.715 266.028C342.786 264.557 341.672 263.869 340.344 264.64Z" fill="#FAFAFA"/>
<path d="M294.565 313.408C293.872 313.871 293.297 314.49 292.885 315.215C292.473 315.94 292.237 316.752 292.194 317.585C292.194 319.127 293.273 319.744 294.565 318.973C295.26 318.514 295.836 317.898 296.248 317.174C296.66 316.45 296.896 315.64 296.937 314.808C296.972 313.266 295.893 312.649 294.565 313.408Z" fill="#FAFAFA"/>
<path d="M302.201 308.994C301.506 309.455 300.929 310.073 300.517 310.799C300.105 311.525 299.87 312.337 299.83 313.171C299.83 314.713 300.897 315.33 302.201 314.559C302.895 314.1 303.472 313.483 303.884 312.76C304.296 312.036 304.532 311.226 304.572 310.394C304.608 308.852 303.529 308.235 302.201 308.994Z" fill="#FAFAFA"/>
<path d="M309.825 304.58C309.132 305.043 308.556 305.662 308.145 306.387C307.733 307.112 307.496 307.924 307.454 308.757C307.454 310.299 308.533 310.916 309.825 310.145C310.519 309.686 311.096 309.069 311.508 308.346C311.92 307.622 312.155 306.812 312.196 305.98C312.232 304.438 311.153 303.809 309.825 304.58Z" fill="#FAFAFA"/>
<path d="M317.46 300.154C316.766 300.616 316.19 301.234 315.778 301.96C315.366 302.685 315.13 303.497 315.089 304.331C315.089 305.873 316.168 306.49 317.46 305.719C318.155 305.26 318.731 304.644 319.143 303.92C319.555 303.196 319.791 302.386 319.832 301.554C319.867 300.024 318.788 299.395 317.46 300.154Z" fill="#FAFAFA"/>
<path d="M325.084 295.752C324.39 296.214 323.813 296.832 323.401 297.558C322.99 298.283 322.754 299.095 322.713 299.929C322.713 301.471 323.792 302.088 325.084 301.317C325.778 300.858 326.355 300.241 326.767 299.518C327.179 298.794 327.415 297.984 327.456 297.152C327.491 295.609 326.412 294.981 325.084 295.752Z" fill="#FAFAFA"/>
<path d="M332.708 291.338C332.014 291.8 331.437 292.418 331.025 293.144C330.614 293.869 330.378 294.681 330.337 295.515C330.337 297.057 331.416 297.674 332.708 296.903C333.405 296.444 333.984 295.826 334.396 295.1C334.808 294.374 335.042 293.56 335.08 292.726C335.115 291.195 334.048 290.567 332.708 291.338Z" fill="#FAFAFA"/>
<path d="M340.344 286.924C339.649 287.386 339.073 288.004 338.661 288.729C338.249 289.455 338.013 290.267 337.972 291.1C337.972 292.643 339.051 293.26 340.344 292.489C341.039 292.028 341.616 291.409 342.028 290.684C342.44 289.958 342.675 289.146 342.715 288.312C342.786 286.781 341.672 286.153 340.344 286.924Z" fill="#FAFAFA"/>
<path d="M447.349 337.092C443.252 337.12 439.221 336.055 435.671 334.007C427.122 329.059 422.225 318.736 422.225 305.648C422.225 282.652 436.833 256.204 455.424 245.43C465.466 239.627 475.438 238.998 483.512 243.662C492.049 248.598 496.958 258.933 496.958 272.009C496.958 295.004 482.35 321.465 463.7 332.239C458.767 335.259 453.13 336.932 447.349 337.092ZM471.845 257.141C468.959 257.345 466.169 258.263 463.723 259.811C450.207 267.583 438.825 288.597 438.825 305.648C438.825 312.554 440.757 317.798 443.994 319.661C447.681 321.797 452.815 319.471 455.531 317.893C469.083 310.074 480.512 289.06 480.512 272.009C480.512 265.103 478.58 259.87 475.343 257.995C474.276 257.398 473.067 257.103 471.845 257.141Z" fill="#455A64"/>
<path d="M483.417 275.687C483.417 262.765 475.284 257.995 475.284 257.995C478.521 259.87 480.453 265.115 480.453 272.009C480.453 289.06 469.023 310.074 455.471 317.893C452.756 319.471 447.634 321.797 443.935 319.661C443.935 319.661 450.8 323.933 460.285 318.748C474.015 311.26 483.417 292.738 483.417 275.687Z" fill="#37474F"/>
<path d="M470.375 114.207C470.293 111.992 469.355 109.895 467.76 108.356C466.165 106.818 464.036 105.959 461.82 105.959C459.605 105.959 457.476 106.818 455.881 108.356C454.286 109.895 453.348 111.992 453.266 114.207V250.318C453.327 251.081 453.591 251.814 454.031 252.44C454.471 253.066 455.071 253.562 455.768 253.878C457.643 254.826 459.714 255.32 461.815 255.32C463.915 255.32 465.986 254.826 467.861 253.878C468.561 253.565 469.164 253.069 469.606 252.443C470.048 251.817 470.314 251.083 470.375 250.318V114.231V114.207Z" fill="#37474F"/>
<path d="M463.546 144.631C463.452 142.914 462.955 141.244 462.096 139.756C461.237 138.267 460.04 137.003 458.601 136.064C458.093 135.691 457.493 135.466 456.866 135.411C456.239 135.357 455.609 135.476 455.044 135.755L433.963 147.917L433.453 148.214C433.376 148.246 433.304 148.29 433.24 148.345C432.881 148.588 432.544 148.861 432.232 149.163C431.043 150.349 430.32 151.924 430.195 153.599C430.07 155.275 430.551 156.939 431.55 158.289C432.55 159.639 434.001 160.584 435.639 160.952C437.277 161.32 438.993 161.086 440.473 160.293L440.876 160.056L462.111 147.823C462.611 147.465 463.007 146.981 463.259 146.42C463.511 145.86 463.61 145.242 463.546 144.631Z" fill="#455A64"/>
<path d="M463.546 178.709C463.45 176.995 462.953 175.327 462.094 173.841C461.235 172.354 460.038 171.091 458.601 170.154C458.096 169.777 457.496 169.548 456.868 169.491C456.24 169.435 455.609 169.553 455.044 169.833L430.312 184.072L429.802 184.369C429.725 184.402 429.653 184.446 429.588 184.499C429.227 184.739 428.889 185.013 428.58 185.318C427.808 186.088 427.226 187.026 426.879 188.06C426.532 189.094 426.431 190.195 426.582 191.275C426.734 192.355 427.135 193.384 427.754 194.282C428.372 195.18 429.191 195.922 430.146 196.448C431.175 196.995 432.323 197.28 433.489 197.279C434.651 197.284 435.797 196.999 436.821 196.448C436.963 196.377 437.093 196.282 437.224 196.211L462.123 181.972C462.632 181.607 463.033 181.111 463.283 180.536C463.534 179.962 463.624 179.331 463.546 178.709Z" fill="#455A64"/>
</g>
<defs>
<clipPath id="clip0_309_1116">
<rect width="551" height="477" fill="white"/>
</clipPath>
</defs>
</svg>
