<svg width="51" height="61" viewBox="0 0 51 61" fill="none" xmlns="http://www.w3.org/2000/svg">
<g clip-path="url(#clip0_109_3838)">
<path d="M50.8349 35.8725C50.8382 38.156 50.5316 40.4292 49.9237 42.6294L46.9562 41.2268L46.4504 40.9887L46.2986 40.6391C46.1467 40.2911 41.4388 35.755 41.0424 35.3627C40.646 34.9705 40.3012 35.3627 39.6163 35.3627C40.1205 32.1712 39.8077 28.2868 39.6755 26.704C39.6497 26.3698 39.6057 25.9821 39.548 25.5456C39.7911 25.5993 40.0445 25.5822 40.2782 25.4962C40.512 25.4103 40.7165 25.259 40.8677 25.0602C41.34 24.4497 40.7159 21.4902 40.6688 19.3763C40.6604 19.0928 40.667 18.809 40.6885 18.5261C41.5663 18.3949 42.511 18.2209 43.4146 18.0103C45.7689 20.3438 47.6375 23.125 48.9114 26.1917C50.1854 29.2584 50.8393 32.5493 50.8349 35.8725Z" fill="#FF0200"/>
<path d="M46.9516 41.2268L49.9191 42.6295C48.6068 47.3519 45.9476 51.585 42.2694 54.8063L40.2769 50.6013C41.2907 50.6144 42.3045 50.5751 43.3143 50.4838C44.7525 50.3312 45.322 49.6138 45.322 49.6138V49.6016L46.9516 41.2268Z" fill="#253A45"/>
<path d="M46.9516 41.2252L45.3296 49.6C45.357 49.3543 45.8186 45.3264 46.4459 40.9856L46.9516 41.2252Z" fill="#1A2B32"/>
<path d="M35.3518 50.3313C36.4149 47.2344 37.4021 44.0201 38.1751 41.2269C38.2221 41.0529 38.2692 40.8835 38.3163 40.7141C38.6899 39.3404 39.0103 38.0736 39.2549 36.996C39.4059 36.461 39.524 35.9171 39.6087 35.3675C40.2936 35.3675 40.6445 34.9829 41.0348 35.3675C41.4251 35.7521 46.1421 40.2959 46.291 40.6439L46.4428 40.9934C45.8156 45.3372 45.3539 49.3621 45.3266 49.6078V49.62L40.2739 50.606L38.7188 47.323L41.5663 55.4123C38.5612 57.8634 35.0289 59.5765 31.2498 60.4155C32.5544 57.9521 34.0138 54.2356 35.3518 50.3313ZM39.5024 41.4895C39.554 41.3948 40.3711 39.8701 40.6065 38.4979C40.7482 37.6015 40.7482 36.6882 40.6065 35.7918C40.6065 35.7918 40.5154 38.069 39.5024 41.4895Z" fill="#253A45"/>
<path d="M45.3281 49.6138C45.3281 49.6138 44.7586 50.3342 43.3204 50.4838C42.3106 50.5751 41.2968 50.6143 40.283 50.6013L45.3281 49.6138Z" fill="#1A2B32"/>
<path d="M40.2769 50.6014L42.2695 54.8064C42.0401 55.0109 41.8063 55.2078 41.5678 55.4016L38.7203 47.3123L40.2754 50.5953L40.2769 50.6014Z" fill="#1A2B32"/>
<path d="M40.8282 23.7232C40.834 24.0707 40.7413 24.4127 40.5609 24.7092C40.1554 25.28 39.2548 25.277 39.9003 25.2205C40.7477 25.1472 40.8996 24.6023 40.8282 23.7232ZM40.6657 19.3748C40.7158 21.4887 41.337 24.4543 40.8647 25.0587C40.7135 25.2575 40.509 25.4087 40.2752 25.4947C40.0414 25.5807 39.788 25.5978 39.5449 25.5441C39.4021 24.4451 39.1683 23.0455 38.8706 21.4551C39.5039 21.3437 39.8228 23.5126 39.8912 22.8898C39.8989 22.7882 39.8989 22.6862 39.8912 22.5846L40.3468 22.5556C40.3468 22.5556 40.3346 20.6156 40.2845 19.3503C40.4095 19.3789 40.5382 19.3871 40.6657 19.3748Z" fill="#80A1AD"/>
<path d="M40.8282 23.7231C40.8996 24.6023 40.7477 25.1472 39.9003 25.2204C39.2548 25.2769 40.1554 25.28 40.5609 24.7091C40.7413 24.4126 40.834 24.0706 40.8282 23.7231Z" fill="#F9FBFC"/>
<path d="M40.6854 18.5247C40.6639 18.8076 40.6573 19.0914 40.6657 19.3749C40.5369 19.3861 40.4072 19.3763 40.2815 19.3459C40.2724 19.1078 40.2633 18.888 40.2496 18.7201C40.1767 17.6181 39.0043 17.1496 38.2753 18.4301C38.174 17.9315 38.0672 17.4228 37.9548 16.9038C39.6254 16.2826 40.8707 16.6245 40.6885 18.453C40.6885 18.4759 40.687 18.5019 40.6854 18.5247Z" fill="#526C77"/>
<path d="M40.6049 35.7886C40.7466 36.685 40.7466 37.5983 40.6049 38.4947C40.3696 39.8684 39.5525 41.3947 39.5009 41.4862C40.5153 38.0689 40.6049 35.7886 40.6049 35.7886Z" fill="#526C77"/>
<path d="M40.3438 22.554L39.8882 22.583C39.8487 21.9115 39.5146 20.9316 38.7491 20.8553C38.6388 20.2814 38.5218 19.6882 38.3983 19.0756C38.674 19.0366 38.9545 19.0516 39.2245 19.1199C39.356 19.2264 39.4734 19.3496 39.5738 19.4862C40.2132 20.3287 40.3438 22.554 40.3438 22.554Z" fill="#80A1AD"/>
<path d="M40.2815 19.3459C40.3316 20.6142 40.3438 22.5511 40.3438 22.5511C40.3438 22.5511 40.2131 20.3258 39.5844 19.4833C39.4841 19.3466 39.3667 19.2235 39.2351 19.1169C39.5981 19.1887 39.9899 19.2894 40.2815 19.3459Z" fill="#1A2B32"/>
<path d="M40.2496 18.7201C40.2632 18.8941 40.2723 19.1078 40.2815 19.3459C39.9899 19.2894 39.598 19.1932 39.232 19.12C38.9896 18.9061 38.6733 18.7965 38.3512 18.8147C38.3269 18.6896 38.2996 18.5629 38.2737 18.4347C39.0042 17.1495 40.1767 17.6181 40.2496 18.7201Z" fill="#1A2B32"/>
<path d="M39.8958 22.5831C39.9035 22.6847 39.9035 22.7867 39.8958 22.8883C39.8274 23.511 39.5085 21.3422 38.8752 21.4536C38.8372 21.2567 38.8008 21.0552 38.7613 20.8538C39.5222 20.9316 39.8563 21.9115 39.8958 22.5831Z" fill="#1A2B32"/>
<path d="M38.8706 21.4552C39.1743 23.0456 39.4021 24.4452 39.5449 25.5441C39.6026 25.9806 39.6466 26.3683 39.6725 26.7026C39.8046 28.2853 40.1174 32.1698 39.6132 35.3613H39.5996C39.5115 35.8375 39.3961 36.3839 39.2594 36.9898C39.1129 37.5115 38.9092 38.0153 38.6519 38.4917C39.1956 37.0707 39.5236 33.9784 39.4948 30.1886C39.4659 26.3988 38.3816 21.9649 38.0854 19.8449C37.9199 18.6727 37.7544 17.5372 37.6298 16.5115C37.7817 16.4825 37.8683 16.4749 37.8683 16.4749C37.8971 16.6168 37.9275 16.7603 37.9579 16.9007C38.0682 17.4186 38.175 17.9274 38.2783 18.427C38.3041 18.5552 38.3315 18.6819 38.3558 18.807L38.4104 19.0726C38.5339 19.6831 38.6509 20.2764 38.7612 20.8523C38.7962 21.0568 38.8326 21.2583 38.8706 21.4552Z" fill="#F9FBFC"/>
<path d="M31.3424 30.8175C31.3637 30.8328 31.7464 31.1014 32.9204 33.023C34.1353 35.0072 35.7497 37.1715 35.7497 37.1715C35.7497 37.1715 33.5005 31.9042 31.3424 30.8175ZM35.1574 20.3227C35.1073 20.3639 34.2462 21.005 32.7047 20.5455C31.6826 20.2403 31.1511 19.8099 30.905 19.5443C31.0311 19.5809 31.1647 19.6114 31.3029 19.6374C33.9075 20.1212 35.4323 17.2808 36.3253 16.916C36.585 17.6059 36.1582 18.1676 36.1218 18.6346C36.0853 19.1017 36.7292 18.0561 36.7809 16.742C37.0565 16.6477 37.3388 16.5743 37.6253 16.5222C37.7559 17.5479 37.9214 18.6835 38.0809 19.8556C38.377 21.9757 39.4644 26.4187 39.4902 30.1994C39.516 33.98 39.1865 37.0814 38.6473 38.5024C38.5118 38.7512 38.3521 38.9859 38.1705 39.203C37.8612 39.5782 37.4589 39.8646 37.0041 40.0333C32.2855 41.7 32.448 43.7605 25.828 43.7605V42.8264C28.507 42.8264 29.845 42.6387 31.716 41.8908C32.8625 41.4287 33.9604 40.853 34.9934 40.1722C32.9857 40.3096 31.7449 41.2559 29.7721 41.233C27.7993 41.2101 28.059 40.1722 25.8235 40.1722V29.2195C26.8752 29.2127 27.9124 28.9724 28.8609 28.5159C28.8609 28.5159 27.8175 27.9694 25.8341 27.9694V26.5164C27.3969 26.5164 29.1449 25.9547 30.2991 26.7408C31.4533 27.5268 31.8846 28.174 32.0851 28.0992C32.2855 28.0244 32.407 27.4001 32.0851 27.4001H31.757C31.757 27.4001 30.3902 26.1547 29.3529 25.7304C28.3157 25.3061 26.9701 25.3824 26.9701 25.3824C26.9701 25.3824 26.7469 25.7563 25.8296 25.7563V23.737C27.0931 23.737 27.1068 22.9143 27.8768 22.9632C28.6467 23.012 28.9292 23.1876 29.1525 23.0883C29.3757 22.9891 29.3529 22.0199 28.4842 22.0413C27.6155 22.0627 27.4409 22.8045 25.8296 22.8045V16.916C27.5427 16.916 28.2595 18.0073 29.4228 18.833C30.4434 20.1319 31.7099 21.2018 33.1952 21.1225C34.6425 21.0462 35.1285 20.367 35.1574 20.3227ZM38.3315 31.6707C38.2813 31.5181 37.0876 28.0885 36.1779 26.5912C35.2682 25.0939 33.2423 23.5829 33.1649 23.5279C33.2423 23.6271 35.7466 26.8034 37.033 29.2195C38.1735 31.3685 38.3148 31.6387 38.3315 31.6707ZM29.0674 20.0022C30.009 21.1454 30.5284 21.7696 29.7341 22.6915L30.3279 22.5389C30.3279 22.5389 33.4048 25.6296 35.0921 28.87C35.4809 29.6163 35.7801 30.2268 36.0109 30.7259C36.4984 31.9363 36.7869 32.8093 36.7869 32.8093C36.7869 32.8093 36.7869 32.3957 36.0109 30.7259C35.3639 29.1187 34.3722 26.9224 33.256 25.3747C31.2953 22.664 31.1966 22.4885 30.7258 21.791C30.255 21.0935 29.1327 20.0663 29.0613 20.0022H29.0674ZM35.1665 22.3405C35.8362 22.2413 35.7558 21.5178 35.7558 21.5178C35.7558 21.5178 34.9432 22.1665 33.9758 22.0413C34.3208 22.2837 34.7424 22.3901 35.1604 22.3405H35.1665Z" fill="#80A1AD"/>
<path d="M39.232 19.1199C38.9621 19.0516 38.6815 19.0366 38.4059 19.0756L38.3512 18.81C38.6739 18.793 38.9903 18.9043 39.232 19.1199Z" fill="#526C77"/>
<path d="M38.6534 38.4948C38.9107 38.0184 39.1144 37.5146 39.2609 36.9929C39.0164 38.0705 38.6959 39.3327 38.3223 40.711C34.1307 44.3741 29.6658 45.6913 29.5245 45.731C29.7144 45.6043 36.9403 40.7751 38.1811 39.1938C38.3611 38.977 38.5193 38.7429 38.6534 38.4948Z" fill="#1A2B32"/>
<path d="M38.3315 31.6706C38.3148 31.6386 38.1796 31.3654 37.033 29.2194C35.7497 26.8033 33.2362 23.627 33.1649 23.5278C33.2423 23.5828 35.2637 25.0877 36.1779 26.5911C37.0922 28.0945 38.2874 31.5226 38.3315 31.6706Z" fill="#526C77"/>
<path d="M29.52 45.7324C29.6597 45.6928 34.1262 44.3771 38.3178 40.7125C38.2707 40.8819 38.2236 41.0513 38.1765 41.2253C36.0504 44.1085 28.0924 47.1656 28.0924 47.1656H25.8341V46.1705C28.1121 46.1705 28.712 45.3967 28.712 45.3967C28.712 45.3967 27.6489 45.4226 25.8341 45.3967V43.7528C32.4571 43.7528 32.2916 41.6923 37.0102 40.0256C37.4649 39.8569 37.8673 39.5705 38.1765 39.1953C36.9358 40.7766 29.7098 45.6103 29.52 45.7324Z" fill="#526C77"/>
<path d="M37.8637 16.478C37.8637 16.478 37.7772 16.4856 37.6253 16.5146C37.5175 15.6874 37.4309 14.9349 37.3823 14.2893C37.5479 15.0265 37.7088 15.7591 37.8637 16.478Z" fill="#80A1AD"/>
<path d="M30.905 19.5443C30.3738 19.395 29.8734 19.1515 29.4273 18.8254C28.264 17.9997 27.5472 16.916 25.8341 16.916V15.7667C31.5687 15.7667 34.2279 14.6022 37.3048 13.9504C37.3306 14.0634 37.3564 14.1794 37.3823 14.2939C37.4309 14.9395 37.5174 15.6919 37.6253 16.5192C37.3387 16.5713 37.0565 16.6447 36.7809 16.739C36.6396 16.7878 36.4862 16.8443 36.3252 16.913C35.4323 17.2808 33.9075 20.1213 31.3014 19.6374C31.1647 19.6115 31.0311 19.5809 30.905 19.5443Z" fill="#1A2B32"/>
<path d="M36.0094 30.7275C36.7809 32.3973 36.7855 32.8109 36.7855 32.8109C36.7855 32.8109 36.4923 31.9379 36.0094 30.7275Z" fill="#80A1AD"/>
<path d="M36.3253 16.9159C36.4863 16.8473 36.6396 16.7908 36.7809 16.7419C36.7353 18.0561 36.0838 19.1016 36.1218 18.6346C36.1597 18.1675 36.585 17.5982 36.3253 16.9159Z" fill="#1A2B32"/>
<path d="M38.1751 41.2268C37.4021 44.0199 36.4149 47.2343 35.3518 50.3312L35.0891 50.6013L31.7479 54.0309C31.3346 52.4729 30.7015 50.9824 29.8678 49.6047C29.3571 48.7329 28.7608 47.9148 28.0879 47.1626C28.0879 47.1626 36.055 44.11 38.1751 41.2268Z" fill="#F9FBFC"/>
<path d="M33.2499 25.3762C34.3661 26.9239 35.3579 29.1202 36.0048 30.7274C35.774 30.2283 35.4748 29.6178 35.086 28.8715C33.3987 25.6311 30.3219 22.5404 30.3219 22.5404L29.728 22.693C30.5223 21.7772 30.0029 21.1469 29.0613 20.0037C29.1327 20.0678 30.2626 21.1179 30.7198 21.794C31.1769 22.4702 31.2893 22.6655 33.2499 25.3762Z" fill="#1A2B32"/>
<path d="M35.7497 21.5178C35.7497 21.5178 35.8302 22.2413 35.1604 22.3405C34.7397 22.3899 34.3156 22.2812 33.9698 22.0352C34.9372 22.1665 35.7497 21.5178 35.7497 21.5178Z" fill="#526C77"/>
<path d="M35.0891 50.6012L35.3518 50.3311C34.0138 54.2353 32.5544 57.9519 31.2513 60.4046C31.0448 60.4489 30.8367 60.4931 30.6287 60.5344C30.9172 59.9238 32.1474 57.3917 33.2013 55.2839C33.9516 53.7738 34.5832 52.2071 35.0906 50.5982L35.0891 50.6012Z" fill="#1A2B32"/>
<path d="M35.086 50.6043C34.5787 52.2133 33.947 53.78 33.1968 55.2901C32.1413 57.3979 30.9187 59.9346 30.6241 60.5405C30.374 60.5894 30.1209 60.6336 29.8648 60.6733C29.6597 57.1414 28.6225 53.5516 27.6657 52.3367C27.4474 51.8687 27.2046 51.4127 26.9382 50.9706L27.45 50.7341L29.7903 50.1235C29.7903 50.1235 30.7578 51.6941 31.1116 53.0403C31.4655 54.3865 31.3713 55.2839 31.3713 55.2839L35.086 50.6043Z" fill="#F9FBFC"/>
<path d="M35.086 50.6043L31.3774 55.2885C31.3774 55.2885 31.47 54.3911 31.1177 53.0449C30.7654 51.6987 29.7964 50.1281 29.7964 50.1281L27.4561 50.7387L29.8708 49.6199C30.7045 50.9976 31.3376 52.4881 31.751 54.0461L35.086 50.6043Z" fill="#526C77"/>
<path d="M35.7497 37.1714C35.7497 37.1714 34.1307 35.0025 32.9203 33.0229C31.7464 31.1013 31.3637 30.8326 31.3424 30.8174C33.5005 31.9041 35.7497 37.1714 35.7497 37.1714Z" fill="#526C77"/>
<path d="M35.1574 20.3227C35.1286 20.367 34.641 21.0462 33.1998 21.121C31.7145 21.1943 30.4479 20.1243 29.4274 18.8315C29.8734 19.1576 30.3739 19.4011 30.9051 19.5504C31.1511 19.816 31.6826 20.2464 32.7047 20.5517C34.2447 21.005 35.1073 20.3639 35.1574 20.3227Z" fill="#1A2B32"/>
<path d="M34.9994 40.1646C33.9665 40.8454 32.8686 41.4211 31.7221 41.8832C29.8511 42.631 28.5131 42.8188 25.8341 42.8188V40.1646C28.0651 40.1646 27.8084 41.204 29.7827 41.2253C31.757 41.2467 32.9917 40.3019 34.9994 40.1646Z" fill="#526C77"/>
<path d="M32.0851 27.4002C32.407 27.4002 32.2825 28.0244 32.0851 28.0992C31.8876 28.174 31.4518 27.5253 30.2991 26.7408C29.1464 25.9563 27.3968 26.5165 25.8341 26.5165V25.7533C26.7453 25.7533 26.9746 25.3794 26.9746 25.3794C26.9746 25.3794 28.3141 25.3046 29.3575 25.7274C30.4008 26.1502 31.757 27.4002 31.757 27.4002H32.0851Z" fill="#1A2B32"/>
<path d="M29.8708 49.6139L27.4561 50.7327L26.9443 50.9692H25.8341V47.1672H28.0909C28.7641 47.9209 29.3604 48.7406 29.8708 49.6139Z" fill="#1A2B32"/>
<path d="M29.8708 60.6718C29.6871 60.7039 29.5048 60.7329 29.3211 60.7573C29.2846 59.9835 29.1692 57.5521 28.9596 56.3158C28.714 54.9358 28.2807 53.5964 27.6718 52.3352C28.6285 53.5471 29.6658 57.14 29.8708 60.6718Z" fill="#526C77"/>
<path d="M28.1805 54.234C28.2063 54.4049 28.7667 58.0818 28.3764 60.8719C27.5411 60.9558 26.6922 61.0001 25.8341 61.0001V50.9692H26.9443C27.2106 51.4113 27.4534 51.8673 27.6717 52.3353C28.2806 53.5965 28.714 54.9359 28.9596 56.3159C29.1616 57.5537 29.2846 59.979 29.321 60.7574C29.1889 60.7757 29.0598 60.794 28.9292 60.8078C28.9292 60.8078 29.1616 56.6593 28.1805 54.234Z" fill="#1A2B32"/>
<path d="M28.4888 22.0412C29.3575 22.0168 29.3803 22.9891 29.157 23.0883C28.9338 23.1875 28.6483 23.0135 27.8813 22.9631C27.1144 22.9127 27.0977 23.7369 25.8341 23.7369V22.8028C27.4454 22.8028 27.6201 22.0672 28.4888 22.0412Z" fill="#1A2B32"/>
<path d="M28.1805 54.2339C29.1616 56.6592 28.9293 60.8077 28.9293 60.8077C28.7455 60.8321 28.5617 60.8534 28.3765 60.8718C28.7668 58.0817 28.2064 54.4048 28.1805 54.2339Z" fill="#253A45"/>
<path d="M28.7196 45.3982C28.7196 45.3982 28.1121 46.172 25.8341 46.172V45.3982C27.6444 45.4241 28.7196 45.3982 28.7196 45.3982Z" fill="#1A2B32"/>
<path d="M25.8341 27.9756C27.8175 27.9756 28.8609 28.522 28.8609 28.522C27.9151 28.9749 26.8817 29.2131 25.8341 29.2195V27.9756Z" fill="#1A2B32"/>
<path d="M0.8334 35.8725C0.830126 38.156 1.13669 40.4292 1.74462 42.6294L4.7243 41.2268L5.23002 40.9887L5.38189 40.6391C5.53376 40.2911 10.2417 35.755 10.6381 35.3627C11.0345 34.9705 11.3792 35.3627 12.0642 35.3627C11.5599 32.1712 11.8728 28.2868 12.0049 26.704C12.0307 26.3698 12.0748 25.9821 12.1325 25.5456C11.8894 25.5993 11.636 25.5822 11.4022 25.4962C11.1684 25.4103 10.9639 25.259 10.8127 25.0602C10.3404 24.4497 10.9646 21.4902 11.0117 19.3763C11.0201 19.0928 11.0135 18.809 10.992 18.5261C10.1141 18.3949 9.16952 18.2209 8.2583 18.0103C5.90318 20.3434 4.03376 23.1245 2.759 26.1912C1.48424 29.2579 0.829654 32.549 0.8334 35.8725Z" fill="#FF0200"/>
<path d="M4.72424 41.2268L1.75671 42.6295C3.069 47.3519 5.72826 51.585 9.40638 54.8063L11.3913 50.6013C10.3775 50.6144 9.36372 50.5751 8.35393 50.4838C6.91572 50.3312 6.34621 49.6138 6.34621 49.6138V49.6016L4.72424 41.2268Z" fill="#253A45"/>
<path d="M4.72424 41.2252L6.34621 49.6C6.31887 49.3543 5.85719 45.3264 5.22997 40.9856L4.72424 41.2252Z" fill="#1A2B32"/>
<path d="M12.1659 41.4893C12.1143 41.3947 11.2972 39.8699 11.0618 38.4978C10.9201 37.6014 10.9201 36.6881 11.0618 35.7917C11.0618 35.7917 11.1529 38.0689 12.1659 41.4893ZM16.315 50.3342C15.2519 47.2374 14.2647 44.023 13.4917 41.2299C13.4446 41.0559 13.3976 40.8864 13.3505 40.717C12.9769 39.3434 12.6564 38.0765 12.4119 36.999C12.2609 36.4639 12.1427 35.92 12.0581 35.3704C11.3731 35.3704 11.0223 34.9858 10.632 35.3704C10.2417 35.755 5.52464 40.2988 5.37581 40.6468L5.22394 40.9963C5.85116 45.3402 6.31284 49.365 6.34018 49.6108V49.623L11.3929 50.609L12.948 47.3259L10.1005 55.4153C13.1063 57.8654 16.6391 59.5775 20.4185 60.4154C19.1139 57.952 17.6545 54.2354 16.3165 50.3312L16.315 50.3342Z" fill="#253A45"/>
<path d="M6.34015 49.6138C6.34015 49.6138 6.90966 50.3342 8.34786 50.4838C9.35766 50.5751 10.3715 50.6143 11.3853 50.6013L6.34015 49.6138Z" fill="#1A2B32"/>
<path d="M11.3913 50.6014L9.3988 54.8064C9.62813 55.0109 9.862 55.2078 10.1004 55.4016L12.948 47.3123L11.3929 50.5953L11.3913 50.6014Z" fill="#1A2B32"/>
<path d="M10.84 23.7232C10.8342 24.0707 10.9269 24.4127 11.1073 24.7092C11.5128 25.28 12.4134 25.277 11.768 25.2205C10.9205 25.1472 10.7687 24.6023 10.84 23.7232ZM11.0025 19.3748C10.9509 21.4948 10.3313 24.4543 10.799 25.0587C10.9502 25.2575 11.1547 25.4087 11.3885 25.4947C11.6223 25.5807 11.8756 25.5978 12.1188 25.5441C12.2615 24.4451 12.4954 23.0455 12.7931 21.4551C12.1598 21.3437 11.8408 23.5126 11.7725 22.8898C11.7648 22.7882 11.7648 22.6862 11.7725 22.5846L11.3245 22.5556C11.3245 22.5556 11.3366 20.6156 11.3868 19.3503C11.2608 19.3792 11.1311 19.3874 11.0025 19.3748Z" fill="#80A1AD"/>
<path d="M10.8401 23.7231C10.7687 24.6023 10.9206 25.1472 11.768 25.2204C12.4134 25.2769 11.5129 25.28 11.1074 24.7091C10.927 24.4126 10.8343 24.0706 10.8401 23.7231Z" fill="#F9FBFC"/>
<path d="M10.9828 18.5247C11.0043 18.8076 11.0109 19.0914 11.0025 19.3749C11.1313 19.3861 11.2611 19.3763 11.3868 19.3459C11.3959 19.1078 11.405 18.888 11.4187 18.7201C11.4916 17.6181 12.664 17.1496 13.393 18.4301C13.4942 17.9315 13.601 17.4228 13.7134 16.9038C12.0428 16.2826 10.7975 16.6245 10.9798 18.453C10.9798 18.4759 10.9813 18.5019 10.9828 18.5247Z" fill="#526C77"/>
<path d="M11.0633 35.7886C10.9217 36.685 10.9217 37.5983 11.0633 38.4947C11.2987 39.8684 12.1158 41.3947 12.1674 41.4862C11.1529 38.0689 11.0633 35.7886 11.0633 35.7886Z" fill="#526C77"/>
<path d="M11.3245 22.554L11.7725 22.583C11.812 21.9115 12.1461 20.9316 12.9116 20.8553C13.0219 20.2814 13.1389 19.6882 13.2624 19.0756C12.9867 19.0366 12.7062 19.0516 12.4362 19.1199C12.3047 19.2264 12.1873 19.3496 12.0869 19.4862C11.4551 20.3287 11.3245 22.554 11.3245 22.554Z" fill="#80A1AD"/>
<path d="M11.3868 19.3459C11.3367 20.6142 11.3245 22.5511 11.3245 22.5511C11.3245 22.5511 11.4551 20.3258 12.0839 19.4833C12.1842 19.3466 12.3016 19.2235 12.4332 19.1169C12.0702 19.1887 11.6784 19.2894 11.3868 19.3459Z" fill="#1A2B32"/>
<path d="M11.4187 18.7201C11.405 18.8941 11.3959 19.1078 11.3868 19.3459C11.6784 19.2894 12.0702 19.1932 12.4362 19.12C12.6786 18.9061 12.995 18.7965 13.317 18.8147C13.3413 18.6896 13.3687 18.5629 13.3945 18.4347C12.664 17.1495 11.4916 17.6181 11.4187 18.7201Z" fill="#1A2B32"/>
<path d="M11.7726 22.5831C11.7649 22.6847 11.7649 22.7867 11.7726 22.8883C11.8409 23.511 12.1598 21.3422 12.7931 21.4536C12.8311 21.2567 12.8675 21.0552 12.907 20.8538C12.1462 20.9316 11.812 21.9115 11.7726 22.5831Z" fill="#1A2B32"/>
<path d="M13.317 18.8101L13.2623 19.0757C13.1388 19.6862 13.0219 20.2794 12.9115 20.8553C12.872 21.0568 12.8356 21.2583 12.7976 21.4552C12.4939 23.0456 12.2661 24.4452 12.1233 25.5441C12.0656 25.9806 12.0216 26.3683 11.9958 26.7026C11.8636 28.2853 11.5508 32.1698 12.055 35.3613H12.0687C12.1567 35.8375 12.2722 36.3839 12.4088 36.9898C12.5553 37.5115 12.759 38.0153 13.0163 38.4917C12.4726 37.0707 12.1446 33.9784 12.1734 30.1886C12.2023 26.3988 13.2866 21.9649 13.5828 19.8449C13.7483 18.6727 13.9139 17.5372 14.0384 16.5115C13.8865 16.4825 13.8 16.4749 13.8 16.4749C13.7711 16.6168 13.7407 16.7603 13.7104 16.9007C13.6 17.4186 13.4932 17.9274 13.3899 18.427C13.3687 18.5582 13.3413 18.6849 13.317 18.8101Z" fill="#F9FBFC"/>
<path d="M20.3258 30.8175C20.3046 30.8328 19.9219 31.1014 18.7479 33.023C17.533 35.0072 15.9186 37.1715 15.9186 37.1715C15.9186 37.1715 18.1678 31.9042 20.3258 30.8175ZM18.5034 23.5279C18.426 23.6271 15.9216 26.8034 14.6353 29.2195C13.4948 31.3685 13.3535 31.6387 13.3368 31.6707C13.3869 31.5181 14.5806 28.0885 15.4903 26.5912C16.4 25.0939 18.426 23.5829 18.5034 23.5279ZM16.5109 20.3227C16.561 20.3639 17.4221 21.005 18.9636 20.5455C19.9857 20.2403 20.5172 19.8099 20.7632 19.5443C20.6372 19.5809 20.5035 19.6114 20.3653 19.6374C17.7608 20.1212 16.236 17.2808 15.343 16.916C15.0833 17.6059 15.5101 18.1676 15.5465 18.6346C15.583 19.1017 14.939 18.0561 14.8874 16.742C14.6118 16.6477 14.3295 16.5743 14.043 16.5222C13.9124 17.5479 13.7393 18.6835 13.5874 19.8556C13.2913 21.9757 12.2039 26.4187 12.178 30.1994C12.1522 33.98 12.4818 37.0814 13.0209 38.5024C13.1564 38.7512 13.3162 38.9859 13.4978 39.203C13.807 39.5782 14.2094 39.8646 14.6642 40.0333C19.3827 41.7 19.2202 43.7605 25.8402 43.7605V42.8264C23.1613 42.8264 21.8233 42.6387 19.9522 41.8908C18.8057 41.4287 17.7079 40.853 16.6749 40.1722C18.6826 40.3096 19.9234 41.2559 21.8962 41.233C23.869 41.2101 23.6093 40.1722 25.8448 40.1722V29.2195C24.7931 29.2127 23.7559 28.9724 22.8074 28.5159C22.8074 28.5159 23.8507 27.9694 25.8342 27.9694V26.5164C24.2714 26.5164 22.5234 25.9547 21.3692 26.7408C20.215 27.5268 19.7837 28.174 19.5832 28.0992C19.3827 28.0244 19.2612 27.4001 19.5832 27.4001H19.9112C19.9112 27.4001 21.2781 26.1547 22.3153 25.7304C23.3526 25.3061 24.6982 25.3824 24.6982 25.3824C24.6982 25.3824 24.9214 25.7563 25.8387 25.7563V23.737C24.5752 23.737 24.5615 22.9143 23.7915 22.9632C23.0215 23.012 22.7391 23.1876 22.5158 23.0883C22.2926 22.9891 22.3153 22.0199 23.184 22.0413C24.0527 22.0627 24.2274 22.8045 25.8387 22.8045V16.916C24.1256 16.916 23.4088 18.0073 22.2455 18.833C21.2249 20.1319 19.9583 21.2018 18.473 21.1225C17.0257 21.0462 16.5397 20.367 16.5109 20.3227ZM22.6069 20.0022C21.6653 21.1454 21.1459 21.7696 21.9402 22.6915L21.3464 22.5389C21.3464 22.5389 18.2695 25.6296 16.5823 28.87C16.1935 29.6163 15.8943 30.2268 15.6635 30.7259C15.176 31.9363 14.8874 32.8093 14.8874 32.8093C14.8874 32.8093 14.8874 32.3957 15.6635 30.7259C16.3104 29.1187 17.3021 26.9224 18.4184 25.3747C20.379 22.664 20.4777 22.4885 20.9485 21.791C21.4193 21.0935 22.5355 20.0663 22.6069 20.0022ZM16.5078 22.3405C15.8381 22.2413 15.9186 21.5178 15.9186 21.5178C15.9186 21.5178 16.7311 22.1665 17.6985 22.0413C17.3519 22.2851 16.9279 22.3917 16.5078 22.3405Z" fill="#80A1AD"/>
<path d="M12.4362 19.1199C12.7062 19.0516 12.9867 19.0366 13.2624 19.0756L13.3171 18.81C12.9944 18.793 12.6779 18.9043 12.4362 19.1199Z" fill="#526C77"/>
<path d="M13.0148 38.4948C12.7575 38.0184 12.5538 37.5146 12.4073 36.9929C12.6519 38.0705 12.9723 39.3327 13.3459 40.711C17.5375 44.3741 22.0025 45.6913 22.1437 45.731C21.9539 45.6043 14.7279 40.7751 13.4871 39.1938C13.3072 38.977 13.149 38.7429 13.0148 38.4948Z" fill="#1A2B32"/>
<path d="M13.3368 31.6706C13.3535 31.6386 13.4887 31.3654 14.6353 29.2194C15.9186 26.8033 18.432 23.627 18.5034 23.5278C18.4259 23.5828 16.4046 25.0877 15.4903 26.5911C14.576 28.0945 13.3808 31.5226 13.3368 31.6706Z" fill="#526C77"/>
<path d="M22.1483 45.7324C22.0085 45.6928 17.5421 44.3771 13.3505 40.7125C13.3975 40.8819 13.4446 41.0513 13.4917 41.2253C15.6179 44.1085 23.5758 47.1656 23.5758 47.1656H25.8341V46.1705C23.5561 46.1705 22.9562 45.3967 22.9562 45.3967C22.9562 45.3967 24.0193 45.4226 25.8341 45.3967V43.7528C19.2111 43.7528 19.3766 41.6923 14.6581 40.0256C14.2033 39.8569 13.8009 39.5705 13.4917 39.1953C14.7325 40.7766 21.9584 45.6103 22.1483 45.7324Z" fill="#526C77"/>
<path d="M13.8046 16.478C13.8046 16.478 13.8911 16.4856 14.043 16.5146C14.1508 15.6874 14.2374 14.9349 14.286 14.2893C14.1205 15.0265 13.9595 15.7591 13.8046 16.478Z" fill="#80A1AD"/>
<path d="M22.2409 18.8254C23.4042 17.9997 24.121 16.916 25.8341 16.916V15.7667C20.0995 15.7667 17.4403 14.6022 14.3634 13.9504L14.286 14.2939C14.2374 14.9395 14.1508 15.6919 14.043 16.5192C14.3295 16.5713 14.6117 16.6447 14.8874 16.739C15.0286 16.7878 15.182 16.8443 15.343 16.913C16.236 17.2854 17.7607 20.1274 20.3653 19.642C20.5035 19.6161 20.6371 19.5855 20.7632 19.5489C21.2947 19.3981 21.7951 19.1531 22.2409 18.8254Z" fill="#1A2B32"/>
<path d="M15.6589 30.7275C14.8874 32.3973 14.8828 32.8109 14.8828 32.8109C14.8828 32.8109 15.1759 31.9379 15.6589 30.7275Z" fill="#80A1AD"/>
<path d="M15.343 16.9159C15.182 16.8473 15.0286 16.7908 14.8874 16.7419C14.933 18.0561 15.5845 19.1016 15.5465 18.6346C15.5085 18.1675 15.0833 17.5982 15.343 16.9159Z" fill="#1A2B32"/>
<path d="M13.4932 41.2268C14.2662 44.0199 15.2534 47.2343 16.3165 50.3312L16.5792 50.6013L19.9203 54.0309C20.3337 52.4729 20.9668 50.9824 21.8005 49.6047C22.3112 48.7329 22.9074 47.9148 23.5804 47.1626C23.5804 47.1626 15.6133 44.11 13.4932 41.2268Z" fill="#F9FBFC"/>
<path d="M18.4183 25.3762C17.3021 26.9239 16.3104 29.1263 15.6589 30.7274C15.8897 30.2283 16.1889 29.6178 16.5777 28.8715C18.265 25.6311 21.3418 22.5404 21.3418 22.5404L21.9356 22.693C21.1414 21.7772 21.6608 21.1469 22.6023 20.0037C22.531 20.0678 21.4011 21.1179 20.9439 21.794C20.4868 22.4702 20.379 22.6655 18.4183 25.3762Z" fill="#1A2B32"/>
<path d="M15.9186 21.5178C15.9186 21.5178 15.8381 22.2413 16.5078 22.3405C16.9286 22.3899 17.3527 22.2812 17.6985 22.0352C16.731 22.1665 15.9186 21.5178 15.9186 21.5178Z" fill="#526C77"/>
<path d="M16.5792 50.6012L16.3165 50.3311C17.6544 54.2353 19.1139 57.9519 20.4169 60.4046C20.6235 60.4489 20.8315 60.4931 21.0396 60.5344C20.7511 59.9238 19.5209 57.3917 18.4669 55.2839C17.7167 53.7738 17.085 52.2071 16.5777 50.5982L16.5792 50.6012Z" fill="#1A2B32"/>
<path d="M16.5822 50.6043C17.0896 52.2133 17.7212 53.78 18.4715 55.2901C19.527 57.3979 20.7495 59.9346 21.0441 60.5405C21.2952 60.5894 21.5483 60.6336 21.8035 60.6733C22.0085 57.1414 23.0458 53.5516 24.0026 52.3367C24.2208 51.8687 24.4637 51.4127 24.73 50.9706L24.2182 50.7341L21.8779 50.1235C21.8779 50.1235 20.9105 51.6941 20.5566 53.0403C20.2028 54.3865 20.2969 55.2839 20.2969 55.2839L16.5822 50.6043Z" fill="#F9FBFC"/>
<path d="M16.5822 50.6043L20.2909 55.2885C20.2909 55.2885 20.1982 54.3911 20.5506 53.0449C20.9029 51.6987 21.8718 50.1281 21.8718 50.1281L24.2121 50.7387L21.7974 49.6199C20.9638 50.9976 20.3306 52.4881 19.9173 54.0461L16.5822 50.6043Z" fill="#526C77"/>
<path d="M15.9186 37.1714C15.9186 37.1714 17.5375 35.0025 18.7479 33.0229C19.9219 31.1013 20.3046 30.8326 20.3258 30.8174C18.1678 31.9041 15.9186 37.1714 15.9186 37.1714Z" fill="#526C77"/>
<path d="M16.5109 20.3227C16.5397 20.367 17.0272 21.0462 18.4685 21.121C19.9537 21.1943 21.2203 20.1243 22.2409 18.8315C21.7948 19.1576 21.2944 19.4011 20.7632 19.5504C20.5172 19.816 19.9856 20.2464 18.9636 20.5517C17.4236 21.005 16.561 20.3639 16.5109 20.3227Z" fill="#1A2B32"/>
<path d="M16.6688 40.1646C17.7018 40.8454 18.7997 41.4211 19.9462 41.8832C21.8172 42.631 23.1552 42.8188 25.8341 42.8188V40.1646C23.6032 40.1646 23.8598 41.204 21.8855 41.2253C19.9112 41.2467 18.6765 40.3019 16.6688 40.1646Z" fill="#526C77"/>
<path d="M19.5832 27.4002C19.2612 27.4002 19.3857 28.0244 19.5832 28.0992C19.7806 28.174 20.2165 27.5253 21.3692 26.7408C22.5219 25.9563 24.2714 26.5165 25.8341 26.5165V25.7533C24.9229 25.7533 24.6936 25.3794 24.6936 25.3794C24.6936 25.3794 23.3541 25.3046 22.3108 25.7274C21.2674 26.1502 19.9112 27.4002 19.9112 27.4002H19.5832Z" fill="#1A2B32"/>
<path d="M21.7974 49.6139L24.2122 50.7327L24.724 50.9692H25.8341V47.1672H23.5773C22.9041 47.9209 22.3079 48.7406 21.7974 49.6139Z" fill="#1A2B32"/>
<path d="M21.7974 60.6718C21.9812 60.7039 22.1634 60.7329 22.3472 60.7573C22.3836 59.9835 22.5067 57.5521 22.7086 56.3158C22.9542 54.9358 23.3876 53.5964 23.9965 52.3352C23.0397 53.5471 22.0024 57.14 21.7974 60.6718Z" fill="#526C77"/>
<path d="M23.4878 54.234C23.462 54.4049 22.9016 58.0818 23.2919 60.8719C24.1271 60.9558 24.9761 61.0001 25.8342 61.0001V50.9692H24.724C24.4576 51.4113 24.2148 51.8673 23.9965 52.3353C23.3876 53.5965 22.9543 54.9359 22.7087 56.3159C22.5067 57.5537 22.3837 59.979 22.3472 60.7574C22.4794 60.7757 22.6084 60.794 22.7391 60.8078C22.7391 60.8078 22.5067 56.6593 23.4878 54.234Z" fill="#1A2B32"/>
<path d="M23.1794 22.0412C22.3107 22.0168 22.288 22.9891 22.5112 23.0883C22.7345 23.1875 23.02 23.0135 23.7869 22.9631C24.5538 22.9127 24.5706 23.7369 25.8341 23.7369V22.8028C24.2228 22.8028 24.0481 22.0672 23.1794 22.0412Z" fill="#1A2B32"/>
<path d="M23.4878 54.2339C22.5067 56.6592 22.739 60.8077 22.739 60.8077C22.9228 60.8321 23.1066 60.8534 23.2918 60.8718C22.9015 58.0817 23.4619 54.4048 23.4878 54.2339Z" fill="#253A45"/>
<path d="M22.9562 45.3982C22.9562 45.3982 23.5515 46.172 25.8341 46.172V45.3982C24.0238 45.4241 22.9562 45.3982 22.9562 45.3982Z" fill="#1A2B32"/>
<path d="M25.8341 27.9756C23.8507 27.9756 22.8074 28.522 22.8074 28.522C23.7531 28.9749 24.7865 29.2131 25.8341 29.2195V27.9756Z" fill="#1A2B32"/>
<path d="M28.3233 19.9976C28.1 19.0956 27.2025 16.7344 27.2025 16.7344L29.0674 18.4591C29.0674 18.4591 29.1236 19.4863 28.9155 19.6923C28.743 19.8369 28.5407 19.9411 28.3233 19.9976Z" fill="#1A2B32"/>
<path d="M23.345 19.9976C23.5683 19.0956 24.4658 16.7344 24.4658 16.7344L22.6008 18.4591C22.6008 18.4591 22.5447 19.4863 22.7527 19.6923C22.9253 19.8369 23.1275 19.9411 23.345 19.9976Z" fill="#1A2B32"/>
<path d="M26.9747 21.1239C26.6238 21.1452 26.3915 19.0512 26.7772 18.9642C27.163 18.8772 27.3224 21.101 26.9747 21.1239Z" fill="#F9FBFC"/>
<path d="M29.6916 26.9407C29.4061 26.7285 28.3521 26.6659 28.3142 26.9407C28.2762 27.2154 29.9756 27.1528 29.6916 26.9407Z" fill="#F9FBFC"/>
<path d="M36.7824 18.5278C36.5865 19.0391 36.1218 20.2068 34.9676 20.8539C35.2491 20.8222 35.5196 20.7259 35.7582 20.5724C35.9967 20.4189 36.197 20.2123 36.3435 19.9687C36.8644 19.1322 36.7824 18.5278 36.7824 18.5278Z" fill="#F9FBFC"/>
<path d="M15.4736 19.5579C15.8392 20.1753 16.3639 20.6821 16.9923 21.0246C16.6122 21.0031 16.247 20.8687 15.9429 20.6385C15.4463 20.2554 15.4736 19.5579 15.4736 19.5579Z" fill="#F9FBFC"/>
<path d="M33.9181 38.4948C34.0457 37.2921 32.3721 33.4336 32.0046 33.2093C31.6371 32.9849 32.4116 34.0701 32.8626 36.0512C33.3137 38.0324 33.8164 39.4427 33.9181 38.4948Z" fill="#F9FBFC"/>
<path d="M31.8922 20.8539C30.8488 20.8539 29.9027 20.7013 29.4775 20.2617C28.5951 19.3306 27.3072 17.0153 27.2526 16.9176L27.2025 16.8275V14.8113H37.1939L37.1818 15.2203C37.1818 15.2676 37.1469 16.3834 37.0056 17.551C36.7307 19.8297 36.2994 20.2541 35.9122 20.3685C34.592 20.6667 33.2451 20.8293 31.8922 20.8539ZM27.9922 16.6199C28.2382 17.0534 29.3286 18.9521 30.05 19.7137C30.6727 20.3685 34.5863 19.9259 35.6692 19.6115C35.9729 19.3764 36.2767 17.5662 36.3723 15.605H27.9922V16.6199Z" fill="#1A2B32"/>
<path d="M27.9922 16.0934C27.992 16.4423 28.0849 16.7848 28.261 17.0855C28.6953 17.8273 29.4866 19.1185 30.05 19.7138C30.6727 20.3686 34.5864 19.9259 35.6692 19.6115C35.9456 19.3948 36.2311 17.8441 36.3465 16.069C36.3494 16.01 36.3404 15.9511 36.3199 15.8957C36.2995 15.8404 36.2681 15.7898 36.2276 15.7469C36.1871 15.7041 36.1385 15.67 36.0845 15.6467C36.0306 15.6233 35.9724 15.6112 35.9137 15.6111H27.9922V16.0934Z" fill="#80A1AD"/>
<path d="M36.998 15.8918V16.0445C36.998 16.1452 36.9904 16.2887 36.9783 16.4612C36.9662 16.6336 36.951 16.8351 36.9282 17.0488C36.9054 17.2625 36.8765 17.4929 36.8447 17.7204C36.8128 17.9478 36.7702 18.1782 36.7247 18.3873C36.6791 18.5964 36.626 18.7933 36.5728 18.9597C36.5328 19.0934 36.4857 19.2249 36.4316 19.3535C36.3906 19.4466 36.3647 19.497 36.3647 19.497C36.3647 19.497 36.3845 19.4435 36.4133 19.3443C36.4422 19.2451 36.4802 19.1093 36.5212 18.9429C36.5622 18.7765 36.5986 18.5797 36.6366 18.3675C36.6746 18.1553 36.711 17.9295 36.7444 17.7036C36.7778 17.4777 36.8097 17.2457 36.8401 17.0366C36.8705 16.8275 36.8963 16.6229 36.9191 16.4535C36.9418 16.2841 36.9616 16.1376 36.9737 16.0399L36.998 15.8918Z" fill="#F9FBFC"/>
<path d="M35.8833 20.083L35.8104 20.112C35.7633 20.1288 35.698 20.1547 35.616 20.1776C35.534 20.2005 35.4398 20.2295 35.3366 20.254C35.2333 20.2784 35.124 20.3028 35.0131 20.3257C34.9022 20.3486 34.7914 20.3669 34.6866 20.3822C34.5818 20.3974 34.4831 20.4096 34.3995 20.4188C34.316 20.428 34.2477 20.4325 34.1945 20.4371H34.1171L34.1869 20.4264C34.2355 20.4142 34.3039 20.3928 34.3859 20.3745L34.6668 20.3074L34.9903 20.2402L35.3153 20.1807L35.5993 20.1334L35.8013 20.1013L35.8833 20.083Z" fill="#F9FBFC"/>
<path d="M28.2899 17.5127L28.3491 17.6012C28.3855 17.6562 28.4463 17.7447 28.501 17.8332L28.7181 18.1598L28.9642 18.5384C29.0462 18.6666 29.1282 18.7917 29.2071 18.9169L29.4198 19.2466L29.5716 19.4816L29.6278 19.5701L29.5564 19.4923C29.5124 19.4404 29.4471 19.3702 29.3772 19.2786C29.3074 19.187 29.2254 19.0817 29.1388 18.9642C29.0522 18.8467 28.9687 18.7185 28.8852 18.5903C28.8017 18.4621 28.7212 18.3293 28.6483 18.2041C28.5754 18.079 28.5116 17.9614 28.4554 17.8592C28.3992 17.7569 28.3612 17.6699 28.3309 17.6104C28.3005 17.5509 28.2899 17.5127 28.2899 17.5127Z" fill="#F9FBFC"/>
<path d="M15.8836 20.3685C15.4979 20.2541 15.0651 19.8297 14.7917 17.551C14.6505 16.3834 14.6155 15.2615 14.614 15.2203L14.6019 14.8113H24.5949V16.8275L24.5448 16.9176C24.4901 17.0153 23.2022 19.3306 22.3184 20.2617C21.8946 20.7089 20.9515 20.8539 19.9052 20.8539C18.5518 20.8292 17.2044 20.6665 15.8836 20.3685ZM23.8036 15.605H15.4204C15.5116 17.5662 15.8244 19.3764 16.1236 19.6115C17.2095 19.9259 21.1247 20.3746 21.7428 19.7137C22.4657 18.9506 23.5561 17.0534 23.8006 16.6199L23.8036 15.605Z" fill="#1A2B32"/>
<path d="M23.8036 15.605H15.8776C15.819 15.6053 15.761 15.6176 15.7072 15.641C15.6535 15.6645 15.605 15.6986 15.5647 15.7414C15.5244 15.7842 15.4931 15.8347 15.4727 15.89C15.4524 15.9452 15.4434 16.004 15.4463 16.0629C15.5602 17.838 15.8472 19.3887 16.1236 19.6054C17.2095 19.9198 21.1247 20.3686 21.7428 19.7077C22.3077 19.1124 23.0974 17.8212 23.5333 17.0794C23.7083 16.7783 23.8005 16.4359 23.8006 16.0873L23.8036 15.605Z" fill="#80A1AD"/>
<path d="M14.7993 15.8918L14.8206 16.0445C14.8342 16.1422 14.854 16.2948 14.8768 16.4581C14.8995 16.6214 14.9269 16.832 14.9557 17.0411L15.0499 17.7081C15.0848 17.934 15.1213 18.166 15.1592 18.3721C15.1972 18.5781 15.2352 18.7811 15.2747 18.9475C15.3141 19.1139 15.3506 19.2528 15.381 19.3489C15.4113 19.4451 15.4296 19.5015 15.4296 19.5015C15.4296 19.5015 15.4037 19.4512 15.3643 19.3581C15.3102 19.2295 15.263 19.098 15.223 18.9643C15.1744 18.7979 15.1213 18.6041 15.0711 18.3919C15.021 18.1798 14.9876 17.9523 14.9512 17.7249C14.9147 17.4975 14.8874 17.267 14.8661 17.0534C14.8449 16.8397 14.8297 16.6382 14.8175 16.4657C14.8054 16.2933 14.8008 16.1498 14.7963 16.0491L14.7993 15.8918Z" fill="#F9FBFC"/>
<path d="M31.839 19.8998C30.574 19.8998 30.2444 19.6952 30.1609 19.6082C29.6035 19.0206 28.8138 17.7263 28.3916 17.0135C28.2296 16.7358 28.1441 16.4197 28.144 16.0977V15.762H35.9182C35.9571 15.7621 35.9955 15.7702 36.031 15.7859C36.0666 15.8016 36.0985 15.8244 36.1249 15.8531C36.1513 15.8817 36.1715 15.9155 36.1843 15.9524C36.197 15.9892 36.2021 16.0283 36.1992 16.0672C36.0732 18.0285 35.7755 19.2801 35.5917 19.4831C34.9387 19.6632 33.2286 19.9089 31.833 19.9089L31.839 19.8998Z" fill="#80A1AD"/>
<path d="M19.9583 19.8999C18.5611 19.8999 16.8526 19.6542 16.1995 19.4741C16.0218 19.2711 15.7242 18.0195 15.592 16.0582C15.5893 16.0199 15.5944 15.9813 15.6072 15.9451C15.6201 15.9088 15.6402 15.8756 15.6665 15.8476C15.6927 15.8193 15.7244 15.7967 15.7597 15.7812C15.7949 15.7657 15.833 15.7577 15.8715 15.7576H23.6457V16.0934C23.6463 16.4154 23.5608 16.7317 23.3981 17.0091C22.9775 17.728 22.1832 19.0223 21.6304 19.6038C21.5468 19.6908 21.2173 19.8954 19.9522 19.8954L19.9583 19.8999Z" fill="#80A1AD"/>
<path d="M35.9107 15.7576H34.2158L32.5589 19.8786C33.1664 19.848 33.7845 19.7855 34.3221 19.7107L35.9107 15.7576Z" fill="#F9FBFC"/>
<path d="M20.7814 15.7576L19.1276 19.8786C19.41 19.8954 19.6895 19.9045 19.9583 19.9045C20.2494 19.9068 20.5405 19.8926 20.83 19.8618L22.4763 15.7621L20.7814 15.7576Z" fill="#F9FBFC"/>
<path d="M43.4115 18.0087C42.511 18.224 41.5633 18.3934 40.6855 18.5246C40.6855 18.5017 40.6855 18.4758 40.6855 18.4529C40.8632 16.6213 39.6148 16.2825 37.9518 16.9037C37.9215 16.7633 37.8911 16.6198 37.8622 16.4779C37.7104 15.759 37.5463 15.0264 37.3808 14.2892C37.355 14.1747 37.3292 14.0587 37.3033 13.9457C38.6116 13.6598 39.9466 13.516 41.2854 13.5168C44.2575 13.5168 45.8582 13.9457 46.7238 14.5105L46.7344 14.5181C47.1232 14.8325 47.3677 15.179 47.4118 15.5606C47.5424 16.6992 45.6212 17.4837 43.4115 18.0087Z" fill="#1A2B32"/>
<path d="M37.3048 13.9427C34.2279 14.5944 31.5687 15.759 25.8341 15.759V15.5423C32.4708 15.5423 34.155 13.9046 37.9533 13.5321L38.0869 13.5199C41.9809 13.175 36.6001 13.2925 32.9598 14.3167C29.9832 15.1561 27.3407 15.1424 25.8341 15.1424V11.9692C28.2154 11.9692 34.7139 11.7067 37.317 11.9692C37.317 11.9692 44.4442 12.6759 46.7253 14.5074C45.8596 13.9427 44.2589 13.5138 41.2868 13.5138C39.948 13.513 38.613 13.6568 37.3048 13.9427Z" fill="#253A45"/>
<path d="M32.9598 14.3106C36.6047 13.2865 41.9809 13.1689 38.0869 13.5139L37.9533 13.5261C34.1566 13.8985 32.4708 15.5362 25.8341 15.5362V15.1363C27.3528 15.1363 29.9832 15.1501 32.9598 14.3106Z" fill="#526C77"/>
<path d="M37.2456 11.7632C37.2927 11.896 37.317 11.9692 37.317 11.9692C34.7139 11.7067 28.2154 11.9692 25.8341 11.9692V9.5424C27.5335 9.5424 32.3083 9.46151 32.3083 9.46151C32.3083 9.46151 27.7947 9.30888 25.8341 9.30888V9.15625C28.1121 9.15625 33.6326 9.18525 36.3966 9.41877C36.7383 10.3346 37.0041 11.0779 37.1651 11.522C33.8938 11.1038 30.7273 11.5678 30.7273 11.5678C35.7056 11.4106 37.2456 11.7632 37.2456 11.7632Z" fill="#526C77"/>
<path d="M37.1651 11.5326C37.197 11.6211 37.2243 11.699 37.2456 11.7631C37.2456 11.7631 35.7117 11.4105 30.7274 11.5784C30.7274 11.5738 33.8938 11.1159 37.1651 11.5326Z" fill="#253A45"/>
<path d="M32.0851 0.601273C33.3334 1.65442 35.2622 6.41341 36.3966 9.42938C33.6326 9.19585 28.1076 9.16685 25.8341 9.16685V2.45115C28.7849 2.02531 29.6035 0.279225 29.6035 0.279225C29.6035 0.279225 28.3126 0.645536 27.2116 0.981321C28.8487 0.279224 30.6438 -0.615185 32.0851 0.601273Z" fill="#253A45"/>
<path d="M25.8341 9.31494C27.7947 9.31494 32.3083 9.46757 32.3083 9.46757C32.3083 9.46757 27.5335 9.54847 25.8341 9.54847V9.31494Z" fill="#253A45"/>
<path d="M29.6035 0.279297C29.6035 0.279297 28.7849 2.02538 25.8341 2.44969V1.50033C26.3005 1.36133 26.7572 1.19102 27.2009 0.990551H27.2146C28.3126 0.648661 29.6035 0.279297 29.6035 0.279297Z" fill="#1A2B32"/>
<path d="M8.25675 18.0087C9.15734 18.224 10.105 18.3934 10.9904 18.5246C10.9904 18.5017 10.9904 18.4758 10.9904 18.4529C10.8127 16.6213 12.0611 16.2825 13.7241 16.9037C13.7544 16.7633 13.7848 16.6198 13.8137 16.4779C13.9655 15.759 14.1295 15.0264 14.2951 14.2892L14.3725 13.9457C13.0643 13.6598 11.7293 13.516 10.3905 13.5168C7.41843 13.5168 5.81773 13.9457 4.95207 14.5105L4.94144 14.5181C4.55266 14.8325 4.30815 15.179 4.2641 15.5606C4.1259 16.6992 6.04705 17.4837 8.25675 18.0087Z" fill="#1A2B32"/>
<path d="M14.3635 13.9427C17.4403 14.5944 20.0996 15.759 25.8342 15.759V15.5423C19.1975 15.5423 17.5132 13.9046 13.715 13.5321L13.5813 13.5199C9.6874 13.175 15.0681 13.2925 18.7084 14.3167C21.6851 15.1561 24.3276 15.1424 25.8342 15.1424V11.9692C23.4528 11.9692 16.9544 11.7067 14.3513 11.9692C14.3513 11.9692 7.22407 12.6759 4.94299 14.5074C5.80865 13.9427 7.40935 13.5138 10.3814 13.5138C11.7202 13.513 13.0552 13.6568 14.3635 13.9427Z" fill="#253A45"/>
<path d="M18.7084 14.3106C15.0635 13.2865 9.68734 13.1689 13.5813 13.5139L13.7149 13.5261C17.5117 13.8985 19.1974 15.5362 25.8341 15.5362V15.1363C24.3154 15.1363 21.685 15.1501 18.7084 14.3106Z" fill="#526C77"/>
<path d="M14.4226 11.7632C14.3756 11.896 14.3513 11.9692 14.3513 11.9692C16.9543 11.7067 23.4528 11.9692 25.8341 11.9692V9.5424C24.1347 9.5424 19.3599 9.46151 19.3599 9.46151C19.3599 9.46151 23.8735 9.30888 25.8341 9.30888V9.15625C23.5561 9.15625 18.0356 9.18525 15.2716 9.41877C14.9299 10.3346 14.6641 11.0779 14.5031 11.522C17.7744 11.1038 20.9409 11.5678 20.9409 11.5678C15.9626 11.4106 14.4226 11.7632 14.4226 11.7632Z" fill="#526C77"/>
<path d="M14.5032 11.5326C14.4713 11.6211 14.4439 11.699 14.4227 11.7631C14.4227 11.7631 15.9566 11.4105 20.9409 11.5784C20.9409 11.5738 17.7744 11.1159 14.5032 11.5326Z" fill="#253A45"/>
<path d="M19.5832 0.601273C18.3348 1.65289 16.4061 6.41341 15.2716 9.43701C18.0356 9.20349 23.5606 9.17449 25.8341 9.17449V2.45878C22.8833 2.02531 22.0647 0.279225 22.0647 0.279225C22.0647 0.279225 23.3556 0.645536 24.4567 0.981321C22.8195 0.279224 21.0244 -0.615185 19.5832 0.601273Z" fill="#253A45"/>
<path d="M25.8341 9.31494C23.8735 9.31494 19.3599 9.46757 19.3599 9.46757C19.3599 9.46757 24.1347 9.54847 25.8341 9.54847V9.31494Z" fill="#253A45"/>
<path d="M22.0648 0.279297C22.0648 0.279297 22.8833 2.02233 25.8342 2.44664V1.50033C25.3677 1.36133 24.9111 1.19102 24.4673 0.990551H24.4537C23.3557 0.648661 22.0648 0.279297 22.0648 0.279297Z" fill="#1A2B32"/>
</g>
<defs>
<clipPath id="clip0_109_3838">
<rect width="50" height="61" fill="white" transform="translate(0.833374)"/>
</clipPath>
</defs>
</svg>
