<svg width="532" height="388" viewBox="0 0 532 388" fill="none" xmlns="http://www.w3.org/2000/svg">
<path d="M531.306 373.427C531.306 365.868 417.136 359.733 276.319 359.733C135.502 359.733 21.332 365.868 21.332 373.427C21.332 380.986 135.49 387.133 276.319 387.133C417.148 387.133 531.306 380.998 531.306 373.427Z" fill="#3D535E" fill-opacity="0.75"/>
<path d="M53.0381 366.921C23.3295 366.777 -0.781908 342.343 0.019412 312.646C0.449972 296.488 6.48978 280.833 24.8364 272.293C73.1787 249.809 5.70042 103.657 91.1666 89.0422C176.633 74.4271 173.248 -36.8846 273.305 46.3211C373.363 129.527 391.351 17.0908 456.557 75.5513C521.763 134.012 413.835 208.212 494.829 246.436C548.206 271.647 530.709 316.892 512.589 344.795C507.73 352.236 501.081 358.339 493.252 362.543C485.422 366.747 476.662 368.919 467.775 368.858L53.0381 366.921Z" fill="#415A67" fill-opacity="0.5"/>
<g style="mix-blend-mode:multiply" opacity="0.44">
<path d="M467.775 368.858C476.654 368.911 485.404 366.735 493.225 362.532C501.045 358.328 507.687 352.229 512.541 344.795C530.661 316.892 548.158 271.648 494.781 246.436C413.835 208.164 521.762 134.012 456.509 75.5514C391.255 17.0909 373.363 129.515 273.305 46.3211C248.68 25.8456 230.333 17.1627 215.419 15.8949C220.927 19.6903 225.711 24.4417 229.544 29.924C265.902 80.8257 287.717 117.985 363.651 111.515C439.585 105.045 329.721 237.538 389.497 252.894C428.965 263.024 423.702 323.925 395.07 368.524L467.775 368.858Z" fill="#324F5A" fill-opacity="0.75"/>
</g>
<path d="M203.65 111.36C197.668 110.715 191.83 109.099 186.368 106.576C178.152 102.772 170.82 95.4647 174.946 88.2528C181.106 78.3739 163.584 70.0138 169.54 64.5122C175.604 59.6445 176.884 63.675 174.54 52.7795C172.614 41.6567 180.268 38.9896 184.574 29.0389C189.502 19.0283 200.804 26.5153 198.005 39.5756C195.805 53.0546 201.007 39.1331 204.834 45.2088C208.099 50.232 195.266 71.8557 200.935 69.9062C206.186 67.5142 210.707 70.8271 210.013 76.8669C207.968 90.8362 203.459 111.084 203.65 111.36Z" fill="#7BC7FF"/>
<path d="M207.836 117.052C207.807 117.052 207.778 117.045 207.751 117.033C207.724 117.02 207.7 117.003 207.681 116.981C198.834 106.6 192.335 94.4301 188.629 81.304V81.1844H188.533C184.813 78.7901 181.413 75.9327 178.415 72.6809C177.398 71.6284 176.381 70.552 175.365 69.4636C175.346 69.4374 175.336 69.406 175.336 69.3739C175.336 69.3418 175.346 69.3105 175.365 69.2842C175.386 69.2321 175.426 69.1898 175.477 69.1655C175.528 69.1411 175.586 69.1366 175.64 69.1527C175.66 69.1485 175.68 69.1485 175.7 69.1527C176.692 70.2051 177.685 71.2696 178.69 72.2981C181.466 75.2966 184.571 77.9726 187.947 80.2755L188.509 80.6343L188.33 79.9525C186.658 73.4475 185.715 66.7766 185.519 60.0631V59.8717L185.363 59.8H185.292C182.591 55.6616 180.504 51.1537 179.096 46.4167C179.076 46.3868 179.065 46.3513 179.065 46.315C179.065 46.2787 179.076 46.2433 179.096 46.2134C179.131 46.1881 179.173 46.1745 179.216 46.1745C179.259 46.1745 179.301 46.1881 179.336 46.2134C179.372 46.2391 179.398 46.2775 179.407 46.321C180.691 50.6767 182.562 54.8372 184.969 58.6877C185.124 58.9508 185.292 59.2019 185.459 59.4651C185.459 59.1541 185.459 58.8312 185.459 58.5202C185.39 51.3751 186.08 44.2429 187.516 37.2434C187.519 37.2195 187.527 37.1964 187.539 37.1758C187.551 37.1551 187.568 37.1374 187.588 37.1238C187.617 37.107 187.65 37.0981 187.684 37.0981C187.717 37.0981 187.75 37.107 187.779 37.1238C187.816 37.1477 187.844 37.1827 187.859 37.2236C187.874 37.2645 187.875 37.3092 187.863 37.351C185.926 46.736 185.366 56.3531 186.201 65.8995C186.201 66.0909 186.201 66.2703 186.201 66.4617L186.583 66.0909C190.789 62.0969 194.5 57.6116 197.634 52.7316C197.634 52.6718 197.706 52.6479 197.778 52.7316C197.81 52.7488 197.839 52.7726 197.861 52.8014C197.884 52.8302 197.9 52.8635 197.91 52.899C197.924 52.9245 197.932 52.9534 197.932 52.9827C197.932 53.0121 197.924 53.041 197.91 53.0665C194.663 58.131 190.798 62.7713 186.404 66.8803L186.284 66.9879V67.1553C186.761 71.8112 187.605 76.4222 188.808 80.9452V81.017C188.825 81.0438 188.834 81.0749 188.834 81.1067C188.834 81.1384 188.825 81.1696 188.808 81.1964V81.2681V81.3399C189.924 85.3908 191.331 89.3559 193.018 93.2042L193.317 93.886C193.377 93.6468 193.448 93.4075 193.508 93.1683C195.248 86.733 197.907 80.5821 201.402 74.9054C201.42 74.8665 201.453 74.8361 201.493 74.8205C201.533 74.8049 201.577 74.8053 201.617 74.8217C201.646 74.8311 201.673 74.8467 201.696 74.8673C201.718 74.8879 201.737 74.9131 201.749 74.9413C201.76 74.959 201.767 74.9798 201.767 75.0011C201.767 75.0224 201.76 75.0432 201.749 75.0609C198.078 81.0335 195.329 87.5248 193.592 94.3165V94.4122V94.5079C197.279 102.559 202.056 110.064 207.788 116.813C207.8 116.833 207.806 116.856 207.806 116.879C207.806 116.902 207.8 116.925 207.788 116.945C207.768 116.982 207.738 117.015 207.703 117.04C207.668 117.065 207.628 117.081 207.585 117.088L207.836 117.052Z" fill="#379CF7"/>
<path d="M182.314 145.398C182.708 138.889 182.123 132.358 180.579 126.023C178.187 116.562 172.207 107.473 164.422 110.845C153.658 115.952 148.323 95.7518 141.889 101.277C136.04 107.054 139.808 109.051 129.45 104.865C118.782 101.062 114.847 108.896 104.334 112.041C93.5705 115.785 99.084 129.144 112.467 128.163C126.15 127.888 111.51 131.333 116.869 136.404C121.27 140.697 144.819 130.221 141.913 136.045C138.696 141.331 141.171 146.725 147.259 146.917C161.3 146.857 182.086 145.063 182.314 145.398Z" fill="#7BC7FF"/>
<path d="M187.217 150.792C187.229 150.765 187.235 150.737 187.235 150.708C187.235 150.679 187.229 150.651 187.217 150.624C180.269 141.726 169.098 131.082 155.212 124.516H155.105V124.396C153.394 120.061 151.153 115.956 148.431 112.173C147.558 110.905 146.661 109.649 145.764 108.382C145.74 108.362 145.711 108.352 145.68 108.352C145.65 108.352 145.62 108.362 145.597 108.382C145.541 108.398 145.493 108.433 145.46 108.481C145.427 108.529 145.412 108.587 145.417 108.645C145.413 108.673 145.413 108.701 145.417 108.728C146.29 109.924 147.163 111.192 148.024 112.436C150.534 115.933 152.644 119.7 154.315 123.667L154.579 124.324L153.945 124.037C147.817 121.242 141.37 119.206 134.749 117.974H134.569V117.782C134.576 117.755 134.576 117.726 134.569 117.698C130.994 114.172 126.895 111.219 122.418 108.944C122.386 108.924 122.348 108.913 122.31 108.913C122.272 108.913 122.235 108.924 122.203 108.944C122.168 108.974 122.142 109.014 122.127 109.058C122.112 109.102 122.11 109.149 122.119 109.195C122.143 109.238 122.181 109.272 122.227 109.291C126.337 111.384 130.131 114.05 133.493 117.208L134.175 117.866L133.242 117.698C126.184 116.511 119.012 116.145 111.869 116.61C111.774 116.61 111.75 116.61 111.75 116.67C111.732 116.703 111.723 116.74 111.723 116.778C111.723 116.815 111.732 116.852 111.75 116.885C111.765 116.925 111.794 116.958 111.831 116.98C111.868 117.002 111.911 117.01 111.953 117.005C121.53 116.378 131.146 117.274 140.442 119.66L140.992 119.803L140.561 120.162C135.947 124.032 130.883 127.333 125.48 129.993C125.48 129.993 125.384 130.053 125.408 130.137C125.435 130.211 125.485 130.274 125.552 130.316C125.577 130.331 125.606 130.339 125.635 130.339C125.665 130.339 125.694 130.331 125.719 130.316C131.315 127.525 136.539 124.041 141.267 119.947L141.399 119.827H141.554C146.072 121.067 150.474 122.696 154.71 124.695H154.782V124.767C154.803 124.793 154.831 124.813 154.862 124.825C154.894 124.838 154.928 124.842 154.961 124.839H155.033H155.105C158.932 126.684 162.611 128.823 166.108 131.237L166.718 131.656L165.988 131.751C159.277 132.651 152.74 134.563 146.601 137.421C146.563 137.44 146.531 137.472 146.512 137.511C146.493 137.549 146.486 137.593 146.494 137.636C146.492 137.669 146.499 137.701 146.514 137.73C146.528 137.76 146.55 137.785 146.577 137.803C146.577 137.803 146.637 137.803 146.697 137.803C153.148 134.803 160.035 132.849 167.101 132.015H167.208H167.304C174.695 137.322 181.299 143.647 186.918 150.804C186.918 150.876 187.014 150.864 187.038 150.864C187.081 150.847 187.12 150.82 187.149 150.784C187.178 150.749 187.198 150.706 187.205 150.66L187.217 150.792Z" fill="#379CF7"/>
<path d="M176.166 125.927C176.059 125.927 182.744 116.945 185.495 105.989C188.473 95.2255 187.504 82.5718 177.446 80.7419C163.297 78.6489 169.421 55.6259 159.506 56.8219C150.118 58.6159 152.88 63.0172 144.556 52.1695C135.682 41.5251 127.095 46.5483 114.369 42.6015C101.093 39.2407 99.1081 55.7575 113.544 63.5435C127.896 72.2144 110.733 65.9952 113.376 74.4151C115.481 81.4595 145.92 86.6502 139.569 90.4056C133.182 93.4315 132.668 100.285 138.875 104.435C153.55 113.656 176.119 125.484 176.166 125.927Z" fill="#379CF7"/>
<path d="M178.164 134.383C178.188 134.356 178.207 134.323 178.217 134.288C178.228 134.253 178.23 134.215 178.223 134.179C175.545 117.652 169.332 101.897 160.008 87.9898L159.925 87.8702V87.7386C160.657 82.3595 160.689 76.9082 160.02 71.5208C159.853 69.7268 159.649 67.9328 159.434 66.103C159.435 66.0624 159.42 66.0231 159.394 65.9923C159.367 65.9615 159.331 65.9413 159.291 65.9355C159.229 65.9121 159.16 65.914 159.1 65.9409C159.039 65.9678 158.992 66.0174 158.968 66.0791C158.962 66.1147 158.962 66.151 158.968 66.1867C159.171 67.9568 159.374 69.7747 159.554 71.485C160.149 76.465 160.177 81.4965 159.638 86.4828C159.638 86.7579 159.566 87.021 159.518 87.2961C159.362 87.0569 159.195 86.8296 159.028 86.5904C154.264 79.8602 148.755 73.6896 142.606 68.196L142.439 68.0405V67.8372C142.445 67.7975 142.445 67.7572 142.439 67.7176C140.725 61.9036 138.171 56.3714 134.856 51.2965C134.836 51.2548 134.803 51.2206 134.763 51.1991C134.722 51.1776 134.675 51.1698 134.629 51.1769C134.575 51.1762 134.522 51.1952 134.48 51.2303C134.438 51.2654 134.411 51.3144 134.402 51.3682C134.389 51.3922 134.383 51.4189 134.383 51.446C134.383 51.4731 134.389 51.4997 134.402 51.5237C137.461 56.1886 139.874 61.2457 141.578 66.5574C141.686 66.9162 141.805 67.275 141.913 67.6338L141.04 66.8684C134.417 61.1185 127.2 56.0908 119.512 51.8706C119.404 51.8706 119.368 51.8706 119.344 51.8706C119.308 51.8903 119.277 51.9196 119.256 51.9555C119.235 51.9913 119.224 52.0323 119.225 52.0739C119.218 52.1257 119.228 52.1783 119.254 52.2236C119.28 52.269 119.32 52.3046 119.368 52.325C129.69 57.9799 139.134 65.107 147.402 73.4823C147.558 73.6497 147.713 73.8172 147.881 73.9726L147.235 74.0444C140.152 74.7964 133.005 74.696 125.946 73.7454C125.862 73.7454 125.815 73.7454 125.791 73.8531C125.773 73.8926 125.764 73.9354 125.764 73.9786C125.764 74.0219 125.773 74.0646 125.791 74.1042C125.811 74.1346 125.837 74.16 125.868 74.1787C125.899 74.1973 125.934 74.2087 125.97 74.2118C133.287 75.2021 140.699 75.2824 148.036 74.4511H148.24L148.371 74.5946C152.354 78.7382 155.993 83.198 159.255 87.93L159.315 88.0017V88.0974C159.316 88.1385 159.329 88.1784 159.352 88.2124C159.376 88.2463 159.408 88.2728 159.446 88.2888H159.53L159.59 88.3725C162.478 92.6414 165.06 97.1097 167.316 101.744L167.722 102.557L166.909 102.174C159.503 98.6767 151.632 96.26 143.539 94.9983C143.49 94.9867 143.439 94.9937 143.394 95.018C143.35 95.0423 143.317 95.0822 143.3 95.1299C143.286 95.1639 143.278 95.2005 143.278 95.2375C143.278 95.2745 143.286 95.3111 143.3 95.3452C143.313 95.3695 143.332 95.39 143.355 95.4047C143.378 95.4194 143.404 95.4278 143.432 95.4289C151.936 96.7483 160.193 99.3408 167.926 103.119L168.045 103.179V103.299C172.638 113.15 175.858 123.584 177.613 134.311C177.613 134.418 177.685 134.442 177.709 134.454C177.76 134.464 177.813 134.461 177.862 134.446C177.912 134.432 177.958 134.406 177.996 134.371L178.164 134.383Z" fill="#2481C6"/>
<path d="M300.957 92.104H187.528C176.524 92.104 167.603 101.025 167.603 112.029V348.909C167.603 359.914 176.524 368.835 187.528 368.835H300.957C311.961 368.835 320.882 359.914 320.882 348.909V112.029C320.882 101.025 311.961 92.104 300.957 92.104Z" fill="#0A4D7A"/>
<path d="M300.969 92.104H187.528C184.91 92.1009 182.316 92.6139 179.896 93.6139C177.476 94.6138 175.276 96.081 173.424 97.9316C171.571 99.7821 170.101 101.98 169.098 104.399C168.095 106.818 167.579 109.411 167.579 112.029V348.909C167.58 351.938 168.273 354.926 169.606 357.646C170.939 360.366 172.876 362.744 175.269 364.601L319.244 104.124C317.703 100.555 315.152 97.5159 311.905 95.3801C308.657 93.2442 304.856 92.1054 300.969 92.104V92.104Z" fill="#083954"/>
<path d="M266.393 101.803H224.317C223.76 101.807 223.226 102.029 222.832 102.423C222.438 102.818 222.216 103.351 222.212 103.908V103.908C222.212 104.467 222.434 105.002 222.829 105.397C223.224 105.792 223.759 106.013 224.317 106.013H266.393C266.951 106.013 267.486 105.792 267.881 105.397C268.276 105.002 268.498 104.467 268.498 103.908V103.908C268.494 103.351 268.272 102.818 267.878 102.423C267.484 102.029 266.95 101.807 266.393 101.803V101.803Z" fill="white"/>
<path d="M300.969 99.6147H284.321L278.341 110.965C277.244 113.048 275.6 114.791 273.585 116.008C271.57 117.224 269.26 117.866 266.907 117.866H221.602C219.249 117.866 216.939 117.224 214.924 116.008C212.909 114.791 211.265 113.048 210.169 110.965L204.189 99.6147H187.528C184.224 99.6179 181.056 100.932 178.72 103.268C176.383 105.605 175.069 108.773 175.066 112.077V348.909C175.072 352.211 176.388 355.376 178.724 357.71C181.06 360.044 184.226 361.356 187.528 361.359H300.969C304.27 361.356 307.435 360.043 309.769 357.709C312.103 355.375 313.416 352.21 313.419 348.909V112.029C313.407 108.734 312.09 105.579 309.756 103.252C307.423 100.926 304.264 99.6179 300.969 99.6147Z" fill="#CAEDFF"/>
<g style="mix-blend-mode:multiply" opacity="0.85">
<path d="M313.419 112.029V114.661L178.965 357.951C177.735 356.785 176.754 355.382 176.084 353.825C175.414 352.269 175.067 350.592 175.066 348.897V112.089C175.066 108.783 176.379 105.612 178.715 103.273C181.052 100.934 184.222 99.618 187.528 99.6148H204.177L210.157 110.965C211.256 113.048 212.903 114.791 214.92 116.007C216.937 117.223 219.247 117.866 221.602 117.866H266.847C269.2 117.864 271.508 117.22 273.523 116.004C275.537 114.788 277.182 113.046 278.281 110.965L284.261 99.6148H300.909C302.546 99.6085 304.167 99.9247 305.682 100.545C307.196 101.166 308.574 102.078 309.735 103.231C310.897 104.384 311.82 105.754 312.452 107.264C313.084 108.773 313.413 110.393 313.419 112.029Z" fill="#BAE6F7"/>
</g>
<path d="M368.973 135.232H196.666C191.85 135.232 187.947 139.135 187.947 143.951V186.6C187.947 191.415 191.85 195.319 196.666 195.319H368.973C373.789 195.319 377.692 191.415 377.692 186.6V143.951C377.692 139.135 373.789 135.232 368.973 135.232Z" fill="#E6E6E6"/>
<path d="M271.775 155.277L272.971 158.865C273.009 158.987 273.085 159.093 273.189 159.169C273.292 159.244 273.417 159.284 273.545 159.283H277.324C277.452 159.284 277.577 159.325 277.68 159.401C277.783 159.476 277.86 159.582 277.9 159.704C277.94 159.826 277.94 159.957 277.901 160.079C277.862 160.201 277.786 160.308 277.683 160.384L274.621 162.608C274.519 162.686 274.444 162.793 274.406 162.915C274.367 163.037 274.367 163.168 274.406 163.29L275.602 166.878C275.643 167.001 275.644 167.135 275.604 167.259C275.564 167.383 275.486 167.491 275.38 167.567C275.275 167.643 275.148 167.683 275.017 167.682C274.887 167.681 274.761 167.638 274.657 167.56L271.547 165.395C271.443 165.319 271.317 165.278 271.189 165.278C271.06 165.278 270.934 165.319 270.83 165.395L267.78 167.619C267.676 167.698 267.55 167.741 267.419 167.742C267.289 167.743 267.162 167.703 267.056 167.627C266.951 167.55 266.872 167.443 266.833 167.319C266.793 167.195 266.794 167.061 266.835 166.938L268.031 163.35C268.07 163.227 268.069 163.094 268.029 162.972C267.988 162.849 267.909 162.743 267.804 162.668L264.754 160.443C264.651 160.367 264.575 160.261 264.536 160.139C264.497 160.017 264.497 159.886 264.537 159.764C264.577 159.642 264.654 159.536 264.757 159.461C264.86 159.385 264.985 159.344 265.113 159.343H268.892C269.02 159.344 269.145 159.304 269.248 159.228C269.351 159.153 269.428 159.047 269.466 158.925L270.662 155.337C270.704 155.227 270.778 155.131 270.873 155.062C270.968 154.993 271.081 154.952 271.199 154.946C271.317 154.94 271.434 154.968 271.536 155.026C271.638 155.085 271.721 155.172 271.775 155.277V155.277Z" fill="#FBBE42"/>
<path d="M292.752 155.277L293.948 158.865C293.991 158.987 294.07 159.092 294.175 159.167C294.28 159.242 294.405 159.283 294.534 159.283H298.314C298.442 159.284 298.566 159.325 298.67 159.401C298.773 159.476 298.85 159.582 298.89 159.704C298.929 159.826 298.93 159.957 298.891 160.079C298.852 160.201 298.775 160.307 298.673 160.384L295.551 162.62C295.447 162.696 295.37 162.803 295.329 162.925C295.288 163.047 295.286 163.179 295.324 163.302L296.52 166.89C296.558 167.011 296.557 167.142 296.517 167.263C296.477 167.384 296.401 167.49 296.298 167.565C296.195 167.64 296.071 167.681 295.943 167.683C295.816 167.684 295.691 167.645 295.587 167.572L292.537 165.395C292.433 165.319 292.307 165.278 292.178 165.278C292.049 165.278 291.924 165.319 291.819 165.395L288.758 167.619C288.653 167.693 288.529 167.732 288.401 167.73C288.274 167.729 288.15 167.688 288.047 167.613C287.944 167.538 287.867 167.432 287.827 167.311C287.787 167.19 287.787 167.059 287.825 166.938L289.021 163.35C289.058 163.226 289.056 163.095 289.016 162.973C288.975 162.851 288.897 162.744 288.794 162.668L285.732 160.443C285.629 160.367 285.553 160.261 285.514 160.139C285.475 160.017 285.475 159.886 285.515 159.764C285.554 159.642 285.631 159.536 285.735 159.461C285.838 159.385 285.963 159.344 286.091 159.343H289.87C289.999 159.343 290.125 159.302 290.23 159.227C290.335 159.152 290.414 159.046 290.456 158.924L291.652 155.336C291.692 155.226 291.763 155.129 291.858 155.059C291.952 154.989 292.065 154.948 292.182 154.942C292.3 154.935 292.416 154.964 292.518 155.023C292.619 155.083 292.701 155.171 292.752 155.277Z" fill="#FBBE42"/>
<path d="M313.742 155.277L314.938 158.865C314.976 158.987 315.053 159.093 315.156 159.169C315.26 159.244 315.384 159.284 315.512 159.283H319.303C319.43 159.287 319.553 159.33 319.655 159.406C319.756 159.482 319.831 159.589 319.87 159.71C319.908 159.831 319.907 159.961 319.868 160.082C319.829 160.203 319.753 160.308 319.65 160.384L316.601 162.608C316.495 162.683 316.417 162.79 316.376 162.912C316.335 163.035 316.334 163.167 316.373 163.29L317.569 166.878C317.611 167.001 317.612 167.135 317.572 167.259C317.532 167.383 317.454 167.491 317.348 167.567C317.242 167.643 317.115 167.683 316.985 167.682C316.855 167.681 316.728 167.638 316.624 167.56L313.491 165.395C313.387 165.319 313.261 165.278 313.132 165.278C313.003 165.278 312.878 165.319 312.773 165.395L309.712 167.62C309.608 167.698 309.481 167.741 309.351 167.742C309.221 167.743 309.094 167.703 308.988 167.627C308.882 167.551 308.804 167.443 308.764 167.319C308.724 167.195 308.725 167.061 308.767 166.938L309.963 163.35C310.005 163.228 310.007 163.096 309.968 162.973C309.929 162.85 309.852 162.743 309.747 162.668L306.686 160.444C306.583 160.367 306.506 160.261 306.467 160.139C306.428 160.017 306.429 159.886 306.469 159.764C306.508 159.642 306.585 159.536 306.689 159.461C306.792 159.385 306.916 159.344 307.044 159.343H310.824C310.952 159.344 311.076 159.304 311.18 159.228C311.283 159.153 311.36 159.047 311.398 158.925L312.594 155.337C312.63 155.216 312.702 155.109 312.801 155.031C312.9 154.953 313.021 154.908 313.147 154.901C313.273 154.895 313.398 154.927 313.504 154.995C313.611 155.062 313.694 155.16 313.742 155.277V155.277Z" fill="#FBBE42"/>
<path d="M334.732 155.277L335.928 158.865C335.97 158.987 336.049 159.093 336.154 159.168C336.259 159.243 336.385 159.283 336.514 159.283H340.293C340.422 159.284 340.546 159.325 340.649 159.401C340.753 159.476 340.83 159.582 340.869 159.704C340.909 159.826 340.91 159.957 340.871 160.079C340.832 160.201 340.755 160.308 340.652 160.384L337.591 162.608C337.486 162.684 337.409 162.791 337.37 162.913C337.331 163.036 337.333 163.168 337.375 163.29L338.571 166.878C338.609 167 338.609 167.13 338.569 167.251C338.529 167.372 338.452 167.478 338.349 167.553C338.246 167.629 338.122 167.67 337.995 167.671C337.867 167.672 337.743 167.633 337.638 167.56L334.505 165.395C334.401 165.319 334.275 165.278 334.146 165.278C334.017 165.278 333.892 165.319 333.787 165.395L330.725 167.619C330.621 167.693 330.497 167.732 330.369 167.731C330.242 167.729 330.118 167.688 330.015 167.613C329.912 167.538 329.835 167.432 329.795 167.311C329.755 167.19 329.754 167.059 329.793 166.938L330.989 163.35C331.028 163.227 331.027 163.094 330.986 162.972C330.945 162.849 330.867 162.743 330.761 162.668L327.7 160.443C327.597 160.367 327.52 160.261 327.481 160.139C327.442 160.017 327.443 159.886 327.482 159.764C327.522 159.642 327.599 159.536 327.702 159.461C327.806 159.385 327.93 159.344 328.058 159.343H331.85C331.978 159.344 332.102 159.304 332.206 159.228C332.309 159.153 332.385 159.047 332.424 158.925L333.62 155.337C333.662 155.227 333.735 155.131 333.83 155.062C333.926 154.993 334.039 154.952 334.157 154.946C334.274 154.94 334.391 154.968 334.493 155.026C334.595 155.085 334.678 155.172 334.732 155.277V155.277Z" fill="#FBBE42"/>
<path d="M355.71 155.277L356.906 158.865C356.946 158.988 357.025 159.095 357.131 159.17C357.236 159.245 357.362 159.285 357.492 159.283H361.271C361.399 159.284 361.524 159.325 361.627 159.401C361.731 159.476 361.808 159.582 361.847 159.704C361.887 159.826 361.887 159.957 361.848 160.079C361.809 160.201 361.733 160.308 361.63 160.384L358.568 162.608C358.465 162.684 358.387 162.791 358.346 162.913C358.306 163.035 358.304 163.167 358.341 163.29L359.537 166.878C359.575 167 359.574 167.13 359.535 167.251C359.495 167.372 359.418 167.478 359.315 167.553C359.212 167.628 359.088 167.67 358.961 167.671C358.833 167.672 358.708 167.633 358.604 167.56L355.495 165.395C355.39 165.319 355.265 165.278 355.136 165.278C355.007 165.278 354.881 165.319 354.777 165.395L351.763 167.584C351.659 167.657 351.534 167.696 351.407 167.695C351.279 167.693 351.155 167.652 351.052 167.577C350.949 167.502 350.872 167.396 350.833 167.275C350.793 167.154 350.792 167.023 350.83 166.902L352.026 163.314C352.069 163.192 352.07 163.06 352.032 162.937C351.993 162.814 351.915 162.707 351.811 162.632L348.749 160.408C348.646 160.331 348.57 160.225 348.531 160.103C348.492 159.981 348.492 159.85 348.532 159.728C348.572 159.606 348.649 159.5 348.752 159.425C348.855 159.349 348.98 159.308 349.108 159.307H352.887C353.016 159.307 353.142 159.266 353.247 159.191C353.352 159.116 353.431 159.011 353.473 158.889L354.669 155.301C354.722 155.21 354.797 155.135 354.886 155.082C354.976 155.029 355.078 154.999 355.183 154.997C355.287 154.995 355.391 155.019 355.483 155.068C355.575 155.117 355.653 155.189 355.71 155.277V155.277Z" fill="#B1D7DD"/>
<path d="M325.487 173.599H264.467V175.298H325.487V173.599Z" fill="#B1D7DD"/>
<path d="M325.487 145.709H264.467V148.902H325.487V145.709Z" fill="#379CF7"/>
<path d="M325.487 180.058H264.467V181.756H325.487V180.058Z" fill="#B1D7DD"/>
<path d="M292.358 186.05H264.467V187.748H292.358V186.05Z" fill="#B1D7DD"/>
<path d="M232.34 189.881C245.442 186.816 253.577 173.71 250.511 160.609C247.446 147.508 234.34 139.372 221.239 142.438C208.138 145.503 200.002 158.609 203.068 171.71C206.133 184.811 219.239 192.947 232.34 189.881Z" fill="#7BC7FF"/>
<path d="M238.849 180.943L236.708 158.434C236.708 152.669 234.447 147.359 228.336 148.938C226.996 148.21 225.463 147.918 223.95 148.102C222.436 148.287 221.018 148.938 219.892 149.966C218.684 151.176 217.729 152.615 217.085 154.198C216.44 155.782 216.117 157.478 216.137 159.188L213.745 181.062L238.849 180.943Z" fill="#0A4D7A"/>
<path d="M230.381 169.365V174.317C230.381 174.317 229.687 178.192 226.422 178.85C225.412 178.533 224.51 177.941 223.818 177.14C223.125 176.34 222.668 175.362 222.5 174.317V169.365H230.381Z" fill="#FFA683"/>
<path d="M230.381 168.66V171.817C229.168 172.464 227.815 172.803 226.44 172.803C225.066 172.803 223.712 172.464 222.5 171.817V168.66H230.381Z" fill="#E57C5C"/>
<path d="M234.436 158.685C232.143 158.521 230.002 157.48 228.456 155.779C226.243 157.693 218.505 158.685 218.505 158.685V161.735C218.611 164.347 219.49 166.869 221.028 168.983C221.661 169.839 222.486 170.534 223.436 171.013C224.386 171.492 225.436 171.742 226.5 171.742C227.564 171.742 228.614 171.492 229.564 171.013C230.514 170.534 231.339 169.839 231.972 168.983C233.511 166.869 234.389 164.347 234.495 161.735L234.436 158.685Z" fill="#FFA683"/>
<path d="M245.929 182.569C242.843 177.259 229.771 174.317 229.771 174.317L226.339 175.644L222.906 174.317C222.906 174.317 209.834 177.259 206.748 182.569L202.957 211.178L208.937 211.082L212.453 187.162C212.453 187.162 214.678 194.876 214.558 199.385C214.287 203.399 213.775 207.392 213.027 211.345H239.578C238.83 207.392 238.319 203.399 238.047 199.385C237.928 194.876 240.152 187.162 240.152 187.162L243.669 211.082L249.649 211.178L245.929 182.569Z" fill="#FFA683"/>
<path d="M236.947 176.542C236.28 178.822 234.891 180.825 232.989 182.25C231.087 183.675 228.775 184.445 226.398 184.445C224.022 184.445 221.71 183.675 219.808 182.25C217.906 180.825 216.517 178.822 215.85 176.542C213.817 177.303 211.869 178.273 210.037 179.436L212.429 187.222C212.468 187.286 212.5 187.354 212.525 187.425V187.222L212.776 188.119L212.848 188.394C213.867 191.996 214.465 195.705 214.63 199.445C214.358 203.459 213.847 207.452 213.099 211.405H239.65C238.902 207.452 238.39 203.459 238.119 199.445C238 194.936 240.224 187.222 240.224 187.222V187.545C240.273 187.433 240.329 187.326 240.392 187.222L242.784 179.484C240.951 178.294 238.994 177.307 236.947 176.542V176.542Z" fill="#379CF7"/>
<path d="M394.962 204.994C394.536 204.987 394.119 204.865 393.755 204.642C393.391 204.419 393.094 204.103 392.893 203.727L380.467 178.874C380.467 178.874 378.972 172.894 377.214 172.894L377.034 180.811L385.478 211.357C385.969 213.271 386.961 214.945 389.509 214.945C396.553 215.428 403.537 216.574 410.367 218.366C414.181 219.371 418.19 219.371 422.004 218.366C422.327 204.349 400.285 205.114 394.962 204.994Z" fill="#FFA683"/>
<path d="M413.644 201.873V208.941H402.88V204.958C402.88 204.958 395.824 203.296 396.171 196.921C396.517 190.547 399.507 187.473 401.122 186.983C402.737 186.492 410.523 189.626 410.69 190.02C410.857 190.415 411.671 197.196 411.671 197.196L413.644 201.873Z" fill="#FFA683"/>
<path d="M402.378 192.221C402.378 192.221 404.279 189.542 406.049 190.87C407.82 192.197 406.935 194.852 404.722 196.18C404.722 196.18 406.934 203.715 411.36 203.272C414.23 202.79 416.814 201.245 418.598 198.945C420.382 196.645 421.235 193.758 420.988 190.858C420.497 183.562 410.965 178.419 405.762 179.448C400.56 180.476 395.381 186.301 402.378 192.221Z" fill="#004CBA"/>
<path d="M420.94 186.253C420.94 186.253 426.716 178.898 432.493 185.272C438.27 191.647 441.906 198.787 444.549 200.163C447.192 201.538 442.288 204.863 435.926 202.806C429.563 200.749 421.334 192.903 420.94 186.253Z" fill="#004CBA"/>
<path d="M402.916 208.941V204.959C402.916 204.959 407.305 205.126 409.171 203.428C409.171 203.428 407.856 206.466 404.997 206.549V208.941H402.916Z" fill="#ED7D5A"/>
<path d="M398.204 265.452C398.204 265.452 400.739 304.92 403.944 313.232C407.15 321.545 427.506 359.147 427.506 359.147L438.042 356.839L423.021 311.893C422.901 314.644 420.904 301.691 424.623 288.571C426.746 280.988 426.062 272.894 422.698 265.775L396.386 265.488" fill="#006CBC"/>
<path d="M422.494 263.79C422.494 263.79 421.514 274.757 408.884 287.219C396.254 299.682 391.147 308.233 391.147 308.233L389.246 362.735H378.745C378.745 362.735 372.538 305.327 372.705 303.294C372.872 301.26 390.286 263.826 392.355 260.573C394.424 257.319 422.494 263.79 422.494 263.79Z" fill="#379CF7"/>
<path d="M414.745 208.367C414.745 208.367 426.011 209.216 421.861 223.186C417.328 238.459 422.53 262.941 423.559 265.464L420.186 266.816C410.058 270.62 398.855 270.38 388.899 266.146V266.146C388.899 266.146 397.857 246.388 391.482 236.055C387.392 229.405 388.6 222.695 393.384 216.751C396.482 212.912 400.393 208.893 401.935 208.822L414.745 208.367Z" fill="#57BFFF"/>
<path d="M378.745 362.735H380.969L376.46 303.712C377.214 302.516 379.785 297.732 387.583 282.758C390.067 278.002 392.071 273.01 393.563 267.856C392.143 267.445 390.745 266.958 389.377 266.397C383.816 277.831 372.86 301.667 372.717 303.294C372.538 305.327 378.745 362.735 378.745 362.735Z" fill="#2481C6"/>
<path d="M400.56 232.371C395.298 234.32 399.208 248.302 393.551 267.832C391.971 267.368 390.418 266.817 388.899 266.182V266.182C388.899 266.182 397.857 246.424 391.482 236.09C389.603 233.193 388.759 229.745 389.09 226.307L411.432 221.236C411.432 221.236 407.724 229.68 400.56 232.371Z" fill="#30AFEF"/>
<path d="M352.409 197.34C352.409 197.34 372.861 231.33 378.829 233.22C381.484 234.081 398.024 227.623 404.997 226.475C406.814 226.177 408.45 225.202 409.578 223.747C410.705 222.291 411.239 220.462 411.073 218.629V218.629C410.666 214.264 405.667 210.556 401.385 211.453L378.434 218.629C378.434 218.629 358.939 198.572 354.657 193.979C354.657 193.979 352.863 188.322 350.196 188.322C347.816 188.322 351.428 195.391 352.409 197.34Z" fill="#FFA683"/>
<path d="M368.722 366.155C371.617 365.211 377.035 364.062 379.008 362.675H389.21C389.114 364.72 389.054 366.718 389.03 368.033C389.021 368.46 388.844 368.867 388.537 369.164C388.231 369.462 387.819 369.627 387.392 369.624H367.06C366.783 369.616 366.515 369.521 366.296 369.35C366.077 369.18 365.917 368.945 365.841 368.678C365.765 368.411 365.776 368.127 365.873 367.867C365.97 367.607 366.147 367.384 366.378 367.232C367.109 366.772 367.897 366.411 368.722 366.155V366.155Z" fill="#004CBA"/>
<path d="M418.488 364.828C421.095 363.261 426.118 360.917 427.721 359.123L437.66 356.815C438.03 358.836 438.425 360.785 438.688 362.077C438.778 362.489 438.704 362.92 438.48 363.278C438.257 363.635 437.902 363.891 437.492 363.991L417.698 368.583C417.422 368.639 417.136 368.604 416.881 368.484C416.627 368.365 416.417 368.166 416.283 367.919C416.149 367.671 416.098 367.387 416.138 367.109C416.177 366.83 416.305 366.571 416.502 366.371C417.102 365.781 417.768 365.263 418.488 364.828Z" fill="#004CBA"/>
<path opacity="0.58" d="M378.828 221.607C383.612 221.726 405.14 213.665 410.857 217.517C409.805 213.665 405.296 210.628 401.385 211.537L378.434 218.713C378.434 218.713 358.939 198.572 354.657 193.979C354.657 193.979 373.602 221.523 378.828 221.607Z" fill="#ED7D5A"/>
<path d="M420.784 185.811L419.289 186.086C420.395 187.921 420.928 190.045 420.82 192.185L422.757 191.814C422.757 191.814 422.554 186.444 420.784 185.811Z" fill="white"/>
<path d="M286.043 209.24H113.735C108.92 209.24 105.016 213.144 105.016 217.959V260.608C105.016 265.424 108.92 269.327 113.735 269.327H286.043C290.858 269.327 294.762 265.424 294.762 260.608V217.959C294.762 213.144 290.858 209.24 286.043 209.24Z" fill="#E6E6E6"/>
<path d="M188.832 229.285L190.028 232.873C190.069 232.996 190.147 233.103 190.253 233.178C190.358 233.254 190.485 233.293 190.614 233.292H194.393C194.521 233.293 194.646 233.334 194.749 233.409C194.853 233.485 194.93 233.591 194.969 233.713C195.009 233.834 195.009 233.966 194.97 234.087C194.931 234.209 194.855 234.316 194.752 234.392L191.69 236.617C191.587 236.693 191.509 236.799 191.468 236.921C191.428 237.044 191.426 237.175 191.463 237.298L192.659 240.886C192.697 241.008 192.697 241.139 192.657 241.26C192.617 241.381 192.54 241.487 192.437 241.562C192.334 241.637 192.21 241.678 192.083 241.679C191.955 241.68 191.831 241.642 191.726 241.568L188.665 239.344C188.56 239.268 188.435 239.227 188.306 239.227C188.177 239.227 188.051 239.268 187.947 239.344L184.885 241.568C184.781 241.642 184.656 241.68 184.529 241.679C184.401 241.678 184.277 241.637 184.174 241.562C184.071 241.487 183.995 241.381 183.955 241.26C183.915 241.139 183.914 241.008 183.952 240.886L185.148 237.298C185.191 237.177 185.193 237.045 185.154 236.922C185.115 236.799 185.038 236.692 184.933 236.617L181.871 234.392C181.768 234.316 181.692 234.209 181.653 234.087C181.614 233.966 181.614 233.834 181.654 233.713C181.694 233.591 181.771 233.485 181.874 233.409C181.977 233.334 182.102 233.293 182.23 233.292H186.009C186.138 233.291 186.264 233.251 186.369 233.176C186.474 233.101 186.553 232.995 186.595 232.873L187.791 229.285C187.846 229.196 187.922 229.123 188.014 229.072C188.105 229.02 188.207 228.994 188.312 228.994C188.416 228.994 188.519 229.02 188.61 229.072C188.701 229.123 188.777 229.196 188.832 229.285V229.285Z" fill="#FBBE42"/>
<path d="M209.822 229.285L211.018 232.873C211.056 232.995 211.133 233.102 211.236 233.177C211.339 233.252 211.464 233.293 211.592 233.292H215.371C215.499 233.293 215.624 233.334 215.727 233.409C215.83 233.485 215.907 233.591 215.947 233.713C215.987 233.834 215.987 233.965 215.948 234.087C215.909 234.209 215.833 234.316 215.73 234.392L212.668 236.617C212.567 236.694 212.491 236.801 212.453 236.923C212.414 237.045 212.414 237.176 212.453 237.298L213.649 240.886C213.69 241.01 213.691 241.143 213.651 241.267C213.612 241.391 213.533 241.499 213.428 241.575C213.322 241.651 213.195 241.692 213.065 241.691C212.934 241.689 212.808 241.646 212.704 241.568L209.642 239.344C209.54 239.269 209.416 239.228 209.289 239.228C209.163 239.228 209.039 239.269 208.937 239.344L205.851 241.592C205.747 241.67 205.621 241.713 205.49 241.714C205.36 241.716 205.233 241.675 205.127 241.599C205.022 241.523 204.943 241.415 204.904 241.291C204.864 241.167 204.865 241.034 204.906 240.91L206.102 237.322C206.141 237.2 206.141 237.069 206.102 236.947C206.064 236.825 205.989 236.718 205.887 236.641L202.825 234.416C202.722 234.34 202.646 234.233 202.607 234.111C202.568 233.989 202.568 233.858 202.608 233.737C202.648 233.615 202.725 233.509 202.828 233.433C202.931 233.358 203.056 233.317 203.184 233.316H206.963C207.091 233.316 207.216 233.276 207.319 233.201C207.423 233.126 207.499 233.019 207.537 232.897L208.733 229.309C208.782 229.207 208.858 229.121 208.953 229.06C209.048 228.999 209.157 228.965 209.27 228.963C209.383 228.96 209.494 228.989 209.592 229.046C209.689 229.103 209.769 229.186 209.822 229.285Z" fill="#FBBE42"/>
<path d="M230.811 229.285L232.007 232.873C232.05 232.995 232.129 233.101 232.234 233.176C232.339 233.251 232.464 233.291 232.593 233.292H236.373C236.501 233.293 236.625 233.334 236.729 233.409C236.832 233.485 236.909 233.591 236.949 233.713C236.988 233.834 236.989 233.966 236.95 234.087C236.911 234.209 236.835 234.316 236.732 234.392L233.67 236.617C233.565 236.692 233.488 236.799 233.449 236.922C233.41 237.045 233.412 237.177 233.455 237.298L234.651 240.886C234.689 241.008 234.688 241.139 234.648 241.26C234.608 241.381 234.532 241.487 234.429 241.562C234.326 241.637 234.202 241.678 234.074 241.679C233.947 241.68 233.822 241.642 233.718 241.568L230.656 239.344C230.552 239.268 230.426 239.227 230.297 239.227C230.168 239.227 230.043 239.268 229.938 239.344L226.877 241.568C226.772 241.642 226.648 241.68 226.52 241.679C226.393 241.678 226.269 241.637 226.166 241.562C226.063 241.487 225.986 241.381 225.946 241.26C225.906 241.139 225.905 241.008 225.944 240.886L227.14 237.298C227.177 237.175 227.175 237.044 227.135 236.921C227.094 236.799 227.016 236.693 226.912 236.617L223.791 234.404C223.688 234.328 223.612 234.221 223.573 234.099C223.534 233.977 223.534 233.846 223.574 233.725C223.613 233.603 223.69 233.497 223.794 233.421C223.897 233.346 224.022 233.305 224.15 233.304H227.929C228.059 233.305 228.185 233.265 228.29 233.19C228.396 233.115 228.474 233.008 228.515 232.885L229.711 229.297C229.76 229.193 229.837 229.104 229.933 229.042C230.03 228.98 230.142 228.946 230.257 228.945C230.373 228.943 230.486 228.975 230.584 229.035C230.682 229.095 230.761 229.182 230.811 229.285V229.285Z" fill="#FBBE42"/>
<path d="M251.789 229.285L252.985 232.873C253.024 232.995 253.1 233.102 253.204 233.177C253.307 233.252 253.432 233.292 253.56 233.292H257.279C257.407 233.292 257.532 233.334 257.635 233.409C257.738 233.485 257.815 233.591 257.855 233.713C257.895 233.834 257.895 233.965 257.856 234.087C257.817 234.209 257.741 234.316 257.638 234.392L254.576 236.617C254.471 236.691 254.392 236.798 254.351 236.92C254.311 237.043 254.31 237.175 254.349 237.298L255.545 240.886C255.583 241.008 255.582 241.138 255.542 241.26C255.503 241.381 255.426 241.486 255.323 241.562C255.22 241.637 255.096 241.678 254.968 241.679C254.841 241.68 254.716 241.641 254.612 241.568L251.55 239.343C251.446 239.268 251.32 239.227 251.191 239.227C251.063 239.227 250.937 239.268 250.833 239.343L247.771 241.568C247.667 241.641 247.542 241.68 247.414 241.679C247.287 241.678 247.163 241.637 247.06 241.562C246.957 241.486 246.88 241.381 246.84 241.26C246.801 241.138 246.8 241.008 246.838 240.886L248.034 237.298C248.076 237.177 248.078 237.045 248.039 236.922C248.001 236.799 247.923 236.692 247.819 236.617L244.757 234.392C244.654 234.316 244.578 234.209 244.539 234.087C244.5 233.965 244.5 233.834 244.54 233.713C244.58 233.591 244.656 233.485 244.76 233.409C244.863 233.334 244.988 233.292 245.116 233.292H248.907C249.036 233.291 249.162 233.251 249.267 233.176C249.372 233.101 249.451 232.995 249.493 232.873L250.689 229.285C250.739 229.181 250.817 229.094 250.914 229.032C251.012 228.971 251.124 228.938 251.239 228.938C251.354 228.938 251.467 228.971 251.564 229.032C251.662 229.094 251.74 229.181 251.789 229.285V229.285Z" fill="#FBBE42"/>
<path d="M272.827 229.285L274.023 232.873C274.061 232.995 274.138 233.102 274.241 233.177C274.345 233.252 274.469 233.292 274.597 233.292H278.377C278.505 233.293 278.629 233.334 278.732 233.409C278.836 233.485 278.913 233.591 278.952 233.713C278.992 233.834 278.993 233.965 278.954 234.087C278.915 234.209 278.838 234.316 278.735 234.392L275.674 236.617C275.569 236.692 275.492 236.799 275.453 236.922C275.414 237.045 275.416 237.177 275.458 237.298L276.654 240.886C276.696 241.01 276.697 241.143 276.657 241.267C276.617 241.391 276.539 241.499 276.433 241.575C276.327 241.651 276.2 241.692 276.07 241.69C275.94 241.689 275.813 241.646 275.709 241.568L272.648 239.343C272.543 239.268 272.418 239.227 272.289 239.227C272.16 239.227 272.034 239.268 271.93 239.343L268.88 241.568C268.776 241.646 268.65 241.689 268.52 241.69C268.389 241.692 268.262 241.651 268.157 241.575C268.051 241.499 267.973 241.391 267.933 241.267C267.893 241.143 267.894 241.01 267.935 240.886L269.131 237.298C269.171 237.175 269.17 237.043 269.129 236.92C269.088 236.798 269.009 236.692 268.904 236.617L265.854 234.392C265.752 234.317 265.676 234.211 265.637 234.09C265.598 233.969 265.597 233.839 265.635 233.718C265.673 233.597 265.748 233.491 265.85 233.414C265.951 233.338 266.074 233.295 266.201 233.292H269.993C270.12 233.292 270.245 233.252 270.349 233.177C270.452 233.102 270.528 232.995 270.567 232.873L271.763 229.285C271.816 229.191 271.893 229.112 271.986 229.057C272.08 229.002 272.186 228.973 272.295 228.973C272.403 228.973 272.51 229.002 272.603 229.057C272.697 229.112 272.774 229.191 272.827 229.285V229.285Z" fill="#FBBE42"/>
<path d="M242.556 247.62H181.536V249.318H242.556V247.62Z" fill="#B1D7DD"/>
<path d="M242.556 219.717H181.536V222.911H242.556V219.717Z" fill="#0A4D7A"/>
<path d="M242.556 254.066H181.536V255.765H242.556V254.066Z" fill="#B1D7DD"/>
<path d="M209.427 260.058H181.536V261.756H209.427V260.058Z" fill="#B1D7DD"/>
<path d="M161.053 257.417C170.567 247.903 170.567 232.478 161.053 222.964C151.539 213.449 136.113 213.449 126.599 222.964C117.085 232.478 117.085 247.903 126.599 257.417C136.113 266.931 151.539 266.931 161.053 257.417Z" fill="#7BC7FF"/>
<path d="M91.8005 333.253C91.8005 333.253 133.122 298.641 140.382 310.876C147.642 323.111 136.95 362.735 136.95 362.735L91.8005 333.253Z" fill="#0A85E0"/>
<path d="M113.484 347.402L136.949 362.735C136.949 362.735 146.733 326.52 141.219 312.658C143.743 330.861 124.403 342.403 113.484 347.402Z" fill="#006CBC"/>
<path d="M112.97 329.558C112.97 329.558 138.552 350.093 140.645 357.484C144.018 369.444 123.985 368.141 115.326 368.141C106.667 368.141 51.5669 366.61 51.5669 366.61L52.0573 358.13L102.947 355.738C102.947 355.738 74.7095 351.528 75.762 335.227C76.8145 318.925 112.97 329.558 112.97 329.558Z" fill="#379CF7"/>
<path d="M139.258 364.266C134.581 368.882 121.796 368.129 115.338 368.129C106.679 368.129 51.5193 366.61 51.5193 366.61L52.0336 358.118L102.911 355.726C102.911 355.726 123.243 365.486 138.863 364.337L139.258 364.266Z" fill="#0A85E0"/>
<path d="M51.7703 366.466C51.7703 366.466 49.5337 371.525 51.244 374.838C52.9543 378.151 45.5152 375.747 44.3192 369.145C43.1232 362.543 43.6973 354.662 52.0095 358.202L51.7703 366.466Z" fill="#004CBA"/>
<path d="M80.4504 278.68C80.4504 278.68 99.0243 225.004 99.5864 225.243C101.534 226 103.532 226.619 105.566 227.097L97.912 286.011L80.4504 278.68Z" fill="#0A4D7A"/>
<path d="M99.6462 272.557C95.4244 270.559 90.0782 268.227 83.9547 268.61C81.4072 275.917 80.4504 278.68 80.4504 278.68L97.924 286.012L99.6462 272.557Z" fill="#083954"/>
<path d="M103.713 264.483C102.337 269.554 96.8954 268.61 96.8954 268.61V273.394H87.5188V266.875C92.3865 268 97.6848 264.483 95.3406 262.713C92.9965 260.943 92.5181 258.109 93.726 256.733C94.934 255.358 97.8881 256.375 97.8881 256.375C99.9337 256.439 101.97 256.076 103.868 255.31C104.432 258.347 104.379 261.467 103.713 264.483V264.483Z" fill="#FFA683"/>
<path d="M97.924 256.399C97.924 256.399 94.9938 255.346 93.7859 256.745C92.5779 258.145 93.0563 261.039 95.4005 262.725C97.7446 264.412 92.4344 268 87.5547 266.876C82.675 265.751 79.9601 255.573 84.1461 248.936C87.9853 242.86 101.476 240.217 104.203 246.544C106.93 252.87 107.073 256.147 97.924 256.399Z" fill="#004CBA"/>
<path d="M96.8954 273.429V268.645C95.3954 268.459 93.9224 268.097 92.5061 267.569C93.2786 268.514 94.2044 269.323 95.2449 269.961V273.418L96.8954 273.429Z" fill="#E57C5C"/>
<path d="M99.4071 273.525C99.4071 273.525 83.8591 268.155 79.5296 280.211C75.2001 292.267 82.5914 321.282 74.7456 331.22C80.7953 334.048 87.3518 335.63 94.0253 335.873C100.699 336.115 107.353 335.013 113.592 332.632L115.29 331.986C115.29 331.986 109.872 295.029 109.609 296.321C109.394 297.397 127.92 303.306 131.615 301.284C135.311 299.263 157.664 274.028 157.664 274.028L150.141 272.915L129.929 286.191C129.929 286.191 104.502 273.848 99.4071 273.525Z" fill="#0A4D7A"/>
<path d="M157.604 274.051C157.604 274.051 165.354 270.715 165.833 269.184H154.662C154.091 269.18 153.527 269.312 153.017 269.57C152.508 269.828 152.067 270.204 151.732 270.667L150.082 272.939L157.604 274.051Z" fill="#FFA683"/>
<path d="M115.23 332.01C115.23 332.01 110.446 299.55 109.657 296.536C109.803 296.656 109.959 296.764 110.123 296.859L109.549 296.345C109.549 296.345 97.7326 293.474 93.5227 288.499C93.5227 288.499 97.5413 296.728 102.708 298.641C107.313 300.339 105.674 325.228 109.226 334.067C110.673 333.672 112.12 333.205 113.532 332.667L115.23 332.01Z" fill="#083954"/>
<path d="M100.148 225.506C100.148 225.506 102.122 218.461 105.064 217.959V227.156L100.148 225.506Z" fill="#FFA683"/>
<path d="M170.581 275.881L169.014 261.816C168.872 260.691 168.486 259.61 167.883 258.65C167.28 257.689 166.474 256.872 165.522 256.255L160.642 253.062V253.181V253.074L156.624 251.519L152.521 249.928L149.137 248.625L147.642 248.039L143.91 249.952L140.191 248.039L138.875 248.553L135.682 249.749L131.352 251.423L127.19 253.038V253.11L122.406 256.219C121.454 256.836 120.648 257.653 120.045 258.614C119.442 259.574 119.056 260.655 118.914 261.781L117.347 275.881H127.238V287.578H160.523V275.881H170.581Z" fill="#FBBE42"/>
<path d="M144.054 223.341C141.416 223.341 138.887 224.388 137.022 226.251C135.156 228.115 134.106 230.643 134.103 233.28V238.064H153.992V233.28C153.992 230.644 152.945 228.116 151.081 226.252C149.217 224.388 146.689 223.341 144.054 223.341Z" fill="#0A4D7A"/>
<path d="M147.989 245.431V248.911C147.976 249.005 147.956 249.097 147.929 249.187C147.414 251.244 145.68 255.167 143.97 255.167C142.26 255.167 140.597 251.088 140.215 249.007C140.212 248.975 140.212 248.943 140.215 248.911V245.431H147.989Z" fill="#FFA683"/>
<path d="M147.988 244.738V247.847C146.792 248.491 145.454 248.828 144.095 248.828C142.737 248.828 141.399 248.491 140.202 247.847V244.738H147.988Z" fill="#E57C5C"/>
<path d="M138.875 238.064C138.875 237.591 138.735 237.128 138.472 236.735C138.209 236.342 137.835 236.035 137.398 235.854C136.961 235.673 136.48 235.626 136.016 235.718C135.552 235.81 135.126 236.038 134.791 236.372C134.457 236.707 134.229 237.133 134.137 237.597C134.044 238.061 134.092 238.542 134.273 238.979C134.454 239.416 134.761 239.79 135.154 240.053C135.547 240.316 136.01 240.456 136.483 240.456C137.117 240.456 137.726 240.204 138.174 239.755C138.623 239.307 138.875 238.698 138.875 238.064Z" fill="#FFA683"/>
<path d="M153.932 238.064C153.932 237.591 153.792 237.128 153.529 236.735C153.266 236.342 152.893 236.035 152.456 235.854C152.019 235.673 151.538 235.626 151.074 235.718C150.61 235.81 150.184 236.038 149.849 236.372C149.515 236.707 149.287 237.133 149.194 237.597C149.102 238.061 149.149 238.542 149.331 238.979C149.512 239.416 149.818 239.79 150.212 240.053C150.605 240.316 151.067 240.456 151.54 240.456C152.175 240.456 152.783 240.204 153.232 239.755C153.68 239.307 153.932 238.698 153.932 238.064Z" fill="#FFA683"/>
<path d="M152.031 233.973C150.565 233.218 149.215 232.255 148.024 231.115H140.202C139.569 232.885 136.291 233.973 136.291 233.973L136.22 237.884C136.329 240.47 137.198 242.966 138.719 245.06C139.345 245.897 140.158 246.576 141.092 247.044C142.026 247.512 143.057 247.755 144.101 247.755C145.146 247.755 146.177 247.512 147.111 247.044C148.045 246.576 148.857 245.897 149.483 245.06C151 242.965 151.865 240.469 151.971 237.884L152.031 233.973Z" fill="#FFA683"/>
<path d="M368.973 282.806H196.666C191.85 282.806 187.947 286.71 187.947 291.525V334.174C187.947 338.99 191.85 342.893 196.666 342.893H368.973C373.789 342.893 377.692 338.99 377.692 334.174V291.525C377.692 286.71 373.789 282.806 368.973 282.806Z" fill="#E6E6E6"/>
<path d="M271.775 302.851L272.971 306.439C273.009 306.561 273.085 306.667 273.189 306.743C273.292 306.818 273.417 306.858 273.545 306.858H277.324C277.452 306.858 277.577 306.9 277.68 306.975C277.783 307.051 277.86 307.157 277.9 307.278C277.94 307.4 277.94 307.531 277.901 307.653C277.862 307.775 277.786 307.882 277.683 307.958L274.621 310.183C274.519 310.26 274.444 310.367 274.406 310.489C274.367 310.611 274.367 310.742 274.406 310.864L275.602 314.452C275.643 314.576 275.644 314.709 275.604 314.833C275.564 314.957 275.486 315.065 275.38 315.141C275.275 315.217 275.148 315.258 275.018 315.256C274.887 315.255 274.761 315.212 274.657 315.134L271.595 312.909C271.491 312.834 271.365 312.793 271.236 312.793C271.107 312.793 270.982 312.834 270.878 312.909L267.828 315.134C267.724 315.212 267.597 315.255 267.467 315.256C267.337 315.258 267.21 315.217 267.104 315.141C266.999 315.065 266.92 314.957 266.88 314.833C266.841 314.709 266.841 314.576 266.883 314.452L268.079 310.864C268.118 310.741 268.117 310.609 268.076 310.486C268.036 310.364 267.957 310.257 267.852 310.183L264.802 307.958C264.699 307.882 264.623 307.775 264.584 307.653C264.545 307.531 264.545 307.4 264.585 307.278C264.624 307.157 264.701 307.051 264.805 306.975C264.908 306.9 265.033 306.858 265.161 306.858H268.94C269.068 306.858 269.193 306.818 269.296 306.743C269.399 306.667 269.476 306.561 269.514 306.439L270.71 302.851C270.763 302.756 270.84 302.678 270.934 302.623C271.027 302.568 271.134 302.539 271.242 302.539C271.351 302.539 271.457 302.568 271.551 302.623C271.644 302.678 271.722 302.756 271.775 302.851Z" fill="#FBBE42"/>
<path d="M292.752 302.851L293.948 306.439C293.991 306.561 294.07 306.667 294.175 306.742C294.28 306.817 294.405 306.857 294.534 306.858H298.314C298.442 306.858 298.566 306.9 298.67 306.975C298.773 307.051 298.85 307.157 298.89 307.278C298.929 307.4 298.93 307.531 298.891 307.653C298.852 307.775 298.775 307.882 298.673 307.958L295.551 310.195C295.447 310.271 295.37 310.377 295.329 310.499C295.288 310.621 295.286 310.753 295.324 310.876L296.52 314.464C296.558 314.586 296.557 314.716 296.517 314.838C296.477 314.959 296.401 315.064 296.298 315.14C296.195 315.215 296.071 315.256 295.943 315.257C295.816 315.258 295.691 315.219 295.587 315.146L292.525 312.921C292.421 312.846 292.295 312.805 292.166 312.805C292.037 312.805 291.912 312.846 291.808 312.921L288.746 315.146C288.641 315.219 288.517 315.258 288.389 315.257C288.262 315.256 288.138 315.215 288.035 315.14C287.932 315.064 287.855 314.959 287.815 314.838C287.775 314.716 287.775 314.586 287.813 314.464L289.009 310.876C289.046 310.753 289.044 310.621 289.004 310.499C288.963 310.377 288.885 310.271 288.782 310.195L285.72 307.97C285.617 307.894 285.541 307.787 285.502 307.665C285.463 307.543 285.463 307.412 285.503 307.29C285.542 307.169 285.619 307.063 285.723 306.987C285.826 306.912 285.951 306.87 286.079 306.87H289.858C289.987 306.869 290.113 306.829 290.218 306.754C290.323 306.679 290.402 306.573 290.444 306.451L291.64 302.863C291.683 302.751 291.759 302.654 291.857 302.586C291.955 302.517 292.072 302.48 292.192 302.479C292.312 302.478 292.43 302.512 292.53 302.579C292.629 302.645 292.707 302.74 292.752 302.851Z" fill="#FBBE42"/>
<path d="M313.742 302.851L314.938 306.439C314.976 306.561 315.053 306.667 315.156 306.743C315.26 306.818 315.384 306.858 315.512 306.858H319.303C319.43 306.861 319.553 306.904 319.655 306.98C319.756 307.057 319.831 307.163 319.87 307.284C319.908 307.405 319.907 307.535 319.868 307.656C319.829 307.777 319.753 307.882 319.65 307.958L316.601 310.183C316.495 310.257 316.417 310.364 316.376 310.486C316.335 310.609 316.334 310.741 316.373 310.864L317.569 314.452C317.611 314.576 317.612 314.709 317.572 314.833C317.532 314.957 317.454 315.065 317.348 315.141C317.242 315.217 317.115 315.258 316.985 315.256C316.855 315.255 316.728 315.212 316.624 315.134L313.491 312.933C313.387 312.857 313.261 312.817 313.132 312.817C313.003 312.817 312.878 312.857 312.773 312.933L309.712 315.158C309.608 315.236 309.481 315.279 309.351 315.28C309.221 315.282 309.094 315.241 308.988 315.165C308.882 315.089 308.804 314.981 308.764 314.857C308.724 314.733 308.725 314.6 308.767 314.476L309.963 310.888C310.005 310.766 310.007 310.634 309.968 310.512C309.929 310.389 309.852 310.282 309.747 310.206L306.686 307.982C306.583 307.906 306.506 307.799 306.467 307.677C306.428 307.555 306.429 307.424 306.469 307.302C306.508 307.181 306.585 307.075 306.689 306.999C306.792 306.923 306.916 306.882 307.044 306.882H310.824C310.952 306.882 311.076 306.842 311.18 306.767C311.283 306.691 311.36 306.585 311.398 306.463L312.594 302.875C312.634 302.756 312.71 302.652 312.811 302.577C312.912 302.503 313.034 302.461 313.16 302.459C313.285 302.456 313.409 302.493 313.513 302.563C313.617 302.633 313.697 302.734 313.742 302.851V302.851Z" fill="#B1D7DD"/>
<path d="M313.06 302.457C312.952 302.472 312.85 302.517 312.766 302.587C312.682 302.657 312.618 302.748 312.582 302.851L311.386 306.439C311.348 306.561 311.271 306.668 311.168 306.743C311.065 306.818 310.94 306.859 310.812 306.858H307.033C306.905 306.859 306.78 306.9 306.677 306.975C306.573 307.051 306.496 307.157 306.457 307.279C306.417 307.4 306.416 307.532 306.455 307.653C306.494 307.775 306.571 307.882 306.674 307.958L309.735 310.183C309.84 310.258 309.917 310.365 309.956 310.488C309.995 310.611 309.993 310.743 309.951 310.864L308.755 314.452C308.713 314.576 308.712 314.709 308.752 314.833C308.792 314.957 308.87 315.065 308.976 315.141C309.082 315.217 309.209 315.258 309.339 315.257C309.469 315.255 309.596 315.212 309.7 315.134L312.761 312.91C312.836 312.859 312.923 312.83 313.013 312.826L313.06 302.457Z" fill="#FBBE42"/>
<path d="M334.732 302.851L335.928 306.439C335.97 306.561 336.049 306.667 336.154 306.742C336.259 306.817 336.385 306.857 336.514 306.858H340.293C340.421 306.859 340.546 306.9 340.649 306.975C340.753 307.051 340.83 307.157 340.869 307.279C340.909 307.4 340.909 307.531 340.87 307.653C340.831 307.775 340.755 307.882 340.652 307.958L337.59 310.183C337.486 310.258 337.408 310.365 337.37 310.488C337.331 310.611 337.333 310.743 337.375 310.864L338.571 314.452C338.609 314.574 338.608 314.705 338.569 314.826C338.529 314.947 338.452 315.052 338.349 315.128C338.246 315.203 338.122 315.244 337.995 315.245C337.867 315.246 337.742 315.207 337.638 315.134L334.576 312.909C334.472 312.834 334.346 312.793 334.218 312.793C334.089 312.793 333.963 312.834 333.859 312.909L330.797 315.134C330.693 315.207 330.568 315.246 330.441 315.245C330.313 315.244 330.189 315.203 330.086 315.128C329.983 315.052 329.906 314.947 329.867 314.826C329.827 314.705 329.826 314.574 329.864 314.452L331.06 310.864C331.099 310.741 331.098 310.609 331.058 310.486C331.017 310.364 330.938 310.258 330.833 310.183L327.771 307.958C327.668 307.882 327.592 307.775 327.553 307.653C327.514 307.531 327.514 307.4 327.554 307.279C327.594 307.157 327.671 307.051 327.774 306.975C327.877 306.9 328.002 306.859 328.13 306.858H331.921C332.049 306.859 332.174 306.818 332.277 306.743C332.381 306.668 332.457 306.561 332.495 306.439L333.691 302.851C333.746 302.762 333.822 302.688 333.913 302.637C334.005 302.586 334.107 302.56 334.212 302.56C334.316 302.56 334.419 302.586 334.51 302.637C334.601 302.688 334.677 302.762 334.732 302.851V302.851Z" fill="#B1D7DD"/>
<path d="M355.71 302.851L356.906 306.439C356.946 306.562 357.025 306.669 357.131 306.744C357.236 306.819 357.362 306.859 357.492 306.858H361.271C361.399 306.859 361.524 306.9 361.627 306.975C361.731 307.051 361.808 307.157 361.847 307.279C361.887 307.4 361.887 307.531 361.848 307.653C361.809 307.775 361.733 307.882 361.63 307.958L358.568 310.183C358.465 310.259 358.387 310.365 358.346 310.487C358.306 310.609 358.304 310.741 358.341 310.864L359.537 314.452C359.575 314.574 359.574 314.705 359.535 314.826C359.495 314.947 359.418 315.052 359.315 315.128C359.212 315.203 359.088 315.244 358.961 315.245C358.833 315.246 358.708 315.207 358.604 315.134L355.542 312.91C355.438 312.834 355.313 312.793 355.184 312.793C355.055 312.793 354.929 312.834 354.825 312.91L351.763 315.158C351.659 315.231 351.534 315.27 351.407 315.269C351.279 315.268 351.155 315.227 351.052 315.152C350.949 315.076 350.872 314.971 350.833 314.85C350.793 314.729 350.792 314.598 350.83 314.476L352.026 310.888C352.069 310.767 352.07 310.635 352.032 310.512C351.993 310.389 351.915 310.282 351.811 310.207L348.749 307.982C348.646 307.906 348.57 307.799 348.531 307.677C348.492 307.555 348.492 307.424 348.532 307.303C348.572 307.181 348.649 307.075 348.752 306.999C348.855 306.924 348.98 306.883 349.108 306.882H352.887C353.016 306.881 353.142 306.841 353.247 306.766C353.352 306.691 353.431 306.585 353.473 306.463L354.669 302.875C354.722 302.785 354.797 302.709 354.886 302.656C354.976 302.603 355.078 302.574 355.183 302.571C355.287 302.569 355.391 302.593 355.483 302.642C355.575 302.691 355.653 302.763 355.71 302.851Z" fill="#B1D7DD"/>
<path d="M325.487 321.186H264.467V322.884H325.487V321.186Z" fill="#B1D7DD"/>
<path d="M325.487 293.283H264.467V296.477H325.487V293.283Z" fill="#FF5A5A"/>
<path d="M325.487 327.632H264.467V329.331H325.487V327.632Z" fill="#B1D7DD"/>
<path d="M292.358 333.624H264.467V335.323H292.358V333.624Z" fill="#B1D7DD"/>
<path d="M247.542 325.785C254.568 314.31 250.962 299.312 239.487 292.286C228.013 285.26 213.014 288.866 205.988 300.341C198.962 311.816 202.568 326.814 214.043 333.84C225.518 340.866 240.516 337.26 247.542 325.785Z" fill="#7BC7FF"/>
<path d="M216.95 307.862C216.95 307.862 215.563 302.337 217.715 299.909C219.868 297.481 224.138 294.898 227.618 296.225C228.406 295.758 229.295 295.489 230.21 295.441C231.124 295.393 232.037 295.568 232.869 295.95C235.368 297.338 238.98 298.546 239.363 296.883C239.363 296.883 239.566 303.246 236.72 304.251L235.524 309.142H217.297L216.95 307.862Z" fill="#0A4D7A"/>
<path d="M245.929 329.474C242.843 324.164 229.771 321.222 229.771 321.222L226.339 322.549L222.906 321.222C222.906 321.222 209.834 324.164 206.748 329.474L202.957 358.083L208.937 357.987L212.453 334.067C212.453 334.067 214.678 341.781 214.558 346.29C214.287 350.304 213.775 354.298 213.027 358.25H239.578C238.83 354.298 238.319 350.304 238.047 346.29C237.928 341.781 240.152 334.067 240.152 334.067L243.669 357.987L249.649 358.083L245.929 329.474Z" fill="#0A4D7A"/>
<path d="M230.381 316.27V321.222C230.381 321.222 229.687 325.097 226.422 325.755C225.412 325.437 224.51 324.845 223.818 324.045C223.125 323.244 222.668 322.267 222.5 321.222V316.27H230.381Z" fill="#FFA683"/>
<path d="M230.381 315.565V318.722C229.168 319.369 227.815 319.708 226.44 319.708C225.066 319.708 223.712 319.369 222.5 318.722V315.565H230.381Z" fill="#E57C5C"/>
<path d="M234.436 305.59C232.143 305.426 230.002 304.385 228.456 302.684C226.243 304.597 218.505 305.59 218.505 305.59V308.64C218.611 311.252 219.49 313.774 221.028 315.888C221.661 316.743 222.486 317.439 223.436 317.918C224.386 318.397 225.436 318.647 226.5 318.647C227.564 318.647 228.614 318.397 229.564 317.918C230.514 317.439 231.339 316.743 231.972 315.888C233.511 313.774 234.389 311.252 234.495 308.64L234.436 305.59Z" fill="#FFA683"/>
<path d="M220.526 309.011C220.526 309.444 220.398 309.867 220.157 310.227C219.917 310.587 219.575 310.867 219.175 311.033C218.775 311.198 218.335 311.242 217.91 311.157C217.486 311.073 217.096 310.864 216.79 310.558C216.484 310.252 216.275 309.862 216.191 309.438C216.106 309.013 216.15 308.573 216.315 308.173C216.481 307.773 216.761 307.431 217.121 307.191C217.481 306.95 217.904 306.822 218.337 306.822C218.918 306.822 219.475 307.053 219.885 307.463C220.295 307.874 220.526 308.43 220.526 309.011V309.011Z" fill="#FFA683"/>
<path d="M236.66 309.011C236.66 309.444 236.532 309.867 236.291 310.227C236.051 310.587 235.709 310.867 235.309 311.033C234.909 311.198 234.469 311.242 234.044 311.157C233.62 311.073 233.23 310.864 232.924 310.558C232.618 310.252 232.409 309.862 232.325 309.438C232.24 309.013 232.284 308.573 232.449 308.173C232.615 307.773 232.895 307.431 233.255 307.191C233.615 306.95 234.039 306.822 234.471 306.822C235.052 306.822 235.609 307.053 236.019 307.463C236.429 307.874 236.66 308.43 236.66 309.011V309.011Z" fill="#FFA683"/>
<path d="M336.98 71.4491C356.697 71.4491 372.681 55.4654 372.681 35.7485C372.681 16.0316 356.697 0.0478516 336.98 0.0478516C317.263 0.0478516 301.28 16.0316 301.28 35.7485C301.28 55.4654 317.263 71.4491 336.98 71.4491Z" fill="#FBBE42"/>
<path d="M336.98 0.0478416H336.335C342.634 3.77792 347.535 9.47286 350.284 16.258C353.033 23.0431 353.479 30.5431 351.553 37.6062C349.627 44.6693 345.436 50.9048 339.623 55.355C333.809 59.8052 326.696 62.224 319.375 62.2398C316.99 62.2414 314.613 61.9847 312.283 61.4744C316.499 65.5149 321.641 68.4596 327.259 70.0506C332.877 71.6415 338.8 71.8301 344.508 70.5997C350.217 69.3694 355.536 66.7577 360 62.9935C364.464 59.2294 367.936 54.4278 370.113 49.0095C372.29 43.5912 373.105 37.7216 372.485 31.9153C371.866 26.109 369.832 20.5432 366.562 15.7058C363.292 10.8683 358.885 6.90684 353.727 4.16864C348.57 1.43043 342.82 -0.00093482 336.98 4.58049e-07V0.0478416Z" fill="#F9A643"/>
<path d="M85.7367 148.711C93.2117 148.711 93.6064 137.576 86.1433 137.109H85.94V136.966C85.9549 134.459 85.3131 131.992 84.0782 129.811C82.8434 127.629 81.0588 125.809 78.9019 124.532C76.745 123.254 74.2912 122.564 71.7847 122.53C69.2781 122.495 66.8063 123.118 64.6153 124.336C63.0421 121.398 60.5321 119.069 57.484 117.721C54.436 116.372 51.0247 116.081 47.7921 116.893C44.5595 117.705 41.6911 119.575 39.6425 122.204C37.5939 124.833 36.4827 128.071 36.4854 131.404C36.4616 131.843 36.4616 132.282 36.4854 132.72C32.9425 131.698 29.1666 131.828 25.7019 133.089C22.2371 134.351 19.2623 136.68 17.2059 139.741C16.6313 140.617 16.3046 141.632 16.2607 142.679C16.2168 143.725 16.4572 144.765 16.9564 145.686C17.4556 146.607 18.1949 147.376 19.0959 147.91C19.9969 148.445 21.0259 148.726 22.0736 148.722L85.7367 148.711Z" fill="#417AA4"/>
<path d="M315.416 57.7548C325.212 57.7548 325.726 43.1756 315.955 42.5417H315.68V42.3623C315.68 39.0855 314.826 35.8652 313.204 33.0182C311.582 30.1712 309.246 27.7957 306.427 26.1255C303.607 24.4552 300.402 23.5478 297.126 23.4924C293.849 23.437 290.615 24.2356 287.741 25.8097C285.68 21.9599 282.391 18.9093 278.397 17.1424C274.404 15.3755 269.935 14.9935 265.699 16.0572C261.464 17.1208 257.705 19.5692 255.02 23.0133C252.335 26.4573 250.878 30.6998 250.88 35.0667C250.88 35.6487 250.904 36.2228 250.952 36.7889C246.309 35.4578 241.363 35.632 236.825 37.2866C232.287 38.9411 228.39 41.9909 225.693 45.9981C224.938 47.1454 224.508 48.4758 224.45 49.8477C224.391 51.2197 224.705 52.5819 225.359 53.7894C226.013 54.9969 226.983 56.0044 228.164 56.7048C229.345 57.4052 230.694 57.7722 232.067 57.7668L315.416 57.7548Z" fill="#417AA4"/>
<path d="M433.294 92.1279C424.288 92.1279 423.822 78.7327 432.804 78.1586H433.055V77.9912C433.055 74.9808 433.839 72.0223 435.329 69.4066C436.819 66.791 438.965 64.6084 441.554 63.0734C444.144 61.5384 447.089 60.704 450.099 60.6522C453.109 60.6004 456.08 61.3331 458.721 62.7781C460.619 59.2422 463.643 56.4412 467.313 54.8196C470.984 53.1979 475.091 52.8484 478.982 53.8265C482.874 54.8046 486.328 57.0543 488.796 60.2186C491.263 63.383 492.604 67.2808 492.604 71.2936C492.604 71.8278 492.58 72.3541 492.532 72.8723C496.8 71.6489 501.346 71.8093 505.516 73.3307C509.687 74.8521 513.269 77.6561 515.746 81.34C516.425 82.3941 516.807 83.6113 516.853 84.8639C516.898 86.1165 516.606 87.3584 516.007 88.4592C515.408 89.5601 514.523 90.4794 513.446 91.1206C512.369 91.7619 511.139 92.1016 509.886 92.104L433.294 92.1279Z" fill="#417AA4"/>
<path d="M465 342.941L466.77 342.355C467.034 339.293 465.718 334.139 458.769 326.185C445.912 311.462 434.849 290.497 437.684 282.316C437.684 282.316 425.102 301.237 433.593 313.735C441.547 325.456 462.716 327.979 465 342.941Z" fill="#379CF7"/>
<path d="M465.73 342.702L466.77 342.355C467.034 339.293 465.718 334.139 458.769 326.185C445.912 311.462 434.849 290.497 437.684 282.316C437.684 282.316 431.022 299.706 439.657 311.355C448.292 323.004 463.386 325.24 465.73 342.702Z" fill="#006CBC"/>
<path d="M470.167 330.359C469.625 332.883 468.824 335.344 467.775 337.703L468.6 337.834C472.368 332.763 478.551 322.705 479.914 309.955C481.924 291.322 484.627 267.988 484.627 267.988C484.627 267.988 465.646 283.643 469.904 305.399C471.997 316.246 471.447 324.463 470.167 330.359Z" fill="#379CF7"/>
<path d="M476.829 296.5C475.788 312.048 472.858 329.151 469.055 335.968C469.605 335.538 470.191 335.095 470.801 334.641C475.699 327.23 478.81 318.784 479.89 309.967C481.9 291.334 484.603 268 484.603 268C484.603 268 478.18 276.252 476.829 296.5Z" fill="#006CBC"/>
<path d="M473.552 337.619C472.255 339.119 470.804 340.478 469.222 341.673L469.725 342.068C476.872 338.842 483.055 333.809 487.665 327.465C495.917 315.66 506.37 300.949 506.37 300.949C506.37 300.949 487.784 304.537 482.605 320.707C480.783 326.907 477.701 332.664 473.552 337.619V337.619Z" fill="#379CF7"/>
<path d="M490.583 317.287C484.124 327.381 475.824 337.822 470.741 340.992L472.404 340.74C478.45 337.562 483.675 333.021 487.665 327.477C495.917 315.672 506.37 300.961 506.37 300.961C506.37 300.961 498.979 304.131 490.583 317.287Z" fill="#006CBC"/>
<path d="M466.435 337.021C467.631 340.346 468.457 342.618 468.959 344.197L469.629 344.041C468.54 338.217 466.651 328.147 464.845 321.545C462.226 311.809 464.259 307.085 462.154 290.15C460.049 273.214 450.002 250.849 450.002 250.849C450.002 250.849 443.52 274.446 452.789 296.967C462.058 319.488 461.305 322.394 466.435 337.021Z" fill="#379CF7"/>
<path d="M468.971 344.185H469.103L469.174 341.793C468.062 335.813 466.412 327.369 464.845 321.557C462.226 311.821 464.259 307.097 462.154 290.162C460.049 273.226 450.002 250.861 450.002 250.861C450.002 250.861 453.16 284.493 457.764 299.203C462.046 312.79 468.11 340.166 468.971 344.185Z" fill="#006CBC"/>
<path d="M449.835 340.788L453.889 364.84C454.075 365.927 454.64 366.913 455.482 367.624C456.325 368.335 457.391 368.726 458.494 368.727H481.995C483.097 368.725 484.162 368.334 485.002 367.623C485.843 366.911 486.404 365.926 486.588 364.84L490.654 340.788C490.737 340.277 490.708 339.755 490.57 339.256C490.432 338.757 490.187 338.294 489.853 337.899C489.519 337.503 489.104 337.185 488.635 336.965C488.166 336.746 487.656 336.63 487.138 336.626H453.315C452.801 336.635 452.294 336.754 451.83 336.976C451.365 337.198 450.954 337.517 450.624 337.912C450.294 338.307 450.053 338.768 449.916 339.264C449.78 339.761 449.752 340.28 449.835 340.788V340.788Z" fill="white"/>
<path d="M490.607 339.568C490.563 339.344 490.499 339.124 490.415 338.911C490.331 338.717 490.236 338.53 490.128 338.348L490.056 338.253C489.955 338.098 489.843 337.95 489.722 337.81L489.566 337.667C489.452 337.557 489.332 337.453 489.207 337.356L488.932 337.188C488.827 337.113 488.715 337.049 488.597 336.997L488.167 336.853L487.892 336.758C487.64 336.705 487.383 336.677 487.126 336.674H453.315C452.838 336.674 452.365 336.769 451.925 336.954C451.485 337.139 451.087 337.409 450.752 337.75C450.418 338.091 450.156 338.495 449.98 338.939C449.803 339.382 449.718 339.857 449.727 340.334H479.914C479.926 340.501 479.926 340.669 479.914 340.836L475.848 364.888C475.667 365.975 475.106 366.962 474.264 367.674C473.423 368.385 472.357 368.776 471.255 368.775H481.959C483.061 368.773 484.126 368.382 484.966 367.671C485.807 366.959 486.369 365.973 486.552 364.888L490.619 340.836C490.692 340.416 490.688 339.987 490.607 339.568V339.568Z" fill="#CAEDFF"/>
<path d="M139.437 165.395H86.3706C85.465 165.393 84.5679 165.57 83.7307 165.916C82.8935 166.261 82.1326 166.768 81.4917 167.408C80.8507 168.048 80.3422 168.808 79.9953 169.645C79.6483 170.481 79.4697 171.378 79.4697 172.284V213.976L92.9726 201.741C94.0711 200.749 95.4987 200.199 96.9792 200.198H139.437C140.696 200.183 141.897 199.672 142.781 198.776C143.666 197.881 144.161 196.673 144.161 195.414V170.059C144.131 168.822 143.621 167.644 142.74 166.774C141.859 165.904 140.675 165.41 139.437 165.395V165.395Z" fill="#0A4D7A"/>
<path d="M121.258 176.027C120.712 175.472 120.06 175.031 119.341 174.73C118.623 174.429 117.851 174.273 117.072 174.273C116.293 174.273 115.521 174.429 114.803 174.73C114.084 175.031 113.433 175.472 112.886 176.027L112.109 176.805L111.331 176.027C110.221 174.917 108.715 174.293 107.145 174.293C105.575 174.293 104.069 174.917 102.959 176.027C101.849 177.138 101.225 178.643 101.225 180.213C101.225 181.783 101.849 183.289 102.959 184.399L103.737 185.177L112.109 193.489L120.481 185.177L121.258 184.399C121.813 183.853 122.255 183.201 122.556 182.483C122.857 181.764 123.012 180.993 123.012 180.213C123.012 179.434 122.857 178.663 122.556 177.944C122.255 177.225 121.813 176.574 121.258 176.027V176.027Z" fill="#FF5A5A"/>
<path d="M454.966 109.063H401.588C399.751 109.066 397.989 109.799 396.691 111.099C395.393 112.4 394.664 114.162 394.664 116V157.932L408.238 145.637C409.341 144.635 410.778 144.08 412.269 144.082H454.966C456.235 144.082 457.452 143.578 458.349 142.681C459.246 141.784 459.75 140.567 459.75 139.298V113.823C459.744 112.559 459.237 111.348 458.34 110.456C457.444 109.564 456.231 109.063 454.966 109.063V109.063Z" fill="#0A4D7A"/>
<path d="M442.348 128.104C442.815 128.052 443.245 127.825 443.55 127.468C443.856 127.112 444.015 126.652 443.996 126.183C443.976 125.714 443.779 125.27 443.444 124.94C443.109 124.611 442.662 124.42 442.192 124.408H438.604C438.417 124.396 438.23 124.396 438.042 124.408C437.103 124.494 436.157 124.446 435.232 124.264C433.665 123.918 435.519 122.004 434.538 118.488C433.557 114.971 430.125 115.175 430.292 116.813C430.46 118.452 430.639 122.375 429.73 123.607C429.075 124.448 428.261 125.152 427.333 125.677C426.405 126.203 425.383 126.54 424.324 126.668L424.252 135.985H427.912C429.315 137.284 431.096 138.101 432.995 138.317V138.317H439.968C440.19 138.319 440.411 138.277 440.617 138.192C440.823 138.108 441.01 137.984 441.168 137.828C441.326 137.671 441.451 137.485 441.537 137.279C441.622 137.074 441.666 136.853 441.666 136.631C441.666 136.377 441.609 136.125 441.499 135.896C441.39 135.666 441.23 135.464 441.032 135.303C441.451 135.263 441.844 135.082 442.146 134.789C442.448 134.496 442.641 134.109 442.694 133.691C442.747 133.274 442.656 132.851 442.437 132.492C442.217 132.133 441.882 131.859 441.487 131.715H441.75C441.994 131.717 442.236 131.67 442.461 131.578C442.687 131.485 442.892 131.349 443.064 131.176C443.237 131.004 443.373 130.799 443.466 130.573C443.558 130.347 443.605 130.106 443.604 129.862C443.603 129.475 443.481 129.097 443.256 128.782C443.031 128.467 442.714 128.23 442.348 128.104V128.104Z" fill="#379CF7"/>
<path d="M413.991 137.695L420.258 137.707L420.342 124.097L414.063 124.085L413.991 137.695Z" fill="#379CF7"/>
<path d="M333.082 261.278C331.062 257.743 330.355 253.61 331.083 249.605C331.812 245.6 333.93 241.98 337.065 239.383C340.199 236.786 344.149 235.378 348.22 235.406C352.291 235.435 356.221 236.898 359.318 239.539C362.416 242.18 364.483 245.829 365.155 249.844C365.827 253.859 365.062 257.982 362.993 261.488C360.924 264.994 357.685 267.658 353.846 269.011C350.007 270.364 345.813 270.319 342.004 268.885C340.912 268.469 339.713 268.427 338.595 268.765L331.862 270.798L333.512 265.356C333.723 264.683 333.793 263.974 333.719 263.273C333.645 262.571 333.428 261.892 333.082 261.278Z" fill="#0A4D7A"/>
<path d="M347.721 243.374L345.95 248.852C345.897 249 345.8 249.129 345.672 249.221C345.544 249.313 345.391 249.363 345.233 249.366H339.48C339.32 249.362 339.163 249.409 339.032 249.501C338.901 249.593 338.804 249.725 338.754 249.877C338.704 250.029 338.705 250.193 338.756 250.344C338.807 250.496 338.906 250.627 339.038 250.718L343.69 254.102C343.819 254.194 343.916 254.325 343.965 254.476C344.015 254.626 344.015 254.789 343.965 254.939L342.195 260.417C342.136 260.574 342.131 260.745 342.18 260.905C342.23 261.065 342.331 261.204 342.468 261.3C342.605 261.396 342.77 261.444 342.937 261.435C343.104 261.427 343.264 261.363 343.391 261.254L348.043 257.87C348.172 257.776 348.327 257.726 348.486 257.726C348.645 257.726 348.8 257.776 348.929 257.87L353.581 261.254C353.708 261.363 353.867 261.427 354.035 261.435C354.202 261.444 354.367 261.396 354.504 261.3C354.641 261.204 354.742 261.065 354.792 260.905C354.841 260.745 354.836 260.574 354.777 260.417L352.959 254.939C352.906 254.79 352.903 254.628 352.951 254.477C352.998 254.326 353.093 254.194 353.222 254.102L357.887 250.718C358.018 250.627 358.117 250.496 358.168 250.344C358.219 250.193 358.22 250.029 358.17 249.877C358.12 249.725 358.023 249.593 357.892 249.501C357.761 249.409 357.604 249.362 357.444 249.366H351.643C351.485 249.367 351.33 249.317 351.201 249.225C351.073 249.133 350.976 249.002 350.926 248.852L349.144 243.374C349.099 243.22 349.005 243.085 348.877 242.989C348.748 242.893 348.592 242.841 348.432 242.841C348.272 242.841 348.116 242.893 347.988 242.989C347.859 243.085 347.766 243.22 347.721 243.374V243.374Z" fill="#FBBE42"/>
</svg>
