<svg width="598" height="598" viewBox="0 0 598 598" fill="none" xmlns="http://www.w3.org/2000/svg">
<path d="M564.656 469.956C564.656 462.398 450.485 456.262 309.668 456.262C168.851 456.262 54.6812 462.398 54.6812 469.956C54.6812 477.515 168.839 483.662 309.668 483.662C450.497 483.662 564.656 477.527 564.656 469.956Z" fill="#E6F8FF"/>
<path d="M86.3871 463.45C56.6785 463.306 32.5671 438.872 33.3684 409.176C33.799 393.018 39.8388 377.362 58.1854 368.822C106.528 346.338 39.0494 200.186 124.516 185.571C209.982 170.956 206.597 59.6445 306.654 142.85C406.712 226.056 424.7 113.62 489.906 172.08C555.112 230.541 447.184 304.741 528.178 342.965C581.555 368.177 564.058 413.421 545.938 441.324C541.079 448.765 534.43 454.868 526.601 459.072C518.771 463.276 510.011 465.448 501.124 465.387L86.3871 463.45Z" fill="#CAEDFF"/>
<g style="mix-blend-mode:multiply" opacity="0.44">
<path d="M501.124 465.388C510.003 465.44 518.753 463.265 526.574 459.061C534.394 454.857 541.036 448.758 545.89 441.324C564.01 413.421 581.507 368.177 528.13 342.965C447.184 304.693 555.111 230.541 489.858 172.08C424.604 113.62 406.712 226.044 306.654 142.85C282.029 122.375 263.682 113.692 248.768 112.424C254.276 116.219 259.06 120.971 262.893 126.453C299.251 177.355 321.066 214.515 397 208.044C472.934 201.574 363.07 334.067 422.846 349.423C462.314 359.553 457.051 420.454 428.419 465.053L501.124 465.388Z" fill="#BAE6F7"/>
</g>
<path d="M236.999 207.889C231.017 207.244 225.18 205.628 219.717 203.105C211.501 199.301 204.169 191.994 208.295 184.782C214.455 174.903 196.933 166.543 202.889 161.041C208.953 156.174 210.233 160.204 207.889 149.309C205.963 138.186 213.618 135.519 217.923 125.568C222.851 115.558 234.153 123.044 231.354 136.105C229.154 149.584 234.356 135.662 238.183 141.738C241.448 146.761 228.615 168.385 234.284 166.435C239.535 164.043 244.056 167.356 243.362 173.396C241.317 187.365 236.808 207.614 236.999 207.889Z" fill="#7BC7FF"/>
<path d="M241.185 213.582C241.156 213.581 241.127 213.574 241.1 213.562C241.073 213.55 241.05 213.532 241.03 213.51C232.183 203.129 225.684 190.959 221.978 177.833V177.714H221.882C218.163 175.319 214.763 172.462 211.764 169.21C210.747 168.158 209.731 167.081 208.714 165.993C208.695 165.967 208.686 165.935 208.686 165.903C208.686 165.871 208.695 165.84 208.714 165.813C208.735 165.761 208.775 165.719 208.826 165.695C208.877 165.67 208.935 165.666 208.989 165.682C209.009 165.678 209.029 165.678 209.049 165.682C210.042 166.734 211.034 167.799 212.039 168.827C214.815 171.826 217.92 174.502 221.296 176.805L221.858 177.164L221.679 176.482C220.007 169.977 219.064 163.306 218.868 156.592V156.401L218.713 156.329H218.641C215.94 152.191 213.853 147.683 212.446 142.946C212.425 142.916 212.414 142.881 212.414 142.844C212.414 142.808 212.425 142.773 212.446 142.743C212.48 142.717 212.522 142.704 212.565 142.704C212.608 142.704 212.65 142.717 212.685 142.743C212.721 142.768 212.747 142.807 212.757 142.85C214.04 147.206 215.911 151.366 218.318 155.217C218.473 155.48 218.641 155.731 218.808 155.994C218.808 155.683 218.808 155.36 218.808 155.049C218.739 147.904 219.429 140.772 220.865 133.773C220.868 133.749 220.876 133.726 220.888 133.705C220.901 133.684 220.917 133.667 220.937 133.653C220.966 133.636 220.999 133.627 221.033 133.627C221.066 133.627 221.099 133.636 221.129 133.653C221.165 133.677 221.193 133.712 221.208 133.753C221.223 133.794 221.224 133.838 221.212 133.88C219.275 143.265 218.715 152.882 219.55 162.429C219.55 162.62 219.55 162.8 219.55 162.991L219.933 162.62C224.138 158.626 227.849 154.141 230.984 149.261C230.984 149.201 231.055 149.177 231.127 149.261C231.159 149.278 231.188 149.302 231.211 149.331C231.233 149.359 231.25 149.393 231.259 149.428C231.273 149.454 231.281 149.483 231.281 149.512C231.281 149.541 231.273 149.57 231.259 149.596C228.012 154.66 224.147 159.301 219.753 163.41L219.634 163.517V163.685C220.11 168.34 220.954 172.951 222.157 177.474V177.546C222.174 177.573 222.183 177.604 222.183 177.636C222.183 177.668 222.174 177.699 222.157 177.726V177.797V177.869C223.273 181.92 224.68 185.885 226.367 189.733L226.666 190.415C226.726 190.176 226.798 189.937 226.857 189.698C228.597 183.262 231.256 177.111 234.751 171.435C234.769 171.396 234.802 171.365 234.842 171.35C234.882 171.334 234.926 171.335 234.966 171.351C234.995 171.36 235.022 171.376 235.045 171.397C235.068 171.417 235.086 171.442 235.098 171.471C235.11 171.488 235.116 171.509 235.116 171.53C235.116 171.552 235.11 171.572 235.098 171.59C231.428 177.563 228.678 184.054 226.941 190.846V190.941V191.037C230.628 199.088 235.405 206.594 241.138 213.343C241.149 213.363 241.155 213.385 241.155 213.408C241.155 213.431 241.149 213.454 241.138 213.474C241.117 213.512 241.087 213.544 241.052 213.569C241.017 213.594 240.977 213.61 240.934 213.618L241.185 213.582Z" fill="#379CF7"/>
<path d="M215.663 241.927C216.057 235.418 215.473 228.887 213.929 222.552C211.537 213.091 205.557 204.002 197.771 207.374C187.007 212.481 181.672 192.281 175.238 197.806C169.39 203.583 173.157 205.58 162.8 201.394C152.131 197.591 148.196 205.425 137.684 208.57C126.92 212.314 132.433 225.673 145.816 224.693C159.499 224.417 144.86 227.862 150.218 232.933C154.619 237.227 178.168 226.75 175.262 232.574C172.045 237.86 174.52 243.254 180.608 243.446C194.649 243.386 215.436 241.592 215.663 241.927Z" fill="#7BC7FF"/>
<path d="M220.566 247.321C220.578 247.295 220.584 247.266 220.584 247.237C220.584 247.208 220.578 247.18 220.566 247.153C213.618 238.255 202.447 227.611 188.561 221.045H188.454V220.925C186.743 216.59 184.502 212.485 181.78 208.702C180.907 207.434 180.01 206.178 179.113 204.911C179.089 204.891 179.06 204.881 179.029 204.881C178.999 204.881 178.969 204.891 178.946 204.911C178.89 204.927 178.842 204.962 178.809 205.01C178.776 205.058 178.761 205.116 178.766 205.174C178.762 205.202 178.762 205.23 178.766 205.258C179.639 206.454 180.512 207.721 181.373 208.965C183.883 212.462 185.993 216.229 187.664 220.196L187.928 220.853L187.294 220.566C181.166 217.771 174.719 215.735 168.098 214.503H167.918V214.311C167.925 214.284 167.925 214.255 167.918 214.228C164.343 210.701 160.244 207.748 155.767 205.473C155.735 205.453 155.697 205.442 155.659 205.442C155.621 205.442 155.584 205.453 155.552 205.473C155.517 205.504 155.491 205.543 155.476 205.587C155.461 205.631 155.459 205.678 155.468 205.724C155.492 205.767 155.53 205.801 155.576 205.82C159.686 207.913 163.48 210.579 166.842 213.737L167.524 214.395L166.591 214.228C159.533 213.04 152.361 212.674 145.218 213.139C145.123 213.139 145.099 213.139 145.099 213.199C145.081 213.232 145.072 213.269 145.072 213.307C145.072 213.344 145.081 213.381 145.099 213.414C145.114 213.454 145.143 213.487 145.18 213.509C145.217 213.531 145.26 213.539 145.302 213.534C154.879 212.907 164.495 213.803 173.791 216.189L174.341 216.332L173.91 216.691C169.296 220.561 164.232 223.862 158.829 226.522C158.829 226.522 158.733 226.582 158.757 226.666C158.784 226.74 158.834 226.803 158.901 226.845C158.926 226.86 158.955 226.868 158.984 226.868C159.014 226.868 159.043 226.86 159.068 226.845C164.664 224.054 169.888 220.57 174.616 216.476L174.748 216.356H174.903C179.421 217.596 183.823 219.225 188.059 221.224H188.131V221.296C188.152 221.322 188.18 221.342 188.211 221.354C188.243 221.367 188.277 221.372 188.31 221.368H188.382H188.454C192.281 223.213 195.96 225.352 199.457 227.766L200.067 228.185L199.337 228.281C192.626 229.18 186.089 231.092 179.95 233.95C179.912 233.969 179.88 234.001 179.861 234.04C179.842 234.078 179.835 234.122 179.843 234.165C179.841 234.198 179.848 234.23 179.863 234.26C179.877 234.289 179.899 234.314 179.926 234.332C179.926 234.332 179.986 234.332 180.046 234.332C186.497 231.332 193.384 229.378 200.45 228.544H200.557H200.653C208.044 233.851 214.648 240.176 220.267 247.333C220.267 247.405 220.363 247.393 220.387 247.393C220.43 247.376 220.469 247.349 220.498 247.313C220.527 247.278 220.547 247.235 220.554 247.189L220.566 247.321Z" fill="#379CF7"/>
<path d="M209.515 222.456C209.408 222.456 216.093 213.474 218.844 202.519C221.822 191.755 220.853 179.101 210.795 177.271C196.646 175.178 202.77 152.155 192.855 153.351C183.466 155.145 186.229 159.546 177.905 148.699C169.031 138.054 160.443 143.077 147.718 139.131C134.442 135.77 132.457 152.287 146.893 160.073C161.245 168.744 144.082 162.524 146.725 170.944C148.83 177.989 179.268 183.179 172.918 186.935C166.531 189.961 166.017 196.814 172.224 200.964C186.899 210.185 209.467 222.013 209.515 222.456Z" fill="#379CF7"/>
<path d="M211.513 230.912C211.537 230.885 211.556 230.852 211.566 230.817C211.577 230.782 211.579 230.745 211.572 230.708C208.894 214.181 202.681 198.426 193.357 184.519L193.274 184.399V184.268C194.006 178.889 194.038 173.437 193.369 168.05C193.202 166.256 192.998 164.462 192.783 162.632C192.784 162.592 192.769 162.552 192.743 162.521C192.716 162.491 192.68 162.47 192.64 162.465C192.578 162.441 192.509 162.443 192.449 162.47C192.388 162.497 192.341 162.547 192.317 162.608C192.311 162.644 192.311 162.68 192.317 162.716C192.52 164.486 192.723 166.304 192.903 168.014C193.498 172.994 193.526 178.026 192.987 183.012C192.987 183.287 192.915 183.55 192.867 183.825C192.711 183.586 192.544 183.359 192.377 183.12C187.613 176.389 182.104 170.219 175.955 164.725L175.788 164.57V164.366C175.794 164.327 175.794 164.286 175.788 164.247C174.074 158.433 171.52 152.901 168.205 147.826C168.185 147.784 168.152 147.75 168.112 147.728C168.071 147.707 168.024 147.699 167.978 147.706C167.924 147.705 167.871 147.724 167.829 147.759C167.787 147.795 167.76 147.844 167.751 147.897C167.738 147.921 167.732 147.948 167.732 147.975C167.732 148.002 167.738 148.029 167.751 148.053C170.81 152.718 173.223 157.775 174.927 163.087C175.035 163.445 175.154 163.804 175.262 164.163L174.389 163.398C167.766 157.648 160.549 152.62 152.861 148.4C152.753 148.4 152.717 148.4 152.693 148.4C152.657 148.419 152.626 148.449 152.605 148.485C152.584 148.52 152.573 148.561 152.574 148.603C152.567 148.655 152.577 148.707 152.603 148.753C152.629 148.798 152.669 148.834 152.717 148.854C163.039 154.509 172.483 161.636 180.751 170.011C180.907 170.179 181.062 170.346 181.23 170.502L180.584 170.574C173.501 171.326 166.354 171.225 159.295 170.275C159.211 170.275 159.164 170.275 159.14 170.382C159.122 170.422 159.113 170.464 159.113 170.508C159.113 170.551 159.122 170.594 159.14 170.633C159.16 170.664 159.186 170.689 159.217 170.708C159.248 170.726 159.283 170.738 159.319 170.741C166.636 171.731 174.048 171.812 181.385 170.98H181.589L181.72 171.124C185.703 175.267 189.342 179.727 192.604 184.459L192.664 184.531V184.627C192.665 184.668 192.678 184.708 192.701 184.741C192.725 184.775 192.757 184.802 192.795 184.818H192.879L192.939 184.902C195.827 189.171 198.409 193.639 200.665 198.273L201.071 199.086L200.258 198.703C192.852 195.206 184.981 192.789 176.888 191.527C176.839 191.516 176.788 191.523 176.743 191.547C176.699 191.571 176.666 191.611 176.649 191.659C176.635 191.693 176.627 191.73 176.627 191.767C176.627 191.804 176.635 191.84 176.649 191.874C176.662 191.899 176.681 191.919 176.704 191.934C176.727 191.949 176.753 191.957 176.781 191.958C185.285 193.277 193.542 195.87 201.275 199.648L201.394 199.708V199.828C205.987 209.679 209.207 220.114 210.962 230.84C210.962 230.948 211.034 230.972 211.058 230.983C211.109 230.993 211.162 230.99 211.211 230.975C211.261 230.961 211.307 230.935 211.345 230.9L211.513 230.912Z" fill="#2481C6"/>
<path d="M334.306 188.633H220.877C209.873 188.633 200.952 197.554 200.952 208.558V445.438C200.952 456.443 209.873 465.364 220.877 465.364H334.306C345.31 465.364 354.231 456.443 354.231 445.438V208.558C354.231 197.554 345.31 188.633 334.306 188.633Z" fill="#0A4D7A"/>
<path d="M334.318 188.633H220.877C218.259 188.63 215.665 189.143 213.245 190.143C210.825 191.143 208.625 192.61 206.772 194.461C204.92 196.311 203.45 198.509 202.447 200.928C201.444 203.347 200.928 205.94 200.928 208.558V445.438C200.929 448.467 201.622 451.455 202.955 454.175C204.288 456.895 206.225 459.274 208.618 461.13L352.593 200.653C351.052 197.085 348.501 194.045 345.253 191.909C342.006 189.773 338.205 188.635 334.318 188.633Z" fill="#083954"/>
<path d="M299.742 198.333H257.666C257.109 198.336 256.575 198.559 256.181 198.953C255.787 199.347 255.564 199.88 255.561 200.438C255.561 200.996 255.783 201.531 256.178 201.926C256.573 202.321 257.108 202.543 257.666 202.543H299.742C300.3 202.543 300.835 202.321 301.23 201.926C301.625 201.531 301.846 200.996 301.846 200.438C301.843 199.88 301.621 199.347 301.226 198.953C300.832 198.559 300.299 198.336 299.742 198.333Z" fill="white"/>
<path d="M334.318 196.144H317.67L311.69 207.494C310.593 209.577 308.949 211.321 306.934 212.537C304.919 213.753 302.609 214.396 300.256 214.395H254.951C252.598 214.396 250.288 213.753 248.273 212.537C246.258 211.321 244.614 209.577 243.518 207.494L237.538 196.144H220.877C217.573 196.147 214.405 197.461 212.069 199.798C209.732 202.134 208.418 205.302 208.415 208.606V445.438C208.421 448.74 209.737 451.905 212.073 454.239C214.409 456.573 217.575 457.885 220.877 457.889H334.318C337.619 457.885 340.784 456.573 343.118 454.239C345.452 451.904 346.765 448.739 346.768 445.438V208.559C346.756 205.264 345.439 202.108 343.105 199.781C340.772 197.455 337.613 196.147 334.318 196.144Z" fill="#CAEDFF"/>
<g style="mix-blend-mode:multiply" opacity="0.85">
<path d="M346.768 208.558V211.19L212.314 454.48C211.084 453.314 210.103 451.911 209.433 450.354C208.763 448.798 208.416 447.121 208.415 445.426V208.618C208.415 205.312 209.728 202.141 212.064 199.802C214.401 197.463 217.571 196.147 220.877 196.144H237.526L243.506 207.494C244.605 209.577 246.252 211.32 248.269 212.536C250.286 213.753 252.596 214.395 254.951 214.395H300.196C302.549 214.393 304.857 213.749 306.872 212.533C308.886 211.317 310.531 209.575 311.63 207.494L317.61 196.144H334.258C335.895 196.138 337.516 196.454 339.031 197.074C340.545 197.695 341.923 198.607 343.084 199.76C344.246 200.913 345.169 202.283 345.801 203.793C346.433 205.303 346.762 206.922 346.768 208.558Z" fill="#BAE6F7"/>
</g>
<path d="M402.322 231.761H230.015C225.199 231.761 221.296 235.664 221.296 240.48V283.129C221.296 287.944 225.199 291.848 230.015 291.848H402.322C407.138 291.848 411.041 287.944 411.041 283.129V240.48C411.041 235.664 407.138 231.761 402.322 231.761Z" fill="white"/>
<path d="M305.124 251.806L306.32 255.394C306.358 255.516 306.434 255.622 306.538 255.698C306.641 255.773 306.766 255.813 306.894 255.812H310.673C310.801 255.813 310.926 255.854 311.029 255.93C311.132 256.005 311.209 256.112 311.249 256.233C311.289 256.355 311.289 256.486 311.25 256.608C311.211 256.73 311.135 256.837 311.032 256.913L307.97 259.137C307.868 259.215 307.793 259.322 307.755 259.444C307.716 259.566 307.716 259.697 307.755 259.819L308.951 263.407C308.992 263.53 308.993 263.664 308.953 263.788C308.913 263.912 308.835 264.02 308.729 264.096C308.624 264.172 308.497 264.212 308.366 264.211C308.236 264.21 308.11 264.167 308.006 264.089L304.896 261.924C304.792 261.848 304.666 261.807 304.538 261.807C304.409 261.807 304.283 261.848 304.179 261.924L301.129 264.149C301.025 264.227 300.899 264.27 300.768 264.271C300.638 264.272 300.511 264.232 300.405 264.156C300.3 264.08 300.221 263.972 300.182 263.848C300.142 263.724 300.143 263.59 300.184 263.467L301.38 259.879C301.419 259.756 301.418 259.623 301.378 259.501C301.337 259.378 301.258 259.272 301.153 259.197L298.103 256.973C298 256.896 297.924 256.79 297.885 256.668C297.846 256.546 297.846 256.415 297.886 256.293C297.926 256.171 298.003 256.065 298.106 255.99C298.209 255.914 298.334 255.873 298.462 255.872H302.241C302.369 255.873 302.494 255.833 302.597 255.757C302.7 255.682 302.777 255.576 302.815 255.454L304.011 251.866C304.053 251.756 304.127 251.66 304.222 251.591C304.317 251.522 304.43 251.481 304.548 251.475C304.666 251.469 304.783 251.497 304.885 251.555C304.987 251.614 305.07 251.701 305.124 251.806Z" fill="#FBBE42"/>
<path d="M326.101 251.806L327.297 255.394C327.34 255.516 327.419 255.622 327.524 255.697C327.629 255.772 327.754 255.812 327.883 255.812H331.663C331.791 255.813 331.915 255.854 332.019 255.93C332.122 256.005 332.199 256.112 332.239 256.233C332.278 256.355 332.279 256.486 332.24 256.608C332.201 256.73 332.124 256.837 332.022 256.913L328.9 259.149C328.796 259.225 328.719 259.332 328.678 259.454C328.637 259.576 328.635 259.708 328.673 259.831L329.869 263.419C329.907 263.541 329.906 263.671 329.866 263.792C329.826 263.913 329.75 264.019 329.647 264.094C329.544 264.17 329.42 264.211 329.292 264.212C329.165 264.213 329.04 264.174 328.936 264.101L325.886 261.924C325.782 261.848 325.656 261.807 325.527 261.807C325.398 261.807 325.273 261.848 325.168 261.924L322.107 264.149C322.002 264.222 321.878 264.261 321.75 264.26C321.623 264.258 321.499 264.217 321.396 264.142C321.293 264.067 321.216 263.961 321.176 263.84C321.136 263.719 321.136 263.588 321.174 263.467L322.37 259.879C322.407 259.756 322.405 259.624 322.365 259.502C322.324 259.38 322.246 259.273 322.143 259.197L319.081 256.973C318.978 256.896 318.902 256.79 318.863 256.668C318.824 256.546 318.824 256.415 318.864 256.293C318.903 256.171 318.98 256.065 319.084 255.99C319.187 255.914 319.312 255.873 319.44 255.872H323.219C323.348 255.872 323.474 255.831 323.579 255.756C323.684 255.681 323.763 255.576 323.805 255.454L325.001 251.866C325.041 251.755 325.112 251.658 325.207 251.588C325.301 251.518 325.414 251.477 325.531 251.471C325.649 251.464 325.765 251.493 325.867 251.552C325.968 251.612 326.05 251.7 326.101 251.806Z" fill="#FBBE42"/>
<path d="M347.091 251.806L348.287 255.394C348.326 255.516 348.402 255.622 348.505 255.698C348.609 255.773 348.733 255.813 348.861 255.812H352.653C352.78 255.816 352.902 255.859 353.004 255.935C353.105 256.011 353.181 256.118 353.219 256.239C353.257 256.36 353.256 256.49 353.217 256.611C353.178 256.732 353.102 256.837 352.999 256.913L349.95 259.137C349.845 259.212 349.766 259.319 349.725 259.441C349.684 259.564 349.683 259.696 349.722 259.819L350.918 263.407C350.96 263.53 350.961 263.664 350.921 263.788C350.881 263.912 350.803 264.02 350.697 264.096C350.592 264.172 350.464 264.213 350.334 264.211C350.204 264.21 350.078 264.167 349.974 264.089L346.84 261.924C346.736 261.848 346.61 261.807 346.481 261.807C346.352 261.807 346.227 261.848 346.122 261.924L343.061 264.149C342.957 264.227 342.83 264.27 342.7 264.271C342.57 264.272 342.443 264.232 342.337 264.156C342.232 264.08 342.153 263.972 342.113 263.848C342.074 263.724 342.074 263.59 342.116 263.467L343.312 259.879C343.354 259.757 343.356 259.625 343.317 259.502C343.279 259.379 343.201 259.272 343.097 259.197L340.035 256.973C339.932 256.896 339.856 256.79 339.817 256.668C339.778 256.546 339.778 256.415 339.818 256.293C339.857 256.171 339.934 256.065 340.038 255.99C340.141 255.914 340.266 255.873 340.394 255.872H344.173C344.301 255.873 344.426 255.833 344.529 255.757C344.632 255.682 344.709 255.576 344.747 255.454L345.943 251.866C345.979 251.745 346.051 251.638 346.15 251.56C346.249 251.482 346.37 251.437 346.496 251.43C346.622 251.424 346.747 251.456 346.853 251.524C346.96 251.591 347.043 251.689 347.091 251.806Z" fill="#FBBE42"/>
<path d="M368.081 251.806L369.277 255.394C369.319 255.516 369.398 255.622 369.503 255.697C369.608 255.772 369.734 255.812 369.863 255.812H373.642C373.77 255.813 373.895 255.854 373.998 255.93C374.102 256.005 374.179 256.112 374.218 256.233C374.258 256.355 374.258 256.486 374.219 256.608C374.18 256.73 374.104 256.837 374.001 256.913L370.939 259.137C370.835 259.213 370.757 259.32 370.719 259.442C370.68 259.565 370.682 259.697 370.724 259.819L371.92 263.407C371.958 263.529 371.958 263.659 371.918 263.78C371.878 263.902 371.801 264.007 371.698 264.082C371.595 264.158 371.471 264.199 371.344 264.2C371.216 264.201 371.092 264.162 370.987 264.089L367.854 261.924C367.749 261.848 367.624 261.807 367.495 261.807C367.366 261.807 367.24 261.848 367.136 261.924L364.074 264.149C363.97 264.222 363.845 264.261 363.718 264.26C363.59 264.258 363.466 264.217 363.364 264.142C363.261 264.067 363.184 263.961 363.144 263.84C363.104 263.719 363.103 263.588 363.141 263.467L364.337 259.879C364.377 259.756 364.376 259.623 364.335 259.501C364.294 259.378 364.215 259.272 364.11 259.197L361.048 256.973C360.946 256.896 360.869 256.79 360.83 256.668C360.791 256.546 360.792 256.415 360.831 256.293C360.871 256.171 360.948 256.065 361.051 255.99C361.155 255.914 361.279 255.873 361.407 255.872H365.199C365.326 255.873 365.451 255.833 365.555 255.757C365.658 255.682 365.734 255.576 365.773 255.454L366.969 251.866C367.011 251.756 367.084 251.66 367.179 251.591C367.275 251.522 367.388 251.481 367.505 251.475C367.623 251.469 367.74 251.497 367.842 251.555C367.944 251.614 368.027 251.701 368.081 251.806Z" fill="#FBBE42"/>
<path d="M389.059 251.806L390.255 255.394C390.295 255.517 390.374 255.624 390.48 255.699C390.585 255.774 390.711 255.814 390.841 255.812H394.62C394.748 255.813 394.873 255.854 394.976 255.93C395.08 256.005 395.157 256.112 395.196 256.233C395.236 256.355 395.236 256.486 395.197 256.608C395.158 256.73 395.082 256.837 394.979 256.913L391.917 259.137C391.814 259.214 391.736 259.32 391.695 259.442C391.655 259.564 391.653 259.696 391.69 259.819L392.886 263.407C392.924 263.529 392.923 263.659 392.884 263.78C392.844 263.902 392.767 264.007 392.664 264.082C392.561 264.158 392.437 264.199 392.31 264.2C392.182 264.201 392.057 264.162 391.953 264.089L388.844 261.924C388.739 261.848 388.614 261.807 388.485 261.807C388.356 261.807 388.23 261.848 388.126 261.924L385.112 264.113C385.008 264.186 384.883 264.225 384.756 264.224C384.628 264.223 384.504 264.182 384.401 264.106C384.298 264.031 384.221 263.926 384.182 263.804C384.142 263.683 384.141 263.553 384.179 263.431L385.375 259.843C385.418 259.721 385.419 259.589 385.381 259.466C385.342 259.344 385.264 259.237 385.16 259.161L382.098 256.937C381.995 256.861 381.919 256.754 381.88 256.632C381.841 256.51 381.841 256.379 381.881 256.257C381.921 256.136 381.998 256.029 382.101 255.954C382.204 255.878 382.329 255.837 382.457 255.836H386.236C386.365 255.836 386.491 255.796 386.596 255.721C386.701 255.646 386.78 255.54 386.822 255.418L388.018 251.83C388.071 251.739 388.146 251.664 388.235 251.611C388.325 251.558 388.427 251.529 388.532 251.526C388.636 251.524 388.74 251.548 388.832 251.597C388.924 251.646 389.002 251.718 389.059 251.806Z" fill="#B1D7DD"/>
<path d="M358.836 270.129H297.816V271.827H358.836V270.129Z" fill="#B1D7DD"/>
<path d="M358.836 242.238H297.816V245.431H358.836V242.238Z" fill="#379CF7"/>
<path d="M358.836 276.587H297.816V278.285H358.836V276.587Z" fill="#B1D7DD"/>
<path d="M325.707 282.579H297.816V284.277H325.707V282.579Z" fill="#B1D7DD"/>
<path d="M265.689 286.411C278.791 283.345 286.926 270.239 283.86 257.138C280.795 244.037 267.689 235.901 254.588 238.967C241.487 242.033 233.351 255.138 236.417 268.24C239.482 281.341 252.588 289.476 265.689 286.411Z" fill="#7BC7FF"/>
<path d="M272.198 277.472L270.057 254.963C270.057 249.199 267.796 243.888 261.685 245.467C260.345 244.739 258.812 244.447 257.299 244.632C255.785 244.816 254.367 245.467 253.241 246.496C252.033 247.705 251.078 249.144 250.434 250.727C249.789 252.311 249.466 254.007 249.486 255.717L247.094 277.592L272.198 277.472Z" fill="#0A4D7A"/>
<path d="M263.73 265.895V270.846C263.73 270.846 263.036 274.721 259.771 275.379C258.761 275.062 257.859 274.47 257.166 273.669C256.474 272.869 256.017 271.891 255.848 270.846V265.895H263.73Z" fill="#FFA683"/>
<path d="M263.73 265.189V268.347C262.517 268.994 261.164 269.332 259.789 269.332C258.414 269.332 257.061 268.994 255.848 268.347V265.189H263.73Z" fill="#E57C5C"/>
<path d="M267.784 255.214C265.492 255.05 263.35 254.009 261.804 252.308C259.592 254.222 251.854 255.214 251.854 255.214V258.264C251.96 260.877 252.838 263.399 254.377 265.512C255.01 266.368 255.835 267.063 256.785 267.542C257.735 268.021 258.785 268.271 259.849 268.271C260.913 268.271 261.963 268.021 262.913 267.542C263.863 267.063 264.688 266.368 265.321 265.512C266.86 263.399 267.738 260.877 267.844 258.264L267.784 255.214Z" fill="#FFA683"/>
<path d="M279.278 279.099C276.192 273.788 263.12 270.846 263.12 270.846L259.687 272.174L256.255 270.846C256.255 270.846 243.183 273.788 240.097 279.099L236.306 307.707L242.286 307.611L245.802 283.691C245.802 283.691 248.026 291.405 247.907 295.914C247.636 299.928 247.124 303.922 246.376 307.874H272.927C272.179 303.922 271.668 299.928 271.396 295.914C271.277 291.405 273.501 283.691 273.501 283.691L277.017 307.611L282.997 307.707L279.278 279.099Z" fill="#FFA683"/>
<path d="M270.296 273.071C269.628 275.351 268.24 277.354 266.338 278.779C264.436 280.204 262.124 280.975 259.747 280.975C257.371 280.975 255.058 280.204 253.157 278.779C251.255 277.354 249.866 275.351 249.199 273.071C247.166 273.832 245.218 274.802 243.386 275.965L245.778 283.751C245.817 283.815 245.849 283.883 245.874 283.954V283.751L246.125 284.648L246.197 284.923C247.216 288.525 247.814 292.234 247.979 295.974C247.707 299.988 247.196 303.982 246.448 307.934H272.999C272.251 303.982 271.739 299.988 271.468 295.974C271.348 291.465 273.573 283.751 273.573 283.751V284.074C273.622 283.963 273.678 283.855 273.74 283.751L276.132 276.013C274.3 274.823 272.343 273.836 270.296 273.071Z" fill="#379CF7"/>
<path d="M428.312 301.524C427.885 301.516 427.468 301.394 427.104 301.172C426.741 300.949 426.443 300.632 426.243 300.256L413.816 275.403C413.816 275.403 412.321 269.423 410.563 269.423L410.384 277.34L418.827 307.886C419.318 309.8 420.31 311.474 422.858 311.474C429.902 311.957 436.886 313.103 443.716 314.895C447.53 315.901 451.539 315.901 455.353 314.895C455.676 300.878 433.634 301.643 428.312 301.524Z" fill="#FFA683"/>
<path d="M446.993 298.402V305.47H436.229V301.488C436.229 301.488 429.173 299.825 429.519 293.451C429.866 287.076 432.856 284.002 434.471 283.512C436.085 283.021 443.871 286.155 444.039 286.55C444.206 286.944 445.02 293.726 445.02 293.726L446.993 298.402Z" fill="#FFA683"/>
<path d="M435.727 288.75C435.727 288.75 437.628 286.071 439.398 287.399C441.169 288.726 440.284 291.382 438.071 292.709C438.071 292.709 440.283 300.244 444.709 299.801C447.579 299.319 450.163 297.775 451.947 295.474C453.731 293.174 454.584 290.287 454.337 287.387C453.846 280.091 444.314 274.949 439.111 275.977C433.909 277.006 428.73 282.83 435.727 288.75Z" fill="#004CBA"/>
<path d="M454.289 282.782C454.289 282.782 460.065 275.427 465.842 281.802C471.619 288.176 475.255 295.316 477.898 296.692C480.541 298.067 475.637 301.392 469.275 299.335C462.912 297.278 454.683 289.432 454.289 282.782Z" fill="#004CBA"/>
<path d="M436.265 305.47V301.488C436.265 301.488 440.654 301.655 442.52 299.957C442.52 299.957 441.204 302.995 438.346 303.078V305.47H436.265Z" fill="#ED7D5A"/>
<path d="M431.553 361.981C431.553 361.981 434.088 401.449 437.293 409.762C440.499 418.074 460.855 455.676 460.855 455.676L471.391 453.368L456.37 408.422C456.25 411.173 454.253 398.22 457.972 385.1C460.095 377.517 459.411 369.423 456.047 362.304L429.735 362.017" fill="#006CBC"/>
<path d="M455.843 360.319C455.843 360.319 454.863 371.286 442.233 383.749C429.603 396.211 424.496 404.762 424.496 404.762L422.595 459.264H412.094C412.094 459.264 405.887 401.856 406.054 399.823C406.221 397.79 423.635 360.355 425.704 357.102C427.773 353.849 455.843 360.319 455.843 360.319Z" fill="#379CF7"/>
<path d="M448.093 304.896C448.093 304.896 459.36 305.745 455.21 319.715C450.677 334.988 455.879 359.47 456.908 361.993L453.535 363.345C443.407 367.149 432.204 366.909 422.248 362.675C422.248 362.675 431.206 342.917 424.831 332.584C420.741 325.934 421.949 319.224 426.733 313.28C429.83 309.441 433.741 305.422 435.284 305.351L448.093 304.896Z" fill="#57BFFF"/>
<path d="M412.094 459.264H414.318L409.809 400.241C410.563 399.045 413.134 394.261 420.932 379.288C423.416 374.531 425.42 369.539 426.912 364.385C425.492 363.974 424.094 363.487 422.726 362.926C417.165 374.36 406.209 398.196 406.066 399.823C405.887 401.856 412.094 459.264 412.094 459.264Z" fill="#2481C6"/>
<path d="M433.909 328.9C428.646 330.849 432.557 344.831 426.9 364.361C425.32 363.897 423.767 363.346 422.248 362.711C422.248 362.711 431.206 342.953 424.831 332.62C422.951 329.722 422.108 326.274 422.439 322.836L444.78 317.765C444.78 317.765 441.073 326.209 433.909 328.9Z" fill="#30AFEF"/>
<path d="M385.758 293.869C385.758 293.869 406.209 327.859 412.177 329.749C414.833 330.61 431.373 324.152 438.346 323.004C440.163 322.706 441.799 321.731 442.927 320.276C444.054 318.82 444.588 316.991 444.422 315.158C444.015 310.793 439.016 307.085 434.734 307.982L411.783 315.158C411.783 315.158 392.288 295.101 388.006 290.508C388.006 290.508 386.212 284.851 383.545 284.851C381.165 284.851 384.777 291.92 385.758 293.869Z" fill="#FFA683"/>
<path d="M402.071 462.685C404.966 461.74 410.383 460.592 412.357 459.204H422.559C422.463 461.249 422.403 463.247 422.379 464.562C422.37 464.99 422.193 465.396 421.886 465.694C421.58 465.991 421.168 466.156 420.741 466.153H400.409C400.132 466.145 399.864 466.05 399.645 465.88C399.425 465.709 399.266 465.474 399.19 465.207C399.114 464.94 399.125 464.656 399.222 464.396C399.318 464.136 399.495 463.914 399.727 463.761C400.458 463.302 401.246 462.94 402.071 462.685Z" fill="#004CBA"/>
<path d="M451.837 461.357C454.444 459.79 459.467 457.446 461.07 455.652L471.009 453.344C471.38 455.365 471.774 457.314 472.037 458.606C472.127 459.018 472.053 459.449 471.829 459.807C471.606 460.164 471.251 460.42 470.841 460.52L451.048 465.112C450.772 465.168 450.485 465.133 450.23 465.013C449.976 464.894 449.766 464.696 449.632 464.448C449.498 464.2 449.447 463.916 449.487 463.638C449.526 463.359 449.654 463.1 449.852 462.9C450.451 462.31 451.117 461.792 451.837 461.357Z" fill="#004CBA"/>
<path opacity="0.58" d="M412.177 318.136C416.961 318.256 438.489 310.195 444.206 314.046C443.154 310.195 438.645 307.157 434.734 308.066L411.783 315.242C411.783 315.242 392.288 295.101 388.006 290.508C388.006 290.508 406.951 318.052 412.177 318.136Z" fill="#ED7D5A"/>
<path d="M454.133 282.34L452.638 282.615C453.744 284.45 454.277 286.574 454.169 288.714L456.107 288.344C456.107 288.344 455.903 282.974 454.133 282.34Z" fill="white"/>
<path d="M319.392 305.769H147.084C142.269 305.769 138.365 309.673 138.365 314.488V357.138C138.365 361.953 142.269 365.856 147.084 365.856H319.392C324.207 365.856 328.111 361.953 328.111 357.138V314.488C328.111 309.673 324.207 305.769 319.392 305.769Z" fill="white"/>
<path d="M222.181 325.814L223.377 329.402C223.418 329.525 223.496 329.632 223.602 329.707C223.707 329.783 223.834 329.822 223.963 329.821H227.742C227.87 329.822 227.995 329.863 228.098 329.938C228.202 330.014 228.279 330.12 228.318 330.242C228.358 330.363 228.358 330.495 228.319 330.617C228.28 330.738 228.204 330.845 228.101 330.921L225.039 333.146C224.936 333.222 224.858 333.328 224.817 333.45C224.777 333.573 224.775 333.704 224.812 333.827L226.008 337.415C226.046 337.537 226.046 337.668 226.006 337.789C225.966 337.91 225.889 338.016 225.786 338.091C225.683 338.166 225.559 338.207 225.432 338.208C225.304 338.209 225.18 338.171 225.075 338.097L222.014 335.873C221.909 335.797 221.784 335.756 221.655 335.756C221.526 335.756 221.4 335.797 221.296 335.873L218.234 338.097C218.13 338.171 218.005 338.209 217.878 338.208C217.75 338.207 217.626 338.166 217.523 338.091C217.42 338.016 217.344 337.91 217.304 337.789C217.264 337.668 217.263 337.537 217.301 337.415L218.497 333.827C218.54 333.706 218.542 333.574 218.503 333.451C218.464 333.328 218.387 333.221 218.282 333.146L215.22 330.921C215.117 330.845 215.041 330.738 215.002 330.617C214.963 330.495 214.963 330.363 215.003 330.242C215.043 330.12 215.12 330.014 215.223 329.938C215.326 329.863 215.451 329.822 215.579 329.821H219.358C219.487 329.821 219.613 329.78 219.718 329.705C219.823 329.63 219.902 329.524 219.944 329.402L221.14 325.814C221.195 325.725 221.271 325.652 221.363 325.601C221.454 325.55 221.556 325.523 221.661 325.523C221.765 325.523 221.868 325.55 221.959 325.601C222.05 325.652 222.126 325.725 222.181 325.814Z" fill="#FBBE42"/>
<path d="M243.171 325.814L244.367 329.402C244.405 329.524 244.482 329.631 244.585 329.706C244.688 329.781 244.813 329.822 244.941 329.821H248.72C248.848 329.822 248.973 329.863 249.076 329.938C249.179 330.014 249.256 330.12 249.296 330.242C249.336 330.364 249.336 330.495 249.297 330.617C249.258 330.739 249.182 330.845 249.079 330.921L246.017 333.146C245.916 333.224 245.84 333.331 245.802 333.453C245.763 333.575 245.763 333.706 245.802 333.828L246.998 337.416C247.039 337.539 247.04 337.672 247 337.796C246.961 337.92 246.882 338.028 246.777 338.104C246.671 338.181 246.544 338.221 246.414 338.22C246.283 338.218 246.157 338.176 246.053 338.097L242.991 335.873C242.889 335.798 242.765 335.758 242.638 335.758C242.512 335.758 242.388 335.798 242.286 335.873L239.2 338.121C239.096 338.199 238.97 338.242 238.839 338.244C238.709 338.245 238.582 338.205 238.476 338.128C238.371 338.052 238.292 337.944 238.253 337.82C238.213 337.696 238.214 337.563 238.255 337.439L239.451 333.851C239.49 333.73 239.49 333.599 239.451 333.477C239.413 333.355 239.338 333.247 239.236 333.17L236.174 330.945C236.071 330.869 235.995 330.762 235.956 330.641C235.917 330.519 235.917 330.387 235.957 330.266C235.997 330.144 236.074 330.038 236.177 329.962C236.28 329.887 236.405 329.846 236.533 329.845H240.312C240.44 329.846 240.565 329.805 240.668 329.73C240.772 329.655 240.848 329.548 240.886 329.426L242.082 325.838C242.131 325.737 242.207 325.65 242.302 325.589C242.397 325.528 242.506 325.494 242.619 325.492C242.732 325.489 242.843 325.518 242.941 325.575C243.038 325.632 243.118 325.715 243.171 325.814Z" fill="#FBBE42"/>
<path d="M264.161 325.814L265.357 329.402C265.399 329.524 265.478 329.63 265.583 329.705C265.688 329.78 265.814 329.821 265.943 329.821H269.722C269.85 329.822 269.974 329.863 270.078 329.938C270.181 330.014 270.258 330.12 270.298 330.242C270.338 330.363 270.338 330.495 270.299 330.617C270.26 330.738 270.184 330.845 270.081 330.921L267.019 333.146C266.914 333.221 266.837 333.328 266.798 333.451C266.759 333.574 266.761 333.706 266.804 333.827L268 337.415C268.038 337.537 268.037 337.668 267.997 337.789C267.957 337.91 267.881 338.016 267.778 338.091C267.675 338.166 267.551 338.207 267.423 338.208C267.296 338.209 267.171 338.171 267.067 338.097L264.005 335.873C263.901 335.797 263.775 335.756 263.646 335.756C263.517 335.756 263.392 335.797 263.287 335.873L260.226 338.097C260.121 338.171 259.997 338.209 259.869 338.208C259.742 338.207 259.618 338.166 259.515 338.091C259.412 338.016 259.335 337.91 259.295 337.789C259.255 337.668 259.255 337.537 259.293 337.415L260.489 333.827C260.526 333.704 260.524 333.573 260.484 333.45C260.443 333.328 260.365 333.222 260.262 333.146L257.14 330.933C257.037 330.857 256.961 330.75 256.922 330.628C256.883 330.507 256.883 330.375 256.923 330.254C256.963 330.132 257.04 330.026 257.143 329.95C257.246 329.875 257.371 329.834 257.499 329.833H261.278C261.408 329.834 261.534 329.795 261.64 329.719C261.745 329.644 261.824 329.537 261.864 329.414L263.06 325.826C263.109 325.722 263.186 325.633 263.283 325.571C263.379 325.509 263.492 325.475 263.607 325.474C263.722 325.472 263.835 325.504 263.933 325.564C264.031 325.624 264.11 325.711 264.161 325.814Z" fill="#FBBE42"/>
<path d="M285.138 325.814L286.334 329.402C286.373 329.524 286.449 329.631 286.552 329.706C286.656 329.781 286.781 329.822 286.908 329.821H290.628C290.756 329.822 290.881 329.863 290.984 329.938C291.087 330.014 291.164 330.12 291.204 330.242C291.244 330.364 291.244 330.495 291.205 330.617C291.166 330.739 291.09 330.845 290.987 330.921L287.925 333.146C287.82 333.221 287.741 333.327 287.7 333.45C287.66 333.572 287.659 333.704 287.698 333.828L288.894 337.416C288.932 337.537 288.931 337.668 288.891 337.789C288.851 337.91 288.775 338.016 288.672 338.091C288.569 338.166 288.445 338.207 288.317 338.208C288.19 338.209 288.065 338.171 287.961 338.097L284.899 335.873C284.795 335.797 284.669 335.756 284.54 335.756C284.411 335.756 284.286 335.797 284.182 335.873L281.12 338.097C281.015 338.171 280.891 338.209 280.763 338.208C280.636 338.207 280.512 338.166 280.409 338.091C280.306 338.016 280.229 337.91 280.189 337.789C280.15 337.668 280.149 337.537 280.187 337.416L281.383 333.828C281.425 333.706 281.427 333.574 281.388 333.451C281.35 333.328 281.272 333.221 281.168 333.146L278.106 330.921C278.003 330.845 277.927 330.739 277.888 330.617C277.849 330.495 277.849 330.364 277.889 330.242C277.928 330.12 278.005 330.014 278.109 329.938C278.212 329.863 278.337 329.822 278.465 329.821H282.256C282.385 329.821 282.511 329.78 282.616 329.705C282.721 329.63 282.8 329.524 282.842 329.402L284.038 325.814C284.088 325.711 284.166 325.623 284.263 325.562C284.36 325.5 284.473 325.468 284.588 325.468C284.703 325.468 284.816 325.5 284.913 325.562C285.011 325.623 285.089 325.711 285.138 325.814Z" fill="#FBBE42"/>
<path d="M306.176 325.814L307.372 329.402C307.41 329.524 307.487 329.631 307.59 329.706C307.693 329.781 307.818 329.822 307.946 329.821H311.725C311.853 329.822 311.978 329.863 312.081 329.938C312.185 330.014 312.262 330.12 312.301 330.242C312.341 330.363 312.341 330.495 312.302 330.617C312.263 330.738 312.187 330.845 312.084 330.921L309.022 333.146C308.918 333.221 308.84 333.328 308.802 333.451C308.763 333.574 308.765 333.706 308.807 333.827L310.003 337.415C310.045 337.539 310.046 337.672 310.006 337.796C309.966 337.92 309.887 338.028 309.782 338.104C309.676 338.181 309.549 338.221 309.419 338.22C309.289 338.218 309.162 338.175 309.058 338.097L305.997 335.873C305.892 335.797 305.767 335.756 305.638 335.756C305.509 335.756 305.383 335.797 305.279 335.873L302.229 338.097C302.125 338.175 301.999 338.218 301.869 338.22C301.738 338.221 301.611 338.181 301.506 338.104C301.4 338.028 301.322 337.92 301.282 337.796C301.242 337.672 301.243 337.539 301.284 337.415L302.48 333.827C302.519 333.704 302.519 333.572 302.478 333.45C302.437 333.327 302.358 333.221 302.253 333.146L299.203 330.921C299.101 330.846 299.025 330.74 298.986 330.619C298.946 330.499 298.946 330.368 298.984 330.247C299.022 330.126 299.097 330.02 299.199 329.943C299.3 329.867 299.423 329.824 299.55 329.821H303.341C303.469 329.822 303.594 329.781 303.697 329.706C303.801 329.631 303.877 329.524 303.916 329.402L305.112 325.814C305.164 325.72 305.242 325.641 305.335 325.586C305.429 325.531 305.535 325.502 305.644 325.502C305.752 325.502 305.859 325.531 305.952 325.586C306.046 325.641 306.123 325.72 306.176 325.814Z" fill="#FBBE42"/>
<path d="M275.905 344.149H214.885V345.847H275.905V344.149Z" fill="#B1D7DD"/>
<path d="M275.905 316.246H214.885V319.44H275.905V316.246Z" fill="#0A4D7A"/>
<path d="M275.905 350.595H214.885V352.294H275.905V350.595Z" fill="#B1D7DD"/>
<path d="M242.776 356.587H214.885V358.286H242.776V356.587Z" fill="#B1D7DD"/>
<path d="M194.402 353.946C203.916 344.432 203.916 329.007 194.402 319.493C184.888 309.978 169.462 309.978 159.948 319.493C150.434 329.007 150.434 344.432 159.948 353.946C169.462 363.461 184.888 363.461 194.402 353.946Z" fill="#7BC7FF"/>
<path d="M125.149 429.783C125.149 429.783 166.471 395.17 173.731 407.406C180.991 419.641 170.298 459.264 170.298 459.264L125.149 429.783Z" fill="#0A85E0"/>
<path d="M146.833 443.931L170.298 459.264C170.298 459.264 180.082 423.049 174.568 409.188C177.092 427.391 157.752 438.932 146.833 443.931Z" fill="#006CBC"/>
<path d="M146.319 426.087C146.319 426.087 171.901 446.622 173.994 454.014C177.367 465.974 157.334 464.67 148.675 464.67C140.016 464.67 84.916 463.139 84.916 463.139L85.4064 454.659L136.296 452.267C136.296 452.267 108.059 448.057 109.111 431.756C110.164 415.455 146.319 426.087 146.319 426.087Z" fill="#379CF7"/>
<path d="M172.607 460.795C167.93 465.411 155.145 464.658 148.687 464.658C140.028 464.658 84.8682 463.139 84.8682 463.139L85.3824 454.647L136.26 452.255C136.26 452.255 156.592 462.015 172.212 460.867L172.607 460.795Z" fill="#0A85E0"/>
<path d="M85.1194 462.996C85.1194 462.996 82.8829 468.055 84.5931 471.368C86.3034 474.68 78.8643 472.276 77.6683 465.675C76.4723 459.073 77.0464 451.191 85.3586 454.731L85.1194 462.996Z" fill="#004CBA"/>
<path d="M113.799 375.209C113.799 375.209 132.373 321.533 132.935 321.772C134.883 322.529 136.881 323.149 138.915 323.626L131.261 382.541L113.799 375.209Z" fill="#0A4D7A"/>
<path d="M132.995 369.086C128.773 367.088 123.427 364.756 117.304 365.139C114.756 372.446 113.799 375.209 113.799 375.209L131.273 382.541L132.995 369.086Z" fill="#083954"/>
<path d="M137.062 361.013C135.686 366.084 130.244 365.139 130.244 365.139V369.923H120.868V363.405C125.736 364.529 131.034 361.013 128.69 359.243C126.345 357.473 125.867 354.638 127.075 353.263C128.283 351.887 131.237 352.904 131.237 352.904C133.283 352.968 135.319 352.605 137.217 351.839C137.781 354.877 137.728 357.996 137.062 361.013Z" fill="#FFA683"/>
<path d="M131.273 352.928C131.273 352.928 128.343 351.875 127.135 353.275C125.927 354.674 126.405 357.568 128.749 359.255C131.094 360.941 125.783 364.529 120.904 363.405C116.024 362.28 113.309 352.102 117.495 345.465C121.334 339.389 134.825 336.746 137.552 343.073C140.279 349.4 140.422 352.677 131.273 352.928Z" fill="#004CBA"/>
<path d="M130.244 369.959V365.175C128.744 364.988 127.271 364.627 125.855 364.098C126.628 365.043 127.553 365.852 128.594 366.49V369.947L130.244 369.959Z" fill="#E57C5C"/>
<path d="M132.756 370.054C132.756 370.054 117.208 364.684 112.878 376.74C108.549 388.796 115.94 417.811 108.094 427.749C114.144 430.577 120.701 432.159 127.374 432.402C134.048 432.644 140.702 431.542 146.941 429.161L148.639 428.515C148.639 428.515 143.221 391.558 142.958 392.85C142.743 393.926 161.269 399.835 164.964 397.813C168.66 395.792 191.013 370.557 191.013 370.557L183.49 369.444L163.278 382.72C163.278 382.72 137.851 370.377 132.756 370.054Z" fill="#0A4D7A"/>
<path d="M190.953 370.581C190.953 370.581 198.703 367.244 199.182 365.713H188.011C187.44 365.709 186.876 365.842 186.366 366.1C185.857 366.358 185.416 366.733 185.081 367.196L183.431 369.468L190.953 370.581Z" fill="#FFA683"/>
<path d="M148.579 428.539C148.579 428.539 143.795 396.079 143.006 393.065C143.152 393.185 143.308 393.293 143.472 393.388L142.898 392.874C142.898 392.874 131.082 390.004 126.872 385.028C126.872 385.028 130.89 393.257 136.057 395.17C140.662 396.869 139.023 421.757 142.575 430.596C144.022 430.201 145.469 429.735 146.881 429.197L148.579 428.539Z" fill="#083954"/>
<path d="M133.498 322.035C133.498 322.035 135.471 314.991 138.413 314.488V323.686L133.498 322.035Z" fill="#FFA683"/>
<path d="M203.93 372.411L202.363 358.346C202.221 357.22 201.835 356.139 201.232 355.179C200.629 354.218 199.823 353.401 198.871 352.784L193.991 349.591V349.71V349.603L189.973 348.048L185.87 346.457L182.486 345.154L180.991 344.568L177.259 346.481L173.54 344.568L172.224 345.082L169.031 346.278L164.701 347.952L160.539 349.567V349.639L155.755 352.748C154.803 353.365 153.997 354.182 153.394 355.143C152.791 356.103 152.405 357.184 152.263 358.31L150.696 372.411H160.587V384.107H193.872V372.411H203.93Z" fill="#FBBE42"/>
<path d="M177.403 319.87C174.766 319.87 172.237 320.917 170.371 322.78C168.505 324.644 167.455 327.172 167.452 329.809V334.593H187.342V329.809C187.342 327.173 186.294 324.645 184.431 322.781C182.567 320.917 180.039 319.87 177.403 319.87Z" fill="#0A4D7A"/>
<path d="M181.338 341.96V345.441C181.325 345.534 181.305 345.626 181.278 345.716C180.763 347.773 179.029 351.696 177.319 351.696C175.609 351.696 173.946 347.617 173.564 345.536C173.561 345.505 173.561 345.472 173.564 345.441V341.96H181.338Z" fill="#FFA683"/>
<path d="M181.338 341.267V344.376C180.141 345.02 178.803 345.357 177.445 345.357C176.086 345.357 174.748 345.02 173.552 344.376V341.267H181.338Z" fill="#E57C5C"/>
<path d="M172.224 334.593C172.224 334.12 172.084 333.657 171.821 333.264C171.558 332.871 171.185 332.564 170.747 332.383C170.31 332.202 169.829 332.155 169.365 332.247C168.901 332.339 168.475 332.567 168.141 332.902C167.806 333.236 167.578 333.662 167.486 334.126C167.394 334.59 167.441 335.071 167.622 335.508C167.803 335.946 168.11 336.319 168.503 336.582C168.896 336.845 169.359 336.985 169.832 336.985C170.466 336.985 171.075 336.733 171.523 336.284C171.972 335.836 172.224 335.227 172.224 334.593Z" fill="#FFA683"/>
<path d="M187.282 334.593C187.282 334.12 187.141 333.657 186.879 333.264C186.616 332.871 186.242 332.564 185.805 332.383C185.368 332.202 184.887 332.155 184.423 332.247C183.959 332.339 183.533 332.567 183.198 332.902C182.864 333.236 182.636 333.662 182.544 334.126C182.451 334.59 182.499 335.071 182.68 335.508C182.861 335.946 183.167 336.319 183.561 336.582C183.954 336.845 184.417 336.985 184.89 336.985C185.524 336.985 186.132 336.733 186.581 336.284C187.03 335.836 187.282 335.227 187.282 334.593Z" fill="#FFA683"/>
<path d="M185.38 330.503C183.914 329.747 182.565 328.785 181.373 327.644H173.552C172.918 329.414 169.641 330.503 169.641 330.503L169.569 334.414C169.678 336.999 170.548 339.496 172.069 341.59C172.695 342.426 173.507 343.105 174.441 343.573C175.375 344.041 176.406 344.285 177.451 344.285C178.495 344.285 179.526 344.041 180.46 343.573C181.394 343.105 182.207 342.426 182.833 341.59C184.349 339.494 185.215 336.998 185.32 334.414L185.38 330.503Z" fill="#FFA683"/>
<path d="M402.322 379.335H230.015C225.199 379.335 221.296 383.239 221.296 388.054V430.704C221.296 435.519 225.199 439.422 230.015 439.422H402.322C407.138 439.422 411.041 435.519 411.041 430.704V388.054C411.041 383.239 407.138 379.335 402.322 379.335Z" fill="white"/>
<path d="M305.123 399.38L306.319 402.968C306.358 403.09 306.434 403.197 306.538 403.272C306.641 403.347 306.766 403.388 306.894 403.387H310.673C310.801 403.388 310.925 403.429 311.029 403.504C311.132 403.58 311.209 403.686 311.249 403.808C311.289 403.929 311.289 404.061 311.25 404.183C311.211 404.305 311.135 404.411 311.032 404.487L307.97 406.712C307.868 406.789 307.793 406.897 307.755 407.019C307.716 407.141 307.716 407.272 307.755 407.394L308.951 410.982C308.992 411.105 308.993 411.238 308.953 411.362C308.913 411.486 308.835 411.594 308.729 411.67C308.624 411.747 308.497 411.787 308.366 411.786C308.236 411.784 308.11 411.742 308.006 411.663L304.944 409.439C304.84 409.363 304.714 409.322 304.585 409.322C304.456 409.322 304.331 409.363 304.226 409.439L301.177 411.663C301.073 411.742 300.946 411.784 300.816 411.786C300.686 411.787 300.559 411.747 300.453 411.67C300.348 411.594 300.269 411.486 300.229 411.362C300.189 411.238 300.19 411.105 300.232 410.982L301.428 407.394C301.467 407.27 301.466 407.138 301.425 407.016C301.384 406.893 301.306 406.787 301.201 406.712L298.151 404.487C298.048 404.411 297.971 404.305 297.933 404.183C297.894 404.061 297.894 403.929 297.934 403.808C297.973 403.686 298.05 403.58 298.154 403.504C298.257 403.429 298.382 403.388 298.51 403.387H302.289C302.417 403.388 302.542 403.347 302.645 403.272C302.748 403.197 302.825 403.09 302.863 402.968L304.059 399.38C304.112 399.286 304.189 399.207 304.283 399.152C304.376 399.097 304.483 399.068 304.591 399.068C304.7 399.068 304.806 399.097 304.9 399.152C304.993 399.207 305.07 399.286 305.123 399.38Z" fill="#FBBE42"/>
<path d="M326.101 399.38L327.297 402.968C327.34 403.09 327.419 403.196 327.524 403.271C327.629 403.346 327.754 403.387 327.883 403.387H331.663C331.791 403.388 331.915 403.429 332.019 403.504C332.122 403.58 332.199 403.686 332.239 403.808C332.278 403.93 332.279 404.061 332.24 404.183C332.201 404.305 332.124 404.411 332.022 404.487L328.9 406.724C328.796 406.8 328.719 406.906 328.678 407.028C328.637 407.151 328.635 407.282 328.673 407.406L329.869 410.994C329.907 411.115 329.906 411.246 329.866 411.367C329.826 411.488 329.75 411.594 329.647 411.669C329.544 411.744 329.42 411.785 329.292 411.786C329.165 411.787 329.04 411.749 328.936 411.675L325.874 409.451C325.77 409.375 325.644 409.334 325.515 409.334C325.386 409.334 325.261 409.375 325.157 409.451L322.095 411.675C321.99 411.749 321.866 411.787 321.738 411.786C321.611 411.785 321.487 411.744 321.384 411.669C321.281 411.594 321.204 411.488 321.164 411.367C321.124 411.246 321.124 411.115 321.162 410.994L322.358 407.406C322.395 407.282 322.393 407.151 322.353 407.028C322.312 406.906 322.234 406.8 322.131 406.724L319.069 404.499C318.966 404.423 318.89 404.317 318.851 404.195C318.812 404.073 318.812 403.941 318.852 403.82C318.891 403.698 318.968 403.592 319.072 403.516C319.175 403.441 319.3 403.4 319.428 403.399H323.207C323.336 403.399 323.462 403.358 323.567 403.283C323.672 403.208 323.751 403.102 323.793 402.98L324.989 399.392C325.032 399.28 325.108 399.184 325.206 399.115C325.304 399.047 325.421 399.009 325.541 399.008C325.661 399.007 325.779 399.042 325.879 399.108C325.978 399.174 326.056 399.269 326.101 399.38Z" fill="#FBBE42"/>
<path d="M347.091 399.38L348.287 402.968C348.326 403.09 348.402 403.197 348.505 403.272C348.609 403.347 348.733 403.388 348.861 403.387H352.653C352.78 403.39 352.902 403.433 353.004 403.509C353.105 403.586 353.181 403.692 353.219 403.813C353.257 403.934 353.256 404.065 353.217 404.185C353.178 404.306 353.102 404.412 352.999 404.487L349.95 406.712C349.845 406.787 349.766 406.893 349.725 407.016C349.684 407.138 349.683 407.27 349.722 407.394L350.918 410.982C350.96 411.105 350.961 411.238 350.921 411.362C350.881 411.486 350.803 411.594 350.697 411.67C350.592 411.747 350.464 411.787 350.334 411.786C350.204 411.784 350.078 411.742 349.974 411.663L346.84 409.463C346.736 409.387 346.61 409.346 346.481 409.346C346.352 409.346 346.227 409.387 346.122 409.463L343.061 411.687C342.957 411.765 342.83 411.808 342.7 411.81C342.57 411.811 342.443 411.771 342.337 411.694C342.232 411.618 342.153 411.51 342.113 411.386C342.074 411.262 342.074 411.129 342.116 411.005L343.312 407.417C343.354 407.296 343.356 407.164 343.317 407.041C343.279 406.918 343.201 406.811 343.097 406.736L340.035 404.511C339.932 404.435 339.856 404.328 339.817 404.206C339.778 404.085 339.778 403.953 339.818 403.832C339.857 403.71 339.934 403.604 340.038 403.528C340.141 403.453 340.266 403.412 340.394 403.411H344.173C344.301 403.412 344.426 403.371 344.529 403.296C344.632 403.221 344.709 403.114 344.747 402.992L345.943 399.404C345.983 399.285 346.059 399.181 346.16 399.107C346.261 399.032 346.383 398.991 346.509 398.988C346.634 398.986 346.758 399.022 346.862 399.092C346.966 399.162 347.046 399.263 347.091 399.38Z" fill="#B1D7DD"/>
<path d="M346.41 398.986C346.301 399.001 346.199 399.046 346.115 399.116C346.031 399.186 345.967 399.277 345.931 399.38L344.735 402.968C344.697 403.09 344.62 403.197 344.517 403.272C344.414 403.347 344.289 403.388 344.161 403.387H340.382C340.254 403.388 340.129 403.429 340.026 403.504C339.922 403.58 339.845 403.686 339.806 403.808C339.766 403.929 339.766 404.061 339.805 404.183C339.844 404.304 339.92 404.411 340.023 404.487L343.085 406.712C343.189 406.787 343.267 406.894 343.305 407.017C343.344 407.14 343.342 407.272 343.3 407.393L342.104 410.981C342.062 411.105 342.062 411.238 342.101 411.362C342.141 411.486 342.22 411.594 342.325 411.67C342.431 411.747 342.558 411.787 342.688 411.786C342.818 411.784 342.945 411.741 343.049 411.663L346.111 409.439C346.185 409.388 346.272 409.359 346.362 409.355L346.41 398.986Z" fill="#FBBE42"/>
<path d="M368.081 399.38L369.277 402.968C369.319 403.09 369.398 403.196 369.503 403.271C369.608 403.346 369.734 403.387 369.863 403.387H373.642C373.77 403.388 373.895 403.429 373.998 403.504C374.102 403.58 374.179 403.686 374.218 403.808C374.258 403.929 374.258 404.061 374.219 404.183C374.18 404.304 374.104 404.411 374.001 404.487L370.939 406.712C370.835 406.787 370.757 406.894 370.719 407.017C370.68 407.14 370.682 407.272 370.724 407.394L371.92 410.982C371.958 411.103 371.958 411.234 371.918 411.355C371.878 411.476 371.801 411.582 371.698 411.657C371.595 411.732 371.471 411.773 371.344 411.774C371.216 411.775 371.092 411.737 370.987 411.663L367.926 409.439C367.821 409.363 367.696 409.322 367.567 409.322C367.438 409.322 367.312 409.363 367.208 409.439L364.146 411.663C364.042 411.737 363.917 411.775 363.79 411.774C363.662 411.773 363.538 411.732 363.435 411.657C363.332 411.582 363.256 411.476 363.216 411.355C363.176 411.234 363.175 411.103 363.213 410.982L364.409 407.394C364.448 407.27 364.448 407.138 364.407 407.016C364.366 406.893 364.287 406.787 364.182 406.712L361.12 404.487C361.017 404.411 360.941 404.304 360.902 404.183C360.863 404.061 360.863 403.929 360.903 403.808C360.943 403.686 361.02 403.58 361.123 403.504C361.227 403.429 361.351 403.388 361.479 403.387H365.27C365.398 403.388 365.523 403.347 365.626 403.272C365.73 403.197 365.806 403.09 365.844 402.968L367.04 399.38C367.095 399.291 367.171 399.218 367.263 399.167C367.354 399.116 367.456 399.089 367.561 399.089C367.665 399.089 367.768 399.116 367.859 399.167C367.95 399.218 368.026 399.291 368.081 399.38Z" fill="#B1D7DD"/>
<path d="M389.059 399.38L390.255 402.968C390.295 403.091 390.374 403.198 390.48 403.273C390.585 403.349 390.711 403.388 390.841 403.387H394.62C394.748 403.388 394.873 403.429 394.976 403.504C395.08 403.58 395.157 403.686 395.196 403.808C395.236 403.93 395.236 404.061 395.197 404.183C395.158 404.305 395.082 404.411 394.979 404.487L391.917 406.712C391.814 406.788 391.736 406.894 391.695 407.017C391.655 407.139 391.653 407.27 391.69 407.394L392.886 410.982C392.924 411.103 392.923 411.234 392.884 411.355C392.844 411.476 392.767 411.582 392.664 411.657C392.561 411.732 392.437 411.773 392.31 411.774C392.182 411.776 392.057 411.737 391.953 411.663L388.891 409.439C388.787 409.363 388.662 409.322 388.533 409.322C388.404 409.322 388.278 409.363 388.174 409.439L385.112 411.687C385.008 411.761 384.883 411.799 384.756 411.798C384.628 411.797 384.504 411.756 384.401 411.681C384.298 411.606 384.221 411.5 384.182 411.379C384.142 411.258 384.141 411.127 384.179 411.005L385.375 407.417C385.418 407.296 385.419 407.164 385.381 407.041C385.342 406.918 385.264 406.811 385.16 406.736L382.098 404.511C381.995 404.435 381.919 404.328 381.88 404.207C381.841 404.085 381.841 403.953 381.881 403.832C381.921 403.71 381.998 403.604 382.101 403.528C382.204 403.453 382.329 403.412 382.457 403.411H386.236C386.365 403.411 386.491 403.37 386.596 403.295C386.701 403.22 386.78 403.114 386.822 402.992L388.018 399.404C388.071 399.314 388.146 399.239 388.235 399.185C388.325 399.132 388.427 399.103 388.532 399.101C388.636 399.098 388.74 399.123 388.832 399.172C388.924 399.221 389.002 399.293 389.059 399.38Z" fill="#B1D7DD"/>
<path d="M358.836 417.715H297.816V419.413H358.836V417.715Z" fill="#B1D7DD"/>
<path d="M358.836 389.812H297.816V393.006H358.836V389.812Z" fill="#FF5A5A"/>
<path d="M358.836 424.161H297.816V425.86H358.836V424.161Z" fill="#B1D7DD"/>
<path d="M325.707 430.153H297.816V431.852H325.707V430.153Z" fill="#B1D7DD"/>
<path d="M280.891 422.314C287.917 410.839 284.311 395.841 272.836 388.815C261.361 381.789 246.363 385.395 239.337 396.87C232.311 408.345 235.917 423.343 247.392 430.369C258.867 437.395 273.865 433.789 280.891 422.314Z" fill="#7BC7FF"/>
<path d="M250.299 404.392C250.299 404.392 248.911 398.866 251.064 396.438C253.217 394.01 257.487 391.427 260.967 392.754C261.755 392.287 262.644 392.018 263.558 391.97C264.473 391.922 265.385 392.097 266.218 392.479C268.717 393.867 272.329 395.075 272.712 393.412C272.712 393.412 272.915 399.775 270.069 400.78L268.873 405.671H250.646L250.299 404.392Z" fill="#0A4D7A"/>
<path d="M279.278 426.003C276.192 420.693 263.12 417.751 263.12 417.751L259.687 419.078L256.255 417.751C256.255 417.751 243.183 420.693 240.097 426.003L236.306 454.612L242.286 454.516L245.802 430.596C245.802 430.596 248.026 438.31 247.907 442.819C247.636 446.833 247.124 450.826 246.376 454.779H272.927C272.179 450.826 271.668 446.833 271.396 442.819C271.277 438.31 273.501 430.596 273.501 430.596L277.017 454.516L282.997 454.612L279.278 426.003Z" fill="#0A4D7A"/>
<path d="M263.73 412.799V417.751C263.73 417.751 263.036 421.626 259.771 422.284C258.761 421.967 257.859 421.375 257.166 420.574C256.474 419.774 256.017 418.796 255.848 417.751V412.799H263.73Z" fill="#FFA683"/>
<path d="M263.73 412.094V415.251C262.517 415.898 261.164 416.237 259.789 416.237C258.414 416.237 257.061 415.898 255.848 415.251V412.094H263.73Z" fill="#E57C5C"/>
<path d="M267.784 402.119C265.492 401.955 263.35 400.914 261.804 399.213C259.592 401.126 251.854 402.119 251.854 402.119V405.169C251.96 407.781 252.838 410.303 254.377 412.417C255.01 413.272 255.835 413.968 256.785 414.447C257.735 414.926 258.785 415.176 259.849 415.176C260.913 415.176 261.963 414.926 262.913 414.447C263.863 413.968 264.688 413.272 265.321 412.417C266.86 410.303 267.738 407.781 267.844 405.169L267.784 402.119Z" fill="#FFA683"/>
<path d="M253.875 405.54C253.875 405.973 253.747 406.396 253.506 406.756C253.266 407.116 252.924 407.396 252.524 407.562C252.124 407.727 251.684 407.771 251.259 407.686C250.835 407.602 250.445 407.393 250.139 407.087C249.833 406.781 249.624 406.391 249.54 405.967C249.455 405.542 249.499 405.102 249.664 404.702C249.83 404.302 250.11 403.96 250.47 403.72C250.83 403.479 251.253 403.351 251.686 403.351C252.267 403.351 252.823 403.582 253.234 403.992C253.644 404.403 253.875 404.959 253.875 405.54Z" fill="#FFA683"/>
<path d="M270.009 405.54C270.009 405.973 269.881 406.396 269.64 406.756C269.4 407.116 269.058 407.396 268.658 407.562C268.258 407.727 267.818 407.771 267.393 407.686C266.969 407.602 266.579 407.393 266.273 407.087C265.967 406.781 265.758 406.391 265.674 405.967C265.589 405.542 265.633 405.102 265.798 404.702C265.964 404.302 266.244 403.96 266.604 403.72C266.964 403.479 267.387 403.351 267.82 403.351C268.401 403.351 268.957 403.582 269.368 403.992C269.778 404.403 270.009 404.959 270.009 405.54Z" fill="#FFA683"/>
<path d="M370.33 167.978C390.046 167.978 406.03 151.995 406.03 132.278C406.03 112.561 390.046 96.577 370.33 96.577C350.613 96.577 334.629 112.561 334.629 132.278C334.629 151.995 350.613 167.978 370.33 167.978Z" fill="#FBBE42"/>
<path d="M370.33 96.577H369.684C375.983 100.307 380.884 106.002 383.633 112.787C386.383 119.572 386.828 127.072 384.902 134.135C382.976 141.198 378.785 147.434 372.972 151.884C367.159 156.334 360.045 158.753 352.724 158.769C350.34 158.771 347.962 158.514 345.632 158.004C349.848 162.044 354.99 164.989 360.608 166.58C366.227 168.171 372.149 168.359 377.858 167.129C383.566 165.899 388.885 163.287 393.349 159.523C397.813 155.759 401.286 150.957 403.462 145.539C405.639 140.12 406.454 134.251 405.835 128.445C405.215 122.638 403.182 117.072 399.911 112.235C396.641 107.397 392.234 103.436 387.076 100.698C381.919 97.9596 376.169 96.5282 370.33 96.5292V96.577Z" fill="#F9A643"/>
<path d="M119.086 245.24C126.561 245.24 126.955 234.105 119.492 233.639H119.289V233.495C119.304 230.988 118.662 228.521 117.427 226.34C116.192 224.158 114.408 222.338 112.251 221.061C110.094 219.783 107.64 219.093 105.134 219.059C102.627 219.025 100.155 219.647 97.9643 220.865C96.3911 217.927 93.8811 215.598 90.833 214.25C87.785 212.901 84.3737 212.61 81.1411 213.422C77.9085 214.235 75.0401 216.104 72.9915 218.733C70.9429 221.362 69.8317 224.601 69.8344 227.934C69.8106 228.372 69.8106 228.811 69.8344 229.249C66.2915 228.228 62.5156 228.357 59.0509 229.619C55.5861 230.88 52.6112 233.209 50.5549 236.27C49.9803 237.146 49.6536 238.161 49.6097 239.208C49.5658 240.255 49.8062 241.294 50.3054 242.215C50.8046 243.136 51.5439 243.905 52.4449 244.44C53.3459 244.974 54.3749 245.255 55.4226 245.252L119.086 245.24Z" fill="#7BC7FF"/>
<path d="M348.766 154.284C358.561 154.284 359.075 139.705 349.304 139.071H349.029V138.891C349.029 135.615 348.175 132.394 346.553 129.547C344.931 126.7 342.595 124.325 339.776 122.655C336.957 120.984 333.751 120.077 330.475 120.022C327.198 119.966 323.964 120.765 321.09 122.339C319.029 118.489 315.74 115.439 311.747 113.672C307.753 111.905 303.284 111.523 299.048 112.586C294.813 113.65 291.054 116.098 288.369 119.542C285.685 122.987 284.227 127.229 284.229 131.596C284.229 132.178 284.253 132.752 284.301 133.318C279.658 131.987 274.712 132.161 270.174 133.816C265.636 135.47 261.739 138.52 259.042 142.527C258.287 143.675 257.857 145.005 257.799 146.377C257.74 147.749 258.054 149.111 258.708 150.319C259.363 151.526 260.332 152.534 261.513 153.234C262.694 153.934 264.043 154.301 265.416 154.296L348.766 154.284Z" fill="#7BC7FF"/>
<path d="M466.643 188.657C457.637 188.657 457.171 175.262 466.153 174.688H466.404V174.52C466.404 171.51 467.188 168.551 468.678 165.936C470.168 163.32 472.314 161.137 474.904 159.603C477.493 158.068 480.438 157.233 483.448 157.181C486.458 157.13 489.429 157.862 492.07 159.307C493.968 155.771 496.992 152.97 500.662 151.349C504.333 149.727 508.44 149.377 512.331 150.356C516.223 151.334 519.677 153.583 522.145 156.748C524.612 159.912 525.953 163.81 525.953 167.823C525.953 168.357 525.929 168.883 525.881 169.401C530.149 168.178 534.695 168.338 538.866 169.86C543.036 171.381 546.618 174.185 549.096 177.869C549.774 178.923 550.156 180.14 550.202 181.393C550.248 182.646 549.956 183.887 549.356 184.988C548.757 186.089 547.872 187.008 546.795 187.65C545.718 188.291 544.489 188.631 543.235 188.633L466.643 188.657Z" fill="#7BC7FF"/>
<path d="M498.349 439.47L500.119 438.884C500.383 435.822 499.067 430.668 492.118 422.714C479.261 407.991 468.198 387.026 471.033 378.845C471.033 378.845 458.451 397.766 466.942 410.264C474.896 421.985 496.065 424.508 498.349 439.47Z" fill="#379CF7"/>
<path d="M499.079 439.231L500.119 438.884C500.382 435.822 499.067 430.668 492.118 422.714C479.261 407.991 468.198 387.026 471.033 378.845C471.033 378.845 464.371 396.235 473.006 407.884C481.641 419.533 496.735 421.769 499.079 439.231Z" fill="#006CBC"/>
<path d="M503.516 426.888C502.975 429.412 502.173 431.873 501.124 434.232L501.949 434.363C505.717 429.292 511.9 419.234 513.263 406.484C515.273 387.851 517.976 364.517 517.976 364.517C517.976 364.517 498.995 380.172 503.253 401.928C505.346 412.775 504.796 420.992 503.516 426.888Z" fill="#379CF7"/>
<path d="M510.178 393.029C509.137 408.577 506.207 425.68 502.404 432.497C502.954 432.067 503.54 431.624 504.15 431.17C509.048 423.759 512.159 415.313 513.24 406.496C515.249 387.863 517.952 364.529 517.952 364.529C517.952 364.529 511.529 372.781 510.178 393.029Z" fill="#006CBC"/>
<path d="M506.901 434.148C505.604 435.648 504.153 437.007 502.571 438.202L503.074 438.597C510.221 435.371 516.404 430.338 521.014 423.994C529.266 412.189 539.719 397.479 539.719 397.479C539.719 397.479 521.133 401.067 515.954 417.237C514.132 423.436 511.05 429.194 506.901 434.148Z" fill="#379CF7"/>
<path d="M523.932 413.816C517.473 423.91 509.173 434.351 504.09 437.521L505.753 437.27C511.799 434.091 517.024 429.551 521.013 424.006C529.266 412.201 539.719 397.491 539.719 397.491C539.719 397.491 532.328 400.66 523.932 413.816Z" fill="#006CBC"/>
<path d="M499.784 433.55C500.98 436.875 501.806 439.147 502.308 440.726L502.978 440.57C501.889 434.746 500 424.676 498.194 418.074C495.575 408.338 497.608 403.614 495.503 386.679C493.398 369.743 483.351 347.378 483.351 347.378C483.351 347.378 476.869 370.975 486.138 393.496C495.407 416.017 494.654 418.923 499.784 433.55Z" fill="#379CF7"/>
<path d="M502.32 440.714H502.452L502.523 438.322C501.411 432.342 499.761 423.898 498.194 418.086C495.575 408.35 497.608 403.626 495.503 386.691C493.398 369.755 483.351 347.39 483.351 347.39C483.351 347.39 486.509 381.022 491.113 395.732C495.395 409.319 501.459 436.695 502.32 440.714Z" fill="#006CBC"/>
<path d="M483.184 437.317L487.238 461.369C487.425 462.456 487.989 463.442 488.831 464.153C489.674 464.864 490.74 465.255 491.843 465.256H515.344C516.446 465.254 517.511 464.863 518.351 464.152C519.192 463.441 519.754 462.455 519.937 461.369L524.003 437.317C524.086 436.807 524.058 436.284 523.919 435.785C523.781 435.286 523.537 434.823 523.203 434.428C522.869 434.032 522.453 433.714 521.984 433.494C521.515 433.275 521.005 433.159 520.487 433.155H486.664C486.15 433.164 485.643 433.284 485.179 433.505C484.715 433.727 484.303 434.046 483.973 434.441C483.643 434.836 483.402 435.297 483.266 435.793C483.129 436.29 483.102 436.809 483.184 437.317Z" fill="white"/>
<path d="M523.956 436.097C523.912 435.873 523.848 435.653 523.764 435.44C523.681 435.246 523.585 435.059 523.477 434.878L523.406 434.782C523.305 434.627 523.193 434.479 523.071 434.339L522.915 434.196C522.801 434.086 522.681 433.982 522.556 433.885L522.281 433.717C522.177 433.642 522.064 433.578 521.946 433.526L521.516 433.383L521.241 433.287C520.989 433.234 520.733 433.206 520.475 433.203H486.664C486.187 433.203 485.715 433.298 485.275 433.483C484.834 433.668 484.436 433.938 484.102 434.279C483.767 434.62 483.505 435.024 483.329 435.468C483.153 435.911 483.067 436.386 483.076 436.863H513.263C513.275 437.03 513.275 437.198 513.263 437.365L509.197 461.417C509.016 462.504 508.455 463.491 507.614 464.203C506.773 464.914 505.706 465.305 504.604 465.304H515.309C516.41 465.302 517.475 464.911 518.315 464.2C519.156 463.488 519.718 462.503 519.901 461.417L523.968 437.365C524.042 436.945 524.038 436.516 523.956 436.097Z" fill="#CAEDFF"/>
<path d="M172.786 261.924H119.72C118.814 261.922 117.917 262.099 117.08 262.445C116.242 262.79 115.482 263.298 114.841 263.937C114.2 264.577 113.691 265.337 113.344 266.174C112.997 267.01 112.819 267.907 112.819 268.813V310.505L126.322 298.27C127.42 297.278 128.848 296.728 130.328 296.728H172.786C174.045 296.712 175.246 296.201 176.13 295.305C177.015 294.41 177.51 293.202 177.51 291.944V266.588C177.479 265.351 176.97 264.173 176.089 263.303C175.208 262.433 174.024 261.939 172.786 261.924Z" fill="#0A4D7A"/>
<path d="M154.607 272.556C154.06 272.001 153.409 271.56 152.69 271.259C151.972 270.958 151.2 270.803 150.421 270.803C149.642 270.803 148.87 270.958 148.152 271.259C147.433 271.56 146.781 272.001 146.235 272.556L145.458 273.334L144.68 272.556C143.57 271.446 142.064 270.823 140.494 270.823C138.924 270.823 137.418 271.446 136.308 272.556C135.198 273.667 134.574 275.172 134.574 276.742C134.574 278.313 135.198 279.818 136.308 280.928L137.086 281.706L145.458 290.018L153.83 281.706L154.607 280.928C155.162 280.382 155.603 279.73 155.905 279.012C156.206 278.293 156.361 277.522 156.361 276.742C156.361 275.963 156.206 275.192 155.905 274.473C155.603 273.755 155.162 273.103 154.607 272.556Z" fill="#FF5A5A"/>
<path d="M488.315 205.592H434.937C433.1 205.596 431.338 206.328 430.04 207.628C428.742 208.929 428.013 210.692 428.013 212.529V254.461L441.587 242.166C442.69 241.164 444.127 240.609 445.618 240.611H488.315C489.584 240.611 490.801 240.107 491.698 239.21C492.595 238.313 493.099 237.096 493.099 235.827V210.353C493.093 209.088 492.586 207.877 491.689 206.985C490.793 206.093 489.58 205.592 488.315 205.592Z" fill="#0A4D7A"/>
<path d="M475.697 224.633C476.164 224.581 476.594 224.354 476.9 223.997C477.205 223.641 477.364 223.182 477.345 222.712C477.325 222.243 477.128 221.799 476.793 221.469C476.458 221.14 476.011 220.949 475.542 220.937H471.954C471.766 220.925 471.579 220.925 471.391 220.937C470.453 221.023 469.506 220.975 468.581 220.794C467.014 220.447 468.868 218.533 467.887 215.017C466.906 211.501 463.474 211.704 463.641 213.342C463.809 214.981 463.988 218.904 463.079 220.136C462.425 220.977 461.61 221.681 460.682 222.207C459.754 222.732 458.732 223.069 457.673 223.198L457.602 232.514H461.261C462.664 233.813 464.445 234.63 466.344 234.847H473.317C473.539 234.848 473.76 234.806 473.966 234.722C474.172 234.638 474.359 234.514 474.517 234.357C474.675 234.2 474.8 234.014 474.886 233.808C474.971 233.603 475.015 233.383 475.015 233.16C475.015 232.906 474.958 232.654 474.848 232.425C474.739 232.195 474.579 231.993 474.381 231.833C474.8 231.792 475.193 231.611 475.495 231.318C475.797 231.025 475.99 230.638 476.043 230.22C476.096 229.803 476.005 229.38 475.786 229.021C475.566 228.662 475.231 228.388 474.836 228.245H475.099C475.343 228.246 475.585 228.199 475.81 228.107C476.036 228.014 476.241 227.878 476.413 227.705C476.586 227.533 476.722 227.328 476.815 227.102C476.908 226.877 476.954 226.635 476.953 226.391C476.952 226.004 476.83 225.627 476.605 225.312C476.38 224.996 476.063 224.759 475.697 224.633Z" fill="#379CF7"/>
<path d="M447.34 234.225L453.607 234.237L453.691 220.626L447.412 220.614L447.34 234.225Z" fill="#379CF7"/>
<path d="M366.43 357.807C364.411 354.273 363.704 350.139 364.432 346.134C365.161 342.129 367.279 338.509 370.413 335.912C373.548 333.315 377.498 331.907 381.569 331.935C385.639 331.964 389.57 333.428 392.667 336.069C395.765 338.71 397.832 342.359 398.504 346.374C399.176 350.388 398.411 354.512 396.342 358.018C394.273 361.524 391.034 364.187 387.195 365.54C383.356 366.893 379.162 366.848 375.353 365.414C374.261 364.999 373.062 364.956 371.944 365.294L365.211 367.327L366.861 361.886C367.071 361.212 367.142 360.503 367.068 359.802C366.994 359.101 366.777 358.422 366.43 357.807Z" fill="#0A4D7A"/>
<path d="M381.07 339.903L379.299 345.381C379.246 345.529 379.149 345.658 379.021 345.75C378.893 345.842 378.74 345.892 378.582 345.895H372.829C372.669 345.891 372.512 345.938 372.381 346.03C372.25 346.122 372.153 346.254 372.103 346.406C372.053 346.558 372.054 346.722 372.105 346.873C372.156 347.025 372.255 347.156 372.387 347.247L377.039 350.631C377.168 350.723 377.265 350.854 377.314 351.005C377.364 351.155 377.364 351.318 377.314 351.469L375.544 356.946C375.485 357.103 375.48 357.275 375.529 357.434C375.579 357.594 375.68 357.733 375.817 357.829C375.954 357.925 376.119 357.973 376.286 357.964C376.453 357.956 376.613 357.892 376.74 357.783L381.392 354.399C381.521 354.305 381.676 354.255 381.835 354.255C381.994 354.255 382.149 354.305 382.278 354.399L386.93 357.783C387.057 357.892 387.216 357.956 387.384 357.964C387.551 357.973 387.716 357.925 387.853 357.829C387.99 357.733 388.091 357.594 388.141 357.434C388.19 357.275 388.185 357.103 388.126 356.946L386.308 351.469C386.255 351.319 386.252 351.157 386.3 351.006C386.347 350.855 386.442 350.723 386.571 350.631L391.236 347.247C391.367 347.156 391.466 347.025 391.517 346.873C391.568 346.722 391.569 346.558 391.519 346.406C391.469 346.254 391.372 346.122 391.241 346.03C391.11 345.938 390.953 345.891 390.793 345.895H384.992C384.834 345.896 384.679 345.846 384.55 345.754C384.422 345.662 384.325 345.531 384.275 345.381L382.493 339.903C382.448 339.749 382.354 339.614 382.226 339.518C382.097 339.422 381.941 339.37 381.781 339.37C381.621 339.37 381.465 339.422 381.337 339.518C381.208 339.614 381.115 339.749 381.07 339.903Z" fill="#FBBE42"/>
</svg>
