<svg width="532" height="388" viewBox="0 0 532 388" fill="none" xmlns="http://www.w3.org/2000/svg">
<path d="M531.656 373.956C531.656 366.398 417.485 360.262 276.668 360.262C135.851 360.262 21.6812 366.398 21.6812 373.956C21.6812 381.515 135.839 387.662 276.668 387.662C417.497 387.662 531.656 381.527 531.656 373.956Z" fill="#E6F8FF"/>
<path d="M53.3871 367.45C23.6785 367.306 -0.432909 342.872 0.368411 313.176C0.798971 297.018 6.83877 281.362 25.1854 272.822C73.5277 250.338 6.04942 104.186 91.5156 89.5714C176.982 74.9562 173.597 -36.3555 273.654 46.8502C373.712 130.056 391.7 17.62 456.906 76.0805C522.112 134.541 414.184 208.741 495.178 246.965C548.555 272.177 531.058 317.421 512.938 345.324C508.079 352.765 501.43 358.868 493.601 363.072C485.771 367.276 477.011 369.448 468.124 369.387L53.3871 367.45Z" fill="#CAEDFF"/>
<g style="mix-blend-mode:multiply" opacity="0.44">
<path d="M468.124 369.388C477.003 369.44 485.753 367.265 493.574 363.061C501.394 358.857 508.036 352.758 512.89 345.324C531.01 317.421 548.507 272.177 495.13 246.965C414.184 208.693 522.111 134.541 456.858 76.0805C391.604 17.62 373.712 130.044 273.654 46.8503C249.029 26.3747 230.682 17.6918 215.768 16.424C221.276 20.2194 226.06 24.9708 229.893 30.4531C266.251 81.3549 288.066 118.515 364 112.044C439.934 105.574 330.07 238.067 389.846 253.423C429.314 263.553 424.051 324.454 395.419 369.053L468.124 369.388Z" fill="#BAE6F7"/>
</g>
<path d="M203.999 111.889C198.017 111.244 192.18 109.628 186.717 107.105C178.501 103.301 171.169 95.9939 175.295 88.782C181.455 78.903 163.933 70.543 169.889 65.0414C175.953 60.1737 177.233 64.2042 174.889 53.3086C172.963 42.1858 180.618 39.5188 184.923 29.568C189.851 19.5575 201.153 27.0445 198.354 40.1048C196.154 53.5837 201.356 39.6623 205.183 45.738C208.448 50.7612 195.615 72.3849 201.284 70.4354C206.535 68.0434 211.056 71.3563 210.362 77.3961C208.317 91.3654 203.808 111.614 203.999 111.889Z" fill="#7BC7FF"/>
<path d="M208.185 117.582C208.156 117.581 208.127 117.574 208.1 117.562C208.073 117.55 208.05 117.532 208.03 117.51C199.183 107.129 192.684 94.9593 188.978 81.8333V81.7137H188.882C185.163 79.3194 181.763 76.4619 178.764 73.2101C177.747 72.1576 176.731 71.0812 175.714 69.9929C175.695 69.9666 175.686 69.9353 175.686 69.9032C175.686 69.871 175.695 69.8397 175.714 69.8135C175.735 69.7613 175.775 69.719 175.826 69.6947C175.877 69.6704 175.935 69.6658 175.989 69.6819C176.009 69.6777 176.029 69.6777 176.049 69.6819C177.042 70.7344 178.034 71.7988 179.039 72.8274C181.815 75.8258 184.92 78.5018 188.296 80.8047L188.858 81.1635L188.679 80.4818C187.007 73.9768 186.064 67.3059 185.868 60.5923V60.4009L185.713 60.3292H185.641C182.94 56.1909 180.853 51.6829 179.446 46.9459C179.425 46.916 179.414 46.8806 179.414 46.8443C179.414 46.808 179.425 46.7725 179.446 46.7426C179.48 46.7173 179.522 46.7037 179.565 46.7037C179.608 46.7037 179.65 46.7173 179.685 46.7426C179.721 46.7683 179.747 46.8067 179.757 46.8503C181.04 51.2059 182.911 55.3664 185.318 59.2169C185.473 59.48 185.641 59.7312 185.808 59.9943C185.808 59.6833 185.808 59.3604 185.808 59.0495C185.739 51.9044 186.429 44.7722 187.865 37.7726C187.868 37.7487 187.876 37.7256 187.888 37.705C187.901 37.6844 187.917 37.6666 187.937 37.653C187.966 37.6362 187.999 37.6274 188.033 37.6274C188.066 37.6274 188.099 37.6362 188.129 37.653C188.165 37.6769 188.193 37.7119 188.208 37.7528C188.223 37.7937 188.224 37.8384 188.212 37.8803C186.275 47.2653 185.715 56.8824 186.55 66.4288C186.55 66.6201 186.55 66.7995 186.55 66.9909L186.933 66.6201C191.138 62.6261 194.849 58.1408 197.984 53.2608C197.984 53.201 198.055 53.1771 198.127 53.2608C198.159 53.278 198.188 53.3018 198.211 53.3306C198.233 53.3595 198.25 53.3927 198.259 53.4283C198.273 53.4537 198.281 53.4826 198.281 53.512C198.281 53.5414 198.273 53.5702 198.259 53.5957C195.012 58.6602 191.147 63.3006 186.753 67.4095L186.634 67.5171V67.6846C187.11 72.3405 187.954 76.9514 189.157 81.4745V81.5462C189.174 81.573 189.183 81.6041 189.183 81.6359C189.183 81.6677 189.174 81.6988 189.157 81.7256V81.7974V81.8691C190.273 85.9201 191.68 89.8851 193.367 93.7335L193.666 94.4152C193.726 94.176 193.798 93.9368 193.857 93.6976C195.597 87.2623 198.256 81.1114 201.751 75.4347C201.769 75.3957 201.802 75.3653 201.842 75.3497C201.882 75.3342 201.926 75.3346 201.966 75.3509C201.995 75.3604 202.022 75.3759 202.045 75.3965C202.068 75.4172 202.086 75.4424 202.098 75.4705C202.11 75.4882 202.116 75.509 202.116 75.5303C202.116 75.5516 202.11 75.5724 202.098 75.5901C198.428 81.5627 195.678 88.0541 193.941 94.8457V94.9414V95.0371C197.628 103.088 202.405 110.594 208.138 117.343C208.149 117.363 208.155 117.385 208.155 117.408C208.155 117.431 208.149 117.454 208.138 117.474C208.117 117.512 208.087 117.544 208.052 117.569C208.017 117.594 207.977 117.61 207.934 117.618L208.185 117.582Z" fill="#379CF7"/>
<path d="M182.663 145.927C183.057 139.418 182.473 132.887 180.929 126.552C178.537 117.091 172.557 108.002 164.771 111.374C154.007 116.481 148.672 96.2809 142.238 101.806C136.39 107.583 140.157 109.58 129.8 105.394C119.131 101.591 115.196 109.425 104.684 112.57C93.9196 116.314 99.4332 129.673 112.816 128.693C126.499 128.417 111.86 131.862 117.218 136.933C121.619 141.227 145.168 130.75 142.262 136.574C139.045 141.86 141.52 147.254 147.608 147.446C161.649 147.386 182.436 145.592 182.663 145.927Z" fill="#7BC7FF"/>
<path d="M187.566 151.321C187.578 151.295 187.584 151.266 187.584 151.237C187.584 151.208 187.578 151.18 187.566 151.153C180.618 142.255 169.447 131.611 155.561 125.045H155.454V124.925C153.743 120.59 151.502 116.485 148.78 112.702C147.907 111.434 147.01 110.178 146.113 108.911C146.089 108.891 146.06 108.881 146.029 108.881C145.999 108.881 145.969 108.891 145.946 108.911C145.89 108.927 145.842 108.962 145.809 109.01C145.776 109.058 145.761 109.116 145.766 109.174C145.762 109.202 145.762 109.23 145.766 109.258C146.639 110.454 147.512 111.721 148.373 112.965C150.883 116.462 152.993 120.229 154.664 124.196L154.928 124.853L154.294 124.566C148.166 121.771 141.719 119.735 135.098 118.503H134.918V118.311C134.925 118.284 134.925 118.255 134.918 118.228C131.343 114.701 127.244 111.748 122.767 109.473C122.735 109.453 122.697 109.442 122.659 109.442C122.621 109.442 122.584 109.453 122.552 109.473C122.517 109.504 122.491 109.543 122.476 109.587C122.461 109.631 122.459 109.678 122.468 109.724C122.492 109.767 122.53 109.801 122.576 109.82C126.686 111.913 130.48 114.579 133.842 117.737L134.524 118.395L133.591 118.228C126.533 117.04 119.361 116.674 112.218 117.139C112.123 117.139 112.099 117.139 112.099 117.199C112.081 117.232 112.072 117.269 112.072 117.307C112.072 117.344 112.081 117.381 112.099 117.414C112.114 117.454 112.143 117.487 112.18 117.509C112.217 117.531 112.26 117.539 112.302 117.534C121.879 116.907 131.495 117.803 140.791 120.189L141.341 120.332L140.91 120.691C136.296 124.561 131.232 127.862 125.829 130.522C125.829 130.522 125.733 130.582 125.757 130.666C125.784 130.74 125.834 130.803 125.901 130.845C125.926 130.86 125.955 130.868 125.984 130.868C126.014 130.868 126.043 130.86 126.068 130.845C131.664 128.054 136.888 124.57 141.616 120.476L141.748 120.356H141.903C146.421 121.596 150.823 123.225 155.059 125.224H155.131V125.296C155.152 125.322 155.18 125.342 155.211 125.354C155.243 125.367 155.277 125.372 155.31 125.368H155.382H155.454C159.281 127.213 162.96 129.352 166.457 131.766L167.067 132.185L166.337 132.281C159.626 133.18 153.089 135.092 146.95 137.95C146.912 137.969 146.88 138.001 146.861 138.04C146.842 138.078 146.835 138.122 146.843 138.165C146.841 138.198 146.848 138.23 146.863 138.259C146.877 138.289 146.899 138.314 146.926 138.332C146.926 138.332 146.986 138.332 147.046 138.332C153.497 135.332 160.384 133.378 167.45 132.544H167.557H167.653C175.044 137.851 181.648 144.176 187.267 151.333C187.267 151.405 187.363 151.393 187.387 151.393C187.43 151.376 187.469 151.349 187.498 151.313C187.527 151.278 187.547 151.235 187.554 151.189L187.566 151.321Z" fill="#379CF7"/>
<path d="M176.515 126.456C176.408 126.456 183.093 117.474 185.844 106.519C188.822 95.7547 187.853 83.101 177.795 81.2711C163.646 79.1781 169.77 56.1551 159.855 57.3511C150.466 59.1451 153.229 63.5464 144.905 52.6987C136.031 42.0543 127.443 47.0775 114.718 43.1307C101.442 39.7699 99.457 56.2867 113.893 64.0726C128.245 72.7436 111.082 66.5244 113.725 74.9443C115.83 81.9887 146.268 87.1794 139.918 90.9348C133.531 93.9607 133.017 100.814 139.224 104.964C153.899 114.185 176.467 126.013 176.515 126.456Z" fill="#379CF7"/>
<path d="M178.513 134.912C178.537 134.885 178.556 134.852 178.566 134.817C178.577 134.782 178.579 134.745 178.572 134.708C175.894 118.181 169.681 102.426 160.357 88.5189L160.274 88.3993V88.2677C161.006 82.8886 161.038 77.4373 160.369 72.05C160.202 70.256 159.998 68.462 159.783 66.6321C159.784 66.5915 159.769 66.5522 159.743 66.5214C159.716 66.4906 159.68 66.4704 159.64 66.4646C159.578 66.4412 159.509 66.4431 159.449 66.47C159.388 66.4969 159.341 66.5465 159.317 66.6082C159.311 66.6438 159.311 66.6802 159.317 66.7158C159.52 68.4859 159.723 70.3038 159.903 72.0141C160.498 76.9941 160.526 82.0256 159.987 87.0119C159.987 87.287 159.915 87.5501 159.867 87.8252C159.711 87.586 159.544 87.3588 159.377 87.1196C154.613 80.3893 149.104 74.2187 142.955 68.7251L142.788 68.5696V68.3663C142.794 68.3266 142.794 68.2863 142.788 68.2467C141.074 62.4327 138.52 56.9005 135.205 51.8256C135.185 51.7839 135.152 51.7497 135.112 51.7282C135.071 51.7067 135.024 51.6989 134.978 51.706C134.924 51.7053 134.871 51.7243 134.829 51.7594C134.787 51.7945 134.76 51.8435 134.751 51.8974C134.738 51.9213 134.732 51.948 134.732 51.9751C134.732 52.0022 134.738 52.0289 134.751 52.0528C137.81 56.7177 140.223 61.7748 141.927 67.0866C142.035 67.4454 142.154 67.8042 142.262 68.163L141.389 67.3975C134.766 61.6476 127.549 56.62 119.861 52.3997C119.753 52.3997 119.717 52.3997 119.693 52.3997C119.657 52.4194 119.626 52.4488 119.605 52.4846C119.584 52.5205 119.573 52.5614 119.574 52.603C119.567 52.6548 119.577 52.7074 119.603 52.7527C119.629 52.7981 119.669 52.8337 119.717 52.8542C130.039 58.509 139.483 65.6361 147.751 74.0114C147.907 74.1788 148.062 74.3463 148.23 74.5018L147.584 74.5735C140.501 75.3255 133.354 75.2252 126.295 74.2745C126.211 74.2745 126.164 74.2745 126.14 74.3822C126.122 74.4217 126.113 74.4645 126.113 74.5077C126.113 74.551 126.122 74.5938 126.14 74.6333C126.16 74.6637 126.186 74.6891 126.217 74.7078C126.248 74.7264 126.283 74.7378 126.319 74.741C133.636 75.7312 141.048 75.8115 148.385 74.9802H148.589L148.72 75.1237C152.703 79.2673 156.342 83.7271 159.604 88.4591L159.664 88.5308V88.6265C159.665 88.6676 159.678 88.7076 159.701 88.7415C159.725 88.7754 159.757 88.8019 159.795 88.8179H159.879L159.939 88.9016C162.827 93.1706 165.409 97.6388 167.665 102.273L168.071 103.086L167.258 102.703C159.852 99.2058 151.981 96.7891 143.888 95.5274C143.839 95.5158 143.788 95.5228 143.743 95.5471C143.699 95.5714 143.666 95.6113 143.649 95.659C143.635 95.693 143.627 95.7296 143.627 95.7666C143.627 95.8036 143.635 95.8402 143.649 95.8743C143.662 95.8986 143.681 95.9191 143.704 95.9338C143.727 95.9485 143.753 95.9569 143.781 95.958C152.285 97.2774 160.542 99.8699 168.275 103.648L168.394 103.708V103.828C172.987 113.679 176.207 124.114 177.962 134.84C177.962 134.948 178.034 134.972 178.058 134.983C178.109 134.993 178.162 134.99 178.211 134.975C178.261 134.961 178.307 134.935 178.345 134.9L178.513 134.912Z" fill="#2481C6"/>
<path d="M301.306 92.6331H187.877C176.873 92.6331 167.952 101.554 167.952 112.558V349.438C167.952 360.443 176.873 369.364 187.877 369.364H301.306C312.31 369.364 321.231 360.443 321.231 349.438V112.558C321.231 101.554 312.31 92.6331 301.306 92.6331Z" fill="#0A4D7A"/>
<path d="M301.318 92.6331H187.877C185.259 92.63 182.665 93.1431 180.245 94.143C177.825 95.1429 175.625 96.6101 173.772 98.4607C171.92 100.311 170.45 102.509 169.447 104.928C168.444 107.347 167.928 109.94 167.928 112.558V349.438C167.929 352.467 168.622 355.455 169.955 358.175C171.288 360.895 173.225 363.274 175.618 365.13L319.593 104.653C318.052 101.085 315.501 98.0451 312.253 95.9092C309.006 93.7734 305.205 92.6345 301.318 92.6331V92.6331Z" fill="#083954"/>
<path d="M266.742 102.333H224.666C224.109 102.336 223.575 102.559 223.181 102.953C222.787 103.347 222.564 103.88 222.561 104.438V104.438C222.561 104.996 222.783 105.531 223.178 105.926C223.573 106.321 224.108 106.543 224.666 106.543H266.742C267.3 106.543 267.835 106.321 268.23 105.926C268.625 105.531 268.846 104.996 268.846 104.438V104.438C268.843 103.88 268.621 103.347 268.226 102.953C267.832 102.559 267.299 102.336 266.742 102.333V102.333Z" fill="white"/>
<path d="M301.318 100.144H284.67L278.69 111.494C277.593 113.577 275.949 115.321 273.934 116.537C271.919 117.753 269.609 118.396 267.256 118.395H221.951C219.598 118.396 217.288 117.753 215.273 116.537C213.258 115.321 211.614 113.577 210.518 111.494L204.538 100.144H187.877C184.573 100.147 181.405 101.461 179.069 103.798C176.732 106.134 175.418 109.302 175.415 112.606V349.438C175.421 352.74 176.737 355.905 179.073 358.239C181.409 360.573 184.575 361.885 187.877 361.889H301.318C304.619 361.885 307.784 360.573 310.118 358.239C312.452 355.904 313.765 352.739 313.768 349.438V112.559C313.756 109.264 312.439 106.108 310.105 103.781C307.772 101.455 304.613 100.147 301.318 100.144V100.144Z" fill="#CAEDFF"/>
<g style="mix-blend-mode:multiply" opacity="0.85">
<path d="M313.768 112.558V115.19L179.314 358.48C178.084 357.314 177.103 355.911 176.433 354.354C175.763 352.798 175.416 351.121 175.415 349.426V112.618C175.415 109.312 176.728 106.141 179.064 103.802C181.401 101.463 184.571 100.147 187.877 100.144H204.526L210.506 111.494C211.605 113.577 213.252 115.32 215.269 116.536C217.286 117.753 219.596 118.395 221.951 118.395H267.196C269.549 118.393 271.857 117.749 273.872 116.533C275.886 115.317 277.531 113.575 278.63 111.494L284.61 100.144H301.258C302.895 100.138 304.516 100.454 306.031 101.074C307.545 101.695 308.923 102.607 310.084 103.76C311.246 104.913 312.169 106.283 312.801 107.793C313.433 109.303 313.762 110.922 313.768 112.558Z" fill="#BAE6F7"/>
</g>
<path d="M369.322 135.761H197.015C192.199 135.761 188.296 139.664 188.296 144.48V187.129C188.296 191.944 192.199 195.848 197.015 195.848H369.322C374.138 195.848 378.041 191.944 378.041 187.129V144.48C378.041 139.664 374.138 135.761 369.322 135.761Z" fill="white"/>
<path d="M272.124 155.806L273.32 159.394C273.358 159.516 273.434 159.622 273.538 159.698C273.641 159.773 273.766 159.813 273.894 159.812H277.673C277.801 159.813 277.926 159.854 278.029 159.93C278.132 160.005 278.209 160.112 278.249 160.233C278.289 160.355 278.289 160.486 278.25 160.608C278.211 160.73 278.135 160.837 278.032 160.913L274.97 163.137C274.868 163.215 274.793 163.322 274.755 163.444C274.716 163.566 274.716 163.697 274.755 163.819L275.951 167.407C275.992 167.53 275.993 167.664 275.953 167.788C275.913 167.912 275.835 168.02 275.729 168.096C275.624 168.172 275.497 168.212 275.366 168.211C275.236 168.21 275.11 168.167 275.006 168.089L271.896 165.924C271.792 165.848 271.666 165.807 271.538 165.807C271.409 165.807 271.283 165.848 271.179 165.924L268.129 168.149C268.025 168.227 267.899 168.27 267.768 168.271C267.638 168.272 267.511 168.232 267.405 168.156C267.3 168.08 267.221 167.972 267.182 167.848C267.142 167.724 267.143 167.59 267.184 167.467L268.38 163.879C268.419 163.756 268.418 163.623 268.378 163.501C268.337 163.378 268.258 163.272 268.153 163.197L265.103 160.973C265 160.896 264.924 160.79 264.885 160.668C264.846 160.546 264.846 160.415 264.886 160.293C264.926 160.171 265.003 160.065 265.106 159.99C265.209 159.914 265.334 159.873 265.462 159.872H269.241C269.369 159.873 269.494 159.833 269.597 159.757C269.7 159.682 269.777 159.576 269.815 159.454L271.011 155.866C271.053 155.756 271.127 155.66 271.222 155.591C271.317 155.522 271.43 155.481 271.548 155.475C271.666 155.469 271.783 155.497 271.885 155.555C271.987 155.614 272.07 155.701 272.124 155.806V155.806Z" fill="#FBBE42"/>
<path d="M293.101 155.806L294.297 159.394C294.34 159.516 294.419 159.622 294.524 159.697C294.629 159.772 294.754 159.812 294.883 159.812H298.663C298.791 159.813 298.915 159.854 299.019 159.93C299.122 160.005 299.199 160.112 299.239 160.233C299.278 160.355 299.279 160.486 299.24 160.608C299.201 160.73 299.124 160.837 299.022 160.913L295.9 163.149C295.796 163.225 295.719 163.332 295.678 163.454C295.637 163.576 295.635 163.708 295.673 163.831L296.869 167.419C296.907 167.541 296.906 167.671 296.866 167.792C296.826 167.913 296.75 168.019 296.647 168.094C296.544 168.17 296.42 168.211 296.292 168.212C296.165 168.213 296.04 168.174 295.936 168.101L292.886 165.924C292.782 165.848 292.656 165.807 292.527 165.807C292.398 165.807 292.273 165.848 292.168 165.924L289.107 168.149C289.002 168.222 288.878 168.261 288.75 168.26C288.623 168.258 288.499 168.217 288.396 168.142C288.293 168.067 288.216 167.961 288.176 167.84C288.136 167.719 288.136 167.588 288.174 167.467L289.37 163.879C289.407 163.756 289.405 163.624 289.365 163.502C289.324 163.38 289.246 163.273 289.143 163.197L286.081 160.973C285.978 160.896 285.902 160.79 285.863 160.668C285.824 160.546 285.824 160.415 285.864 160.293C285.903 160.171 285.98 160.065 286.084 159.99C286.187 159.914 286.312 159.873 286.44 159.872H290.219C290.348 159.872 290.474 159.831 290.579 159.756C290.684 159.681 290.763 159.576 290.805 159.454L292.001 155.866C292.041 155.755 292.112 155.658 292.207 155.588C292.301 155.518 292.414 155.477 292.531 155.471C292.649 155.464 292.765 155.493 292.867 155.552C292.968 155.612 293.05 155.7 293.101 155.806Z" fill="#FBBE42"/>
<path d="M314.091 155.806L315.287 159.394C315.326 159.516 315.402 159.622 315.505 159.698C315.609 159.773 315.733 159.813 315.861 159.812H319.653C319.78 159.816 319.902 159.859 320.004 159.935C320.105 160.011 320.181 160.118 320.219 160.239C320.257 160.36 320.256 160.49 320.217 160.611C320.178 160.732 320.102 160.837 319.999 160.913L316.95 163.137C316.845 163.212 316.766 163.319 316.725 163.441C316.684 163.564 316.683 163.696 316.722 163.819L317.918 167.407C317.96 167.53 317.961 167.664 317.921 167.788C317.881 167.912 317.803 168.02 317.697 168.096C317.592 168.172 317.464 168.213 317.334 168.211C317.204 168.21 317.078 168.167 316.974 168.089L313.84 165.924C313.736 165.848 313.61 165.807 313.481 165.807C313.352 165.807 313.227 165.848 313.122 165.924L310.061 168.149C309.957 168.227 309.83 168.27 309.7 168.271C309.57 168.272 309.443 168.232 309.337 168.156C309.232 168.08 309.153 167.972 309.113 167.848C309.074 167.724 309.074 167.59 309.116 167.467L310.312 163.879C310.354 163.757 310.356 163.625 310.317 163.502C310.279 163.379 310.201 163.272 310.097 163.197L307.035 160.973C306.932 160.896 306.856 160.79 306.817 160.668C306.778 160.546 306.778 160.415 306.818 160.293C306.857 160.171 306.934 160.065 307.038 159.99C307.141 159.914 307.266 159.873 307.394 159.872H311.173C311.301 159.873 311.426 159.833 311.529 159.757C311.632 159.682 311.709 159.576 311.747 159.454L312.943 155.866C312.979 155.745 313.051 155.638 313.15 155.56C313.249 155.482 313.37 155.437 313.496 155.43C313.622 155.424 313.747 155.456 313.853 155.524C313.96 155.591 314.043 155.689 314.091 155.806V155.806Z" fill="#FBBE42"/>
<path d="M335.081 155.806L336.277 159.394C336.319 159.516 336.398 159.622 336.503 159.697C336.608 159.772 336.734 159.812 336.863 159.812H340.642C340.77 159.813 340.895 159.854 340.998 159.93C341.102 160.005 341.179 160.112 341.218 160.233C341.258 160.355 341.258 160.486 341.219 160.608C341.18 160.73 341.104 160.837 341.001 160.913L337.939 163.137C337.835 163.213 337.757 163.32 337.719 163.442C337.68 163.565 337.682 163.697 337.724 163.819L338.92 167.407C338.958 167.529 338.958 167.659 338.918 167.78C338.878 167.902 338.801 168.007 338.698 168.082C338.595 168.158 338.471 168.199 338.344 168.2C338.216 168.201 338.092 168.162 337.987 168.089L334.854 165.924C334.749 165.848 334.624 165.807 334.495 165.807C334.366 165.807 334.24 165.848 334.136 165.924L331.074 168.149C330.97 168.222 330.845 168.261 330.718 168.26C330.59 168.258 330.466 168.217 330.364 168.142C330.261 168.067 330.184 167.961 330.144 167.84C330.104 167.719 330.103 167.588 330.141 167.467L331.337 163.879C331.377 163.756 331.376 163.623 331.335 163.501C331.294 163.378 331.215 163.272 331.11 163.197L328.048 160.973C327.946 160.896 327.869 160.79 327.83 160.668C327.791 160.546 327.792 160.415 327.831 160.293C327.871 160.171 327.948 160.065 328.051 159.99C328.155 159.914 328.279 159.873 328.407 159.872H332.199C332.326 159.873 332.451 159.833 332.555 159.757C332.658 159.682 332.734 159.576 332.773 159.454L333.969 155.866C334.011 155.756 334.084 155.66 334.179 155.591C334.275 155.522 334.388 155.481 334.505 155.475C334.623 155.469 334.74 155.497 334.842 155.555C334.944 155.614 335.027 155.701 335.081 155.806V155.806Z" fill="#FBBE42"/>
<path d="M356.059 155.806L357.255 159.394C357.295 159.517 357.374 159.624 357.48 159.699C357.585 159.774 357.711 159.814 357.841 159.812H361.62C361.748 159.813 361.873 159.854 361.976 159.93C362.08 160.005 362.157 160.112 362.196 160.233C362.236 160.355 362.236 160.486 362.197 160.608C362.158 160.73 362.082 160.837 361.979 160.913L358.917 163.137C358.814 163.214 358.736 163.32 358.695 163.442C358.655 163.564 358.653 163.696 358.69 163.819L359.886 167.407C359.924 167.529 359.923 167.659 359.884 167.78C359.844 167.902 359.767 168.007 359.664 168.082C359.561 168.158 359.437 168.199 359.31 168.2C359.182 168.201 359.057 168.162 358.953 168.089L355.844 165.924C355.739 165.848 355.614 165.807 355.485 165.807C355.356 165.807 355.23 165.848 355.126 165.924L352.112 168.113C352.008 168.186 351.883 168.225 351.756 168.224C351.628 168.223 351.504 168.182 351.401 168.106C351.298 168.031 351.221 167.926 351.182 167.804C351.142 167.683 351.141 167.553 351.179 167.431L352.375 163.843C352.418 163.721 352.419 163.589 352.381 163.466C352.342 163.344 352.264 163.237 352.16 163.161L349.098 160.937C348.995 160.861 348.919 160.754 348.88 160.632C348.841 160.51 348.841 160.379 348.881 160.257C348.921 160.136 348.998 160.029 349.101 159.954C349.204 159.878 349.329 159.837 349.457 159.836H353.236C353.365 159.836 353.491 159.796 353.596 159.721C353.701 159.646 353.78 159.54 353.822 159.418L355.018 155.83C355.071 155.739 355.146 155.664 355.235 155.611C355.325 155.558 355.427 155.529 355.532 155.526C355.636 155.524 355.74 155.548 355.832 155.597C355.924 155.646 356.002 155.718 356.059 155.806V155.806Z" fill="#B1D7DD"/>
<path d="M325.836 174.129H264.816V175.827H325.836V174.129Z" fill="#B1D7DD"/>
<path d="M325.836 146.238H264.816V149.431H325.836V146.238Z" fill="#379CF7"/>
<path d="M325.836 180.587H264.816V182.285H325.836V180.587Z" fill="#B1D7DD"/>
<path d="M292.707 186.579H264.816V188.277H292.707V186.579Z" fill="#B1D7DD"/>
<path d="M232.689 190.411C245.791 187.345 253.926 174.239 250.86 161.138C247.795 148.037 234.689 139.901 221.588 142.967C208.487 146.033 200.351 159.138 203.417 172.24C206.482 185.341 219.588 193.476 232.689 190.411Z" fill="#7BC7FF"/>
<path d="M239.198 181.472L237.057 158.963C237.057 153.199 234.796 147.888 228.685 149.467C227.345 148.739 225.812 148.447 224.299 148.632C222.785 148.816 221.367 149.467 220.241 150.496C219.033 151.705 218.078 153.144 217.434 154.727C216.789 156.311 216.466 158.007 216.486 159.717L214.094 181.592L239.198 181.472Z" fill="#0A4D7A"/>
<path d="M230.73 169.895V174.846C230.73 174.846 230.036 178.721 226.771 179.379C225.761 179.062 224.859 178.47 224.166 177.669C223.474 176.869 223.017 175.891 222.848 174.846V169.895H230.73Z" fill="#FFA683"/>
<path d="M230.73 169.189V172.347C229.517 172.994 228.164 173.332 226.789 173.332C225.414 173.332 224.061 172.994 222.848 172.347V169.189H230.73Z" fill="#E57C5C"/>
<path d="M234.784 159.214C232.492 159.05 230.35 158.009 228.804 156.308C226.592 158.222 218.854 159.214 218.854 159.214V162.264C218.96 164.877 219.838 167.399 221.377 169.512C222.01 170.368 222.835 171.063 223.785 171.542C224.735 172.021 225.785 172.271 226.849 172.271C227.913 172.271 228.963 172.021 229.913 171.542C230.863 171.063 231.688 170.368 232.321 169.512C233.86 167.399 234.738 164.877 234.844 162.264L234.784 159.214Z" fill="#FFA683"/>
<path d="M246.278 183.099C243.192 177.788 230.12 174.846 230.12 174.846L226.687 176.174L223.255 174.846C223.255 174.846 210.183 177.788 207.097 183.099L203.306 211.707L209.286 211.611L212.802 187.691C212.802 187.691 215.026 195.405 214.907 199.914C214.636 203.928 214.124 207.922 213.376 211.874H239.927C239.179 207.922 238.668 203.928 238.396 199.914C238.277 195.405 240.501 187.691 240.501 187.691L244.017 211.611L249.997 211.707L246.278 183.099Z" fill="#FFA683"/>
<path d="M237.296 177.071C236.628 179.351 235.24 181.354 233.338 182.779C231.436 184.204 229.124 184.975 226.747 184.975C224.371 184.975 222.058 184.204 220.157 182.779C218.255 181.354 216.866 179.351 216.199 177.071C214.166 177.832 212.218 178.802 210.386 179.965L212.778 187.751C212.817 187.815 212.849 187.883 212.874 187.954V187.751L213.125 188.648L213.197 188.923C214.216 192.525 214.814 196.234 214.979 199.974C214.707 203.988 214.196 207.982 213.448 211.934H239.999C239.251 207.982 238.739 203.988 238.468 199.974C238.348 195.465 240.573 187.751 240.573 187.751V188.074C240.622 187.963 240.678 187.855 240.74 187.751L243.132 180.013C241.3 178.823 239.343 177.836 237.296 177.071V177.071Z" fill="#379CF7"/>
<path d="M395.312 205.524C394.885 205.516 394.468 205.394 394.104 205.172C393.741 204.949 393.443 204.632 393.243 204.256L380.816 179.403C380.816 179.403 379.321 173.423 377.563 173.423L377.384 181.34L385.827 211.886C386.318 213.8 387.31 215.474 389.858 215.474C396.902 215.957 403.886 217.103 410.716 218.895C414.53 219.901 418.539 219.901 422.353 218.895C422.676 204.878 400.634 205.643 395.312 205.524Z" fill="#FFA683"/>
<path d="M413.993 202.402V209.47H403.229V205.488C403.229 205.488 396.173 203.825 396.519 197.451C396.866 191.076 399.856 188.002 401.471 187.512C403.085 187.021 410.871 190.155 411.039 190.55C411.206 190.944 412.02 197.726 412.02 197.726L413.993 202.402Z" fill="#FFA683"/>
<path d="M402.727 192.75C402.727 192.75 404.628 190.071 406.398 191.399C408.169 192.726 407.284 195.382 405.071 196.709C405.071 196.709 407.283 204.244 411.709 203.801C414.579 203.319 417.163 201.775 418.947 199.474C420.731 197.174 421.584 194.287 421.337 191.387C420.846 184.091 411.314 178.949 406.111 179.977C400.909 181.006 395.73 186.83 402.727 192.75Z" fill="#004CBA"/>
<path d="M421.289 186.782C421.289 186.782 427.065 179.427 432.842 185.802C438.619 192.176 442.255 199.316 444.898 200.692C447.541 202.067 442.637 205.392 436.275 203.335C429.912 201.278 421.683 193.432 421.289 186.782Z" fill="#004CBA"/>
<path d="M403.265 209.47V205.488C403.265 205.488 407.654 205.655 409.52 203.957C409.52 203.957 408.204 206.995 405.346 207.078V209.47H403.265Z" fill="#ED7D5A"/>
<path d="M398.553 265.981C398.553 265.981 401.088 305.449 404.293 313.762C407.499 322.074 427.855 359.676 427.855 359.676L438.391 357.368L423.37 312.422C423.25 315.173 421.253 302.22 424.972 289.1C427.095 281.517 426.411 273.423 423.047 266.304L396.735 266.017" fill="#006CBC"/>
<path d="M422.843 264.319C422.843 264.319 421.863 275.286 409.233 287.749C396.603 300.211 391.496 308.762 391.496 308.762L389.595 363.264H379.094C379.094 363.264 372.887 305.856 373.054 303.823C373.221 301.79 390.635 264.355 392.704 261.102C394.773 257.849 422.843 264.319 422.843 264.319Z" fill="#379CF7"/>
<path d="M415.093 208.896C415.093 208.896 426.36 209.745 422.21 223.715C417.677 238.988 422.879 263.47 423.908 265.993L420.535 267.345C410.407 271.149 399.204 270.909 389.248 266.675V266.675C389.248 266.675 398.206 246.917 391.831 236.584C387.741 229.934 388.949 223.224 393.733 217.28C396.83 213.441 400.741 209.422 402.284 209.351L415.093 208.896Z" fill="#57BFFF"/>
<path d="M379.094 363.264H381.318L376.809 304.241C377.563 303.045 380.134 298.261 387.932 283.288C390.416 278.531 392.42 273.539 393.912 268.385C392.492 267.974 391.094 267.487 389.726 266.926C384.165 278.36 373.209 302.196 373.066 303.823C372.887 305.856 379.094 363.264 379.094 363.264Z" fill="#2481C6"/>
<path d="M400.909 232.9C395.646 234.849 399.557 248.831 393.9 268.361C392.32 267.897 390.767 267.346 389.248 266.711V266.711C389.248 266.711 398.206 246.953 391.831 236.62C389.951 233.722 389.108 230.274 389.439 226.836L411.78 221.765C411.78 221.765 408.073 230.209 400.909 232.9Z" fill="#30AFEF"/>
<path d="M352.758 197.869C352.758 197.869 373.209 231.859 379.177 233.749C381.833 234.61 398.373 228.152 405.346 227.004C407.163 226.706 408.799 225.731 409.927 224.276C411.054 222.82 411.588 220.991 411.422 219.158V219.158C411.015 214.793 406.016 211.085 401.734 211.982L378.783 219.158C378.783 219.158 359.288 199.101 355.006 194.508C355.006 194.508 353.212 188.851 350.545 188.851C348.165 188.851 351.777 195.92 352.758 197.869Z" fill="#FFA683"/>
<path d="M369.071 366.685C371.966 365.74 377.383 364.592 379.357 363.204H389.559C389.463 365.249 389.403 367.247 389.379 368.562C389.37 368.99 389.193 369.396 388.886 369.694C388.58 369.991 388.168 370.156 387.741 370.153H367.409C367.132 370.145 366.864 370.05 366.645 369.88C366.425 369.709 366.266 369.474 366.19 369.207C366.114 368.94 366.125 368.656 366.222 368.396C366.318 368.136 366.495 367.914 366.727 367.761C367.458 367.302 368.246 366.94 369.071 366.685V366.685Z" fill="#004CBA"/>
<path d="M418.837 365.357C421.444 363.79 426.467 361.446 428.07 359.652L438.009 357.344C438.38 359.365 438.774 361.314 439.037 362.606C439.127 363.018 439.053 363.449 438.829 363.807C438.606 364.164 438.251 364.42 437.841 364.52L418.048 369.112C417.772 369.168 417.485 369.133 417.23 369.013C416.976 368.894 416.766 368.696 416.632 368.448C416.498 368.2 416.447 367.916 416.487 367.638C416.526 367.359 416.654 367.1 416.852 366.9C417.451 366.31 418.117 365.792 418.837 365.357Z" fill="#004CBA"/>
<path opacity="0.58" d="M379.177 222.136C383.961 222.256 405.489 214.195 411.206 218.046C410.154 214.195 405.645 211.157 401.734 212.066L378.783 219.242C378.783 219.242 359.288 199.101 355.006 194.508C355.006 194.508 373.951 222.052 379.177 222.136Z" fill="#ED7D5A"/>
<path d="M421.133 186.34L419.638 186.615C420.744 188.45 421.277 190.574 421.169 192.714L423.107 192.344C423.107 192.344 422.903 186.974 421.133 186.34Z" fill="white"/>
<path d="M286.392 209.769H114.084C109.269 209.769 105.365 213.673 105.365 218.488V261.138C105.365 265.953 109.269 269.856 114.084 269.856H286.392C291.207 269.856 295.111 265.953 295.111 261.138V218.488C295.111 213.673 291.207 209.769 286.392 209.769Z" fill="white"/>
<path d="M189.181 229.814L190.377 233.402C190.418 233.525 190.496 233.632 190.602 233.707C190.707 233.783 190.834 233.822 190.963 233.821H194.742C194.87 233.822 194.995 233.863 195.098 233.938C195.202 234.014 195.279 234.12 195.318 234.242C195.358 234.363 195.358 234.495 195.319 234.617C195.28 234.738 195.204 234.845 195.101 234.921L192.039 237.146C191.936 237.222 191.858 237.328 191.817 237.45C191.777 237.573 191.775 237.704 191.812 237.827L193.008 241.415C193.046 241.537 193.046 241.668 193.006 241.789C192.966 241.91 192.889 242.016 192.786 242.091C192.683 242.166 192.559 242.207 192.432 242.208C192.304 242.209 192.18 242.171 192.075 242.097L189.014 239.873C188.909 239.797 188.784 239.756 188.655 239.756C188.526 239.756 188.4 239.797 188.296 239.873L185.234 242.097C185.13 242.171 185.005 242.209 184.878 242.208C184.75 242.207 184.626 242.166 184.523 242.091C184.42 242.016 184.344 241.91 184.304 241.789C184.264 241.668 184.263 241.537 184.301 241.415L185.497 237.827C185.54 237.706 185.542 237.574 185.503 237.451C185.464 237.328 185.387 237.221 185.282 237.146L182.22 234.921C182.117 234.845 182.041 234.738 182.002 234.617C181.963 234.495 181.963 234.363 182.003 234.242C182.043 234.12 182.12 234.014 182.223 233.938C182.326 233.863 182.451 233.822 182.579 233.821H186.358C186.487 233.821 186.613 233.78 186.718 233.705C186.823 233.63 186.902 233.524 186.944 233.402L188.14 229.814C188.195 229.725 188.271 229.652 188.363 229.601C188.454 229.55 188.556 229.523 188.661 229.523C188.765 229.523 188.868 229.55 188.959 229.601C189.05 229.652 189.126 229.725 189.181 229.814V229.814Z" fill="#FBBE42"/>
<path d="M210.171 229.814L211.367 233.402C211.405 233.524 211.482 233.631 211.585 233.706C211.688 233.781 211.813 233.822 211.941 233.821H215.72C215.848 233.822 215.973 233.863 216.076 233.938C216.179 234.014 216.256 234.12 216.296 234.242C216.336 234.364 216.336 234.495 216.297 234.617C216.258 234.739 216.182 234.845 216.079 234.921L213.017 237.146C212.916 237.224 212.84 237.331 212.802 237.453C212.763 237.575 212.763 237.706 212.802 237.828L213.998 241.416C214.039 241.539 214.04 241.672 214 241.796C213.961 241.92 213.882 242.028 213.777 242.104C213.671 242.181 213.544 242.221 213.414 242.22C213.283 242.218 213.157 242.176 213.053 242.097L209.991 239.873C209.889 239.798 209.765 239.758 209.638 239.758C209.512 239.758 209.388 239.798 209.286 239.873L206.2 242.121C206.096 242.199 205.97 242.242 205.839 242.244C205.709 242.245 205.582 242.205 205.476 242.128C205.371 242.052 205.292 241.944 205.253 241.82C205.213 241.696 205.214 241.563 205.255 241.439L206.451 237.851C206.49 237.73 206.49 237.599 206.451 237.477C206.413 237.355 206.338 237.247 206.236 237.17L203.174 234.945C203.071 234.869 202.995 234.762 202.956 234.641C202.917 234.519 202.917 234.387 202.957 234.266C202.997 234.144 203.074 234.038 203.177 233.962C203.28 233.887 203.405 233.846 203.533 233.845H207.312C207.44 233.846 207.565 233.805 207.668 233.73C207.772 233.655 207.848 233.548 207.886 233.426L209.082 229.838C209.131 229.737 209.207 229.65 209.302 229.589C209.397 229.528 209.506 229.494 209.619 229.492C209.732 229.489 209.843 229.518 209.941 229.575C210.038 229.632 210.118 229.715 210.171 229.814Z" fill="#FBBE42"/>
<path d="M231.161 229.814L232.357 233.402C232.399 233.524 232.478 233.63 232.583 233.705C232.688 233.78 232.814 233.821 232.943 233.821H236.722C236.85 233.822 236.974 233.863 237.078 233.938C237.181 234.014 237.258 234.12 237.298 234.242C237.338 234.363 237.338 234.495 237.299 234.617C237.26 234.738 237.184 234.845 237.081 234.921L234.019 237.146C233.914 237.221 233.837 237.328 233.798 237.451C233.759 237.574 233.761 237.706 233.804 237.827L235 241.415C235.038 241.537 235.037 241.668 234.997 241.789C234.957 241.91 234.881 242.016 234.778 242.091C234.675 242.166 234.551 242.207 234.423 242.208C234.296 242.209 234.171 242.171 234.067 242.097L231.005 239.873C230.901 239.797 230.775 239.756 230.646 239.756C230.517 239.756 230.392 239.797 230.287 239.873L227.226 242.097C227.121 242.171 226.997 242.209 226.869 242.208C226.742 242.207 226.618 242.166 226.515 242.091C226.412 242.016 226.335 241.91 226.295 241.789C226.255 241.668 226.255 241.537 226.293 241.415L227.489 237.827C227.526 237.704 227.524 237.573 227.484 237.45C227.443 237.328 227.365 237.222 227.262 237.146L224.14 234.933C224.037 234.857 223.961 234.75 223.922 234.628C223.883 234.507 223.883 234.375 223.923 234.254C223.963 234.132 224.04 234.026 224.143 233.95C224.246 233.875 224.371 233.834 224.499 233.833H228.278C228.408 233.834 228.534 233.795 228.64 233.719C228.745 233.644 228.824 233.537 228.864 233.414L230.06 229.826C230.109 229.722 230.186 229.633 230.283 229.571C230.379 229.509 230.492 229.475 230.607 229.474C230.722 229.472 230.835 229.504 230.933 229.564C231.031 229.624 231.11 229.711 231.161 229.814V229.814Z" fill="#FBBE42"/>
<path d="M252.138 229.814L253.334 233.402C253.373 233.524 253.449 233.631 253.552 233.706C253.656 233.781 253.781 233.822 253.908 233.821H257.628C257.756 233.822 257.881 233.863 257.984 233.938C258.087 234.014 258.164 234.12 258.204 234.242C258.244 234.364 258.244 234.495 258.205 234.617C258.166 234.739 258.09 234.845 257.987 234.921L254.925 237.146C254.82 237.221 254.741 237.327 254.7 237.45C254.66 237.572 254.659 237.704 254.698 237.828L255.894 241.416C255.932 241.537 255.931 241.668 255.891 241.789C255.851 241.91 255.775 242.016 255.672 242.091C255.569 242.166 255.445 242.207 255.317 242.208C255.19 242.209 255.065 242.171 254.961 242.097L251.899 239.873C251.795 239.797 251.669 239.756 251.54 239.756C251.411 239.756 251.286 239.797 251.182 239.873L248.12 242.097C248.015 242.171 247.891 242.209 247.763 242.208C247.636 242.207 247.512 242.166 247.409 242.091C247.306 242.016 247.229 241.91 247.189 241.789C247.15 241.668 247.149 241.537 247.187 241.416L248.383 237.828C248.425 237.706 248.427 237.574 248.388 237.451C248.35 237.328 248.272 237.221 248.168 237.146L245.106 234.921C245.003 234.845 244.927 234.739 244.888 234.617C244.849 234.495 244.849 234.364 244.889 234.242C244.928 234.12 245.005 234.014 245.109 233.938C245.212 233.863 245.337 233.822 245.465 233.821H249.256C249.385 233.821 249.511 233.78 249.616 233.705C249.721 233.63 249.8 233.524 249.842 233.402L251.038 229.814C251.088 229.711 251.166 229.623 251.263 229.562C251.36 229.5 251.473 229.468 251.588 229.468C251.703 229.468 251.816 229.5 251.913 229.562C252.011 229.623 252.089 229.711 252.138 229.814V229.814Z" fill="#FBBE42"/>
<path d="M273.176 229.814L274.372 233.402C274.41 233.524 274.487 233.631 274.59 233.706C274.693 233.781 274.818 233.822 274.946 233.821H278.725C278.853 233.822 278.978 233.863 279.081 233.938C279.185 234.014 279.262 234.12 279.301 234.242C279.341 234.363 279.341 234.495 279.302 234.617C279.263 234.738 279.187 234.845 279.084 234.921L276.022 237.146C275.918 237.221 275.84 237.328 275.802 237.451C275.763 237.574 275.765 237.706 275.807 237.827L277.003 241.415C277.045 241.539 277.046 241.672 277.006 241.796C276.966 241.92 276.887 242.028 276.782 242.104C276.676 242.181 276.549 242.221 276.419 242.22C276.289 242.218 276.162 242.175 276.058 242.097L272.997 239.873C272.892 239.797 272.767 239.756 272.638 239.756C272.509 239.756 272.383 239.797 272.279 239.873L269.229 242.097C269.125 242.175 268.999 242.218 268.869 242.22C268.738 242.221 268.611 242.181 268.506 242.104C268.4 242.028 268.322 241.92 268.282 241.796C268.242 241.672 268.243 241.539 268.284 241.415L269.48 237.827C269.519 237.704 269.519 237.572 269.478 237.45C269.437 237.327 269.358 237.221 269.253 237.146L266.203 234.921C266.101 234.846 266.025 234.74 265.986 234.619C265.946 234.499 265.946 234.368 265.984 234.247C266.022 234.126 266.097 234.02 266.199 233.943C266.3 233.867 266.423 233.824 266.55 233.821H270.341C270.469 233.822 270.594 233.781 270.697 233.706C270.801 233.631 270.877 233.524 270.916 233.402L272.112 229.814C272.164 229.72 272.242 229.641 272.335 229.586C272.429 229.531 272.535 229.502 272.644 229.502C272.752 229.502 272.859 229.531 272.952 229.586C273.046 229.641 273.123 229.72 273.176 229.814V229.814Z" fill="#FBBE42"/>
<path d="M242.905 248.149H181.885V249.847H242.905V248.149Z" fill="#B1D7DD"/>
<path d="M242.905 220.246H181.885V223.44H242.905V220.246Z" fill="#0A4D7A"/>
<path d="M242.905 254.595H181.885V256.294H242.905V254.595Z" fill="#B1D7DD"/>
<path d="M209.776 260.587H181.885V262.286H209.776V260.587Z" fill="#B1D7DD"/>
<path d="M161.402 257.946C170.916 248.432 170.916 233.007 161.402 223.493C151.888 213.978 136.462 213.978 126.948 223.493C117.434 233.007 117.434 248.432 126.948 257.946C136.462 267.461 151.888 267.461 161.402 257.946Z" fill="#7BC7FF"/>
<path d="M92.1494 333.783C92.1494 333.783 133.471 299.17 140.731 311.406C147.991 323.641 137.298 363.264 137.298 363.264L92.1494 333.783Z" fill="#0A85E0"/>
<path d="M113.833 347.931L137.298 363.264C137.298 363.264 147.082 327.049 141.568 313.188C144.092 331.391 124.752 342.932 113.833 347.931Z" fill="#006CBC"/>
<path d="M113.319 330.087C113.319 330.087 138.901 350.622 140.994 358.014C144.367 369.974 124.334 368.67 115.675 368.67C107.016 368.67 51.916 367.139 51.916 367.139L52.4064 358.659L103.296 356.267C103.296 356.267 75.0586 352.057 76.1111 335.756C77.1636 319.455 113.319 330.087 113.319 330.087Z" fill="#379CF7"/>
<path d="M139.607 364.795C134.93 369.411 122.145 368.658 115.687 368.658C107.028 368.658 51.8682 367.139 51.8682 367.139L52.3824 358.647L103.26 356.255C103.26 356.255 123.592 366.015 139.212 364.867L139.607 364.795Z" fill="#0A85E0"/>
<path d="M52.1194 366.996C52.1194 366.996 49.8829 372.055 51.5931 375.368C53.3034 378.68 45.8643 376.276 44.6683 369.675C43.4723 363.073 44.0464 355.191 52.3586 358.731L52.1194 366.996Z" fill="#004CBA"/>
<path d="M80.7994 279.209C80.7994 279.209 99.3733 225.533 99.9354 225.772C101.883 226.529 103.881 227.149 105.915 227.626L98.261 286.541L80.7994 279.209Z" fill="#0A4D7A"/>
<path d="M99.9952 273.086C95.7734 271.088 90.4272 268.756 84.3037 269.139C81.7562 276.446 80.7994 279.209 80.7994 279.209L98.273 286.541L99.9952 273.086Z" fill="#083954"/>
<path d="M104.062 265.013C102.686 270.084 97.2444 269.139 97.2444 269.139V273.923H87.8678V267.405C92.7355 268.529 98.0338 265.013 95.6896 263.243C93.3455 261.473 92.8671 258.638 94.075 257.263C95.283 255.887 98.2371 256.904 98.2371 256.904C100.283 256.968 102.319 256.605 104.217 255.839C104.781 258.877 104.728 261.996 104.062 265.013V265.013Z" fill="#FFA683"/>
<path d="M98.2729 256.928C98.2729 256.928 95.3427 255.875 94.1348 257.275C92.9268 258.674 93.4052 261.568 95.7494 263.255C98.0935 264.941 92.7833 268.529 87.9036 267.405C83.0239 266.28 80.309 256.102 84.495 249.465C88.3342 243.389 101.825 240.746 104.552 247.073C107.279 253.4 107.422 256.677 98.2729 256.928Z" fill="#004CBA"/>
<path d="M97.2444 273.959V269.175C95.7444 268.988 94.2714 268.627 92.8551 268.098C93.6276 269.043 94.5534 269.852 95.5939 270.49V273.947L97.2444 273.959Z" fill="#E57C5C"/>
<path d="M99.756 274.054C99.756 274.054 84.208 268.684 79.8785 280.74C75.549 292.796 82.9402 321.811 75.0945 331.749C81.1441 334.577 87.7007 336.159 94.3741 336.402C101.048 336.644 107.702 335.542 113.941 333.161L115.639 332.515C115.639 332.515 110.221 295.558 109.958 296.85C109.743 297.926 128.269 303.835 131.964 301.813C135.66 299.792 158.013 274.557 158.013 274.557L150.49 273.444L130.278 286.72C130.278 286.72 104.851 274.377 99.756 274.054Z" fill="#0A4D7A"/>
<path d="M157.953 274.581C157.953 274.581 165.703 271.244 166.182 269.713H155.011C154.44 269.709 153.876 269.842 153.366 270.1C152.857 270.358 152.416 270.733 152.081 271.196L150.431 273.468L157.953 274.581Z" fill="#FFA683"/>
<path d="M115.579 332.539C115.579 332.539 110.795 300.079 110.006 297.065C110.152 297.185 110.308 297.293 110.472 297.388L109.898 296.874C109.898 296.874 98.0816 294.004 93.8717 289.028C93.8717 289.028 97.8903 297.257 103.057 299.17C107.662 300.869 106.023 325.757 109.575 334.596C111.022 334.201 112.469 333.735 113.881 333.197L115.579 332.539Z" fill="#083954"/>
<path d="M100.498 226.035C100.498 226.035 102.471 218.991 105.413 218.488V227.686L100.498 226.035Z" fill="#FFA683"/>
<path d="M170.93 276.411L169.363 262.346C169.221 261.22 168.835 260.139 168.232 259.179C167.629 258.218 166.823 257.401 165.871 256.784L160.991 253.591V253.71V253.603L156.973 252.048L152.87 250.457L149.486 249.154L147.991 248.568L144.259 250.481L140.54 248.568L139.224 249.082L136.031 250.278L131.701 251.952L127.539 253.567V253.639L122.755 256.748C121.803 257.365 120.997 258.182 120.394 259.143C119.791 260.103 119.405 261.184 119.263 262.31L117.696 276.411H127.587V288.107H160.872V276.411H170.93Z" fill="#FBBE42"/>
<path d="M144.403 223.87C141.766 223.87 139.237 224.917 137.371 226.78C135.505 228.644 134.455 231.172 134.452 233.809V238.593H154.342V233.809C154.342 231.173 153.294 228.645 151.431 226.781C149.567 224.917 147.039 223.87 144.403 223.87Z" fill="#0A4D7A"/>
<path d="M148.338 245.96V249.441C148.325 249.534 148.305 249.626 148.278 249.716C147.763 251.773 146.029 255.696 144.319 255.696C142.609 255.696 140.946 251.617 140.564 249.536C140.561 249.505 140.561 249.472 140.564 249.441V245.96H148.338Z" fill="#FFA683"/>
<path d="M148.338 245.267V248.376C147.141 249.02 145.803 249.357 144.445 249.357C143.086 249.357 141.748 249.02 140.552 248.376V245.267H148.338Z" fill="#E57C5C"/>
<path d="M139.224 238.593C139.224 238.12 139.084 237.657 138.821 237.264C138.558 236.871 138.185 236.564 137.747 236.383C137.31 236.202 136.829 236.155 136.365 236.247C135.901 236.339 135.475 236.567 135.141 236.902C134.806 237.236 134.578 237.662 134.486 238.126C134.394 238.59 134.441 239.071 134.622 239.508C134.803 239.946 135.11 240.319 135.503 240.582C135.896 240.845 136.359 240.985 136.832 240.985C137.466 240.985 138.075 240.733 138.523 240.284C138.972 239.836 139.224 239.227 139.224 238.593Z" fill="#FFA683"/>
<path d="M154.282 238.593C154.282 238.12 154.141 237.657 153.879 237.264C153.616 236.871 153.242 236.564 152.805 236.383C152.368 236.202 151.887 236.155 151.423 236.247C150.959 236.339 150.533 236.567 150.198 236.902C149.864 237.236 149.636 237.662 149.544 238.126C149.451 238.59 149.499 239.071 149.68 239.508C149.861 239.946 150.167 240.319 150.561 240.582C150.954 240.845 151.417 240.985 151.89 240.985C152.524 240.985 153.132 240.733 153.581 240.284C154.03 239.836 154.282 239.227 154.282 238.593Z" fill="#FFA683"/>
<path d="M152.38 234.503C150.914 233.747 149.565 232.785 148.373 231.644H140.552C139.918 233.414 136.641 234.503 136.641 234.503L136.569 238.414C136.678 240.999 137.548 243.496 139.069 245.59C139.695 246.426 140.507 247.105 141.441 247.573C142.375 248.041 143.406 248.285 144.451 248.285C145.495 248.285 146.526 248.041 147.46 247.573C148.394 247.105 149.207 246.426 149.833 245.59C151.349 243.494 152.215 240.998 152.32 238.414L152.38 234.503Z" fill="#FFA683"/>
<path d="M369.322 283.335H197.015C192.199 283.335 188.296 287.239 188.296 292.054V334.704C188.296 339.519 192.199 343.422 197.015 343.422H369.322C374.138 343.422 378.041 339.519 378.041 334.704V292.054C378.041 287.239 374.138 283.335 369.322 283.335Z" fill="white"/>
<path d="M272.123 303.38L273.319 306.968C273.358 307.09 273.434 307.197 273.538 307.272C273.641 307.347 273.766 307.388 273.894 307.387H277.673C277.801 307.388 277.925 307.429 278.029 307.504C278.132 307.58 278.209 307.686 278.249 307.808C278.289 307.929 278.289 308.061 278.25 308.183C278.211 308.305 278.135 308.411 278.032 308.487L274.97 310.712C274.868 310.789 274.793 310.897 274.755 311.019C274.716 311.141 274.716 311.272 274.755 311.394L275.951 314.982C275.992 315.105 275.993 315.238 275.953 315.362C275.913 315.486 275.835 315.594 275.729 315.67C275.624 315.747 275.497 315.787 275.366 315.786C275.236 315.784 275.11 315.742 275.006 315.663L271.944 313.439C271.84 313.363 271.714 313.322 271.585 313.322C271.456 313.322 271.331 313.363 271.226 313.439L268.177 315.663C268.073 315.742 267.946 315.784 267.816 315.786C267.686 315.787 267.559 315.747 267.453 315.67C267.348 315.594 267.269 315.486 267.229 315.362C267.189 315.238 267.19 315.105 267.232 314.982L268.428 311.394C268.467 311.27 268.466 311.138 268.425 311.016C268.384 310.893 268.306 310.787 268.201 310.712L265.151 308.487C265.048 308.411 264.971 308.305 264.933 308.183C264.894 308.061 264.894 307.929 264.934 307.808C264.973 307.686 265.05 307.58 265.154 307.504C265.257 307.429 265.382 307.388 265.51 307.387H269.289C269.417 307.388 269.542 307.347 269.645 307.272C269.748 307.197 269.825 307.09 269.863 306.968L271.059 303.38C271.112 303.286 271.189 303.207 271.283 303.152C271.376 303.097 271.483 303.068 271.591 303.068C271.7 303.068 271.806 303.097 271.9 303.152C271.993 303.207 272.07 303.286 272.123 303.38Z" fill="#FBBE42"/>
<path d="M293.101 303.38L294.297 306.968C294.34 307.09 294.419 307.196 294.524 307.271C294.629 307.346 294.754 307.387 294.883 307.387H298.663C298.791 307.388 298.915 307.429 299.019 307.504C299.122 307.58 299.199 307.686 299.239 307.808C299.278 307.93 299.279 308.061 299.24 308.183C299.201 308.305 299.124 308.411 299.022 308.487L295.9 310.724C295.796 310.8 295.719 310.906 295.678 311.028C295.637 311.151 295.635 311.282 295.673 311.406L296.869 314.994C296.907 315.115 296.906 315.246 296.866 315.367C296.826 315.488 296.75 315.594 296.647 315.669C296.544 315.744 296.42 315.785 296.292 315.786C296.165 315.787 296.04 315.749 295.936 315.675L292.874 313.451C292.77 313.375 292.644 313.334 292.515 313.334C292.386 313.334 292.261 313.375 292.157 313.451L289.095 315.675C288.99 315.749 288.866 315.787 288.738 315.786C288.611 315.785 288.487 315.744 288.384 315.669C288.281 315.594 288.204 315.488 288.164 315.367C288.124 315.246 288.124 315.115 288.162 314.994L289.358 311.406C289.395 311.282 289.393 311.151 289.353 311.028C289.312 310.906 289.234 310.8 289.131 310.724L286.069 308.499C285.966 308.423 285.89 308.317 285.851 308.195C285.812 308.073 285.812 307.941 285.852 307.82C285.891 307.698 285.968 307.592 286.072 307.516C286.175 307.441 286.3 307.4 286.428 307.399H290.207C290.336 307.399 290.462 307.358 290.567 307.283C290.672 307.208 290.751 307.102 290.793 306.98L291.989 303.392C292.032 303.28 292.108 303.184 292.206 303.115C292.304 303.047 292.421 303.009 292.541 303.008C292.661 303.007 292.779 303.042 292.879 303.108C292.978 303.174 293.056 303.269 293.101 303.38Z" fill="#FBBE42"/>
<path d="M314.091 303.38L315.287 306.968C315.326 307.09 315.402 307.197 315.505 307.272C315.609 307.347 315.733 307.388 315.861 307.387H319.653C319.78 307.39 319.902 307.433 320.004 307.509C320.105 307.586 320.181 307.692 320.219 307.813C320.257 307.934 320.256 308.065 320.217 308.185C320.178 308.306 320.102 308.412 319.999 308.487L316.95 310.712C316.845 310.787 316.766 310.893 316.725 311.016C316.684 311.138 316.683 311.27 316.722 311.394L317.918 314.982C317.96 315.105 317.961 315.238 317.921 315.362C317.881 315.486 317.803 315.594 317.697 315.67C317.592 315.747 317.464 315.787 317.334 315.786C317.204 315.784 317.078 315.742 316.974 315.663L313.84 313.463C313.736 313.387 313.61 313.346 313.481 313.346C313.352 313.346 313.227 313.387 313.122 313.463L310.061 315.687C309.957 315.765 309.83 315.808 309.7 315.81C309.57 315.811 309.443 315.771 309.337 315.694C309.232 315.618 309.153 315.51 309.113 315.386C309.074 315.262 309.074 315.129 309.116 315.005L310.312 311.417C310.354 311.296 310.356 311.164 310.317 311.041C310.279 310.918 310.201 310.811 310.097 310.736L307.035 308.511C306.932 308.435 306.856 308.328 306.817 308.206C306.778 308.085 306.778 307.953 306.818 307.832C306.857 307.71 306.934 307.604 307.038 307.528C307.141 307.453 307.266 307.412 307.394 307.411H311.173C311.301 307.412 311.426 307.371 311.529 307.296C311.632 307.221 311.709 307.114 311.747 306.992L312.943 303.404C312.983 303.285 313.059 303.181 313.16 303.107C313.261 303.032 313.383 302.991 313.509 302.988C313.634 302.986 313.758 303.022 313.862 303.092C313.966 303.162 314.046 303.263 314.091 303.38V303.38Z" fill="#B1D7DD"/>
<path d="M313.41 302.986C313.301 303.001 313.199 303.046 313.115 303.116C313.031 303.186 312.967 303.277 312.931 303.38L311.735 306.968C311.697 307.09 311.62 307.197 311.517 307.272C311.414 307.347 311.289 307.388 311.161 307.387H307.382C307.254 307.388 307.129 307.429 307.026 307.504C306.922 307.58 306.845 307.686 306.806 307.808C306.766 307.929 306.766 308.061 306.805 308.183C306.844 308.304 306.92 308.411 307.023 308.487L310.085 310.712C310.189 310.787 310.267 310.894 310.305 311.017C310.344 311.14 310.342 311.272 310.3 311.393L309.104 314.981C309.062 315.105 309.062 315.238 309.101 315.362C309.141 315.486 309.22 315.594 309.325 315.67C309.431 315.747 309.558 315.787 309.688 315.786C309.818 315.784 309.945 315.741 310.049 315.663L313.111 313.439C313.185 313.388 313.272 313.359 313.362 313.355L313.41 302.986Z" fill="#FBBE42"/>
<path d="M335.081 303.38L336.277 306.968C336.319 307.09 336.398 307.196 336.503 307.271C336.608 307.346 336.734 307.387 336.863 307.387H340.642C340.77 307.388 340.895 307.429 340.998 307.504C341.102 307.58 341.179 307.686 341.218 307.808C341.258 307.929 341.258 308.061 341.219 308.183C341.18 308.304 341.104 308.411 341.001 308.487L337.939 310.712C337.835 310.787 337.757 310.894 337.719 311.017C337.68 311.14 337.682 311.272 337.724 311.394L338.92 314.982C338.958 315.103 338.958 315.234 338.918 315.355C338.878 315.476 338.801 315.582 338.698 315.657C338.595 315.732 338.471 315.773 338.344 315.774C338.216 315.775 338.092 315.737 337.987 315.663L334.926 313.439C334.821 313.363 334.696 313.322 334.567 313.322C334.438 313.322 334.312 313.363 334.208 313.439L331.146 315.663C331.042 315.737 330.917 315.775 330.79 315.774C330.662 315.773 330.538 315.732 330.435 315.657C330.332 315.582 330.256 315.476 330.216 315.355C330.176 315.234 330.175 315.103 330.213 314.982L331.409 311.394C331.448 311.27 331.448 311.138 331.407 311.016C331.366 310.893 331.287 310.787 331.182 310.712L328.12 308.487C328.017 308.411 327.941 308.304 327.902 308.183C327.863 308.061 327.863 307.929 327.903 307.808C327.943 307.686 328.02 307.58 328.123 307.504C328.227 307.429 328.351 307.388 328.479 307.387H332.27C332.398 307.388 332.523 307.347 332.626 307.272C332.73 307.197 332.806 307.09 332.844 306.968L334.04 303.38C334.095 303.291 334.171 303.218 334.263 303.167C334.354 303.116 334.456 303.089 334.561 303.089C334.665 303.089 334.768 303.116 334.859 303.167C334.95 303.218 335.026 303.291 335.081 303.38V303.38Z" fill="#B1D7DD"/>
<path d="M356.059 303.38L357.255 306.968C357.295 307.091 357.374 307.198 357.48 307.273C357.585 307.349 357.711 307.388 357.841 307.387H361.62C361.748 307.388 361.873 307.429 361.976 307.504C362.08 307.58 362.157 307.686 362.196 307.808C362.236 307.93 362.236 308.061 362.197 308.183C362.158 308.305 362.082 308.411 361.979 308.487L358.917 310.712C358.814 310.788 358.736 310.894 358.695 311.017C358.655 311.139 358.653 311.27 358.69 311.394L359.886 314.982C359.924 315.103 359.923 315.234 359.884 315.355C359.844 315.476 359.767 315.582 359.664 315.657C359.561 315.732 359.437 315.773 359.31 315.774C359.182 315.776 359.057 315.737 358.953 315.663L355.891 313.439C355.787 313.363 355.662 313.322 355.533 313.322C355.404 313.322 355.278 313.363 355.174 313.439L352.112 315.687C352.008 315.761 351.883 315.799 351.756 315.798C351.628 315.797 351.504 315.756 351.401 315.681C351.298 315.606 351.221 315.5 351.182 315.379C351.142 315.258 351.141 315.127 351.179 315.005L352.375 311.417C352.418 311.296 352.419 311.164 352.381 311.041C352.342 310.918 352.264 310.811 352.16 310.736L349.098 308.511C348.995 308.435 348.919 308.328 348.88 308.207C348.841 308.085 348.841 307.953 348.881 307.832C348.921 307.71 348.998 307.604 349.101 307.528C349.204 307.453 349.329 307.412 349.457 307.411H353.236C353.365 307.411 353.491 307.37 353.596 307.295C353.701 307.22 353.78 307.114 353.822 306.992L355.018 303.404C355.071 303.314 355.146 303.239 355.235 303.185C355.325 303.132 355.427 303.103 355.532 303.101C355.636 303.098 355.74 303.123 355.832 303.172C355.924 303.221 356.002 303.293 356.059 303.38Z" fill="#B1D7DD"/>
<path d="M325.836 321.715H264.816V323.413H325.836V321.715Z" fill="#B1D7DD"/>
<path d="M325.836 293.812H264.816V297.006H325.836V293.812Z" fill="#FF5A5A"/>
<path d="M325.836 328.161H264.816V329.86H325.836V328.161Z" fill="#B1D7DD"/>
<path d="M292.707 334.153H264.816V335.852H292.707V334.153Z" fill="#B1D7DD"/>
<path d="M247.891 326.314C254.917 314.839 251.311 299.841 239.836 292.815C228.361 285.789 213.363 289.395 206.337 300.87C199.311 312.345 202.917 327.343 214.392 334.369C225.867 341.395 240.865 337.789 247.891 326.314Z" fill="#7BC7FF"/>
<path d="M217.299 308.392C217.299 308.392 215.911 302.866 218.064 300.438C220.217 298.01 224.487 295.427 227.967 296.754C228.755 296.287 229.644 296.018 230.558 295.97C231.473 295.922 232.385 296.097 233.218 296.479C235.717 297.867 239.329 299.075 239.712 297.412C239.712 297.412 239.915 303.775 237.069 304.78L235.873 309.671H217.646L217.299 308.392Z" fill="#0A4D7A"/>
<path d="M246.278 330.003C243.192 324.693 230.12 321.751 230.12 321.751L226.687 323.078L223.255 321.751C223.255 321.751 210.183 324.693 207.097 330.003L203.306 358.612L209.286 358.516L212.802 334.596C212.802 334.596 215.026 342.31 214.907 346.819C214.636 350.833 214.124 354.826 213.376 358.779H239.927C239.179 354.826 238.668 350.833 238.396 346.819C238.277 342.31 240.501 334.596 240.501 334.596L244.017 358.516L249.997 358.612L246.278 330.003Z" fill="#0A4D7A"/>
<path d="M230.73 316.799V321.751C230.73 321.751 230.036 325.626 226.771 326.284C225.761 325.967 224.859 325.375 224.166 324.574C223.474 323.774 223.017 322.796 222.848 321.751V316.799H230.73Z" fill="#FFA683"/>
<path d="M230.73 316.094V319.251C229.517 319.898 228.164 320.237 226.789 320.237C225.414 320.237 224.061 319.898 222.848 319.251V316.094H230.73Z" fill="#E57C5C"/>
<path d="M234.784 306.119C232.492 305.955 230.35 304.914 228.804 303.213C226.592 305.126 218.854 306.119 218.854 306.119V309.169C218.96 311.781 219.838 314.303 221.377 316.417C222.01 317.272 222.835 317.968 223.785 318.447C224.735 318.926 225.785 319.176 226.849 319.176C227.913 319.176 228.963 318.926 229.913 318.447C230.863 317.968 231.688 317.272 232.321 316.417C233.86 314.303 234.738 311.781 234.844 309.169L234.784 306.119Z" fill="#FFA683"/>
<path d="M220.875 309.54C220.875 309.973 220.747 310.396 220.506 310.756C220.266 311.116 219.924 311.396 219.524 311.562C219.124 311.727 218.684 311.771 218.259 311.686C217.835 311.602 217.445 311.393 217.139 311.087C216.833 310.781 216.624 310.391 216.54 309.967C216.455 309.542 216.499 309.102 216.664 308.702C216.83 308.302 217.11 307.96 217.47 307.72C217.83 307.479 218.253 307.351 218.686 307.351C219.267 307.351 219.823 307.582 220.234 307.992C220.644 308.403 220.875 308.959 220.875 309.54V309.54Z" fill="#FFA683"/>
<path d="M237.009 309.54C237.009 309.973 236.881 310.396 236.64 310.756C236.4 311.116 236.058 311.396 235.658 311.562C235.258 311.727 234.818 311.771 234.393 311.686C233.969 311.602 233.579 311.393 233.273 311.087C232.967 310.781 232.758 310.391 232.674 309.967C232.589 309.542 232.633 309.102 232.798 308.702C232.964 308.302 233.244 307.96 233.604 307.72C233.964 307.479 234.387 307.351 234.82 307.351C235.401 307.351 235.957 307.582 236.368 307.992C236.778 308.403 237.009 308.959 237.009 309.54V309.54Z" fill="#FFA683"/>
<path d="M337.33 71.9782C357.046 71.9782 373.03 55.9945 373.03 36.2776C373.03 16.5607 357.046 0.577026 337.33 0.577026C317.613 0.577026 301.629 16.5607 301.629 36.2776C301.629 55.9945 317.613 71.9782 337.33 71.9782Z" fill="#FBBE42"/>
<path d="M337.33 0.577016H336.684C342.983 4.30709 347.884 10.002 350.633 16.7871C353.383 23.5723 353.828 31.0723 351.902 38.1354C349.976 45.1985 345.785 51.434 339.972 55.8841C334.159 60.3343 327.045 62.7531 319.724 62.769C317.34 62.7705 314.962 62.5139 312.632 62.0036C316.848 66.044 321.99 68.9888 327.608 70.5797C333.227 72.1707 339.149 72.3592 344.858 71.1289C350.566 69.8985 355.885 67.2868 360.349 63.5227C364.813 59.7586 368.286 54.9569 370.462 49.5386C372.639 44.1203 373.454 38.2508 372.835 32.4445C372.215 26.6382 370.182 21.0724 366.911 16.2349C363.641 11.3975 359.234 7.43601 354.076 4.69781C348.919 1.95961 343.169 0.52824 337.33 0.529175V0.577016Z" fill="#F9A643"/>
<path d="M86.0857 149.24C93.5607 149.24 93.9554 138.105 86.4923 137.639H86.289V137.495C86.3039 134.988 85.6621 132.521 84.4272 130.34C83.1924 128.158 81.4078 126.338 79.2509 125.061C77.094 123.783 74.6402 123.093 72.1337 123.059C69.6271 123.025 67.1553 123.647 64.9643 124.865C63.3911 121.927 60.8811 119.598 57.833 118.25C54.785 116.901 51.3737 116.61 48.1411 117.422C44.9085 118.235 42.0401 120.104 39.9915 122.733C37.9429 125.362 36.8317 128.601 36.8344 131.934C36.8106 132.372 36.8106 132.811 36.8344 133.249C33.2915 132.228 29.5156 132.357 26.0509 133.619C22.5861 134.88 19.6112 137.209 17.5549 140.27C16.9803 141.146 16.6536 142.161 16.6097 143.208C16.5658 144.255 16.8062 145.294 17.3054 146.215C17.8046 147.136 18.5439 147.905 19.4449 148.44C20.3459 148.974 21.3749 149.255 22.4226 149.252L86.0857 149.24Z" fill="#7BC7FF"/>
<path d="M315.766 58.284C325.561 58.284 326.075 43.7047 316.304 43.0709H316.029V42.8915C316.029 39.6147 315.175 36.3943 313.553 33.5474C311.931 30.7004 309.595 28.3249 306.776 26.6547C303.957 24.9844 300.751 24.0769 297.475 24.0216C294.198 23.9662 290.964 24.7648 288.09 26.3388C286.029 22.4891 282.74 19.4385 278.747 17.6716C274.753 15.9047 270.284 15.5227 266.048 16.5864C261.813 17.65 258.054 20.0983 255.369 23.5424C252.685 26.9865 251.227 31.2289 251.229 35.5959C251.229 36.1779 251.253 36.752 251.301 37.3181C246.658 35.987 241.712 36.1612 237.174 37.8157C232.636 39.4703 228.739 42.52 226.042 46.5273C225.287 47.6745 224.857 49.0049 224.799 50.3769C224.74 51.7489 225.054 53.1111 225.708 54.3186C226.363 55.5261 227.332 56.5336 228.513 57.234C229.694 57.9344 231.043 58.3014 232.416 58.2959L315.766 58.284Z" fill="#7BC7FF"/>
<path d="M433.643 92.657C424.637 92.657 424.171 79.2618 433.153 78.6878H433.404V78.5203C433.404 75.5099 434.188 72.5514 435.678 69.9358C437.168 67.3201 439.314 65.1375 441.904 63.6025C444.493 62.0675 447.438 61.2331 450.448 61.1813C453.458 61.1296 456.429 61.8622 459.07 63.3072C460.968 59.7713 463.992 56.9704 467.662 55.3487C471.333 53.727 475.44 53.3775 479.331 54.3556C483.223 55.3337 486.677 57.5834 489.145 60.7477C491.612 63.9121 492.953 67.8099 492.953 71.8227C492.953 72.3569 492.929 72.8832 492.881 73.4014C497.149 72.178 501.695 72.3385 505.866 73.8598C510.036 75.3812 513.618 78.1852 516.096 81.8691C516.774 82.9232 517.156 84.1404 517.202 85.393C517.248 86.6456 516.956 87.8875 516.356 88.9883C515.757 90.0892 514.872 91.0085 513.795 91.6498C512.718 92.2911 511.489 92.6307 510.235 92.6331L433.643 92.657Z" fill="#7BC7FF"/>
<path d="M465.349 343.47L467.119 342.884C467.383 339.822 466.067 334.668 459.118 326.714C446.261 311.991 435.198 291.026 438.033 282.845C438.033 282.845 425.451 301.766 433.942 314.264C441.896 325.985 463.065 328.508 465.349 343.47Z" fill="#379CF7"/>
<path d="M466.079 343.231L467.119 342.884C467.382 339.822 466.067 334.668 459.118 326.714C446.261 311.991 435.198 291.026 438.033 282.845C438.033 282.845 431.371 300.235 440.006 311.884C448.641 323.533 463.735 325.769 466.079 343.231Z" fill="#006CBC"/>
<path d="M470.516 330.888C469.975 333.412 469.173 335.873 468.124 338.232L468.949 338.363C472.717 333.292 478.9 323.234 480.263 310.484C482.273 291.851 484.976 268.517 484.976 268.517C484.976 268.517 465.995 284.172 470.253 305.928C472.346 316.775 471.796 324.992 470.516 330.888Z" fill="#379CF7"/>
<path d="M477.178 297.029C476.137 312.577 473.207 329.68 469.404 336.497C469.954 336.067 470.54 335.624 471.15 335.17C476.048 327.759 479.159 319.313 480.24 310.496C482.249 291.863 484.952 268.529 484.952 268.529C484.952 268.529 478.529 276.781 477.178 297.029Z" fill="#006CBC"/>
<path d="M473.901 338.148C472.604 339.648 471.153 341.007 469.571 342.202L470.074 342.597C477.221 339.371 483.404 334.338 488.014 327.994C496.266 316.189 506.719 301.479 506.719 301.479C506.719 301.479 488.133 305.067 482.954 321.237C481.132 327.436 478.05 333.194 473.901 338.148V338.148Z" fill="#379CF7"/>
<path d="M490.932 317.816C484.473 327.91 476.173 338.351 471.09 341.521L472.753 341.27C478.799 338.091 484.024 333.551 488.013 328.006C496.266 316.201 506.719 301.491 506.719 301.491C506.719 301.491 499.328 304.66 490.932 317.816Z" fill="#006CBC"/>
<path d="M466.784 337.55C467.98 340.875 468.806 343.147 469.308 344.726L469.978 344.57C468.889 338.746 467 328.676 465.194 322.074C462.575 312.338 464.608 307.614 462.503 290.679C460.398 273.743 450.351 251.378 450.351 251.378C450.351 251.378 443.869 274.975 453.138 297.496C462.407 320.017 461.654 322.923 466.784 337.55Z" fill="#379CF7"/>
<path d="M469.32 344.714H469.452L469.523 342.322C468.411 336.342 466.761 327.898 465.194 322.086C462.575 312.35 464.608 307.626 462.503 290.691C460.398 273.755 450.351 251.39 450.351 251.39C450.351 251.39 453.509 285.022 458.113 299.732C462.395 313.319 468.459 340.695 469.32 344.714Z" fill="#006CBC"/>
<path d="M450.184 341.317L454.238 365.369C454.425 366.456 454.989 367.442 455.831 368.153C456.674 368.864 457.74 369.255 458.843 369.256H482.344C483.446 369.254 484.511 368.863 485.351 368.152C486.192 367.441 486.754 366.455 486.937 365.369L491.003 341.317C491.086 340.807 491.058 340.284 490.919 339.785C490.781 339.286 490.537 338.823 490.203 338.428C489.869 338.032 489.453 337.714 488.984 337.494C488.515 337.275 488.005 337.159 487.487 337.155H453.664C453.15 337.164 452.643 337.284 452.179 337.505C451.715 337.727 451.303 338.046 450.973 338.441C450.643 338.836 450.402 339.297 450.266 339.793C450.129 340.29 450.102 340.809 450.184 341.317V341.317Z" fill="white"/>
<path d="M490.956 340.097C490.912 339.873 490.848 339.653 490.764 339.44C490.681 339.246 490.585 339.059 490.477 338.878L490.406 338.782C490.305 338.627 490.193 338.479 490.071 338.339L489.915 338.196C489.801 338.086 489.681 337.982 489.556 337.885L489.281 337.717C489.177 337.642 489.064 337.578 488.946 337.526L488.516 337.383L488.241 337.287C487.989 337.234 487.733 337.206 487.475 337.203H453.664C453.187 337.203 452.715 337.298 452.275 337.483C451.834 337.668 451.436 337.938 451.102 338.279C450.767 338.62 450.505 339.024 450.329 339.468C450.153 339.911 450.067 340.386 450.076 340.863H480.263C480.275 341.03 480.275 341.198 480.263 341.365L476.197 365.417C476.016 366.504 475.455 367.491 474.614 368.203C473.773 368.914 472.706 369.305 471.604 369.304H482.309C483.41 369.302 484.475 368.911 485.315 368.2C486.156 367.488 486.718 366.503 486.901 365.417L490.968 341.365C491.042 340.945 491.038 340.516 490.956 340.097V340.097Z" fill="#CAEDFF"/>
<path d="M139.786 165.924H86.7196C85.814 165.922 84.9169 166.099 84.0797 166.445C83.2425 166.79 82.4816 167.298 81.8407 167.937C81.1997 168.577 80.6912 169.337 80.3443 170.174C79.9973 171.01 79.8187 171.907 79.8187 172.813V214.505L93.3216 202.27C94.4201 201.278 95.8477 200.728 97.3282 200.728H139.786C141.045 200.712 142.246 200.201 143.13 199.305C144.015 198.41 144.51 197.202 144.51 195.944V170.588C144.48 169.351 143.97 168.173 143.089 167.303C142.208 166.433 141.024 165.939 139.786 165.924V165.924Z" fill="#0A4D7A"/>
<path d="M121.607 176.556C121.06 176.001 120.409 175.56 119.69 175.259C118.972 174.958 118.2 174.803 117.421 174.803C116.642 174.803 115.87 174.958 115.152 175.259C114.433 175.56 113.781 176.001 113.235 176.556L112.458 177.334L111.68 176.556C110.57 175.446 109.064 174.823 107.494 174.823C105.924 174.823 104.418 175.446 103.308 176.556C102.198 177.667 101.574 179.172 101.574 180.742C101.574 182.313 102.198 183.818 103.308 184.928L104.086 185.706L112.458 194.018L120.83 185.706L121.607 184.928C122.162 184.382 122.603 183.73 122.905 183.012C123.206 182.293 123.361 181.522 123.361 180.742C123.361 179.963 123.206 179.192 122.905 178.473C122.603 177.755 122.162 177.103 121.607 176.556V176.556Z" fill="#FF5A5A"/>
<path d="M455.315 109.592H401.937C400.1 109.596 398.338 110.328 397.04 111.628C395.742 112.929 395.013 114.692 395.013 116.529V158.461L408.587 146.166C409.69 145.164 411.127 144.609 412.618 144.611H455.315C456.584 144.611 457.801 144.107 458.698 143.21C459.595 142.313 460.099 141.096 460.099 139.827V114.353C460.093 113.088 459.586 111.877 458.689 110.985C457.793 110.093 456.58 109.592 455.315 109.592V109.592Z" fill="#0A4D7A"/>
<path d="M442.697 128.633C443.164 128.581 443.594 128.354 443.9 127.997C444.205 127.641 444.364 127.182 444.345 126.712C444.325 126.243 444.128 125.799 443.793 125.469C443.458 125.14 443.011 124.949 442.542 124.937H438.954C438.766 124.925 438.579 124.925 438.391 124.937C437.453 125.023 436.506 124.975 435.581 124.794C434.014 124.447 435.868 122.533 434.887 119.017C433.906 115.501 430.474 115.704 430.641 117.342C430.809 118.981 430.988 122.904 430.079 124.136C429.425 124.977 428.61 125.681 427.682 126.207C426.754 126.732 425.732 127.069 424.673 127.198L424.602 136.514H428.261C429.664 137.813 431.445 138.63 433.344 138.847V138.847H440.317C440.539 138.848 440.76 138.806 440.966 138.722C441.172 138.638 441.359 138.514 441.517 138.357C441.675 138.2 441.8 138.014 441.886 137.808C441.971 137.603 442.015 137.383 442.015 137.16C442.015 136.906 441.958 136.654 441.848 136.425C441.739 136.195 441.579 135.993 441.381 135.833C441.8 135.792 442.193 135.611 442.495 135.318C442.797 135.025 442.99 134.638 443.043 134.22C443.096 133.803 443.005 133.38 442.786 133.021C442.566 132.662 442.231 132.388 441.836 132.245H442.099C442.343 132.246 442.585 132.199 442.81 132.107C443.036 132.014 443.241 131.878 443.413 131.705C443.586 131.533 443.722 131.328 443.815 131.102C443.908 130.877 443.954 130.635 443.953 130.391C443.952 130.004 443.83 129.627 443.605 129.312C443.38 128.996 443.063 128.759 442.697 128.633V128.633Z" fill="#379CF7"/>
<path d="M414.34 138.225L420.607 138.237L420.691 124.626L414.412 124.614L414.34 138.225Z" fill="#379CF7"/>
<path d="M333.43 261.807C331.411 258.273 330.704 254.139 331.432 250.134C332.161 246.129 334.279 242.509 337.413 239.912C340.548 237.315 344.498 235.907 348.569 235.935C352.639 235.964 356.57 237.428 359.667 240.069C362.765 242.71 364.832 246.359 365.504 250.374C366.176 254.388 365.411 258.512 363.342 262.018C361.273 265.524 358.034 268.187 354.195 269.54C350.356 270.893 346.162 270.848 342.353 269.414C341.261 268.999 340.062 268.956 338.944 269.294L332.211 271.327L333.861 265.886C334.071 265.212 334.142 264.503 334.068 263.802C333.994 263.101 333.777 262.422 333.43 261.807Z" fill="#0A4D7A"/>
<path d="M348.07 243.903L346.299 249.381C346.246 249.529 346.149 249.658 346.021 249.75C345.893 249.842 345.74 249.892 345.582 249.895H339.829C339.669 249.891 339.512 249.938 339.381 250.03C339.25 250.122 339.153 250.254 339.103 250.406C339.053 250.558 339.054 250.722 339.105 250.873C339.156 251.025 339.255 251.156 339.387 251.247L344.039 254.631C344.168 254.723 344.265 254.854 344.314 255.005C344.364 255.155 344.364 255.318 344.314 255.469L342.544 260.946C342.485 261.103 342.48 261.275 342.529 261.434C342.579 261.594 342.68 261.733 342.817 261.829C342.954 261.925 343.119 261.973 343.286 261.964C343.453 261.956 343.613 261.892 343.74 261.783L348.392 258.399C348.521 258.305 348.676 258.255 348.835 258.255C348.994 258.255 349.149 258.305 349.278 258.399L353.93 261.783C354.057 261.892 354.216 261.956 354.384 261.964C354.551 261.973 354.716 261.925 354.853 261.829C354.99 261.733 355.091 261.594 355.141 261.434C355.19 261.275 355.185 261.103 355.126 260.946L353.308 255.469C353.255 255.319 353.252 255.157 353.3 255.006C353.347 254.855 353.442 254.723 353.571 254.631L358.236 251.247C358.367 251.156 358.466 251.025 358.517 250.873C358.568 250.722 358.569 250.558 358.519 250.406C358.469 250.254 358.372 250.122 358.241 250.03C358.11 249.938 357.953 249.891 357.793 249.895H351.992C351.834 249.896 351.679 249.846 351.55 249.754C351.422 249.662 351.325 249.531 351.275 249.381L349.493 243.903C349.448 243.749 349.354 243.614 349.226 243.518C349.097 243.422 348.941 243.37 348.781 243.37C348.621 243.37 348.465 243.422 348.337 243.518C348.208 243.614 348.115 243.749 348.07 243.903V243.903Z" fill="#FBBE42"/>
</svg>
