<svg width="565" height="235" viewBox="0 0 565 235" fill="none" xmlns="http://www.w3.org/2000/svg">
<g clip-path="url(#clip0_109_1244)">
<path d="M554 235.002L450.079 234.745L402.539 234.628L392.338 234.603L355.324 234.513L310.214 234.401L271.11 234.307H268.894L258.58 234.282L168.1 234.06L122.678 233.946H118.393L93.5033 233.885L28.6413 233.726C28.6413 233.726 -51.8107 81.8855 56.9477 25.6672C197.061 -46.767 296.977 57.5635 350.647 53.6142C429.583 47.7995 584.054 3.78241 554 235.002Z" fill="#CC00FF" fill-opacity="0.21"/>
<path d="M388.443 112.398C388.443 112.398 415.151 71.7339 426.586 77.0554C438.021 82.3769 388.443 112.398 388.443 112.398Z" fill="#7226D2"/>
<path d="M387.436 119.251C387.436 119.251 444.692 75.7101 463.386 87.2666C482.081 98.823 448.951 104.615 436.44 105.76C423.93 106.906 387.436 119.251 387.436 119.251Z" fill="#7226D2"/>
<path d="M383.102 112.891C383.102 112.891 383.025 111.214 382.88 108.767C382.601 103.995 382.07 96.2936 381.373 92.3749C380.318 86.4547 384.056 81.2003 390.633 85.9384C397.21 90.6766 384.713 110.821 384.713 110.821L383.102 112.891Z" fill="#7226D2"/>
<path d="M190.046 233.966L163.953 233.895C163.137 233.772 162.307 233.772 161.491 233.895L147.194 233.856C142.098 230.085 141.313 218.631 141.313 218.631C145.597 221.665 155.012 221.834 155.879 220.302C156.745 218.771 144.028 214.796 142.213 213.66C140.398 212.524 138.241 207.458 142.966 200.287C147.691 193.115 160.203 199.924 160.203 199.924C160.203 199.924 164.722 216.654 167.246 217.842C169.769 219.03 166.183 202.787 166.183 202.787C171.444 203.962 182.389 214.436 182.389 214.436C182.389 214.436 176.286 230.237 179.025 230.769C181.764 231.3 183.713 216.502 183.713 216.502C188.163 219.592 190.881 226.835 190.881 226.835C191.582 229.738 191.118 232.085 190.046 233.966Z" fill="#7226D2"/>
<path d="M216.656 111.681C224.265 101.229 242.595 112.346 242.595 112.346C242.595 112.346 248.21 137.81 251.921 139.773C255.631 141.737 251.384 117.065 251.384 117.065C259.207 119.199 274.923 135.713 274.923 135.713C274.923 135.713 264.635 159.039 268.715 160.031C272.796 161.023 276.768 138.921 276.768 138.921C283.239 143.874 286.815 154.955 286.815 154.955C290.06 172.021 267.915 175.297 267.915 175.297C267.915 175.297 264.525 183.458 266.027 194.871C266.027 194.871 266.514 197.055 266.554 200.471L264.562 199.717C264.602 199.122 264.62 198.54 264.61 197.97V197.945C264.591 197.586 264.562 197.076 264.52 196.452C264.364 195.034 264.287 194.002 264.269 193.269C263.867 188.855 263.093 182.998 261.731 181.317C262.018 181.101 262.277 180.848 262.501 180.566L261.731 181.317C255.545 187.306 238.042 182.059 229.288 176.519C220.535 170.979 225.691 169.877 232.454 167.482C239.218 165.087 249.495 170.288 253.308 169.785C257.121 169.282 253.143 165.834 246.63 163.921C240.116 162.007 234.543 167.118 223.947 164.212C213.352 161.307 212.874 139.178 212.874 139.178C219.101 144.039 233.241 144.955 234.654 142.711C236.067 140.468 217.228 133.606 214.585 131.773C211.943 129.94 209.05 122.137 216.656 111.681Z" fill="#7226D2"/>
<path d="M267.37 220.841C267.37 220.841 264.61 230.488 265.141 234.236L254.694 234.207C254.475 232.096 254.988 229.794 256.753 227.439C256.753 227.439 262.094 221.904 267.37 220.841Z" fill="#7226D2"/>
<path d="M306.998 234.346L267.385 234.242C268.954 230.264 269.393 219.477 269.393 219.477C269.393 219.477 283.505 214.232 288.761 215.23C288.761 215.23 279.074 228.621 281.832 228.529C284.59 228.437 295.332 214.973 295.332 214.973C295.332 214.973 309.425 213.681 310.895 222.073C312.225 229.608 309.159 233.413 306.998 234.346Z" fill="#7226D2"/>
<path d="M390.188 234.566L352.693 234.466C355.124 233.43 358.296 232.455 361.703 231.294C370.235 228.387 381.862 232.388 390.188 234.566Z" fill="#7226D2"/>
<path d="M409.241 234.722L375.301 234.632C376.009 233.133 371.678 230.066 365.41 228.141C357.43 225.693 350.505 231.893 337.523 228.166C324.541 224.439 324.283 197.228 324.283 197.228C331.864 203.296 349.235 204.631 351.003 201.893C352.772 199.154 329.718 190.442 326.496 188.147C323.274 185.851 319.835 176.264 329.341 163.529C338.847 150.794 361.218 164.729 361.218 164.729C361.218 164.729 367.742 196.116 372.273 198.584C376.804 201.052 371.95 170.662 371.95 170.662C381.539 173.399 400.61 193.932 400.61 193.932C400.61 193.932 387.617 222.455 392.619 223.733C397.621 225.011 402.831 197.893 402.831 197.893C410.723 204.078 414.944 217.75 414.944 217.75C416.333 225.572 413.431 230.995 409.241 234.722Z" fill="#7226D2"/>
<path d="M89.0842 147.359C89.0842 147.288 88.0487 145.154 88.3778 144.991C88.707 144.828 89.2978 144.851 89.3652 145.225C89.4326 145.6 89.0842 147.359 89.0842 147.359Z" fill="#FFB27D"/>
<path d="M73.627 120.827C73.627 120.827 67.5546 113.552 64.3404 118.205C64.3404 118.205 61.9422 119.197 61.0684 123.268C60.185 127.421 62.9527 130.577 64.3866 129.793C65.3046 129.294 65.9995 130.896 65.9995 130.896L73.627 120.827Z" fill="#233862"/>
<path d="M81.1564 159.538C85.9855 157.764 90.6336 149.53 90.6336 149.53L89.1112 148.467C87.8428 150.317 82.14 153.867 82.14 153.867C82.0091 152.309 81.8205 150.894 81.5856 149.614C80.0016 140.91 76.3794 138.33 75.4074 137.783C75.3286 137.737 75.247 137.695 75.163 137.659C75.163 137.659 75.163 137.724 75.163 137.851C75.1764 138.112 75.2072 138.641 75.2592 139.363C75.6461 144.748 77.1242 161.021 81.1564 159.538Z" fill="#FFB27D"/>
<path d="M65.0044 117.468C65.0044 117.468 64.196 114.212 59.3843 115.231C59.3843 115.231 61.6785 114.941 62.3079 115.824C62.3079 115.824 60.4891 114.993 59.3497 115.687C58.2103 116.382 58.0236 118.723 58.1949 119.435C58.3662 120.147 59.623 122.268 60.4564 122.268C61.2898 122.268 62.2771 121.539 62.2771 121.539L65.0044 117.468Z" fill="#233862"/>
<path d="M57.8273 168.427C60.2119 163.094 61.3533 161.585 61.3918 159.908C61.4245 158.582 60.7682 157.15 59.494 153.64C59.1975 152.817 58.9848 151.967 58.8589 151.101C57.8504 144.335 61.7748 137.02 64.2153 136.517C64.8928 136.338 66.0438 133.893 66.0303 129.956L66.3344 130.015L71.4714 131.03C71.4714 131.03 71.3559 132.642 71.352 134.16C71.352 135.425 71.4252 136.624 71.712 136.776C72.0815 136.808 72.3009 136.832 72.3009 136.832C72.3009 136.832 76.5833 142.761 76.9433 148.277C77.3032 153.792 73.5135 156.189 76.9721 167.212C80.502 178.473 56.5088 171.372 57.8273 168.427Z" fill="#FFB27D"/>
<path d="M71.4713 131.034C71.4713 131.034 71.3559 132.646 71.352 134.164C68.4765 134.083 66.9579 131.468 66.3344 130.019L71.4713 131.034Z" fill="#E8945B"/>
<path d="M65.8051 129.462C65.8051 129.462 64.298 127.089 63.9362 125.06C63.6783 123.611 64.4193 118.242 69.8315 119.015C70.9215 119.166 71.9634 119.56 72.8802 120.167C74.0562 120.957 75.7519 122.661 73.8541 127.352L73.3633 128.935L65.8051 129.462Z" fill="#233862"/>
<path d="M72.4318 132.471C72.4318 132.471 65.6318 132.583 65.6261 128.359C65.6203 124.135 64.7407 121.305 69.0905 121.055C73.4403 120.806 74.2872 122.416 74.624 123.826C74.9608 125.237 74.2044 132.333 72.4318 132.471Z" fill="#FFB27D"/>
<path d="M72.1797 120.951C72.1797 120.951 70.3185 125.906 67.468 126.649C64.6176 127.392 63.3704 126.618 63.3704 126.618C64.7776 125.382 65.7109 123.697 66.011 121.852C66.011 121.852 70.7746 118.589 72.1797 120.951Z" fill="#233862"/>
<path d="M71.7178 121.354C71.7178 121.354 73.1093 122.46 73.45 123.536C73.7907 124.613 73.9408 126.826 74.5894 126.751C74.5894 126.751 75.9925 123.383 74.4143 121.477C72.7417 119.456 71.7178 121.354 71.7178 121.354Z" fill="#233862"/>
<path d="M63.8477 219.596C64.8917 223.719 66.3269 227.734 68.134 231.586L70.3782 231.431C70.3782 231.431 69.2773 226.215 69.3408 219.166C69.3851 214.238 69.9971 208.419 71.9488 202.854C78.6602 183.746 77.5746 169.847 77.5746 169.847L64.966 171.311L64.379 171.38C64.3251 177.158 64.1865 185.005 64.0441 191.146C63.9286 196.663 63.8285 200.795 63.8285 200.795C61.3918 205.998 62.2714 213.351 63.8477 219.596Z" fill="#163560"/>
<path d="M48.991 174.092L51.0331 174.702C51.0331 174.702 57.7695 163.56 58.3796 160.66C58.5721 159.716 59.0706 157.828 59.6422 155.711C60.824 151.33 62.3502 145.968 62.3502 145.968L62.8526 143.796L64.5675 136.394C64.5675 136.394 61.284 136.728 59.3708 137.528C58.7337 137.793 58.2487 138.104 58.0793 138.488C56.6705 141.579 55.2616 149.384 54.2723 154.951C53.7199 158.054 53.2984 160.463 53.079 160.973C52.4554 162.389 50.5808 170.225 48.991 174.092Z" fill="#FFB27D"/>
<path d="M71.9775 121.521C71.9775 121.521 70.6495 126.703 67.0446 128.372C67.0446 128.372 70.6495 125.185 70.9555 121.759C71.2615 118.334 71.9775 121.521 71.9775 121.521Z" fill="#233862"/>
<path d="M56.2239 172.276C56.1913 172.618 56.218 172.963 56.3029 173.295C56.5742 174.151 57.5096 174.539 59.7673 174.307C61.1492 174.163 61.7651 171.854 62.0403 169.893C62.8692 172.707 64.0337 174.284 65.5337 174.623C67.724 175.111 78.7774 176.45 79.5011 171.211C80.296 165.454 77.9133 155.247 77.7824 149.745C78.077 148.062 78.211 146.356 78.1827 144.648C78.0903 140.729 76.9374 138.532 76.0502 137.649C75.8 137.457 75.5478 137.336 74.5393 137.163C74.0235 137.075 73.3094 136.972 72.2989 136.843C72.1649 136.825 72.03 136.814 71.8948 136.81C72.0872 137.144 74.5893 140.923 74.3969 141.896C74.1928 142.913 65.3142 141.998 64.7022 141.437C64.0901 140.877 63.122 136.594 63.122 136.594C63.122 136.594 59.9771 136.935 58.4393 138.05L58.4566 138.069C58.2912 138.178 58.153 138.323 58.0524 138.493C56.4106 141.61 54.7804 149.47 53.6256 155.076C56.4183 156.611 58.8588 156.154 59.6172 155.951C58.6144 162.401 56.3702 169.334 56.2239 172.276Z" fill="#F99746"/>
<path d="M89.1112 148.467C89.1112 148.257 88.936 145.227 89.4769 144.592C90.0177 143.957 91.1205 143.057 91.4689 143.078C91.8173 143.099 93.1742 144.905 92.7662 146.285C92.3581 147.665 90.6336 149.53 90.6336 149.53L89.1112 148.467Z" fill="#FFB27D"/>
<path d="M86.6212 144.763L89.7684 145.704C89.8732 145.735 89.9837 145.675 90.0152 145.571L91.8133 139.587C91.8448 139.483 91.7852 139.373 91.6803 139.341L88.5331 138.401C88.4283 138.37 88.3178 138.429 88.2863 138.534L86.4882 144.517C86.4567 144.622 86.5163 144.732 86.6212 144.763Z" fill="#F1A34F"/>
<path d="M87.4501 145.007L90.3044 145.859C90.3486 145.872 90.3948 145.876 90.4407 145.872C90.4865 145.867 90.531 145.854 90.5716 145.832C90.6122 145.81 90.6481 145.781 90.6772 145.745C90.7063 145.71 90.7281 145.669 90.7413 145.625L92.4524 139.931C92.4787 139.842 92.4688 139.747 92.4248 139.666C92.3808 139.584 92.3063 139.524 92.2176 139.497L89.3613 138.643C89.2725 138.617 89.1769 138.627 89.0954 138.671C89.0139 138.714 88.9531 138.789 88.9264 138.877L87.2153 144.571C87.1889 144.66 87.1988 144.755 87.2428 144.837C87.2868 144.919 87.3613 144.98 87.4501 145.007Z" fill="#D86713"/>
<path d="M56.6089 218.513C57.3345 226.234 60.5391 231.237 60.5391 231.237L61.6285 232.227C61.6285 232.227 62.6235 226.573 63.3414 220.1C62.5754 220.147 59.2419 220.267 56.6089 218.513Z" fill="#FFB27D"/>
<path d="M63.8477 219.596C64.8916 223.719 66.3269 227.734 68.1339 231.586L70.3781 231.431C70.3781 231.431 69.2772 226.215 69.3407 219.166C68.5805 219.548 67.0099 219.936 63.8477 219.596Z" fill="#D9935C"/>
<path d="M66.8425 233.461H68.2745C68.7556 233.386 69.1098 233.246 69.6006 233.183C70.3473 233.085 70.6919 233.39 70.7554 233.461L70.7689 233.474H76.8509C77.0048 233.257 76.8509 232.753 76.7142 232.38C76.6649 232.255 76.5871 232.143 76.4869 232.053C76.3867 231.963 76.2668 231.898 76.1368 231.862C75.492 231.67 74.2121 231.509 73.0573 230.459C72.4029 229.868 69.895 228.289 69.895 228.289H69.8816C69.8258 228.289 69.564 228.372 68.4226 229.331C67.8337 229.826 66.8271 228.631 66.8271 228.631C66.6889 228.757 66.5771 228.909 66.498 229.078C66.3556 229.366 66.3098 229.692 66.3671 230.009C66.4575 230.554 66.165 231.571 65.9321 232.256C65.7897 232.672 65.6703 232.968 65.6703 232.968C65.6703 232.968 65.6126 233.307 66.8425 233.461Z" fill="#233862"/>
<path d="M66.5057 229.074C66.8483 229.314 67.5701 229.786 68.0455 229.842C68.6922 229.926 69.9009 228.281 69.9009 228.281H69.8874C69.8316 228.281 69.5698 228.364 68.4285 229.324C67.8395 229.819 66.8329 228.623 66.8329 228.623C66.6951 228.75 66.5839 228.904 66.5057 229.074Z" fill="#466AA5"/>
<path d="M66.8425 233.461H68.2744C68.7556 233.386 69.1097 233.246 69.6005 233.183C70.3473 233.085 70.6918 233.39 70.7553 233.461L70.7688 233.474H76.8508C77.0048 233.258 76.8508 232.753 76.7142 232.381C76.5217 232.217 76.4775 233.092 76.3754 233.231C76.2734 233.369 71.4136 233.282 71.1326 233.079C70.8516 232.876 70.0105 232.519 68.8364 232.799C67.8144 233.043 66.3093 232.415 65.9378 232.252C65.7954 232.668 65.6761 232.964 65.6761 232.964C65.6761 232.964 65.6126 233.307 66.8425 233.461Z" fill="#466AA5"/>
<path d="M59.2034 233.461H60.6354C61.1146 233.386 61.4688 233.246 61.9596 233.183C62.7083 233.085 63.0509 233.39 63.1144 233.461L63.1278 233.474H69.2099C69.3619 233.257 69.2099 232.753 69.0713 232.38C69.0224 232.255 68.9447 232.143 68.8444 232.053C68.7441 231.963 68.6241 231.898 68.4939 231.862C67.8491 231.67 66.5788 231.509 65.4144 230.459C64.7581 229.868 62.2502 228.289 62.2502 228.289H62.2367C62.1809 228.289 61.9191 228.372 60.7778 229.331C60.1888 229.826 59.1842 228.631 59.1842 228.631C59.0457 228.757 58.9332 228.909 58.8531 229.078C58.7124 229.367 58.6672 229.692 58.7242 230.009C58.8146 230.554 58.5221 231.571 58.2873 232.256C58.1448 232.672 58.0255 232.968 58.0255 232.968C58.0255 232.968 57.9716 233.307 59.2034 233.461Z" fill="#233862"/>
<path d="M58.8666 229.074C59.2092 229.314 59.9309 229.786 60.4063 229.842C61.0511 229.926 62.2598 228.281 62.2598 228.281H62.2463C62.1905 228.281 61.9288 228.364 60.7874 229.324C60.1985 229.819 59.1938 228.623 59.1938 228.623C59.0563 228.751 58.9451 228.904 58.8666 229.074Z" fill="#466AA5"/>
<path d="M59.2034 233.461H60.6354C61.1146 233.386 61.4688 233.246 61.9596 233.183C62.7083 233.085 63.0509 233.39 63.1144 233.461L63.1279 233.474H69.2099C69.3619 233.258 69.2099 232.753 69.0713 232.381C68.8788 232.217 68.8346 233.092 68.7326 233.231C68.6306 233.369 63.7707 233.282 63.4897 233.079C63.2087 232.876 62.3676 232.519 61.1955 232.799C60.1735 233.043 58.6684 232.415 58.295 232.252C58.1526 232.668 58.0332 232.964 58.0332 232.964C58.0332 232.964 57.9716 233.307 59.2034 233.461Z" fill="#466AA5"/>
<path d="M75.673 137.461C75.673 137.461 79.9073 139.589 81.3258 148.177C81.3258 148.177 79.9381 150.077 77.9807 150.637C77.6971 150.719 77.4053 150.768 77.1107 150.785C74.7068 150.912 75.673 137.461 75.673 137.461Z" fill="#F99746"/>
<path d="M91.7923 143.312C91.7923 143.312 90.4816 141.301 90.1621 141.412C89.704 141.571 91.3496 144.124 91.3496 144.124C91.3496 144.124 90.1313 142.216 89.9407 142.36C89.5057 142.686 90.1967 143.895 90.8819 144.803C90.8819 144.803 89.6559 143.684 89.6154 143.886C89.4769 144.592 90.9627 146.304 90.9627 146.304L91.7923 144.412V143.312Z" fill="#FFB27D"/>
<path d="M92.7757 145.177C92.7122 144.932 92.3908 140.13 92.2561 140.585C92.1214 141.04 91.7922 143.56 91.7922 143.56L92.7757 145.177Z" fill="#FFB27D"/>
<path d="M71.1038 129.963C71.1038 129.963 71.2212 130.462 72.4626 130.385C72.4626 130.385 73.5058 130.32 73.4731 129.773C73.4731 129.773 72.4722 129.384 71.1038 129.963Z" fill="white"/>
<path d="M48.991 174.092C48.991 174.092 46.5294 175.723 46.1521 176.412C45.7749 177.101 44.8972 179.634 44.8972 179.634C44.8972 179.634 45.5247 179.728 46.1521 178.632C46.7796 177.536 48.8467 177.632 49.5396 177.037C50.2325 176.442 51.0331 174.702 51.0331 174.702L48.991 174.092Z" fill="#FFB27D"/>
<path d="M50.756 175.239C50.756 175.239 50.346 177.158 49.8437 177.734C49.3413 178.31 48.6523 179.235 48.3694 178.983C48.0864 178.732 48.6831 176.638 48.6831 176.638L50.756 175.239Z" fill="#FFB27D"/>
<path d="M46.489 176.63C46.4274 176.724 44.2621 179.018 44.2621 179.018C44.2621 179.018 45.0474 179.373 45.2668 179.018C45.4862 178.663 46.489 176.63 46.489 176.63Z" fill="#FFB27D"/>
<path d="M224.715 63.4991L244.788 66.6061L231.555 57.3755L230.841 60.2732L225.939 61.0965L224.715 63.4991Z" fill="#9EC3F6"/>
<path d="M244.788 66.6062L228.16 57.7997L211.771 56.7769L244.788 66.6062Z" fill="white"/>
<path d="M231.555 57.3756L244.788 66.6061L234.633 52.3074L231.555 57.3756Z" fill="white"/>
<path d="M518.588 120.955L502.151 123.293L513.058 115.881L513.613 118.257L517.61 118.979L518.588 120.955Z" fill="#9EC3F6"/>
<path d="M502.151 123.293L515.83 116.261L529.233 115.59L502.151 123.293Z" fill="white"/>
<path d="M513.058 115.881L502.151 123.293L510.595 111.707L513.058 115.881Z" fill="white"/>
<path d="M106.936 102.797H206.827V128.952H135.794V156.791H198.385V182.954H135.794V233.59H106.936V102.797Z" fill="#EF37FF"/>
<path d="M250.283 105.388H276.185L330.912 233.616H301.541L289.866 205.061H235.878L224.203 233.616H195.556L250.283 105.388ZM279.834 180.325L262.868 139.036L245.904 180.325H279.834Z" fill="#EF37FF"/>
<path d="M435.136 222.451C424.373 229.36 411.421 233.365 397.192 233.365C357.79 233.365 329.514 204.08 329.514 167.523C329.514 131.328 358.156 101.68 397.558 101.68C436.96 101.68 465.236 130.963 465.236 167.523C465.236 180.801 461.223 193.531 453.924 204.08L467.06 215.176L449.182 235.002L435.136 222.451ZM414.349 204.08C414.349 204.08 427.094 197.542 432.408 185.347C434.718 180.046 435.873 174.253 435.873 167.523C435.873 145.696 419.821 127.509 397.2 127.509C374.579 127.509 358.899 145.333 358.899 167.523C358.899 189.348 374.951 207.537 397.571 207.537C403.759 207.537 409.416 206.264 414.341 204.08H414.349Z" fill="#EF37FF"/>
<path d="M398.736 165.615C398.736 165.615 396.582 168.793 395.354 175.471C394.28 181.319 393.337 183.48 391.784 184.683C390.231 185.886 381.583 189.423 381.583 189.423L382.23 190.935C382.23 190.935 394.913 189.208 396.338 187.097C397.762 184.986 403.193 172.495 402.772 169.618C402.35 166.742 398.736 165.615 398.736 165.615Z" fill="#F4A269"/>
<path d="M363.518 232.388C363.389 233.62 361.641 233.58 359.668 233.288C357.696 232.997 358.204 233.515 355.434 233.469C352.665 233.423 351.729 232.476 351.606 232.075C351.498 231.722 352.843 231.467 354.285 231.164C354.466 231.127 354.649 231.087 354.83 231.047C356.456 230.688 357.563 229.512 358.976 228.51C360.323 227.55 362.111 224.004 362.111 224.004L365.908 223.95C365.908 223.95 364.211 227.13 363.568 228.504C363.183 229.312 363.308 230.323 363.437 231.101C363.522 231.524 363.549 231.957 363.518 232.388Z" fill="#FFB27D"/>
<path d="M359.665 233.282C357.69 232.993 358.2 233.509 355.43 233.463C352.661 233.417 351.725 232.471 351.602 232.07C351.494 231.716 352.84 231.461 354.281 231.158L354.299 231.185C355.544 231.827 356.941 232.122 358.34 232.039C360.209 231.91 362.134 231.193 363.424 231.095C363.512 231.518 363.543 231.951 363.516 232.382C363.389 233.614 361.641 233.574 359.665 233.282Z" fill="#C65447"/>
<path d="M404.673 191.461C404.673 191.461 379.78 191.582 375.131 194.506C370.483 197.431 359.907 227.55 359.907 227.55C359.907 227.55 360.731 228.631 361.753 228.771C363.395 228.997 364.326 228.358 364.326 228.358C364.326 228.358 378.502 214.299 379.256 210.461C380.01 206.623 379.833 203.196 381.544 203.104C383.256 203.011 404.677 205.7 407.913 200.01C411.148 194.32 408.475 188.688 408.475 188.688L404.673 191.461Z" fill="#EF7E29"/>
<path d="M376.742 231.812C376.715 233.05 374.972 233.156 372.978 233.031C370.984 232.906 371.538 233.378 368.766 233.563C365.995 233.747 364.99 232.883 364.834 232.496C364.696 232.152 366.016 231.786 367.427 231.363C367.606 231.312 367.783 231.256 367.96 231.202C369.552 230.707 370.555 229.45 371.877 228.324C373.132 227.26 374.623 223.572 374.623 223.572L378.403 223.202C378.403 223.202 376.979 226.514 376.454 227.936C376.146 228.773 376.348 229.771 376.542 230.534C376.666 230.949 376.733 231.379 376.742 231.812Z" fill="#FFB27D"/>
<path d="M372.978 233.033C370.986 232.908 371.538 233.38 368.766 233.564C365.995 233.749 364.99 232.885 364.834 232.497C364.696 232.154 366.016 231.787 367.427 231.365L367.446 231.39C368.744 231.928 370.164 232.105 371.555 231.903C373.407 231.619 375.266 230.751 376.542 230.538C376.663 230.953 376.728 231.382 376.735 231.814C376.715 233.052 374.972 233.156 372.978 233.033Z" fill="#C65447"/>
<path d="M409.501 192.987C409.501 192.987 387.573 194.021 383.044 197.124C378.515 200.227 372.146 226.353 372.146 226.353C372.146 226.353 373.099 227.61 374.071 227.957C375.307 228.399 376.973 227.9 376.973 227.9C376.973 227.9 385.777 217.324 386.381 213.457C386.986 209.59 387.921 207.604 389.644 207.445C391.366 207.285 408.184 210.563 415.875 203.33C420.658 198.84 409.501 192.987 409.501 192.987Z" fill="#F99746"/>
<path d="M401.994 163.867C401.569 163.122 401.059 161.783 400.691 159.361C400.739 159.601 401.367 162.644 402.668 164.304C407.745 167.168 415.769 177.916 415.719 179.943C415.719 179.943 420.648 173.437 420.702 173.399C420.702 173.399 426.247 165.314 418.778 161.389C414.978 159.396 414.805 156.523 414.79 154.02C414.774 151.518 412.909 140.858 405.786 144.153C405.786 144.153 404.577 143.709 404.054 143.823C404.295 143.853 404.525 143.944 404.722 144.087C403.871 144.087 402.662 144.235 401.688 144.876C399.107 146.572 397.621 160.359 401.994 163.867Z" fill="#B5453C"/>
<path d="M410.423 161.959C409.063 161.848 407.697 161.848 406.338 161.959C405.121 162.09 403.929 162.389 402.795 162.848C400.87 163.652 401.063 167.07 405.12 166.433C409.177 165.796 410.707 162.969 410.423 161.959Z" fill="#FFB27D"/>
<path d="M402.966 164.454C402.941 164.466 402.389 167.388 405.043 167.271C406.775 167.195 410.544 165.093 410.213 163.604C410.055 162.896 408.738 161.061 408.48 156.874L408.163 156.958L402.828 158.384C402.828 158.384 403.064 160.073 403.174 161.67C403.261 163.003 403.265 164.282 402.966 164.454Z" fill="#FFB27D"/>
<path d="M402.82 158.375C402.82 158.375 403.057 160.063 403.166 161.66C406.186 161.374 407.593 158.517 408.155 156.949L402.82 158.375Z" fill="#F4A269"/>
<path d="M408.675 156.323C408.675 156.323 410.093 153.721 410.33 151.56C410.5 150.025 409.343 144.418 403.702 145.611C402.565 145.846 401.496 146.333 400.574 147.035C399.392 147.95 397.727 149.866 400.052 154.665L400.682 156.298L408.675 156.323Z" fill="#B5453C"/>
<path d="M401.912 159.956C401.912 159.956 409.077 159.597 408.785 155.158C408.492 150.72 409.22 147.674 404.633 147.713C400.047 147.751 399.269 149.509 399.003 151.015C398.738 152.522 400.039 159.933 401.912 159.956Z" fill="#FFB27D"/>
<path d="M401.365 147.812C401.365 147.812 403.675 152.898 406.733 153.47C409.791 154.041 411.044 153.151 411.044 153.151C409.473 151.95 408.369 150.242 407.922 148.319C407.922 148.319 402.678 145.233 401.365 147.812Z" fill="#B5453C"/>
<path d="M401.879 148.204C401.879 148.204 400.493 149.466 400.212 150.622C399.931 151.777 399.927 154.118 399.24 154.076C399.24 154.076 397.527 150.622 399.048 148.511C400.67 146.279 401.879 148.204 401.879 148.204Z" fill="#B5453C"/>
<path d="M394.742 191.833C395.319 192.524 397.133 192.737 399.067 193.054C400.589 193.305 402.189 193.629 403.326 194.286C405.909 195.798 414.349 200.908 416.824 200.676C417.786 200.586 417.594 198.757 417.016 196.339C416.102 192.512 414.187 187.203 414.187 184.892C414.187 183.631 413.768 180.649 413.206 177.239C413.159 176.963 413.113 176.686 413.067 176.406C411.955 169.776 410.417 161.958 410.417 161.958C410.417 161.958 408.7 165.69 405.357 165.69C402.014 165.69 402.789 162.844 402.789 162.844C402.789 162.844 399.737 163.201 399.017 163.976C398.297 164.752 396.467 168.097 396.105 169.01C396.105 169.01 396.03 170.161 398.915 170.724C398.915 170.724 398.212 173.877 398.13 175.978C398.066 177.531 399.192 182.39 399.515 185.412C399.629 186.483 399.644 187.331 399.469 187.703C399.246 188.191 398.524 188.678 397.704 189.154C396.08 190.1 394.053 191.012 394.742 191.833Z" fill="#2B478B"/>
<path d="M397.71 189.154C395.858 192.301 402.73 193.248 403.869 193.913C406.452 195.426 414.351 200.908 416.826 200.676C417.788 200.586 417.596 198.757 417.018 196.339C416.104 192.513 414.189 187.203 414.189 184.892C414.189 183.631 413.77 180.649 413.208 177.239L410.23 174.387C410.23 174.387 407.039 182.61 403.998 183.957C402.552 184.578 401.052 185.065 399.517 185.412C399.631 186.483 399.646 187.331 399.471 187.703C399.252 188.191 398.53 188.678 397.71 189.154Z" fill="#233862"/>
<path d="M411.337 164.418C411.337 164.418 413.883 162.882 416.341 165.801C418.799 168.72 414.591 189.628 410.952 190.701C406.91 191.894 395.198 190.509 395.198 190.509L395.423 188.686C395.423 188.686 407.882 186.304 408.4 185.64C408.917 184.976 410.043 164.755 411.337 164.418Z" fill="#FFB27D"/>
<path d="M410.423 161.959C410.423 161.959 415.65 162.432 417.169 164.145C418.687 165.859 419.132 170.505 419.132 170.505C419.132 170.505 414.526 174.213 408.979 172.773L410.423 161.959Z" fill="#2B478B"/>
<path d="M396.436 188.578C396.436 188.578 392.379 187.795 391.92 187.991C391.462 188.187 388.912 190.471 389.174 190.927C389.436 191.384 390.483 191.71 391.659 191.311C392.835 190.912 395.389 190.724 395.847 190.137C396.305 189.549 396.436 188.578 396.436 188.578Z" fill="#FFB27D"/>
<path d="M393.17 193.86H400.075V193.046H393.17V193.86Z" fill="#9E332E"/>
<path d="M394.638 193.748C394.571 193.48 388.287 183.646 388.287 183.646H374.312L381.321 193.485L394.638 193.748Z" fill="#9E332E"/>
<path d="M394.049 193.86C393.982 193.591 387.68 183.646 387.68 183.646H374.315L380.984 193.86H394.049Z" fill="#B5453C"/>
<path d="M382.266 188.786C382.342 188.987 382.474 189.162 382.646 189.29C382.819 189.418 383.025 189.493 383.24 189.507C383.639 189.507 383.852 189.185 383.714 188.786C383.639 188.586 383.509 188.412 383.338 188.285C383.168 188.157 382.964 188.08 382.751 188.064C382.347 188.058 382.13 188.388 382.266 188.786Z" fill="#9E332E"/>
<path d="M491.827 159.656C491.827 159.656 495.161 161.547 496.094 161.547C497.028 161.547 500.692 160.841 501.712 161.355C502.733 161.869 504.582 163.969 504.93 164.652C505.554 165.882 502.419 165.339 500.937 164.291C500.831 164.216 500.711 164.164 500.583 164.137C500.456 164.111 500.325 164.112 500.198 164.139C499.428 164.306 497.836 164.594 497.066 164.31C496.031 163.926 490.578 163.504 490.578 163.504L491.827 159.656Z" fill="#EA9963"/>
<path d="M466.456 133.915C466.456 133.915 469.92 158.407 475.637 160.601C478.46 161.683 490.94 164.138 494.631 164.385C494.631 164.385 495.536 163.652 495.317 160.676C495.317 160.676 482.24 155.89 480.383 153.285C477.619 149.413 482.1 137.459 478.63 133.821C475.159 130.182 469.322 128.62 466.456 133.915Z" fill="#ED7D2B"/>
<path d="M467.626 185.518C468.639 187.198 469.767 188.807 471.002 190.332C474.717 195.009 478.76 198.865 479.471 202.509C479.63 203.301 479.848 204.08 480.123 204.84C480.418 205.675 480.781 206.554 481.201 207.462C482.777 210.876 485.135 214.7 487.489 218.178C491.558 224.19 495.38 229.207 495.38 229.207L502.396 228.907C502.115 228.207 499.054 219.907 494.961 209.763L489.825 197.041L489.146 195.358L487.606 191.555C483.757 182.031 480.7 174.447 480.7 174.447C480.7 174.447 465.336 168.643 463.74 172.403C462.427 175.504 463.5 178.54 467.626 185.518Z" fill="#233862"/>
<path d="M495.596 227.934C495.596 227.934 495.956 233.706 497.076 233.789C497.224 233.8 502.758 233.8 502.758 233.8L509.819 233.76C509.819 233.76 509.773 232.062 507.702 231.703C505.631 231.344 502.182 229.899 500.931 227.178C499.622 224.317 495.596 227.934 495.596 227.934Z" fill="#163560"/>
<path d="M470.665 209.778C470.665 209.778 465.421 212.252 465.759 213.321C465.805 213.463 467.857 218.585 467.857 218.585L470.517 225.109C470.517 225.109 472.08 224.438 471.649 222.394C471.218 220.35 471.281 216.612 473.35 214.445C475.527 212.163 470.665 209.778 470.665 209.778Z" fill="#163560"/>
<path d="M472.534 215.539C472.534 215.539 469.589 212.568 469.052 210.601C469.052 210.601 479.182 200.786 482.802 198.402C486.96 195.667 489.658 195.652 488.992 194.98C486.806 192.785 468.446 186.381 465.457 181.739C464.569 180.378 463.918 178.878 463.532 177.3C462.855 174.47 463.39 172.516 463.39 172.516L486.228 171.858C486.228 171.858 503.208 189.419 503.112 196.038C503 203.179 472.534 215.539 472.534 215.539Z" fill="#2B478B"/>
<path d="M479.973 132.372C475.354 133.561 467.693 129.301 467.693 129.301C467.693 129.301 470.667 127.309 471.77 122.93C471.826 122.711 471.876 122.485 471.92 122.253L474.293 121.75L477.823 124.903C477.72 126.098 477.545 127.286 477.3 128.461C477.224 128.853 477.135 129.274 477.034 129.723C478.167 130.42 479.164 131.318 479.973 132.372Z" fill="#FFB27D"/>
<path d="M462.799 151.466C463.461 160.34 462.591 173.836 463.342 176.174C463.99 178.191 471.372 176.991 474.313 176.318C475.404 176.068 476.724 175.713 478.089 175.293C481.894 174.117 486.042 172.439 486.486 171.194C486.504 171.147 486.518 171.099 486.527 171.05C486.568 170.878 486.568 170.7 486.527 170.528C486.378 169.895 485.807 169.208 485.739 167.636C485.664 165.88 485.676 163.813 485.61 161.591C485.61 161.34 485.61 161.067 485.576 160.823V160.733C485.576 160.685 485.576 160.639 485.576 160.591C485.512 158.112 485.383 155.506 485.231 152.915C485.137 151.292 485.025 149.683 484.898 148.144C484.565 144.168 484.119 140.633 483.526 138.399C482.564 134.753 480.425 132.379 478.485 130.637L477.08 129.437C475.514 129.777 473.66 129.551 471.984 128.76C470.171 127.9 469.543 127.286 469.227 127.518C465.034 130.742 462.029 140.616 462.799 151.466Z" fill="#F99746"/>
<path d="M478.096 175.293C481.902 174.116 486.049 172.439 486.494 171.194C486.512 171.147 486.525 171.099 486.534 171.05C486.534 170.877 486.534 170.702 486.534 170.528C486.386 169.895 485.814 169.208 485.747 167.636C485.672 165.88 485.684 163.813 485.618 161.591C485.618 161.339 485.618 161.067 485.583 160.823V160.733C485.583 160.685 485.583 160.639 485.583 160.591L470.186 141.042C470.186 141.042 459.845 162.514 478.096 175.293Z" fill="#ED7D2B"/>
<path d="M477.823 124.895C477.72 126.09 477.545 127.278 477.3 128.453C473.854 127.344 472.295 124.231 471.77 122.922C471.826 122.703 471.876 122.477 471.92 122.245L474.293 121.742L477.823 124.895Z" fill="#EA9963"/>
<path d="M478.285 126.879C478.285 126.879 470.779 125.628 471.624 120.974C472.469 116.321 472.082 113.024 476.917 113.626C481.751 114.229 482.354 116.173 482.448 117.795C482.542 119.416 480.264 127.085 478.285 126.879Z" fill="#FFB27D"/>
<path d="M507.84 166.731L508.503 166.946L514.141 149.644L513.479 149.429L507.84 166.731Z" fill="#7226D2"/>
<path d="M489.373 166.542L508.515 166.948L508.539 165.806L489.397 165.4L489.373 166.542Z" fill="#7226D2"/>
<path d="M489.77 167.419C489.77 167.419 495.929 169.037 498.227 168.866C500.525 168.695 502.451 167.603 502.742 167.031C503.033 166.46 503.643 165.448 502.072 165.636C500.502 165.824 498.358 166.154 498.292 165.855C498.227 165.556 499.572 165.583 499.572 165.583C499.572 165.583 499.978 164.991 499.466 164.97C498.954 164.949 497.459 164.544 496.903 164.823C496.346 165.101 495.834 166.12 495.43 166.078C495.026 166.035 490.282 163.949 490.282 163.949L489.77 167.419Z" fill="#FFB27D"/>
<path d="M467.996 134.92C467.996 134.92 468.723 159.643 474.168 162.452C476.863 163.84 488.988 167.649 492.63 168.3C492.63 168.3 493.609 167.672 493.719 164.69C493.719 164.69 481.253 158.495 479.694 155.703C477.375 151.549 483.158 140.159 480.106 136.165C477.053 132.172 471.416 129.971 467.996 134.92Z" fill="#F99746"/>
<path d="M471.77 122.922C471.77 122.922 471.683 121.326 472.671 120.412C472.671 120.412 472.328 118.81 472.963 118.547C473.599 118.284 473.733 119.629 474.022 119.418C474.311 119.207 475.61 118.203 476.166 116.731C476.722 115.259 481.809 117.044 482.402 117.307C482.995 117.57 484.904 116.597 485.27 115.806C485.27 115.806 484.211 114.962 483.73 114.329C483.249 113.695 479.917 109.42 475.261 110.633C470.606 111.845 469.969 114.064 470.232 115.964C470.496 117.864 469.863 122.285 471.77 122.922Z" fill="#2B478B"/>
<path d="M327.973 139.839C327.461 141.209 326.575 142.8 325.646 143.195C325.062 143.419 324.547 143.792 324.152 144.275L323.3 143.784L322.283 143.195C322.283 143.195 322.308 143.082 322.356 142.897C322.405 142.713 322.483 142.462 322.585 142.18C322.677 142.05 322.736 141.901 322.757 141.744C322.778 141.587 322.761 141.427 322.707 141.278C322.607 140.991 322.57 140.686 322.6 140.384C322.63 140.081 322.726 139.789 322.88 139.528C323.205 139.056 323.521 137.893 323.717 137.927C324.193 138.008 323.482 139.608 323.686 139.906C323.729 139.984 323.799 140.044 323.884 140.073C323.968 140.102 324.061 140.097 324.143 140.061H324.152C325.486 139.485 327.103 136.325 327.809 136.751C328.086 136.904 328.19 139.255 327.973 139.839Z" fill="#FFB27D"/>
<path d="M323.357 141.746L325.028 142.917C325.085 142.956 325.155 142.972 325.224 142.96C325.292 142.948 325.353 142.91 325.394 142.854L329.674 136.782C329.714 136.725 329.73 136.655 329.718 136.586C329.706 136.518 329.667 136.457 329.611 136.417L327.94 135.246C327.883 135.207 327.813 135.191 327.744 135.203C327.676 135.215 327.615 135.253 327.574 135.31L323.294 141.382C323.254 141.438 323.238 141.509 323.25 141.577C323.262 141.645 323.301 141.706 323.357 141.746Z" fill="#2B478B"/>
<path d="M324.887 142.819L325.867 143.504C325.888 143.52 325.912 143.531 325.938 143.537C325.964 143.544 325.99 143.545 326.016 143.54C326.042 143.536 326.067 143.526 326.089 143.511C326.111 143.497 326.13 143.478 326.144 143.456L330.498 137.282C330.528 137.239 330.539 137.185 330.53 137.133C330.521 137.081 330.491 137.035 330.448 137.004L329.468 136.319C329.447 136.303 329.423 136.292 329.397 136.286C329.372 136.279 329.345 136.279 329.319 136.283C329.293 136.288 329.268 136.297 329.246 136.312C329.224 136.326 329.206 136.345 329.191 136.367L324.839 142.541C324.823 142.562 324.811 142.586 324.805 142.612C324.799 142.637 324.798 142.664 324.802 142.69C324.807 142.716 324.817 142.741 324.831 142.764C324.846 142.786 324.865 142.805 324.887 142.819Z" fill="#233862"/>
<path d="M299.393 133.034C299.393 133.034 307.894 147.81 310.98 150.539L322.287 142.132C322.804 142.315 323.278 142.599 323.684 142.967C324.089 143.335 324.416 143.78 324.647 144.275C324.647 144.275 317.78 158.227 311.018 158.818C304.257 159.409 294.766 142.097 294.766 142.097L299.393 133.034Z" fill="#233862"/>
<path d="M280.146 233.59H275.238C274.62 233.256 274.07 232.49 273.891 231.346C273.652 229.769 271.878 228.909 271.495 227.618C271.112 226.326 273.077 224.511 273.077 224.511L273.406 224.088L273.749 223.649L277.007 224.417C277.007 224.417 277.088 225.184 277.138 226.178C277.173 226.888 277.192 227.713 277.151 228.433C277.055 230.16 277.634 232.006 279.168 232.342C280.306 232.58 280.256 233.258 280.146 233.59Z" fill="#233862"/>
<path d="M308.658 233.589H297.424C296.885 232.933 297.083 230.507 297.166 229.715C297.182 229.556 297.193 229.462 297.193 229.462C297.193 229.462 301.029 226.403 301.556 228.746C301.574 228.819 301.593 228.892 301.614 228.963C302.278 231.152 305.256 232.148 306.974 232.417C308.093 232.607 308.504 233.186 308.658 233.589Z" fill="#233862"/>
<path d="M306.514 171.071C306.514 171.071 305.937 178.317 305.248 187.026C304.316 198.859 303.198 213.392 303.086 216.145C302.894 220.926 302.124 228.573 302.124 228.573C302.124 228.573 300.303 230.39 296.658 229.625C296.658 229.625 293.411 218.707 292.483 207.157C292.47 206.965 292.455 206.773 292.441 206.581C291.577 194.821 290.235 170.062 290.235 170.062L306.514 171.071Z" fill="#F99746"/>
<path d="M306.514 171.071C306.514 171.071 305.937 178.317 305.248 187.026L292.487 207.157C292.474 206.965 292.458 206.773 292.445 206.581C291.581 194.821 290.239 170.062 290.239 170.062L306.514 171.071Z" fill="#ED7D2B"/>
<path d="M303.858 171.938C303.858 171.938 293.359 198.181 286.455 210.511C279.551 222.841 277.396 226.286 277.396 226.286C277.396 226.286 273.44 224.708 273.081 223.632C273.081 223.632 275.719 199.824 280.342 194.021C282.956 190.741 286.024 180.9 286.168 177.458C286.313 174.015 287.102 167.204 287.102 167.204L303.858 171.938Z" fill="#F99746"/>
<path d="M301.245 133.677C297.141 134.966 290.043 131.483 290.043 131.483C290.043 131.483 293.825 128.653 293.627 122.767L296.8 125.315L298.954 127.042C298.925 127.983 298.843 128.921 298.71 129.852C298.648 130.322 298.571 130.846 298.473 131.42C299.528 131.996 300.467 132.761 301.245 133.677Z" fill="#FFB27D"/>
<path d="M298.954 127.048C298.925 127.988 298.843 128.926 298.71 129.858C296.323 129.449 293.613 125.601 293.613 125.601C294.643 125.282 295.73 125.185 296.8 125.315L298.954 127.048Z" fill="#ED975D"/>
<path d="M300.209 126.95C300.209 126.95 293.432 128.073 292.797 123.855C292.162 119.637 290.857 116.946 295.157 116.044C299.457 115.142 300.546 116.633 301.098 117.99C301.651 119.347 301.955 126.549 300.209 126.95Z" fill="#FFB27D"/>
<path d="M306.971 171.674C306.852 171.779 306.698 171.837 306.539 171.839C305 171.818 300.505 172.672 296.704 172.282C293.5 171.975 290.663 171.029 287.618 169.666C287.214 169.486 286.282 168.991 286.303 168.54C286.317 168.047 286.365 167.331 286.426 166.429C286.642 163.293 287.019 157.901 286.652 151.681C286.586 150.522 286.551 149.376 286.548 148.242C286.517 139.812 288.193 132.397 291.552 129.886C291.841 129.681 293.607 130.541 295.23 131.339C296.599 132.013 298.157 132.201 299.647 131.873L301.064 133.122C302.796 134.721 304.68 136.891 305.502 140.19C306.201 142.995 306.611 148.058 306.838 153.299C306.94 155.676 307.03 158.073 307.044 160.347V160.428C307.063 160.653 307.063 160.9 307.063 161.125C307.155 166.962 307.073 171.591 306.971 171.674Z" fill="#2B478B"/>
<path d="M286.426 166.429C286.642 163.293 287.019 157.901 286.652 151.681C286.586 150.522 286.551 149.376 286.548 148.242C287.951 144.847 289.098 142.385 289.098 142.385H292.635C292.635 142.385 295.23 160.05 286.426 166.429Z" fill="#233862"/>
<path d="M268.305 186.446L283.393 188.59C284.34 188.722 285.3 188.475 286.065 187.904C286.829 187.332 287.336 186.482 287.473 185.539L288.405 179.014C288.536 178.07 288.288 177.113 287.715 176.351C287.141 175.588 286.288 175.083 285.343 174.945L270.255 172.802C269.309 172.671 268.349 172.918 267.585 173.49C266.821 174.062 266.315 174.912 266.177 175.855L265.245 182.38C265.113 183.323 265.36 184.281 265.934 185.043C266.507 185.805 267.36 186.309 268.305 186.446Z" fill="#233862"/>
<path d="M286.195 176.895C285.982 176.36 285.644 175.883 285.209 175.504C284.774 175.126 284.254 174.856 283.693 174.717C283.578 174.689 283.462 174.666 283.345 174.65L280.341 174.224L280.533 172.817C280.576 172.505 280.494 172.189 280.304 171.937C280.114 171.685 279.832 171.519 279.519 171.474L278.735 171.363L275.581 170.914L275.003 170.833C274.69 170.79 274.373 170.872 274.12 171.061C273.868 171.251 273.701 171.532 273.656 171.844L273.464 173.251L268.279 172.514C267.328 172.382 266.363 172.631 265.596 173.207C264.828 173.782 264.321 174.637 264.185 175.585L263.242 182.18C263.109 183.128 263.359 184.09 263.936 184.855C264.513 185.62 265.371 186.126 266.321 186.262L281.382 188.402C281.642 188.44 281.905 188.448 282.167 188.427C282.573 188.397 282.971 188.297 283.343 188.131C283.907 187.884 284.398 187.498 284.771 187.009C285.144 186.52 285.386 185.945 285.474 185.337L286.417 178.743C286.507 178.119 286.431 177.481 286.195 176.895ZM274.411 171.938C274.422 171.843 274.465 171.754 274.531 171.685C274.598 171.616 274.685 171.57 274.78 171.555C274.825 171.548 274.87 171.548 274.915 171.555L275.585 171.649L278.067 172.004L279.415 172.196C279.473 172.203 279.53 172.222 279.581 172.252C279.632 172.281 279.677 172.32 279.712 172.367C279.748 172.414 279.774 172.467 279.789 172.524C279.804 172.581 279.808 172.64 279.8 172.698L279.607 174.105L274.218 173.337L274.411 171.938Z" fill="#2B478B"/>
<path d="M279.779 167.035C279.779 167.035 278.988 168.087 278.955 168.507C278.743 171.359 280.048 171.752 276.666 173.336C276.666 173.336 275.223 173.884 275.2 172.76C275.177 171.635 276.201 171.624 276.014 170.06C275.796 168.256 275.821 168.239 277.007 167.296L277.792 165.999L279.779 167.035Z" fill="#FFB27D"/>
<path d="M277.765 167.841C278.641 167.992 279.532 168.041 280.419 167.989C280.419 167.989 284.201 156.34 284.688 155.277C285.175 154.214 295.929 141.618 295.929 141.618L291.452 130.447C291.452 130.447 279.829 149.806 278.649 152.516C276.697 157.012 276.021 167.1 276.021 167.1C276.548 167.459 277.141 167.711 277.765 167.841Z" fill="#2B478B"/>
<path d="M292.791 123.448C292.791 123.448 293.486 123.333 293.369 122.377C293.251 121.422 293.257 120.174 294.037 120.406C294.816 120.639 294.855 121.26 295.174 120.898C295.494 120.535 295.499 119.005 297.817 118.9C300.134 118.794 301.075 119.597 302.153 119.124C303.231 118.652 303.289 117.025 303.289 117.025C303.289 117.025 302.981 117.601 302.519 117.793C302.519 117.793 304.316 115.342 302.234 113.661C300.151 111.98 298.03 113.085 296.827 113.152C294.173 113.312 292.458 113.471 291.592 115.21C290.726 116.948 291.088 121.775 292.791 123.448Z" fill="#2B478B"/>
<path d="M278.529 168.292C278.529 168.292 279.299 169.085 279.34 169.415C279.496 170.474 279.85 170.933 279.673 171.048C279.303 171.286 278.814 170.503 278.579 169.799C278.444 169.308 278.426 168.791 278.529 168.292Z" fill="#FFB27D"/>
<path d="M564.361 233.465H17.5243C17.1713 233.465 16.8853 233.75 16.8853 234.102V234.363C16.8853 234.715 17.1713 235 17.5243 235H564.361C564.714 235 565 234.715 565 234.363V234.102C565 233.75 564.714 233.465 564.361 233.465Z" fill="#2E3552"/>
<path d="M150.77 96.5201C153.028 100.696 156.013 102.792 156.013 102.792H168.437C168.437 102.792 149.05 93.3402 150.77 96.5201Z" fill="#233862"/>
<path d="M159.424 128.599C159.567 128.766 159.659 128.97 159.689 129.188C159.72 129.406 159.687 129.627 159.595 129.827C159.278 130.633 158.275 131.516 157.116 132.395C156.968 132.508 156.835 132.61 156.731 132.706L156.641 132.78C156.618 132.8 156.597 132.821 156.573 132.838C155.488 133.782 155.881 134.016 153.925 135.937C151.696 138.129 150.203 138.129 149.783 137.912C149.429 137.72 150.191 136.555 151.036 135.225C151.078 135.162 151.119 135.099 151.159 135.033C151.273 134.859 151.384 134.68 151.496 134.504C152.487 132.917 152.266 132.153 152.106 129.746C151.962 127.801 149.346 118.781 149.346 118.781L153.521 118.18C153.521 118.18 154.576 125.342 155.925 126.476C156.647 127.081 157.465 127.112 158.167 127.565C158.217 127.595 158.265 127.628 158.311 127.66C158.723 127.922 159.097 128.238 159.424 128.599Z" fill="#FFB27D"/>
<path d="M159.424 128.599C159.567 128.766 159.659 128.97 159.689 129.188C159.72 129.405 159.687 129.627 159.595 129.827C159.21 130.631 158.234 131.51 157.112 132.385C156.966 132.5 156.837 132.606 156.727 132.705L156.637 132.78C156.614 132.799 156.593 132.821 156.57 132.838C155.484 133.782 155.877 134.016 153.921 135.937C151.692 138.129 150.199 138.129 149.779 137.912C149.425 137.72 150.187 136.555 151.032 135.225C152.565 134.677 153.925 133.735 154.974 132.492C156.321 130.867 157.255 128.756 158.177 127.545C158.227 127.576 158.275 127.608 158.321 127.641C158.73 127.909 159.101 128.231 159.424 128.599Z" fill="#233862"/>
<path d="M125.998 125.102C125.705 126.373 123.881 126.11 121.856 125.557C119.831 125.004 120.295 125.609 117.398 125.21C114.502 124.811 113.649 123.705 113.572 123.272C113.505 122.888 114.944 122.792 116.488 122.656C116.68 122.64 116.873 122.621 117.065 122.602C118.811 122.433 120.116 121.349 121.719 120.472C123.24 119.643 125.569 116.156 125.569 116.156L129.545 116.58C129.545 116.58 127.366 119.691 126.521 121.045C126.023 121.842 126.019 122.915 126.056 123.744C126.096 124.197 126.076 124.654 125.998 125.102Z" fill="#FFB27D"/>
<path d="M121.856 125.557C119.827 125.004 120.295 125.609 117.398 125.21C114.502 124.811 113.649 123.705 113.572 123.272C113.505 122.888 114.944 122.792 116.488 122.656L116.501 122.686C117.725 123.517 119.152 124.002 120.63 124.089C122.601 124.191 124.704 123.684 126.065 123.744C126.102 124.197 126.08 124.654 125.998 125.102C125.705 126.373 123.884 126.11 121.856 125.557Z" fill="#233862"/>
<path d="M141.967 100.105L145.418 110.203L149.927 123.387C150.794 123.475 151.67 123.419 152.518 123.222C153.69 122.917 155.051 122.07 155.051 122.07C155.051 122.07 154.089 108.017 151.779 99.9035C151.192 97.829 150.514 96.1364 149.743 95.1769C145.963 90.4675 141.967 100.105 141.967 100.105Z" fill="#233862"/>
<path d="M146.188 84.3303C148.651 83.6126 155.586 84.8101 162.548 86.3645L164.078 83.9964L179.217 83.2288C179.217 83.2288 183.9 94.3861 180.98 101.335C180.551 102.356 179.793 102.811 178.432 102.795H178.163C178.163 102.795 169.169 102.874 166.251 102.795C158.744 102.59 150.486 97.065 149.408 96.8194C147.641 96.4164 146.835 99.9398 144.956 103.609C143.078 107.278 127.815 119.621 127.815 119.621C127.815 119.621 125.521 119.583 124.583 119.203C123.575 118.794 123.217 118.29 123.217 118.29C123.217 118.29 140.635 85.9519 146.188 84.3303Z" fill="#2B478B"/>
<path d="M164.728 63.2554C170.027 66.3546 180.772 72.7738 180.83 72.7354C180.83 72.7354 184.801 74.3513 187.116 72.9062C190.979 70.4978 193.196 63.7946 186.419 57.7899C183.04 54.7943 180.601 54.0209 180.355 49.3788C180.22 46.861 177.002 38.4729 171.257 39.0851C170.777 39.1438 170.294 39.1624 169.811 39.1407C168.792 39.0809 167.777 39.3126 166.886 39.8085C163.593 41.6451 156.695 61.8929 164.728 63.2554Z" fill="#233862"/>
<path d="M169.305 60.8644C169.282 60.8798 171.927 61.8604 173.732 61.1216C175.431 60.4269 176.781 57.7057 176.756 57.7037C175.986 57.6462 175.172 56.9572 174.638 52.5703L174.311 52.6778L168.793 54.4932C168.793 54.4932 169.142 56.2549 169.353 57.9283C169.53 59.3311 169.609 60.6744 169.305 60.8644Z" fill="#FFB27D"/>
<path d="M168.793 54.4932C168.793 54.4932 169.142 56.2549 169.353 57.9283C172.51 57.4485 173.83 54.3608 174.319 52.6797L168.793 54.4932Z" fill="#ED975D"/>
<path d="M167.937 56.2067C167.937 56.2067 175.443 55.4084 174.879 50.7509C174.315 46.0934 174.895 42.854 170.067 43.1668C165.24 43.4796 164.534 45.3699 164.345 46.9704C164.157 48.5709 165.962 56.295 167.937 56.2067Z" fill="#FFB27D"/>
<path d="M164.688 44.4353C164.688 44.4353 169.367 48.6841 172.618 49.1044C175.868 49.5246 177.129 48.5152 177.129 48.5152C175.86 47.3187 174.851 45.8752 174.165 44.2741C174.009 43.8976 173.756 43.5694 173.43 43.3235C173.105 43.0775 172.719 42.9227 172.313 42.8752C169.992 42.6122 165.583 42.4031 164.688 44.4353Z" fill="#233862"/>
<path d="M167.692 44.1476C167.692 44.1476 166.047 45.6502 165.512 46.7824C164.994 47.8763 164.774 50.5169 165.127 51.58C165.127 51.58 162.761 46.6711 164.239 44.3567C165.82 41.9004 167.692 44.1476 167.692 44.1476Z" fill="#233862"/>
<path d="M162.702 71.6877C162.509 86.802 162.438 83.6394 164.049 85.1209C164.434 85.476 165.556 85.712 167.03 85.8502C171.669 86.2839 179.856 85.7427 180.191 84.8907C181.346 81.9584 180.613 81.0161 181.629 76.5064C181.737 76.0266 181.866 75.5066 182.014 74.9424C182.845 71.8469 183.6 70.8068 181.092 65.731C178.817 61.1253 176.427 57.387 176.197 57.5136C169.767 61.0869 169.344 57.9243 169.344 57.9243C169.344 57.9243 162.792 64.3147 162.702 71.6877Z" fill="white"/>
<path d="M145.418 110.203L149.928 123.387C150.794 123.475 151.67 123.419 152.518 123.222C153.69 122.916 155.051 122.07 155.051 122.07C155.051 122.07 154.089 108.017 151.779 99.9033L145.418 110.203Z" fill="#2B478B"/>
<path d="M169.353 57.9263C169.353 57.9263 162.809 58.8493 161.97 61.6243C161.131 64.3992 156.181 80.7091 156.181 80.7091C156.181 80.7091 159.474 81.3923 161.046 79.9089C162.619 78.4255 166.753 65.8999 166.753 65.8999L169.353 57.9263Z" fill="white"/>
<path d="M167.038 85.8484C171.676 86.2821 179.864 85.7409 180.199 84.8889C181.354 81.9566 180.62 81.0143 181.637 76.5046L179.568 70.1506C179.568 70.1506 179.747 77.1686 177.626 78.9552C175.505 80.7418 169.043 82.2809 168.002 83.7931C167.545 84.4061 167.217 85.1053 167.038 85.8484Z" fill="#EBF3FF"/>
<path d="M172.442 83.0464C172.442 83.0464 167.887 81.9045 167.136 82.2903C166.385 82.676 164.536 84.1038 164.297 84.6104C164.058 85.117 165.954 84.265 166.566 84.1191C166.965 84.0251 167.993 84.4127 168.503 84.597C170.647 85.3646 171.982 85.0403 171.982 85.0403L172.442 83.0464Z" fill="#FFB27D"/>
<path d="M176.213 57.5117C176.213 57.5117 182.358 58.0567 184.408 61.0773C187.295 65.3299 192.758 83.2672 189.284 85.5451C185.367 88.1108 171.786 85.7734 171.786 85.7734C171.786 85.7734 171.39 83.6452 172.05 82.6396C172.71 81.6341 183.021 80.26 183.502 79.8014C183.983 79.3427 177.834 70.4326 177.872 69.0164C177.911 67.6001 176.213 57.5117 176.213 57.5117Z" fill="white"/>
<path d="M166.878 83.5549C166.878 83.5549 165.885 84.7639 165.566 84.8983C165.404 84.9792 165.223 85.0125 165.044 84.9942L165.723 83.8428L166.878 83.5549Z" fill="#FFB27D"/>
<path d="M167.136 82.2903L164.307 83.5665C164.359 83.6353 164.429 83.6892 164.509 83.7229C164.589 83.7565 164.677 83.7688 164.763 83.7584C165.107 83.7584 165.983 83.459 165.983 83.459L167.136 82.2903Z" fill="#FFB27D"/>
<path d="M165.514 86.7963L143.426 86.1956L137.23 69.5403L159.285 70.139L165.514 86.7963Z" fill="#F99746"/>
<path d="M143.183 85.5471L172.352 86.3397L172.335 86.9806L143.426 86.1958L143.183 85.5471Z" fill="#ED7D2B"/>
<path d="M149.227 78.1108C149.075 77.5255 149.419 77.0668 149.997 77.0822C150.302 77.1072 150.592 77.2243 150.829 77.4181C151.065 77.6118 151.237 77.8729 151.321 78.1664C151.473 78.7421 151.128 79.2104 150.551 79.195C150.246 79.17 149.956 79.0528 149.719 78.8591C149.482 78.6654 149.311 78.4043 149.227 78.1108Z" fill="white"/>
</g>
<defs>
<clipPath id="clip0_109_1244">
<rect width="565" height="235" fill="white"/>
</clipPath>
</defs>
</svg>
