<svg width="577" height="398" viewBox="0 0 577 398" fill="none" xmlns="http://www.w3.org/2000/svg">
<g clip-path="url(#clip0_109_3976)">
<path d="M224.607 45.2623C231.527 27.0516 252.768 18.4609 270.482 17.3642C315.288 14.5744 340.664 47.0228 365.79 79.0864C378.126 94.8247 396.091 106.648 419.703 106.648C454.601 106.648 516.919 91.8137 550.496 126.378C563.48 139.779 572.097 156.788 575.214 175.169C578.331 193.55 575.802 212.442 567.96 229.361C549.648 269.505 511.859 278.721 472.132 286.042C424.647 294.787 388.631 307.88 359.911 338.25" stroke="#F48914" stroke-miterlimit="10" stroke-dasharray="5 3"/>
<path d="M145.78 58.153H171.272L166.607 54.2184V41.5585C166.607 40.8977 166.344 40.2639 165.876 39.7967C165.408 39.3294 164.773 39.0669 164.111 39.0669H145.799C145.137 39.0669 144.502 39.3294 144.034 39.7967C143.566 40.2639 143.303 40.8977 143.303 41.5585V55.6615C143.303 56.3189 143.563 56.9498 144.027 57.4165C144.491 57.8832 145.121 58.148 145.78 58.153Z" fill="#FF9189"/>
<path d="M155.341 43.069L156.622 46.4071L160.198 46.5899C160.356 46.5973 160.508 46.6526 160.634 46.7485C160.761 46.8443 160.854 46.9762 160.903 47.1265C160.953 47.2768 160.955 47.4385 160.91 47.5901C160.865 47.7417 160.774 47.876 160.651 47.9752L157.866 50.2167L158.829 53.6703C158.873 53.8223 158.868 53.9841 158.816 54.1334C158.764 54.2828 158.667 54.4125 158.539 54.505C158.41 54.5975 158.257 54.6483 158.098 54.6504C157.94 54.6525 157.785 54.6059 157.654 54.5168L154.656 52.5928L151.659 54.5168C151.527 54.6036 151.372 54.6485 151.214 54.6455C151.056 54.6425 150.903 54.5918 150.775 54.5001C150.646 54.4084 150.549 54.28 150.495 54.1319C150.441 53.9837 150.434 53.8228 150.474 53.6703L151.437 50.2167L148.652 47.9752C148.529 47.876 148.438 47.7417 148.393 47.5901C148.348 47.4385 148.35 47.2768 148.399 47.1265C148.449 46.9762 148.542 46.8443 148.668 46.7485C148.794 46.6526 148.947 46.5973 149.105 46.5899L152.681 46.4071L153.953 43.069C154.018 42.9418 154.118 42.8351 154.24 42.7606C154.363 42.6861 154.503 42.6467 154.647 42.6467C154.79 42.6467 154.931 42.6861 155.053 42.7606C155.175 42.8351 155.275 42.9418 155.341 43.069Z" fill="white"/>
<path d="M433.09 31.5728H402.712L408.273 26.8783V11.794C408.273 11.0082 408.585 10.2546 409.142 9.6989C409.699 9.14324 410.454 8.83107 411.241 8.83107H433.09C433.48 8.8298 433.867 8.90551 434.229 9.05385C434.59 9.20218 434.918 9.42023 435.195 9.69549C435.472 9.97076 435.691 10.2978 435.841 10.6579C435.991 11.018 436.068 11.4041 436.068 11.794V28.6002C436.068 29.3886 435.754 30.1447 435.195 30.7022C434.637 31.2596 433.88 31.5728 433.09 31.5728Z" fill="#FF9189"/>
<path d="M425.63 18.7975H428.878C429.35 18.7891 429.812 18.9306 430.198 19.2015C430.39 19.3408 430.545 19.5232 430.652 19.7339C430.76 19.9445 430.815 20.1774 430.815 20.4137C430.815 20.6499 430.76 20.8828 430.652 21.0935C430.545 21.3041 430.39 21.4865 430.198 21.6258L430.121 21.6835C430.305 21.8294 430.45 22.0179 430.544 22.2327C430.637 22.4474 430.677 22.6817 430.659 22.9153C430.641 23.1488 430.565 23.3743 430.44 23.5721C430.314 23.7699 430.142 23.934 429.938 24.05C430.061 24.2034 430.148 24.3817 430.195 24.5724C430.241 24.7632 430.245 24.9617 430.207 25.1541C430.168 25.3465 430.088 25.5282 429.972 25.6865C429.855 25.8447 429.706 25.9757 429.533 26.0702C429.601 26.2619 429.656 26.458 429.697 26.6571C429.719 26.8082 429.709 26.9621 429.669 27.1093C429.628 27.2566 429.558 27.3939 429.462 27.513C429.366 27.632 429.247 27.7301 429.112 27.8013C428.977 27.8725 428.828 27.9153 428.676 27.9269C428.525 27.9365 428.374 27.9365 428.223 27.9269H420.811C420.607 27.9247 420.405 27.878 420.22 27.7899C420.035 27.7019 419.872 27.5746 419.742 27.417C419.734 27.4003 419.731 27.3823 419.731 27.3641C419.731 27.3459 419.734 27.3279 419.742 27.3112C419.742 24.887 419.742 22.4627 419.742 20.0385C419.75 19.9178 419.785 19.8003 419.843 19.6941C419.901 19.5879 419.982 19.4954 420.079 19.4228L421.255 18.3838C421.929 17.7874 422.594 17.1813 423.182 16.5368C424.011 15.6424 424.616 14.5642 424.946 13.391L425.033 13.1409C425.106 12.9021 425.27 12.7013 425.49 12.5809C425.709 12.4606 425.967 12.4303 426.208 12.4964C426.409 12.5231 426.601 12.5962 426.768 12.7097C426.935 12.8233 427.074 12.9742 427.172 13.1505C427.464 13.6709 427.563 14.2771 427.452 14.8629C427.306 15.6474 427.022 16.3998 426.613 17.0851C426.343 17.6046 426.035 18.1049 425.746 18.6051L425.63 18.7975Z" fill="white"/>
<path d="M414.826 23.7808V20.1637C414.817 20.0872 414.825 20.0096 414.85 19.9368C414.875 19.8641 414.917 19.7981 414.972 19.7441C415.027 19.6901 415.094 19.6495 415.167 19.6255C415.241 19.6015 415.318 19.5947 415.395 19.6057H418.142C418.218 19.5979 418.295 19.6074 418.367 19.6333C418.439 19.6592 418.504 19.701 418.558 19.7555C418.611 19.81 418.652 19.8758 418.677 19.9481C418.702 20.0205 418.71 20.0974 418.701 20.1733V27.3883C418.71 27.4638 418.702 27.5405 418.677 27.6124C418.652 27.6844 418.612 27.7497 418.558 27.8035C418.504 27.8573 418.438 27.8982 418.366 27.9229C418.294 27.9476 418.217 27.9556 418.142 27.9463H415.385C415.31 27.9553 415.235 27.9475 415.163 27.9233C415.092 27.8991 415.027 27.8592 414.973 27.8065C414.92 27.7538 414.879 27.6897 414.853 27.619C414.828 27.5482 414.818 27.4727 414.826 27.3979V23.7808Z" fill="white"/>
<path d="M371.765 20.202C371.765 20.5996 371.647 20.9884 371.426 21.319C371.204 21.6497 370.89 21.9074 370.522 22.0595C370.153 22.2117 369.748 22.2515 369.358 22.1739C368.967 22.0964 368.608 21.9049 368.326 21.6237C368.045 21.3425 367.853 20.9843 367.775 20.5942C367.697 20.2042 367.737 19.8 367.89 19.4326C368.042 19.0652 368.3 18.7512 368.632 18.5303C368.963 18.3093 369.352 18.1914 369.751 18.1914C370.285 18.1914 370.797 18.4032 371.175 18.7803C371.553 19.1574 371.765 19.6688 371.765 20.202V20.202Z" stroke="#F48914" stroke-miterlimit="10"/>
<path d="M198.209 20.202C198.209 20.5996 198.091 20.9884 197.87 21.319C197.648 21.6497 197.334 21.9074 196.966 22.0595C196.598 22.2117 196.193 22.2515 195.802 22.1739C195.411 22.0964 195.052 21.9049 194.77 21.6237C194.489 21.3425 194.297 20.9843 194.219 20.5942C194.142 20.2042 194.181 19.8 194.334 19.4326C194.486 19.0652 194.744 18.7512 195.076 18.5303C195.407 18.3093 195.796 18.1914 196.195 18.1914C196.729 18.1914 197.241 18.4032 197.619 18.7803C197.997 19.1574 198.209 19.6688 198.209 20.202V20.202Z" stroke="#F48914" stroke-miterlimit="10"/>
<path d="M493.778 121.588C494.891 121.588 495.793 120.687 495.793 119.577C495.793 118.467 494.891 117.566 493.778 117.566C492.666 117.566 491.764 118.467 491.764 119.577C491.764 120.687 492.666 121.588 493.778 121.588Z" stroke="#F48914" stroke-miterlimit="10"/>
<path d="M109.552 310.361C110.664 310.361 111.566 309.461 111.566 308.351C111.566 307.24 110.664 306.34 109.552 306.34C108.439 306.34 107.538 307.24 107.538 308.351C107.538 309.461 108.439 310.361 109.552 310.361Z" stroke="#F48914" stroke-miterlimit="10"/>
<path d="M158.588 207.35C158.588 207.75 158.47 208.14 158.247 208.473C158.025 208.805 157.709 209.064 157.339 209.217C156.969 209.37 156.562 209.41 156.17 209.332C155.777 209.254 155.416 209.061 155.133 208.779C154.85 208.496 154.658 208.136 154.58 207.744C154.501 207.353 154.542 206.946 154.695 206.577C154.848 206.208 155.107 205.893 155.44 205.671C155.773 205.449 156.164 205.33 156.565 205.33C157.101 205.33 157.616 205.543 157.996 205.922C158.375 206.301 158.588 206.814 158.588 207.35V207.35Z" stroke="#F48914" stroke-miterlimit="10"/>
<path d="M98.3817 62.9919C99.4942 62.9919 100.396 62.0917 100.396 60.9813C100.396 59.8709 99.4942 58.9707 98.3817 58.9707C97.2693 58.9707 96.3674 59.8709 96.3674 60.9813C96.3674 62.0917 97.2693 62.9919 98.3817 62.9919Z" stroke="#F48914" stroke-miterlimit="10"/>
<path d="M469.01 55.854V60.462" stroke="#F48914" stroke-miterlimit="10"/>
<path d="M471.313 58.1531H466.696" stroke="#F48914" stroke-miterlimit="10"/>
<path d="M271.677 0V4.61762" stroke="#F48914" stroke-miterlimit="10"/>
<path d="M273.99 2.30884H269.364" stroke="#F48914" stroke-miterlimit="10"/>
<path d="M162.318 82.2129V86.8209" stroke="#F48914" stroke-miterlimit="10"/>
<path d="M164.631 84.512H160.005" stroke="#F48914" stroke-miterlimit="10"/>
<path d="M554.737 164.81V169.418" stroke="#F48914" stroke-miterlimit="10"/>
<path d="M557.05 167.119H552.434" stroke="#F48914" stroke-miterlimit="10"/>
<path d="M213.803 117.72C213.061 133.266 177.623 132.151 166.915 134.642C120.895 145.417 75.1067 172.689 60.12 218.105C44.6997 264.82 81.1591 315.855 120.144 327.081C157.316 337.798 197.245 329.005 233.069 313.902C237.936 311.862 243.458 308.803 244.162 303.32" stroke="#F48914" stroke-miterlimit="10" stroke-dasharray="5 3"/>
<path d="M513.931 373.911C492.811 368.46 471.518 363.794 450.052 359.914C445.455 359.077 440.414 358.356 436.357 360.693C440.578 355.354 439.614 346.898 434.738 342.146C429.861 337.394 421.891 336.499 415.732 339.404C416.908 330.458 418.074 321.271 415.992 312.468C413.911 303.666 407.829 295.268 399.069 293.055C387.503 290.169 376.43 298.404 367.399 306.129C361.163 311.468 354.513 317.519 353.328 325.628L348.509 373.892L513.931 373.911Z" fill="#FF9900"/>
<path d="M514.056 373.45C500.287 369.897 486.441 366.674 472.518 363.781C465.707 362.364 458.883 361.033 452.047 359.789C446.756 358.827 441.118 357.634 436.116 360.28L436.781 360.944C440.887 355.412 440.193 347.293 435.538 342.281C430.468 336.826 422.045 336.057 415.491 338.991L416.214 339.404C418.142 324.734 419.77 306.552 406.576 296.297C393.575 286.167 378.376 296.22 367.948 305.032C362.561 309.582 356.711 314.527 354.022 321.232C353.168 323.613 352.665 326.105 352.528 328.63L350.042 353.334C349.354 360.19 348.663 367.049 347.969 373.911C347.972 374.038 348.024 374.159 348.113 374.249C348.203 374.338 348.324 374.39 348.451 374.392H507.136C509.064 374.392 511.743 374.873 513.642 374.392C513.738 374.383 513.835 374.383 513.931 374.392C514.059 374.392 514.181 374.342 514.272 374.251C514.362 374.161 514.413 374.039 514.413 373.911C514.413 373.784 514.362 373.661 514.272 373.571C514.181 373.481 514.059 373.43 513.931 373.43H352.181C351.333 373.43 349.348 373.036 348.567 373.43C348.297 373.565 348.875 374.008 348.962 373.854C349.046 373.521 349.082 373.177 349.068 372.834C349.222 371.247 349.386 369.659 349.54 368.072C350.678 356.81 351.812 345.548 352.943 334.286C353.232 331.4 353.405 328.514 353.81 325.628C355.207 315.624 365.25 308.168 372.7 302.386C381.085 295.874 392.428 289.505 402.972 295.046C412.812 300.232 416.465 311.833 416.648 322.242C416.606 327.977 416.139 333.7 415.25 339.366C415.202 339.77 415.694 339.905 415.983 339.779C422.122 337.038 430.141 337.778 434.853 342.925C437.005 345.28 438.286 348.297 438.484 351.478C438.682 354.659 437.786 357.812 435.943 360.414C435.634 360.828 436.212 361.28 436.608 361.069C442.39 358.019 449.503 360.241 455.517 361.367C462.038 362.592 468.547 363.874 475.043 365.215C488.028 367.947 500.946 370.974 513.796 374.296C513.89 374.286 513.979 374.249 514.052 374.189C514.125 374.129 514.179 374.049 514.207 373.959C514.234 373.869 514.235 373.772 514.208 373.682C514.181 373.591 514.129 373.51 514.056 373.45Z" fill="#EDF2F7"/>
<path d="M55.8217 373.911C60.7851 373.911 68.6687 368.668 73.8442 367.418C80.128 365.898 86.1033 366.225 92.6281 366.34C94.3725 366.34 96.2133 366.34 97.7168 365.494C100.377 363.964 100.936 360.472 101.832 357.538C102.881 354.123 104.732 351.008 107.231 348.452C109.731 345.896 112.806 343.973 116.2 342.844C119.595 341.714 123.211 341.411 126.747 341.959C130.283 342.507 133.636 343.89 136.528 345.994C135.063 331.121 138.224 315.085 148.43 304.137C164.371 287.052 186.673 292.728 202.402 306.186C208.637 311.525 215.278 317.576 216.473 325.686L221.291 373.95L55.8217 373.911Z" fill="#FF9900"/>
<path d="M55.8216 374.393C62.6162 374.162 68.3506 369.101 74.8754 367.658C79.7906 366.591 84.8504 366.648 89.862 366.696C93.1581 366.754 97.1096 367.331 99.4997 364.542C101.726 361.944 101.88 358.087 103.268 355.066C104.61 352.094 106.598 349.458 109.088 347.348C111.578 345.239 114.507 343.709 117.663 342.87C120.819 342.031 124.122 341.903 127.334 342.497C130.545 343.091 133.584 344.39 136.229 346.302C136.303 346.343 136.386 346.365 136.471 346.365C136.555 346.365 136.639 346.343 136.712 346.302C136.786 346.26 136.848 346.2 136.891 346.128C136.935 346.055 136.959 345.973 136.961 345.888C135.101 325.898 142.426 300.135 164.602 294.767C173.961 292.497 183.762 294.969 192.051 299.51C196.451 302.006 200.557 304.988 204.291 308.399C208.146 311.814 212.001 315.566 214.266 320.27C216.077 324.032 216.193 328.014 216.588 332.074C217.186 337.949 217.777 343.826 218.362 349.708L220.125 367.177C220.299 368.957 220.482 370.747 220.665 372.526C220.665 372.786 220.665 373.488 220.771 373.652C220.877 373.815 221.185 373.354 221.205 373.363C220.145 373.046 218.497 373.363 217.398 373.363H72.5816C67.2519 373.363 61.8837 373.18 56.5541 373.363H55.8216C55.6938 373.363 55.5712 373.414 55.4809 373.504C55.3905 373.594 55.3397 373.717 55.3397 373.844C55.3397 373.972 55.3905 374.094 55.4809 374.184C55.5712 374.274 55.6938 374.325 55.8216 374.325H214.458C216.386 374.325 219.084 374.806 220.983 374.325C221.079 374.316 221.176 374.316 221.272 374.325C221.4 374.325 221.523 374.274 221.613 374.184C221.703 374.094 221.754 373.972 221.754 373.844L217.07 327.254C216.689 323.201 215.224 319.324 212.83 316.028C208.329 309.765 201.756 304.33 195.241 300.261C183.155 292.728 167.571 289.784 154.984 297.855C139.159 308.005 134.35 328.255 135.998 345.888L136.721 345.475C133.804 343.408 130.446 342.046 126.912 341.497C123.378 340.949 119.764 341.228 116.357 342.313C112.95 343.398 109.842 345.26 107.279 347.75C104.716 350.241 102.769 353.292 101.591 356.663C100.473 359.885 100.117 364.417 96.2229 365.523C94.4277 365.855 92.5945 365.933 90.7776 365.754C88.6766 365.754 86.5755 365.658 84.4745 365.696C81.0218 365.716 77.581 366.103 74.2104 366.85C67.9362 368.313 62.3945 373.209 55.8987 373.431C55.2048 373.45 55.2048 374.412 55.8216 374.393Z" fill="#EDF2F7"/>
<path d="M360.2 364.311C371.765 339.299 385.258 314.488 403.733 295.046C412.812 285.484 422.411 275.912 433.957 269.322C444.106 263.55 469.954 254.104 473.24 272.622C474.031 277.038 472.759 281.617 470.59 285.542C464.287 296.942 453.242 303.089 443.286 310.823C435.027 317.259 392.207 342.896 365.394 368.322" fill="#FFB800"/>
<path d="M458.35 276.903C405.776 301.982 382.048 341.626 360.344 372.901" stroke="white" stroke-miterlimit="10"/>
<path d="M350.899 313.401C348.345 262.415 349.078 210.015 362.638 162.203C371.582 130.688 382.704 96.8929 406.335 72.9487C415.665 63.5018 431.201 57.951 445.031 62.9919C461.521 69.0141 465.27 87.7635 465.27 102.867C465.27 128.649 455.054 152.641 441.947 174.392C417.13 215.585 373.741 253.594 365.462 302.771C365.317 303.637 365.192 304.493 365.067 305.349" fill="#FFB800"/>
<path d="M431.191 84.512C372.738 173.257 373.143 257.567 368.787 326.937" stroke="white" stroke-miterlimit="10"/>
<path d="M194.682 283.281C196.715 244.724 194.971 200.222 187.559 163.127C175.426 102.319 124.789 74.9594 107.345 95.8637C103.191 100.847 101.678 107.408 101.832 113.651C102.613 145.667 120.259 173.825 136.239 201.193C153.134 230.111 171.638 259.337 182.018 290.939C184.498 298.481 186.795 306.068 188.909 313.7" fill="#FFB800"/>
<path d="M120.394 106.638C142.012 128.004 190.586 237.018 193.641 297.365" stroke="white" stroke-miterlimit="10"/>
<path d="M160.95 180.048C160.95 180.048 173.99 139.269 169.441 119.577" stroke="white" stroke-miterlimit="10"/>
<path d="M164.998 189.919C164.998 189.919 136.431 186.436 124.326 182.223" stroke="white" stroke-miterlimit="10"/>
<path d="M139.747 134.873C139.747 134.873 113.783 128.716 102.757 124.57" stroke="white" stroke-miterlimit="10"/>
<path d="M152.006 159.914C152.006 159.914 161.2 121.511 158.598 106.638" stroke="white" stroke-miterlimit="10"/>
<path d="M172.515 209.736C172.515 209.736 151.755 207.302 136.21 201.203" stroke="white" stroke-miterlimit="10"/>
<path d="M228.019 359.231C216.357 324.984 203.703 290.256 184.157 259.577C167.176 232.94 143.11 210.15 113.195 198.827C102.593 194.825 90.874 192.035 79.5111 193.42C71.5793 194.382 63.5993 197.874 59.7346 205.243C52.0244 219.933 62.6259 236.624 72.8129 247.023C78.7305 253.084 85.4673 258.279 92.0884 263.541C99.7985 269.688 107.229 276.182 114.882 282.406C130.899 295.431 147.582 307.62 163.465 320.809C178.97 333.568 193.702 347.233 207.587 361.732C210.992 365.311 214.343 368.938 217.639 372.613C217.889 372.901 218.285 372.488 218.044 372.209C192.677 342.762 162.386 318.606 131.815 294.864C116.722 283.146 102.227 270.717 87.3273 258.769C74.567 248.534 58.9635 235.133 58.0094 217.49C57.4119 206.542 63.9077 198.125 74.2489 195.229C84.5902 192.333 95.8567 194.171 105.899 197.153C135.468 205.926 160.603 227.1 178.182 251.929C198.681 280.895 211.673 314.546 223.653 347.687C225.053 351.535 226.448 355.402 227.835 359.289C227.884 359.424 228.096 359.366 228.048 359.231H228.019Z" fill="#F48914"/>
<path d="M76.9282 213.622C108.415 225.811 139.043 255.508 162.752 282.887C186.461 310.265 206.18 341.511 225.763 372.555" stroke="#F48914" stroke-miterlimit="10"/>
<path d="M129.386 247.995C129.386 247.995 125.348 214.027 122.582 203.281" stroke="#F48914" stroke-miterlimit="10"/>
<path d="M138.667 257.143C138.667 257.143 137 218.663 134.581 209.88" stroke="#F48914" stroke-miterlimit="10"/>
<path d="M79.2798 252.564C79.2798 252.564 103.268 243.954 123.893 243.531" stroke="#F48914" stroke-miterlimit="10"/>
<path d="M114.689 281.752C114.689 281.752 141.809 276.451 159.022 278.625" stroke="#F48914" stroke-miterlimit="10"/>
<path d="M102.776 272.199C102.776 272.199 131.545 266.61 148.334 266.966" stroke="#F48914" stroke-miterlimit="10"/>
<path d="M364.98 366.918C366.117 331.324 368.787 295.181 380.265 261.155C389.392 234.104 401.468 203.945 426.902 188.158C431.606 185.272 437.07 182.733 442.718 182.906C449.127 183.108 454.225 187.418 457.068 192.939C462.543 203.521 458.765 216.48 453.994 226.61C449.618 235.922 443.711 244.455 437.61 252.728C430.594 262.242 423.153 271.468 416.127 280.943C400.138 302.348 385.769 325.196 378.116 351.025C377.075 354.537 376.189 358.077 375.427 361.656C375.35 362.021 375.9 362.175 375.986 361.809C382.733 333.594 396.794 308.62 413.824 285.369C421.245 275.229 429.1 265.417 436.617 255.354C443.036 246.763 449.329 237.923 454.052 228.264C458.533 219.087 462.234 208.062 459.699 197.817C458.263 192.045 454.553 186.225 449.002 183.598C444.539 181.482 439.47 181.857 434.892 183.396C424.156 187.013 414.952 195.633 407.781 204.128C397.44 216.355 390.694 231.323 384.969 246.138C378.316 263.106 373.395 280.7 370.281 298.654C367.344 316.676 365.603 334.872 365.067 353.123C364.903 357.711 364.807 362.3 364.749 366.889C364.756 366.913 364.771 366.934 364.791 366.948C364.81 366.963 364.835 366.971 364.86 366.971C364.885 366.971 364.909 366.963 364.929 366.948C364.949 366.934 364.963 366.913 364.97 366.889L364.98 366.918Z" fill="#F48914"/>
<path d="M439.904 204.137C387.841 264.108 379.822 326.639 369.751 377.625" stroke="#F48914" stroke-miterlimit="10"/>
<path d="M417.862 233.449C417.862 233.449 418.479 210.804 416.484 195.691" stroke="#F48914" stroke-miterlimit="10"/>
<path d="M405.535 254.787C405.535 254.787 401.054 227.783 398.789 217.653" stroke="#F48914" stroke-miterlimit="10"/>
<path d="M409.603 247.283C409.603 247.283 431.577 238.779 447.932 238.51" stroke="#F48914" stroke-miterlimit="10"/>
<path d="M414.248 239.24C414.248 239.24 433.292 231.362 452.336 230.804" stroke="#F48914" stroke-miterlimit="10"/>
<path d="M399.435 267.495C399.435 267.495 417.216 259.722 434.198 258.837" stroke="#F48914" stroke-miterlimit="10"/>
<path d="M390 291.535C397.9 287.973 406.275 285.568 414.865 284.397" stroke="#F48914" stroke-miterlimit="10"/>
<path d="M371.736 37.345H210.391C198.277 37.345 188.456 47.1478 188.456 59.2402V358.442C188.456 370.535 198.277 380.338 210.391 380.338H371.736C383.851 380.338 393.672 370.535 393.672 358.442V59.2402C393.672 47.1478 383.851 37.345 371.736 37.345Z" fill="#F48914"/>
<path d="M383.822 60.9814H198.315V356.701H383.822V60.9814Z" fill="#DFEAF7"/>
<path d="M307.645 51.3035H274.472C274.252 51.3206 274.031 51.2921 273.823 51.2199C273.615 51.1476 273.424 51.0331 273.262 50.8836C273.1 50.7341 272.971 50.5528 272.882 50.3511C272.794 50.1493 272.748 49.9316 272.748 49.7114C272.748 49.4913 272.794 49.2735 272.882 49.0718C272.971 48.8701 273.1 48.6888 273.262 48.5393C273.424 48.3897 273.615 48.2753 273.823 48.203C274.031 48.1307 274.252 48.1022 274.472 48.1193H307.645C307.865 48.1022 308.086 48.1307 308.294 48.203C308.503 48.2753 308.694 48.3897 308.856 48.5393C309.018 48.6888 309.147 48.8701 309.235 49.0718C309.324 49.2735 309.369 49.4913 309.369 49.7114C309.369 49.9316 309.324 50.1493 309.235 50.3511C309.147 50.5528 309.018 50.7341 308.856 50.8836C308.694 51.0331 308.503 51.1476 308.294 51.2199C308.086 51.2921 307.865 51.3206 307.645 51.3035Z" fill="#223554"/>
<path d="M291.059 375.97C294.795 375.97 297.825 372.946 297.825 369.217C297.825 365.487 294.795 362.463 291.059 362.463C287.322 362.463 284.293 365.487 284.293 369.217C284.293 372.946 287.322 375.97 291.059 375.97Z" fill="#223554"/>
<path d="M198.306 74.2185H370.907C372.372 74.2185 373.777 74.7993 374.812 75.833C375.848 76.8668 376.43 78.2688 376.43 79.7308V166.157C376.431 166.882 376.289 167.6 376.012 168.27C375.735 168.939 375.329 169.548 374.816 170.061C374.303 170.574 373.693 170.981 373.023 171.259C372.352 171.536 371.633 171.679 370.907 171.679H198.306" stroke="white" stroke-width="2" stroke-miterlimit="10"/>
<path d="M442.255 163.098H265.374L285.517 146.09V86.2341C285.516 85.5031 285.659 84.779 285.938 84.1032C286.218 83.4275 286.628 82.8134 287.145 82.2961C287.663 81.7787 288.277 81.3683 288.954 81.0882C289.63 80.8082 290.355 80.6641 291.088 80.6641H442.255C442.987 80.6641 443.713 80.8082 444.389 81.0882C445.066 81.3683 445.68 81.7787 446.198 82.2961C446.715 82.8134 447.125 83.4275 447.404 84.1032C447.684 84.779 447.827 85.5031 447.826 86.2341V157.547C447.823 159.02 447.235 160.432 446.191 161.473C445.146 162.514 443.731 163.098 442.255 163.098Z" fill="white"/>
<g opacity="0.55">
<path d="M438.68 111.563H299.174V114.834H438.68V111.563Z" fill="#FFB800"/>
<path d="M438.68 117.97H299.174V121.241H438.68V117.97Z" fill="#FFB800"/>
<path d="M438.68 124.368H299.174V127.638H438.68V124.368Z" fill="#FFB800"/>
</g>
<path d="M400.341 91.1401H301.429C300.184 91.1401 299.174 92.148 299.174 93.3912V102.838C299.174 104.081 300.184 105.089 301.429 105.089H400.341C401.586 105.089 402.596 104.081 402.596 102.838V93.3912C402.596 92.148 401.586 91.1401 400.341 91.1401Z" fill="#FFB800"/>
<path d="M310.537 133.603L312.609 138.99L318.391 139.289C318.645 139.301 318.888 139.391 319.09 139.545C319.291 139.699 319.441 139.91 319.519 140.151C319.597 140.392 319.601 140.651 319.528 140.894C319.456 141.137 319.312 141.352 319.114 141.511L314.623 145.138L316.127 150.707C316.201 150.957 316.196 151.224 316.111 151.47C316.026 151.716 315.867 151.93 315.654 152.082C315.442 152.233 315.188 152.315 314.927 152.315C314.666 152.315 314.412 152.234 314.199 152.083L309.38 148.937L304.561 152.083C304.349 152.234 304.094 152.315 303.833 152.315C303.572 152.315 303.318 152.233 303.106 152.082C302.894 151.93 302.734 151.716 302.649 151.47C302.565 151.224 302.559 150.957 302.634 150.707L304.137 145.138L299.646 141.511C299.449 141.352 299.304 141.137 299.232 140.894C299.16 140.651 299.163 140.392 299.241 140.151C299.32 139.91 299.469 139.699 299.671 139.545C299.872 139.391 300.115 139.301 300.369 139.289L306.151 138.99L308.214 133.603C308.308 133.372 308.468 133.175 308.675 133.035C308.882 132.896 309.126 132.822 309.375 132.822C309.625 132.822 309.869 132.896 310.076 133.035C310.282 133.175 310.443 133.372 310.537 133.603Z" fill="#FF9189"/>
<path d="M340.317 133.603L342.38 138.99L348.162 139.288C348.416 139.301 348.659 139.391 348.86 139.545C349.062 139.699 349.212 139.91 349.29 140.151C349.368 140.392 349.372 140.651 349.299 140.894C349.227 141.137 349.083 141.352 348.885 141.511L344.394 145.137L345.888 150.707C345.962 150.957 345.957 151.224 345.872 151.47C345.788 151.716 345.628 151.93 345.416 152.082C345.203 152.233 344.949 152.315 344.688 152.315C344.427 152.315 344.173 152.234 343.96 152.083L339.141 148.937L334.323 152.083C334.11 152.234 333.855 152.315 333.595 152.315C333.334 152.315 333.079 152.233 332.867 152.082C332.655 151.93 332.495 151.716 332.411 151.47C332.326 151.224 332.321 150.957 332.395 150.707L333.898 145.137L329.407 141.511C329.21 141.352 329.065 141.137 328.993 140.894C328.921 140.651 328.924 140.392 329.002 140.151C329.081 139.91 329.231 139.699 329.432 139.545C329.633 139.391 329.877 139.301 330.13 139.288L335.913 138.99L337.975 133.603C338.069 133.37 338.231 133.17 338.44 133.03C338.648 132.889 338.894 132.814 339.146 132.814C339.398 132.814 339.644 132.889 339.853 133.03C340.061 133.17 340.223 133.37 340.317 133.603Z" fill="#FF9189"/>
<path d="M370.088 133.603L372.151 138.99L377.933 139.288C378.187 139.301 378.43 139.391 378.631 139.545C378.833 139.699 378.982 139.91 379.061 140.151C379.139 140.392 379.142 140.651 379.07 140.894C378.998 141.137 378.853 141.352 378.656 141.511L374.165 145.137L375.668 150.707C375.743 150.957 375.737 151.224 375.653 151.47C375.568 151.716 375.408 151.93 375.196 152.082C374.984 152.233 374.73 152.315 374.469 152.315C374.208 152.315 373.953 152.234 373.741 152.083L368.922 148.937L364.103 152.083C363.89 152.234 363.636 152.315 363.375 152.315C363.114 152.315 362.86 152.233 362.648 152.082C362.435 151.93 362.276 151.716 362.191 151.47C362.106 151.224 362.101 150.957 362.175 150.707L363.669 145.137L359.178 141.511C358.981 141.352 358.836 141.137 358.764 140.894C358.692 140.651 358.695 140.392 358.773 140.151C358.852 139.91 359.001 139.699 359.203 139.545C359.404 139.391 359.648 139.301 359.901 139.288L365.684 138.99L367.746 133.603C367.84 133.37 368.002 133.17 368.211 133.03C368.419 132.889 368.665 132.814 368.917 132.814C369.169 132.814 369.415 132.889 369.623 133.03C369.832 133.17 369.994 133.37 370.088 133.603Z" fill="#FF9189"/>
<path d="M398.693 133.767C398.753 133.761 398.814 133.776 398.864 133.81C398.915 133.843 398.953 133.892 398.972 133.949L401.035 139.337L401.256 139.923H401.883L407.666 140.222C407.725 140.223 407.782 140.244 407.829 140.28C407.875 140.317 407.909 140.367 407.926 140.424C407.946 140.48 407.947 140.541 407.93 140.598C407.913 140.655 407.877 140.705 407.829 140.741L403.338 144.358L402.856 144.753L403.011 145.359L404.514 150.929C404.533 150.966 404.544 151.007 404.544 151.049C404.544 151.091 404.533 151.132 404.514 151.169C404.484 151.207 404.446 151.237 404.402 151.259C404.359 151.281 404.312 151.293 404.263 151.294C404.213 151.31 404.159 151.31 404.109 151.294L399.29 148.149L398.76 147.812L398.24 148.149L393.421 151.294C393.368 151.311 393.31 151.311 393.257 151.294C393.21 151.293 393.164 151.28 393.123 151.259C393.081 151.237 393.045 151.207 393.016 151.169C392.997 151.132 392.987 151.091 392.987 151.049C392.987 151.007 392.997 150.966 393.016 150.929L394.51 145.359L394.674 144.753L394.192 144.358L389.701 140.741C389.652 140.707 389.615 140.657 389.598 140.599C389.58 140.541 389.583 140.48 389.604 140.424C389.621 140.367 389.655 140.317 389.702 140.28C389.748 140.244 389.805 140.223 389.865 140.222L395.647 139.923H396.274L396.495 139.337L398.558 133.949C398.577 133.894 398.613 133.846 398.662 133.813C398.711 133.78 398.769 133.764 398.828 133.767M398.828 132.805C398.575 132.802 398.327 132.878 398.119 133.021C397.91 133.163 397.75 133.367 397.662 133.603L395.589 138.99L389.807 139.289C389.553 139.301 389.31 139.391 389.109 139.545C388.907 139.699 388.758 139.91 388.679 140.151C388.601 140.392 388.598 140.651 388.67 140.894C388.742 141.137 388.887 141.352 389.084 141.511L393.575 145.138L392.072 150.708C392.021 150.893 392.014 151.088 392.052 151.277C392.089 151.466 392.17 151.644 392.287 151.797C392.405 151.949 392.556 152.073 392.729 152.158C392.903 152.242 393.093 152.286 393.286 152.285C393.529 152.287 393.767 152.217 393.97 152.083L398.789 148.937L403.608 152.083C403.808 152.216 404.043 152.286 404.283 152.285C404.476 152.287 404.668 152.245 404.842 152.161C405.017 152.077 405.169 151.953 405.288 151.8C405.407 151.647 405.488 151.469 405.526 151.28C405.564 151.09 405.557 150.894 405.507 150.708L404.003 145.138L408.494 141.511C408.692 141.352 408.836 141.137 408.909 140.894C408.981 140.651 408.978 140.392 408.899 140.151C408.821 139.91 408.671 139.699 408.47 139.545C408.268 139.391 408.025 139.301 407.772 139.289L401.989 138.99L399.926 133.603C399.837 133.365 399.676 133.161 399.465 133.018C399.255 132.875 399.005 132.8 398.751 132.805H398.828Z" fill="#FF9189"/>
<path d="M428.473 133.766C428.532 133.763 428.59 133.78 428.639 133.813C428.688 133.846 428.724 133.894 428.743 133.949L430.815 139.336L431.037 139.923H431.663L437.446 140.222C437.506 140.222 437.563 140.242 437.611 140.278C437.658 140.315 437.691 140.366 437.706 140.424C437.727 140.479 437.73 140.539 437.715 140.596C437.699 140.653 437.666 140.704 437.619 140.741L433.128 144.358L432.637 144.753L432.801 145.359L434.304 150.929C434.316 150.97 434.317 151.013 434.309 151.055C434.301 151.096 434.282 151.136 434.256 151.169C434.227 151.206 434.191 151.237 434.149 151.259C434.108 151.28 434.062 151.292 434.015 151.294C433.965 151.311 433.911 151.311 433.861 151.294L429.042 148.148L428.512 147.812L427.982 148.148L423.163 151.294C423.113 151.311 423.059 151.311 423.009 151.294C422.962 151.292 422.916 151.28 422.874 151.259C422.832 151.237 422.796 151.206 422.768 151.169C422.741 151.136 422.723 151.096 422.715 151.055C422.706 151.013 422.708 150.97 422.72 150.929L424.223 145.359L424.387 144.753L423.895 144.358L419.404 140.741C419.358 140.704 419.325 140.653 419.308 140.597C419.291 140.54 419.291 140.48 419.308 140.424C419.326 140.366 419.362 140.315 419.41 140.279C419.459 140.243 419.517 140.223 419.578 140.222L425.36 139.923H425.987L426.208 139.336L428.28 133.949C428.298 133.893 428.334 133.844 428.383 133.81C428.432 133.777 428.491 133.762 428.55 133.766M428.55 132.804C428.296 132.803 428.048 132.878 427.838 133.021C427.628 133.164 427.466 133.367 427.375 133.603L425.312 138.99L419.529 139.288C419.275 139.299 419.03 139.388 418.828 139.541C418.625 139.694 418.474 139.906 418.394 140.147C418.315 140.388 418.311 140.648 418.383 140.891C418.455 141.135 418.599 141.351 418.797 141.511L423.288 145.137L421.794 150.707C421.72 150.957 421.725 151.224 421.81 151.47C421.895 151.716 422.054 151.93 422.266 152.082C422.479 152.233 422.733 152.315 422.994 152.315C423.255 152.315 423.509 152.234 423.722 152.083L428.541 148.937L433.36 152.083C433.563 152.217 433.801 152.287 434.044 152.285C434.237 152.286 434.427 152.242 434.6 152.157C434.774 152.073 434.925 151.949 435.042 151.796C435.16 151.644 435.241 151.466 435.278 151.277C435.315 151.088 435.309 150.893 435.258 150.707L433.697 145.137L438.188 141.511C438.386 141.351 438.531 141.135 438.603 140.891C438.674 140.648 438.67 140.388 438.591 140.147C438.511 139.906 438.36 139.694 438.157 139.541C437.955 139.388 437.71 139.299 437.456 139.288L431.673 138.99L429.611 133.603C429.519 133.367 429.357 133.164 429.147 133.021C428.937 132.878 428.689 132.803 428.435 132.804H428.55Z" fill="#FF9189"/>
<path d="M398.693 132.804C398.44 132.802 398.192 132.878 397.984 133.02C397.775 133.163 397.616 133.367 397.527 133.603L395.454 138.99L389.672 139.288C389.418 139.301 389.175 139.391 388.974 139.545C388.772 139.699 388.622 139.91 388.544 140.151C388.466 140.392 388.463 140.651 388.535 140.894C388.607 141.136 388.752 141.352 388.949 141.511L393.44 145.137L391.937 150.707C391.862 150.957 391.868 151.224 391.952 151.47C392.037 151.716 392.197 151.93 392.409 152.082C392.621 152.233 392.875 152.315 393.136 152.315C393.397 152.315 393.652 152.234 393.864 152.083L398.683 148.937L398.693 132.804Z" fill="#FF9189"/>
<path d="M252.962 157.446C270.374 150.424 278.786 130.643 271.751 113.264C264.717 95.8845 244.899 87.488 227.488 94.5097C210.077 101.531 201.665 121.312 208.699 138.692C215.734 156.071 235.551 164.468 252.962 157.446Z" fill="white"/>
<path d="M247.417 156.932C264.525 152.961 275.17 135.898 271.192 118.821C267.213 101.744 250.119 91.119 233.01 95.0899C215.902 99.0608 205.257 116.124 209.236 133.201C213.214 150.278 230.308 160.903 247.417 156.932Z" fill="#223554"/>
<path d="M219.913 137.441C226.409 130.024 236.085 130.188 236.085 130.188L245.636 130.024C245.636 130.024 254.137 131.14 259.254 135.325C274.559 147.831 272.024 169.822 272.024 169.822C272.024 169.822 209.938 156.354 209.851 155.97C209.765 155.585 215.576 142.386 219.913 137.441Z" stroke="white" stroke-miterlimit="10"/>
<path d="M246.725 111.929C248.653 119.712 245.145 125.522 242.138 125.974C237.83 126.619 235.391 124.502 234.148 120.674C233.589 118.971 232.76 112.564 234.553 110.678C237.531 107.552 245.087 105.301 246.725 111.929Z" fill="#FEE5E6"/>
<path d="M236.577 122.348L236.143 129.495C236.143 129.495 235.179 132.747 241.029 132.747C246.879 132.747 245.501 129.495 245.501 129.495L244.538 121.568" fill="#FEE5E6"/>
<path d="M236.288 124.618C236.756 125.285 237.389 125.819 238.125 126.17C238.861 126.52 239.676 126.675 240.49 126.619C241.378 126.619 242.254 126.402 243.04 125.988C243.826 125.574 244.499 124.975 245 124.243" stroke="#F2B6AA" stroke-width="0.5" stroke-miterlimit="10"/>
<path d="M233.136 107.177C237.049 103.79 244.345 102.905 248.306 106.955C250.637 109.387 252.372 112.324 253.376 115.537C254.379 118.75 254.623 122.151 254.089 125.474C254.088 125.663 254.048 125.849 253.972 126.022C253.895 126.194 253.784 126.349 253.644 126.477C253.505 126.604 253.34 126.702 253.161 126.762C252.982 126.823 252.793 126.846 252.604 126.83C251.315 127.057 250.01 127.173 248.701 127.177C247.545 127.177 246.465 126.994 245.318 127.052C245.249 127.071 245.176 127.071 245.106 127.052C244.952 126.994 244.904 126.792 244.885 126.619C244.827 126.128 244.759 125.657 244.701 125.147C244.672 124.949 244.672 124.748 244.701 124.551C244.762 124.329 244.857 124.118 244.981 123.925C245.838 122.461 246.321 120.81 246.388 119.115C246.31 117.31 246.002 115.523 245.472 113.795C244.856 111.448 243.545 112.044 241.791 112.689C240.441 113.183 238.953 113.148 237.627 112.593C236.99 112.217 236.292 111.957 235.565 111.823C232.674 111.66 233.84 117.672 234.129 119.154C234.418 120.635 234.688 122.299 235.825 123.531C236.019 123.718 236.194 123.924 236.346 124.146C236.537 124.503 236.649 124.897 236.673 125.301C236.742 125.895 236.777 126.492 236.779 127.09C235.497 127.09 234.244 127.206 232.972 127.206C231.7 127.206 230.206 127.052 228.828 127.052C228.451 127.074 228.079 126.954 227.787 126.715C227.655 126.533 227.563 126.324 227.518 126.103C227.473 125.883 227.476 125.655 227.527 125.436C228.076 118.971 228.086 111.525 233.136 107.177Z" fill="#F48914"/>
<path d="M234.456 117.797C234.242 117.599 233.968 117.477 233.676 117.451C233.385 117.424 233.093 117.496 232.847 117.653C232.671 117.798 232.531 117.983 232.439 118.191C232.347 118.4 232.305 118.628 232.317 118.855C232.275 119.276 232.331 119.701 232.481 120.096C232.568 120.313 232.698 120.511 232.864 120.676C233.03 120.841 233.227 120.971 233.444 121.058C233.677 121.15 233.929 121.182 234.177 121.15C234.424 121.118 234.66 121.023 234.861 120.876" fill="#FEE5E6"/>
<path d="M246.475 117.797C246.691 117.598 246.967 117.476 247.26 117.45C247.553 117.423 247.846 117.495 248.094 117.653C248.27 117.798 248.412 117.98 248.509 118.186C248.605 118.393 248.655 118.618 248.653 118.846C248.692 119.267 248.632 119.692 248.479 120.087C248.394 120.305 248.264 120.503 248.098 120.668C247.932 120.834 247.734 120.963 247.516 121.049C247.285 121.141 247.035 121.172 246.788 121.14C246.542 121.108 246.308 121.014 246.109 120.866" fill="#FEE5E6"/>
<path d="M255.588 230.824C260.227 219.555 254.837 206.667 243.548 202.036C232.259 197.405 219.346 202.786 214.707 214.055C210.068 225.323 215.459 238.212 226.748 242.842C238.037 247.473 250.949 242.092 255.588 230.824Z" fill="white"/>
<path d="M249.749 237.003C257.822 228.945 257.822 215.879 249.749 207.821C241.676 199.763 228.587 199.763 220.513 207.821C212.44 215.879 212.44 228.945 220.513 237.003C228.587 245.062 241.676 245.062 249.749 237.003Z" fill="#223554"/>
<path d="M249.414 230.255C245.762 225.946 238.331 225.984 238.331 225.984L232.847 225.888C232.847 225.888 225.725 225.994 222.496 229.419C215.595 236.749 216.983 247.504 216.983 247.504C216.983 247.504 253.327 247.716 253.375 247.504C253.424 247.293 253.192 234.71 249.414 230.255Z" stroke="white" stroke-miterlimit="10"/>
<path d="M232.269 215.508C231.16 219.972 233.175 223.3 234.9 223.56C237.377 223.935 238.755 222.723 239.478 220.52C239.805 219.558 240.278 215.873 239.246 214.796C237.502 213.007 233.165 211.708 232.269 215.508Z" fill="#EFC5C8"/>
<path d="M236.047 214.671C235.758 214.623 235.459 214.671 235.16 214.594C234.772 214.513 234.419 214.315 234.148 214.027C233.531 213.382 232.317 216.095 232.317 216.095C232.022 217.476 232.002 218.901 232.259 220.289C231.385 219.757 230.643 219.033 230.091 218.173C229.823 217.747 229.645 217.273 229.565 216.777C229.486 216.281 229.507 215.774 229.628 215.287C230.1 214.277 230.692 213.327 231.392 212.458C231.659 211.917 231.982 211.404 232.355 210.929C232.824 210.471 233.401 210.14 234.032 209.967C235.165 209.588 236.374 209.499 237.55 209.707C238.727 209.923 239.784 210.563 240.519 211.506C241.223 212.604 241.607 213.877 241.627 215.181C241.748 215.895 241.725 216.626 241.56 217.332C241.394 218.037 241.09 218.702 240.663 219.289C240.403 219.577 239.911 219.808 239.699 219.51C239.637 219.412 239.597 219.302 239.582 219.188C239.567 219.073 239.578 218.956 239.613 218.846C239.717 218.393 239.715 217.923 239.609 217.471C239.502 217.019 239.292 216.597 238.996 216.239C238.578 215.9 238.11 215.628 237.608 215.431C237.142 215.08 236.611 214.821 236.047 214.671Z" fill="#FFB800"/>
<path d="M238.051 221.482L238.302 225.59C238.302 225.59 238.88 227.446 235.497 227.446C232.115 227.446 232.934 225.59 232.934 225.59L233.493 221.04" fill="#EFC5C8"/>
<path d="M238.051 222.742C237.823 223.153 237.485 223.492 237.075 223.723C236.665 223.954 236.199 224.067 235.729 224.051C235.213 224.027 234.713 223.871 234.276 223.598C233.838 223.325 233.479 222.944 233.233 222.492" stroke="#E09DA5" stroke-width="0.5" stroke-miterlimit="10"/>
<path opacity="0.65" d="M364.488 199.664H271.581C269.574 199.664 267.948 201.288 267.948 203.291V241.54C267.948 243.543 269.574 245.167 271.581 245.167H364.488C366.495 245.167 368.122 243.543 368.122 241.54V203.291C368.122 201.288 366.495 199.664 364.488 199.664Z" fill="white"/>
<g opacity="0.55">
<path d="M360.595 217.24H273.007V220.443H360.595V217.24Z" fill="#FFB800"/>
<path d="M360.595 223.521H273.007V226.725H360.595V223.521Z" fill="#FFB800"/>
<path d="M360.595 229.803H273.007V233.007H360.595V229.803Z" fill="#FFB800"/>
<path d="M301.188 236.085H273.007V239.289H301.188V236.085Z" fill="#FFB800"/>
</g>
<g opacity="0.55">
<path d="M337.031 237.23C337.031 237.494 336.978 237.756 336.876 238L337.406 239.058L336.25 238.798C335.934 239.037 335.548 239.165 335.151 239.164C334.768 239.173 334.391 239.068 334.068 238.863C333.744 238.657 333.49 238.36 333.336 238.01C333.183 237.659 333.138 237.271 333.207 236.895C333.276 236.518 333.455 236.171 333.723 235.897C333.991 235.623 334.334 235.435 334.709 235.357C335.084 235.279 335.474 235.314 335.829 235.458C336.184 235.602 336.488 235.848 336.702 236.166C336.916 236.483 337.031 236.857 337.031 237.24V237.23Z" fill="#FFB800"/>
<path d="M349.425 236.537C349.146 236.68 348.842 236.765 348.53 236.787C348.218 236.808 347.905 236.767 347.609 236.664C347.314 236.562 347.042 236.4 346.811 236.19C346.579 235.98 346.393 235.725 346.264 235.441C346.122 235.443 345.982 235.474 345.852 235.53C345.722 235.586 345.604 235.668 345.506 235.77C345.407 235.872 345.33 235.992 345.278 236.124C345.226 236.255 345.201 236.396 345.203 236.537C345.202 236.824 345.313 237.1 345.512 237.307L347.314 239.164L349.116 237.307C349.315 237.1 349.426 236.824 349.425 236.537Z" fill="#FFB800"/>
<path d="M360.585 235.441H355.4V236.23H360.585V235.441Z" fill="#FFB800"/>
<path d="M360.585 237.076H355.4V237.865H360.585V237.076Z" fill="#FFB800"/>
<path d="M360.585 238.702H355.4V239.491H360.585V238.702Z" fill="#FFB800"/>
</g>
<path d="M329.966 205.436H274.145C273.517 205.436 273.007 205.944 273.007 206.571V211.997C273.007 212.624 273.517 213.132 274.145 213.132H329.966C330.594 213.132 331.103 212.624 331.103 211.997V206.571C331.103 205.944 330.594 205.436 329.966 205.436Z" fill="#FFB800"/>
<path d="M370.917 189.688H211.21C208.16 189.688 205.688 192.156 205.688 195.2V249.63C205.688 252.675 208.16 255.142 211.21 255.142H370.917C373.967 255.142 376.439 252.675 376.439 249.63V195.2C376.439 192.156 373.967 189.688 370.917 189.688Z" stroke="white" stroke-miterlimit="10"/>
<path d="M255.589 314.9C260.228 303.632 254.838 290.743 243.549 286.113C232.26 281.482 219.347 286.863 214.708 298.131C210.069 309.399 215.46 322.288 226.749 326.919C238.038 331.549 250.95 326.169 255.589 314.9Z" fill="white"/>
<path d="M249.753 321.067C257.826 313.009 257.826 299.943 249.753 291.885C241.68 283.826 228.591 283.826 220.517 291.885C212.444 299.943 212.444 313.009 220.517 321.067C228.591 329.126 241.68 329.126 249.753 321.067Z" fill="#223554"/>
<path opacity="0.65" d="M364.488 283.724H271.581C269.574 283.724 267.948 285.347 267.948 287.35V325.6C267.948 327.603 269.574 329.226 271.581 329.226H364.488C366.495 329.226 368.122 327.603 368.122 325.6V287.35C368.122 285.347 366.495 283.724 364.488 283.724Z" fill="white"/>
<g opacity="0.55">
<path d="M360.595 301.309H273.007V304.513H360.595V301.309Z" fill="#FFB800"/>
<path d="M360.595 307.591H273.007V310.794H360.595V307.591Z" fill="#FFB800"/>
<path d="M360.595 313.863H273.007V317.067H360.595V313.863Z" fill="#FFB800"/>
<path d="M301.188 320.145H273.007V323.348H301.188V320.145Z" fill="#FFB800"/>
</g>
<g opacity="0.55">
<path d="M337.031 321.3C337.029 321.564 336.977 321.825 336.876 322.069L337.406 323.127L336.25 322.868C335.934 323.106 335.548 323.235 335.151 323.233C334.768 323.243 334.391 323.138 334.068 322.933C333.744 322.727 333.49 322.43 333.336 322.079C333.183 321.729 333.138 321.34 333.207 320.964C333.276 320.588 333.455 320.241 333.723 319.967C333.991 319.693 334.334 319.505 334.709 319.426C335.084 319.348 335.474 319.383 335.829 319.527C336.184 319.672 336.488 319.918 336.702 320.235C336.916 320.553 337.031 320.927 337.031 321.309V321.3Z" fill="#FFB800"/>
<path d="M349.425 320.597C349.147 320.739 348.843 320.823 348.532 320.845C348.22 320.867 347.908 320.825 347.613 320.724C347.318 320.623 347.046 320.463 346.814 320.254C346.583 320.046 346.395 319.793 346.264 319.51C346.122 319.512 345.983 319.541 345.853 319.596C345.723 319.652 345.605 319.732 345.506 319.833C345.408 319.934 345.33 320.054 345.278 320.185C345.226 320.316 345.201 320.456 345.203 320.597C345.2 320.884 345.311 321.161 345.512 321.367L347.314 323.233L349.116 321.367C349.317 321.161 349.428 320.884 349.425 320.597Z" fill="#FFB800"/>
<path d="M360.585 319.51H355.4V320.299H360.585V319.51Z" fill="#FFB800"/>
<path d="M360.585 321.136H355.4V321.925H360.585V321.136Z" fill="#FFB800"/>
<path d="M360.585 322.771H355.4V323.56H360.585V322.771Z" fill="#FFB800"/>
</g>
<path d="M329.966 289.505H274.145C273.517 289.505 273.007 290.014 273.007 290.641V296.066C273.007 296.693 273.517 297.201 274.145 297.201H329.966C330.594 297.201 331.103 296.693 331.103 296.066V290.641C331.103 290.014 330.594 289.505 329.966 289.505Z" fill="#FFB800"/>
<path d="M370.917 273.748H211.21C208.16 273.748 205.688 276.216 205.688 279.26V333.69C205.688 336.734 208.16 339.202 211.21 339.202H370.917C373.967 339.202 376.439 336.734 376.439 333.69V279.26C376.439 276.216 373.967 273.748 370.917 273.748Z" stroke="white" stroke-miterlimit="10"/>
<path d="M419.395 164.541C419.028 163.579 418.672 162.54 418.305 161.549C418.146 161.025 417.912 160.526 417.612 160.068C417.457 159.841 417.256 159.65 417.022 159.508C416.787 159.365 416.525 159.274 416.253 159.24C415.732 159.24 415.559 158.971 415.289 158.596C414.795 158.01 414.224 157.492 413.593 157.057C413.012 156.558 412.317 156.211 411.569 156.047C411.174 156.047 411.299 156.431 411.443 156.662C412.137 157.778 413.246 158.365 414.094 159.491C413.568 159.676 413.124 160.04 412.841 160.52C412.629 160.855 412.482 161.227 412.407 161.617C412.399 162.069 412.415 162.522 412.455 162.973C412.426 163.264 412.426 163.557 412.455 163.848C412.502 164.057 412.59 164.253 412.716 164.426C412.953 164.736 413.251 164.993 413.593 165.182C413.935 165.371 414.312 165.487 414.701 165.522C414.932 165.522 415.212 165.522 415.299 165.291C415.351 165.476 415.441 165.648 415.564 165.795C415.687 165.943 415.839 166.063 416.012 166.148C416.353 166.313 416.712 166.438 417.082 166.523C417.168 166.542 417.25 166.578 417.322 166.629C417.394 166.698 417.453 166.779 417.496 166.869C417.729 167.326 418.031 167.745 418.392 168.11" fill="#FFDFD9"/>
<path d="M476.016 379.155C476.016 379.155 478.079 383.205 476.652 384.224C475.563 385.013 460.018 385.427 459.613 383.397C459.381 382.223 472.142 378.827 472.142 378.827L476.777 375.076L476.016 379.155Z" fill="#223554"/>
<path d="M468.479 262.877C468.479 262.877 464.354 289.034 464.354 310.833C464.354 342.31 471.66 376.605 472.065 378.827C472.656 379.156 473.311 379.356 473.986 379.412C474.661 379.469 475.34 379.381 475.978 379.154C475.978 379.154 485.307 351.689 486.309 343.56C487.842 331.141 483.543 317.172 483.543 317.172C483.543 317.172 490.935 294.633 493.692 278.5C494.964 271.256 468.479 262.877 468.479 262.877Z" fill="#FFDFD9"/>
<path d="M519.347 379.155C519.347 379.155 521.41 383.205 519.983 384.224C518.894 385.013 503.339 385.427 502.944 383.397C502.703 382.223 515.425 378.827 515.425 378.827L520.06 375.076L519.347 379.155Z" fill="#223554"/>
<path d="M502.896 262.877C502.896 262.877 503.117 291.189 502.896 310.833C502.52 343.243 514.991 376.605 515.425 378.827C516.019 379.154 516.675 379.352 517.351 379.409C518.027 379.465 518.707 379.378 519.347 379.154C519.347 379.154 524.6 357.115 525.303 343.56C525.959 331.054 522.537 317.172 522.537 317.172C522.537 317.172 525.573 292.959 528.32 276.826C529.573 269.582 502.896 262.877 502.896 262.877Z" fill="#FFDFD9"/>
<path d="M466.88 244.705C466.88 244.705 462.803 256.374 461.907 287.601C461.58 294.607 461.844 301.629 462.697 308.591C495.465 316.845 527.048 309.64 527.048 309.64C527.048 309.64 535.269 269.794 526.768 253.613C519.241 239.279 511.705 230.91 511.705 230.91" fill="#223554"/>
<path d="M522.142 185.089C522.142 185.089 526.142 226.773 526.18 230.794C526.315 246.34 532.262 255.95 530.816 257.393C528.243 259.962 471.38 263.493 465.28 257.393C465.28 249.38 467.207 224.435 467.525 219.558C469.135 196.152 476.614 173.468 476.614 173.468C476.614 173.468 475.534 166.734 498.964 167.417C509.835 167.417 518.798 170.861 522.142 185.089Z" fill="#FF9189"/>
<path d="M484.854 168.168C476.203 168.524 467.769 170.974 460.278 175.306C449.368 181.771 443.749 188.456 437.966 188.456C432.184 188.456 418.874 163.175 418.874 163.175L416.619 166.744C416.619 166.744 420.782 204.166 436.039 208.62C456.461 214.575 478.445 198.307 478.445 198.307" fill="#F41414"/>
<path d="M499.995 167.417C499.995 167.417 497.103 180.52 497.103 209.746C497.103 223.877 498.52 267.966 498.52 267.966C498.52 267.966 518.981 270.006 531.838 262.194C530.508 248.726 532.715 206.917 527.308 189.88C523.935 179.231 524.793 172.93 518.894 170.063C512.749 168.306 506.387 167.416 499.995 167.417Z" fill="#F41414"/>
<path d="M484.854 168.168C484.854 168.168 481.895 192.285 480.604 214.171C479.312 236.056 480.604 267.004 480.604 267.004C480.604 267.004 466.031 264.916 461.781 260.02C462.88 245.32 465.01 204.474 468.364 191.285C472.662 174.344 484.854 168.168 484.854 168.168Z" fill="#F41414"/>
<path d="M466.214 205.166L468.267 186.802" stroke="black" stroke-width="0.75" stroke-miterlimit="10"/>
<path d="M522.634 247.966C518.461 249.615 514.032 250.52 509.546 250.64" stroke="black" stroke-width="2" stroke-miterlimit="10"/>
<path d="M476.614 250.342C476.614 250.342 472.99 250.544 466.494 247.966" stroke="black" stroke-width="2" stroke-miterlimit="10"/>
<path d="M508.495 167.956C508.495 167.956 509.941 188.543 508.225 189.832C506.669 190.805 505.06 191.691 503.406 192.487L507.705 195.325C507.473 206.59 497.585 231.949 497.585 231.949" stroke="black" stroke-width="0.75" stroke-linejoin="round"/>
<path d="M482.473 168.293C482.473 168.293 476.903 180.799 477.269 185.609C477.269 187.091 480.922 189.457 480.922 189.457L476.797 191.506C475.197 204.122 475.975 216.925 479.09 229.255" stroke="black" stroke-width="0.75" stroke-linejoin="round"/>
<path d="M488.844 141.636C488.844 141.636 478.117 156.066 481.991 159.914C485.866 163.762 493.403 161.693 496.207 158.952C500.197 154.969 505.016 136.018 488.844 141.636Z" fill="#FFDFD9"/>
<path d="M487.128 151.063C487.128 151.063 483.755 153.247 483.89 154.075C484.025 154.902 485.008 154.883 485.008 154.883" stroke="#F2B6AA" stroke-width="0.5" stroke-miterlimit="10"/>
<path d="M490.318 152.516C490.323 152.57 490.323 152.625 490.318 152.679C490.251 153.03 490.103 153.359 489.885 153.641C489.576 154.161 488.748 153.641 489.114 153.093C489.336 152.772 489.602 152.484 489.904 152.237C490.212 151.996 490.309 152.218 490.318 152.516Z" fill="#223554"/>
<path d="M485.74 148.822V148.986C485.673 149.336 485.525 149.665 485.307 149.948C484.998 150.467 484.17 149.899 484.536 149.399C484.755 149.076 485.022 148.788 485.326 148.543C485.644 148.341 485.74 148.562 485.74 148.822Z" fill="#223554"/>
<path d="M492.487 153.16C492.581 152.941 492.633 152.706 492.641 152.468C492.656 151.93 492.508 151.4 492.217 150.948C491.921 150.49 491.475 150.15 490.955 149.986C490.776 149.95 490.593 149.95 490.415 149.986L490.222 150.044L490.396 150.13C490.527 150.207 490.65 150.297 490.762 150.4C491.086 150.681 491.372 151.005 491.61 151.362C491.85 151.742 492.06 152.141 492.236 152.554C492.306 152.702 492.367 152.853 492.42 153.007C492.439 153.059 492.462 153.11 492.487 153.16Z" fill="#223554"/>
<path d="M487.832 148.408C487.836 148.36 487.836 148.312 487.832 148.264C487.845 148.127 487.828 147.99 487.784 147.86C487.711 147.666 487.6 147.488 487.455 147.339C487.311 147.19 487.137 147.073 486.945 146.994C486.57 146.833 486.149 146.813 485.76 146.936C485.584 146.988 485.425 147.084 485.297 147.215H485.442C485.556 147.24 485.669 147.273 485.779 147.312C486.08 147.389 486.373 147.492 486.656 147.619C486.935 147.728 487.197 147.874 487.437 148.052C487.582 148.155 487.715 148.274 487.832 148.408Z" fill="#223554"/>
<path d="M488.304 156.71L485.933 167.956C485.933 167.956 488.352 171.66 489.74 171.66C491.764 171.66 498.414 167.417 498.414 167.417L495.995 154.19" fill="#FFDFD9"/>
<path d="M483.1 156.2L486.097 157.643C483.881 160.212 482.049 157.749 483.1 156.2Z" fill="white"/>
<path d="M487.128 162.049C487.128 162.049 491.947 162.55 494.482 160.202" stroke="#F2B6AA" stroke-width="0.5" stroke-miterlimit="10"/>
<path d="M498.164 165.628L489.75 171.67L493.171 176.297L499.224 167.418L498.164 165.628Z" fill="white"/>
<path d="M489.75 171.67L486.261 166.417L485.5 168.1L486.261 175.508L489.75 171.67Z" fill="white"/>
<path d="M525.776 247.899C524.995 248.731 524.292 249.633 523.675 250.592C522.544 252.655 521.966 254.975 521.998 257.326C521.998 257.384 521.998 257.471 522.055 257.499C522.076 257.511 522.099 257.518 522.123 257.518C522.147 257.518 522.17 257.511 522.19 257.499C522.411 257.403 522.603 257.251 522.748 257.059C522.893 256.867 522.987 256.641 523.019 256.403C523.106 256.028 523.125 255.316 523.472 255.104C523.618 255.437 523.674 255.801 523.636 256.162V260.972C523.612 261.067 523.612 261.166 523.636 261.261C523.659 261.305 523.696 261.34 523.742 261.359C523.788 261.379 523.839 261.381 523.887 261.367C523.932 261.331 523.968 261.285 523.993 261.232C524.12 260.925 524.205 260.601 524.243 260.27C524.452 259.059 524.574 257.834 524.609 256.605C524.653 258.043 524.566 259.482 524.349 260.905C524.349 261.107 524.224 261.713 524.474 261.867C524.725 262.021 525.091 260.751 525.178 260.511C525.546 259.268 525.829 258.001 526.026 256.72C525.949 258.529 525.66 260.857 525.756 260.982C526.18 261.588 526.72 258.933 526.72 258.606C526.807 257.875 526.884 257.134 526.961 256.393C526.961 257.586 526.566 259.981 526.961 259.981C527.356 259.981 527.453 259.433 527.549 259.068C528.075 256.812 528.257 254.49 528.089 252.18C528.05 251.954 528.05 251.723 528.089 251.497C528.163 251.263 528.284 251.047 528.445 250.862L529.814 249.005" fill="#FFDFD9"/>
<path d="M509.064 168.168C509.064 168.168 520.176 168.168 532.792 177.307C547.191 187.764 556.52 204.984 556.52 219.067C556.52 238.307 528.571 251.304 528.571 251.304L525.4 248.716C525.4 248.716 537.929 220.558 537.929 217.99C537.929 215.421 516.032 190.034 516.032 190.034" fill="#F41414"/>
<path d="M530.036 206.869L519.193 193.767" stroke="black" stroke-width="0.75" stroke-linejoin="round"/>
<path d="M525.409 248.745L531.182 235.441" stroke="black" stroke-width="0.75" stroke-linejoin="round"/>
<path d="M490.097 137.894C490.475 137.707 490.872 137.561 491.282 137.461C494.485 136.771 497.824 137.132 500.804 138.49C502.333 139.21 503.699 140.235 504.818 141.5C505.936 142.765 506.784 144.245 507.31 145.849C508.398 149.302 508.344 153.012 507.156 156.431C505.826 159.741 502.24 161.78 498.684 161.982C497.887 162.08 497.078 161.939 496.361 161.578C496.01 161.391 495.729 161.094 495.564 160.733C495.398 160.371 495.357 159.965 495.446 159.577C495.696 158.836 496.564 158.201 496.265 157.49C495.773 156.326 492.988 157.163 493.605 155.085C493.778 154.498 494.569 154.123 494.954 153.642C495.673 152.821 496.318 151.939 496.882 151.006C497.006 150.9 497.098 150.762 497.148 150.608C497.197 150.453 497.203 150.288 497.164 150.13C497.125 149.972 497.043 149.828 496.927 149.715C496.81 149.601 496.665 149.522 496.506 149.486L492.824 147.658C492.472 147.509 492.147 147.304 491.86 147.052C490.897 146.09 491.292 144.599 491.706 143.367C491.16 143.611 490.691 144.001 490.351 144.493C490.011 144.985 489.813 145.561 489.779 146.157C488.538 146.061 487.336 145.686 486.261 145.061C485.939 144.919 485.679 144.666 485.529 144.349C485.479 144.129 485.474 143.902 485.513 143.681C485.553 143.459 485.637 143.248 485.76 143.06C486.762 141.068 488.054 138.923 490.097 137.894Z" fill="#223554"/>
<path d="M495.85 155.806C496.144 155.576 496.499 155.435 496.871 155.403C497.243 155.37 497.617 155.445 497.947 155.621C498.277 155.796 498.549 156.063 498.729 156.39C498.91 156.717 498.991 157.089 498.963 157.461C498.936 158.046 498.723 158.608 498.356 159.066C497.989 159.524 497.487 159.854 496.92 160.01C495.301 160.635 492.795 158.509 494.347 157.451" fill="#FFDFD9"/>
<path d="M504.37 140.741C504.601 139.945 505.013 139.213 505.573 138.602C506.134 137.991 506.828 137.517 507.602 137.217C508.376 136.917 509.209 136.8 510.036 136.874C510.863 136.948 511.661 137.211 512.369 137.643C512.722 137.895 513.092 138.12 513.478 138.317C514.53 138.643 515.663 138.599 516.687 138.192C518.729 137.517 520.804 136.945 522.903 136.479C525.203 135.967 527.592 136.007 529.873 136.595C532.154 137.184 534.263 138.303 536.027 139.863C537.79 141.422 539.158 143.377 540.018 145.566C540.878 147.756 541.206 150.118 540.974 152.458C539.885 161.819 527.722 166.33 520.639 157.518C519.739 156.32 518.474 155.446 517.034 155.027C515.569 154.632 513.96 154.353 512.89 153.286C511.531 151.939 511.454 149.822 510.866 148.004C510.278 146.186 508.563 142.992 506.288 143.271C505.662 143.348 505.074 143.627 504.447 143.694C504.14 143.76 503.82 143.728 503.532 143.604C503.243 143.48 503.001 143.27 502.838 143.002" fill="#223554"/>
<path d="M147.043 395.97C146.894 395.974 146.746 395.944 146.611 395.882C146.476 395.82 146.357 395.728 146.264 395.612C146.171 395.497 146.105 395.361 146.073 395.216C146.041 395.072 146.043 394.921 146.079 394.777L157.789 333.373H162.444L147.987 395.239C147.935 395.449 147.813 395.636 147.642 395.768C147.471 395.901 147.259 395.972 147.043 395.97Z" fill="#F41414"/>
<path d="M204.83 395.97C204.979 395.974 205.126 395.944 205.262 395.882C205.397 395.82 205.515 395.728 205.609 395.612C205.702 395.497 205.767 395.361 205.8 395.216C205.832 395.072 205.83 394.921 205.794 394.777L194.075 333.373H189.429L203.886 395.239C203.938 395.449 204.059 395.636 204.231 395.768C204.402 395.901 204.613 395.972 204.83 395.97Z" fill="#F41414"/>
<path d="M181.122 395.97C181.256 395.971 181.389 395.943 181.512 395.89C181.635 395.836 181.745 395.757 181.836 395.659C181.926 395.56 181.995 395.443 182.038 395.317C182.081 395.19 182.097 395.055 182.085 394.922L179.416 333.354H174.77L180.042 395.085C180.052 395.215 180.087 395.342 180.148 395.458C180.208 395.574 180.291 395.676 180.392 395.759C180.493 395.842 180.609 395.903 180.735 395.939C180.86 395.976 180.992 395.986 181.122 395.97Z" fill="#F41414"/>
<path d="M197.091 307.591C197.091 310.592 196.966 322.156 199.905 325.773C203.153 329.756 207.057 328.409 213.639 331.41C217.986 333.392 217.301 340.184 209.63 340.184H157.143C134.089 340.184 126.562 312.68 130.764 285.349C135.101 257.124 149.799 248.447 166.029 249.063C185.545 249.775 197.091 274.084 197.091 307.591Z" fill="#F48914"/>
<path d="M245.289 363.83C245.289 363.83 253 364.994 253.607 367.206C253.799 367.937 249.212 368.736 245.366 368.601C244.74 368.601 243.497 368.726 243.092 367.187C242.893 366.264 242.919 365.307 243.169 364.397" fill="#F41414"/>
<path d="M232.635 391.487C232.635 391.487 239.381 395.47 239.054 397.74C238.967 398.491 234.418 397.509 230.9 395.941C230.332 395.681 229.127 395.345 229.32 393.777C229.487 392.845 229.877 391.967 230.457 391.218" fill="#F41414"/>
<path d="M171.628 300.087C171.628 300.087 212.328 310.919 221.976 321.069C226.11 325.417 229.358 346.177 231.517 365.022C233.445 382.262 233.56 392.074 233.56 392.074L229.782 392.18C229.782 392.18 212.434 363.445 210.275 357.115C207.114 347.86 206.931 340.934 207.288 336.855C207.329 336.371 207.26 335.884 207.084 335.431C206.909 334.978 206.632 334.571 206.275 334.241C205.918 333.91 205.491 333.666 205.025 333.525C204.559 333.385 204.067 333.352 203.587 333.43C192.407 335.181 162.945 338.923 149.702 332.084C139.824 326.985 136.663 307.071 143.178 299.145" fill="#223554"/>
<path d="M230.457 391.218C230.457 391.218 214.391 360.376 212.222 354.036C209.061 344.782 208.878 337.855 209.235 333.777C209.276 333.293 209.207 332.806 209.031 332.353C208.856 331.9 208.579 331.492 208.222 331.162C207.865 330.832 207.438 330.587 206.972 330.447C206.506 330.307 206.014 330.274 205.534 330.352C194.344 332.112 164.892 335.845 151.649 329.015" stroke="#56647A" stroke-width="0.5" stroke-miterlimit="10" stroke-dasharray="2 1"/>
<path d="M161.441 303.733C161.441 303.733 210.767 295.393 229.686 307.216C246.263 317.577 245.704 363.974 245.704 363.974C245.401 364.462 245.002 364.884 244.532 365.215C244.062 365.546 243.529 365.778 242.967 365.898C242.07 365.215 229.946 349.15 224.578 338.789C220.52 330.977 221.976 321.107 221.976 321.107C221.976 321.107 179.878 342.214 152.584 333.363C133.453 327.158 141.019 303.252 141.019 303.252" fill="#223554"/>
<path d="M228.578 345.657C226.371 321.068 221.976 321.068 221.976 321.068C221.976 321.068 196.06 334.18 172.043 335.575" stroke="#15243A" stroke-width="0.75" stroke-miterlimit="10"/>
<path d="M145.828 304.513C145.828 304.513 143.457 323.012 155.119 327.351C179.637 336.48 220.732 316.355 223.2 317.49C233.56 322.233 226.804 342.108 243.516 364.628" stroke="#56647A" stroke-width="0.5" stroke-miterlimit="10" stroke-dasharray="2 1"/>
<path d="M189.015 234.286C189.015 234.286 199.443 234.912 208.011 245.513C220.704 261.213 214.545 286.186 216.318 287.841C221.985 293.142 239.063 295.22 239.063 295.22V297.779C239.063 297.779 208.155 304.83 201.091 297.779C194.026 290.727 190.827 254.998 190.827 254.998" fill="#F41414"/>
<path d="M174.847 234.286C174.847 234.286 139.101 238.317 139.747 305.667C157.789 320.366 198.306 308.341 206.093 302.098C206.093 297.923 203.645 288.505 202.19 281.174C201.576 278.122 202.196 274.951 203.915 272.353C206.131 269.024 208.734 263.935 207.905 259.318C206.093 249.38 195.549 239.183 192.369 236.845C189.188 234.508 174.847 234.286 174.847 234.286Z" fill="#F41414"/>
<path d="M206.045 302.098C206.045 297.923 203.597 288.505 202.141 281.174C201.527 278.122 202.147 274.951 203.866 272.353C206.083 269.024 208.685 263.935 207.856 259.318C207.028 254.7 203.732 249.698 200.455 245.571" stroke="#9B8E89" stroke-width="0.75" stroke-miterlimit="10"/>
<path d="M183.598 296.817L190.133 298.365C190.133 298.365 196.416 296.143 198.257 296.817C200.098 297.49 204.801 302.079 203.597 302.079H182.268" fill="#FDE5DF"/>
<path d="M181.123 233.465C181.123 233.465 155.057 228.973 145.276 249.68C135.495 270.387 136.867 285.711 147.263 295.499C159.253 306.796 182.005 302.478 182.005 302.478L182.379 297.144C182.379 297.144 160.625 287.754 160.625 277.783C160.625 267.812 165.489 249.999 165.489 249.999" fill="#F41414"/>
<path d="M186.008 297.192C186.008 297.192 162.473 287.86 162.473 277.952C162.473 268.043 167.696 250.342 167.696 250.342" stroke="#9B8E89" stroke-width="0.75" stroke-miterlimit="10"/>
<path d="M140.711 285.763C150.107 309.813 185.574 302.492 185.574 302.492" stroke="#9B8E89" stroke-width="0.75" stroke-miterlimit="10"/>
<path d="M200.088 213.392C200.85 214.854 203.886 221.251 201.399 233.18C200.908 233.671 195.617 233.603 192.32 232.507C191.387 231.945 190.601 231.17 190.027 230.246" fill="#223554"/>
<path d="M198.73 216.547C200.252 219.183 200.956 232.728 192.34 232.728C191.359 232.668 190.399 232.412 189.519 231.976C188.638 231.539 187.854 230.932 187.212 230.188C184.89 227.87 184.562 224.926 185.381 219.606C186.133 214.796 188.629 212.526 191.337 212.256C194.952 211.872 197.207 213.901 198.73 216.547Z" fill="#FFDFD9"/>
<path d="M190.923 225.032L190.827 234.863C190.827 234.863 191.357 237.403 188.138 237.403C183.994 237.403 182.625 235.065 182.625 235.065L184.687 225.263" fill="#FFDFD9"/>
<path d="M195.646 222.454C195.646 222.454 197.091 226.205 196.494 226.792C195.896 227.379 195.115 226.792 195.115 226.792" stroke="#F2B6AA" stroke-width="0.5" stroke-miterlimit="10"/>
<path d="M192.253 221.78L192.157 221.915C192.001 222.242 191.925 222.601 191.935 222.964C191.877 223.56 192.899 223.579 192.899 222.964C192.912 222.564 192.864 222.165 192.754 221.78C192.619 221.405 192.407 221.53 192.253 221.78Z" fill="#223554"/>
<path d="M198.103 221.444L198.007 221.578C197.851 221.906 197.776 222.265 197.785 222.627C197.727 223.223 198.749 223.243 198.749 222.627C198.763 222.238 198.717 221.848 198.614 221.473C198.469 221.117 198.257 221.242 198.103 221.444Z" fill="#223554"/>
<path d="M190.094 221.03C190.15 220.796 190.248 220.574 190.383 220.376C190.691 219.941 191.12 219.606 191.617 219.414C192.127 219.209 192.693 219.189 193.217 219.356C193.388 219.423 193.544 219.521 193.679 219.645C193.724 219.693 193.766 219.745 193.805 219.799H193.612C193.461 219.784 193.31 219.784 193.159 219.799C192.719 219.845 192.288 219.952 191.877 220.116C191.459 220.283 191.056 220.486 190.672 220.722C190.532 220.797 190.397 220.881 190.268 220.972C190.212 220.997 190.154 221.016 190.094 221.03Z" fill="#223554"/>
<path d="M196.657 219.856C196.674 219.81 196.693 219.765 196.715 219.722C196.786 219.603 196.881 219.502 196.995 219.423C197.167 219.309 197.362 219.231 197.566 219.195C197.769 219.158 197.979 219.164 198.18 219.212C198.567 219.307 198.909 219.535 199.144 219.856C199.249 220.006 199.318 220.177 199.346 220.356L199.211 220.308C199.106 220.259 198.996 220.217 198.884 220.183C198.592 220.072 198.292 219.982 197.987 219.914C197.697 219.844 197.4 219.808 197.101 219.808C196.952 219.811 196.804 219.827 196.657 219.856Z" fill="#223554"/>
<path d="M192.639 228.389C192.822 230.381 195.607 230.313 195.915 228.976" stroke="#F2B6AA" stroke-width="0.5" stroke-miterlimit="10"/>
<path d="M185.574 227.677C185.574 227.677 186.654 231.891 190.875 232.555" stroke="#F2B6AA" stroke-width="0.5" stroke-miterlimit="10"/>
<path d="M201.081 215.21C201.131 215.507 201.117 215.812 201.04 216.104C200.964 216.395 200.827 216.668 200.638 216.903C199.949 217.404 199.109 217.655 198.257 217.615C194.99 217.817 191.039 215.835 188.764 218.962C185.979 222.81 186.249 227.985 186.634 232.718C184.09 232.901 177.854 231.968 175.859 227.196C175.991 222.383 177.28 217.671 179.618 213.459C180.674 211.52 182.256 209.916 184.181 208.831C186.107 207.746 188.299 207.223 190.509 207.321C194.682 207.61 200.657 210.457 201.081 215.21Z" fill="#223554"/>
<path d="M188.176 222.973C188.14 222.784 188.066 222.605 187.959 222.445C187.852 222.285 187.714 222.147 187.553 222.041C187.393 221.934 187.213 221.861 187.024 221.824C186.834 221.788 186.64 221.789 186.451 221.828C186.192 221.906 185.954 222.04 185.754 222.222C185.554 222.403 185.397 222.627 185.295 222.877C185.142 223.37 185.107 223.893 185.193 224.402C185.278 224.911 185.481 225.394 185.786 225.811C186.451 226.773 187.569 226.946 188.186 225.907" fill="#FFDFD9"/>
<path d="M198.827 274.025L193.044 304.405H239.209L245.088 273.621C245.11 273.473 245.1 273.322 245.058 273.178C245.017 273.034 244.945 272.901 244.847 272.788C244.749 272.675 244.627 272.584 244.491 272.522C244.355 272.46 244.207 272.428 244.057 272.428H200.754C200.295 272.421 199.849 272.578 199.495 272.871C199.142 273.164 198.905 273.573 198.827 274.025Z" fill="white"/>
<path d="M179.377 302.069H206.584V304.522H177.671V303.8C177.671 303.346 177.85 302.91 178.169 302.586C178.488 302.262 178.922 302.076 179.377 302.069Z" fill="white"/>
<path d="M223.98 288.928C223.822 289.913 223.324 290.813 222.573 291.471C221.822 292.129 220.864 292.506 219.865 292.536C219.409 292.549 218.955 292.46 218.537 292.276C218.12 292.092 217.749 291.817 217.451 291.471C217.154 291.125 216.938 290.717 216.818 290.277C216.699 289.837 216.68 289.377 216.762 288.928C216.922 287.945 217.421 287.048 218.172 286.391C218.923 285.735 219.879 285.36 220.877 285.33C221.332 285.317 221.785 285.406 222.202 285.59C222.618 285.774 222.989 286.048 223.286 286.392C223.583 286.737 223.8 287.143 223.92 287.582C224.04 288.021 224.061 288.481 223.98 288.928Z" fill="#FEE5E6"/>
<path d="M318.044 259.433H224.819L230.399 254.671V242.078C230.398 241.345 230.541 240.618 230.822 239.94C231.102 239.262 231.514 238.646 232.033 238.127C232.552 237.608 233.169 237.196 233.848 236.915C234.526 236.634 235.254 236.489 235.989 236.489H318.044C319.528 236.492 320.95 237.082 321.998 238.13C323.046 239.178 323.634 240.598 323.634 242.078V253.844C323.634 255.324 323.046 256.745 321.998 257.793C320.95 258.84 319.528 259.43 318.044 259.433Z" fill="white" stroke="#FF9189" stroke-miterlimit="10"/>
<path d="M246.359 243.262L247.438 246.09L250.474 246.244C250.607 246.254 250.733 246.302 250.838 246.384C250.942 246.466 251.02 246.578 251.06 246.704C251.1 246.83 251.102 246.966 251.065 247.093C251.027 247.22 250.953 247.333 250.85 247.418L248.489 249.342L249.279 252.228C249.31 252.352 249.303 252.483 249.259 252.603C249.216 252.724 249.138 252.829 249.036 252.906C248.933 252.982 248.81 253.027 248.682 253.035C248.554 253.043 248.427 253.013 248.316 252.949L245.762 251.323L243.217 252.968C243.106 253.028 242.979 253.054 242.853 253.045C242.727 253.035 242.607 252.989 242.505 252.914C242.404 252.838 242.327 252.735 242.282 252.617C242.238 252.499 242.228 252.371 242.253 252.247L243.044 249.361L240.682 247.437C240.58 247.352 240.505 247.238 240.468 247.11C240.431 246.982 240.433 246.846 240.475 246.719C240.517 246.593 240.595 246.481 240.701 246.4C240.807 246.319 240.935 246.271 241.068 246.263L244.094 246.109L245.183 243.281C245.238 243.173 245.321 243.083 245.424 243.019C245.526 242.955 245.644 242.92 245.765 242.918C245.886 242.916 246.006 242.947 246.11 243.007C246.215 243.068 246.301 243.156 246.359 243.262Z" fill="#FF9189"/>
<path d="M262.001 243.262L263.09 246.09L266.116 246.244C266.25 246.252 266.378 246.3 266.483 246.381C266.589 246.462 266.668 246.573 266.709 246.7C266.751 246.827 266.753 246.963 266.716 247.091C266.679 247.219 266.605 247.333 266.502 247.418L264.141 249.342L264.931 252.228C264.957 252.351 264.947 252.48 264.902 252.598C264.858 252.716 264.78 252.819 264.679 252.894C264.578 252.97 264.457 253.016 264.331 253.025C264.205 253.035 264.079 253.009 263.967 252.949L261.423 251.304L258.879 252.949C258.767 253.013 258.64 253.043 258.512 253.035C258.384 253.027 258.261 252.982 258.158 252.906C258.056 252.829 257.978 252.724 257.935 252.603C257.891 252.483 257.884 252.352 257.915 252.228L258.705 249.342L256.344 247.418C256.241 247.333 256.167 247.22 256.129 247.093C256.092 246.966 256.094 246.83 256.134 246.704C256.175 246.578 256.252 246.466 256.356 246.384C256.461 246.303 256.587 246.254 256.72 246.244L259.756 246.09L260.835 243.262C260.892 243.158 260.977 243.07 261.079 243.01C261.182 242.949 261.299 242.917 261.418 242.917C261.537 242.917 261.654 242.949 261.757 243.01C261.859 243.07 261.944 243.158 262.001 243.262Z" fill="#FF9189"/>
<path d="M277.653 243.262L278.732 246.09L281.768 246.244C281.901 246.254 282.027 246.303 282.131 246.384C282.236 246.466 282.313 246.578 282.354 246.704C282.394 246.83 282.396 246.966 282.358 247.093C282.321 247.22 282.246 247.333 282.144 247.418L279.783 249.342L280.573 252.228C280.603 252.352 280.596 252.483 280.553 252.603C280.51 252.724 280.432 252.829 280.329 252.906C280.227 252.982 280.104 253.027 279.976 253.035C279.848 253.043 279.72 253.013 279.609 252.949L277.065 251.304L274.521 252.949C274.409 253.009 274.283 253.035 274.157 253.025C274.031 253.016 273.91 252.97 273.809 252.894C273.708 252.819 273.63 252.716 273.585 252.598C273.541 252.48 273.531 252.351 273.557 252.228L274.347 249.342L271.986 247.418C271.883 247.333 271.808 247.219 271.771 247.091C271.734 246.963 271.737 246.827 271.778 246.7C271.82 246.573 271.899 246.462 272.004 246.381C272.11 246.3 272.238 246.252 272.371 246.244L275.398 246.09L276.487 243.262C276.544 243.158 276.628 243.07 276.731 243.01C276.833 242.949 276.95 242.917 277.07 242.917C277.189 242.917 277.306 242.949 277.409 243.01C277.511 243.07 277.595 243.158 277.653 243.262Z" fill="#FF9189"/>
<path d="M293.295 243.262L294.384 246.09L297.41 246.244C297.543 246.252 297.671 246.3 297.777 246.381C297.883 246.462 297.961 246.573 298.003 246.7C298.045 246.827 298.047 246.963 298.01 247.091C297.973 247.219 297.898 247.333 297.796 247.418L295.434 249.342L296.225 252.228C296.251 252.351 296.241 252.48 296.196 252.598C296.151 252.716 296.074 252.819 295.973 252.894C295.872 252.97 295.751 253.016 295.625 253.025C295.499 253.035 295.372 253.009 295.261 252.949L292.717 251.304L290.095 252.968C289.984 253.032 289.856 253.062 289.728 253.054C289.6 253.047 289.477 253.002 289.375 252.925C289.272 252.848 289.195 252.743 289.151 252.622C289.108 252.502 289.101 252.371 289.131 252.247L289.922 249.361L287.56 247.437C287.458 247.352 287.383 247.239 287.346 247.112C287.309 246.985 287.31 246.85 287.351 246.723C287.391 246.597 287.468 246.486 287.573 246.404C287.677 246.322 287.804 246.273 287.936 246.263L290.972 246.109L292.052 243.281C292.097 243.154 292.181 243.045 292.291 242.967C292.401 242.888 292.532 242.845 292.667 242.843C292.801 242.841 292.934 242.88 293.046 242.955C293.158 243.03 293.245 243.137 293.295 243.262Z" fill="#FF9189"/>
<path d="M308.33 244.349L309.13 246.436L309.351 247.023H309.978L312.223 247.139L310.479 248.543L309.987 248.937L310.151 249.544L310.729 251.708L308.802 250.486L308.281 250.14L307.751 250.486L305.872 251.708L306.46 249.544L306.624 248.937L306.132 248.543L304.388 247.139L306.624 247.023H307.25L307.481 246.436L308.281 244.349M308.281 242.838C308.148 242.838 308.017 242.878 307.907 242.953C307.796 243.029 307.712 243.137 307.665 243.262L306.576 246.09L303.549 246.244C303.416 246.252 303.288 246.299 303.182 246.381C303.077 246.462 302.998 246.573 302.956 246.7C302.915 246.826 302.912 246.962 302.949 247.091C302.986 247.219 303.061 247.332 303.164 247.418L305.525 249.342L304.744 252.228C304.718 252.325 304.714 252.428 304.734 252.528C304.753 252.627 304.795 252.721 304.857 252.802C304.918 252.883 304.997 252.948 305.088 252.994C305.179 253.039 305.279 253.064 305.38 253.064C305.508 253.061 305.632 253.021 305.737 252.949L308.281 251.304L310.826 252.949C310.931 253.021 311.055 253.061 311.182 253.064C311.284 253.064 311.384 253.039 311.475 252.994C311.566 252.948 311.645 252.883 311.706 252.802C311.768 252.721 311.81 252.627 311.829 252.528C311.849 252.428 311.845 252.325 311.818 252.228L311.038 249.342L313.389 247.418C313.492 247.333 313.566 247.22 313.604 247.093C313.641 246.966 313.64 246.83 313.599 246.704C313.559 246.578 313.481 246.466 313.377 246.384C313.273 246.302 313.146 246.253 313.014 246.244L309.978 246.09L308.898 243.262C308.851 243.137 308.767 243.029 308.656 242.953C308.546 242.878 308.415 242.838 308.281 242.838Z" fill="#FF9189"/>
<path d="M127.285 164.176C128.109 162.895 128.58 161.421 128.651 159.901C128.722 158.381 128.391 156.869 127.69 155.518C127.651 155.416 127.592 155.323 127.516 155.245C127.439 155.167 127.348 155.106 127.247 155.065C127.086 155.04 126.921 155.063 126.774 155.133C125.486 155.78 124.478 156.875 123.941 158.211C123.419 159.531 122.813 160.816 122.129 162.059C121.744 162.656 121.281 163.185 120.895 163.781C120.354 164.64 120.002 165.604 119.86 166.608C119.719 167.613 119.793 168.637 120.076 169.611" fill="#FFDFD9"/>
<path d="M120.308 164.426L125.406 165.166C125.652 165.191 125.899 165.137 126.112 165.013C126.325 164.888 126.493 164.7 126.591 164.474L130.736 154.392C130.789 154.298 130.819 154.191 130.82 154.083C130.822 153.974 130.796 153.867 130.745 153.771C130.694 153.675 130.62 153.593 130.529 153.534C130.438 153.474 130.333 153.438 130.225 153.43L125.126 152.68C124.88 152.657 124.633 152.713 124.42 152.839C124.207 152.965 124.039 153.155 123.941 153.382L119.797 163.464C119.743 163.558 119.714 163.664 119.712 163.773C119.71 163.882 119.736 163.989 119.787 164.085C119.838 164.181 119.912 164.262 120.003 164.322C120.094 164.382 120.199 164.417 120.308 164.426Z" fill="#223554"/>
<path d="M121.599 171.448C123.17 168.86 126.418 167.543 127.748 164.83C128.217 163.789 128.488 162.67 128.548 161.53C128.643 160.5 128.665 159.465 128.615 158.432C127.95 158.201 127.305 158.913 127.17 159.596C127.133 160.298 127.046 160.995 126.909 161.684C126.859 161.827 126.781 161.958 126.678 162.069C126.463 162.262 126.2 162.395 125.917 162.454C124.322 162.912 122.902 163.837 121.84 165.109C121.237 165.873 120.8 166.755 120.558 167.697C120.316 168.64 120.273 169.623 120.433 170.582" fill="#FFDFD9"/>
<path d="M45.5093 155.787C16.8564 154.94 0 199.654 0 211.246C0 232.516 27.2362 250.005 27.2362 250.005L28.9709 245.561L16.0468 217.519C16.0468 217.519 41.3554 188.774 41.4132 180.106C41.5 168.524 49.2776 155.787 45.5093 155.787Z" fill="#F41414"/>
<path d="M36.7775 389.448C34.6669 392.517 34.9656 397.557 35.6885 397.557C36.4113 397.557 55.4554 398.827 55.4554 397.057C55.4554 394.431 41.6349 390.083 41.6349 390.083" fill="#223554"/>
<path d="M45.2972 368.313L42.4734 390.352C42.4734 390.352 41.8951 391.824 39.5821 391.824C38.9584 391.863 38.3337 391.767 37.7512 391.541C37.1687 391.315 36.6424 390.965 36.2089 390.516L34.4355 365.302" fill="#FFDFD9"/>
<path d="M57.8263 235.739C57.8263 235.739 60.9682 261.088 57.8938 312.132C56.3806 337.23 43.6203 384.994 43.6203 384.994H35.3993C35.3993 384.994 30.1853 344.695 30.1853 333.873C30.23 326.883 30.7258 319.904 31.6695 312.978C28.971 296.191 25.6171 274.787 25.6171 274.787C22.7902 268.199 21.9303 260.936 23.1409 253.873C24.3514 246.809 27.5808 240.244 32.4406 234.969" fill="#223554"/>
<path d="M53.6724 235.739C53.6724 235.739 56.8046 261.088 53.7302 312.132C52.2171 337.23 42.6372 384.994 42.6372 384.994" stroke="#FFB800" stroke-width="0.75" stroke-miterlimit="10"/>
<path d="M74.4609 389.448C72.3502 392.517 72.649 397.557 73.3718 397.557C74.0946 397.557 93.1388 398.827 93.1388 397.057C93.1388 394.431 79.3279 390.083 79.3279 390.083" fill="#223554"/>
<path d="M82.9904 368.313L80.1569 390.352C80.1569 390.352 79.5786 391.824 77.2656 391.824C76.6419 391.863 76.0171 391.767 75.4346 391.541C74.8522 391.315 74.3259 390.965 73.8924 390.516L72.119 365.302" fill="#FFDFD9"/>
<path d="M83.2795 235.739C83.2795 235.739 90.0258 263.685 88.5127 316.749C87.7995 341.886 81.3519 384.994 81.3519 384.994H73.1213C73.1213 384.994 63.9077 341.088 63.9077 330.275C63.9077 319.462 46.473 274.787 46.473 274.787C46.473 274.787 29.9444 263.685 41.5096 231.718" fill="#223554"/>
<path d="M79.4629 384.994C79.4629 384.994 85.6214 335.874 85.0624 301.184C84.7348 280.982 79.328 247.004 79.328 247.004" stroke="#FFB800" stroke-width="0.75" stroke-miterlimit="10"/>
<path d="M57.7396 305.975C52.7279 290.804 46.4731 274.787 46.4731 274.787C46.4731 274.787 35.2162 263.368 36.9992 247.687" stroke="#FFB800" stroke-width="0.75" stroke-miterlimit="10"/>
<path d="M85.0624 245.561C85.0624 245.561 53.7591 255.306 26.1471 244.435" stroke="#FFB800" stroke-width="0.75" stroke-miterlimit="10"/>
<path d="M68.206 248.841C68.2163 246.954 67.9268 245.078 67.3483 243.281" stroke="#FFB800" stroke-width="0.75" stroke-miterlimit="10"/>
<path d="M42.6469 248.716C42.6052 246.89 42.8358 245.068 43.3312 243.31" stroke="#FFB800" stroke-width="0.75" stroke-miterlimit="10"/>
<path d="M72.8321 385.513H81.6892L82.2193 381.906H72.3792L72.8321 385.513Z" fill="#FFB800"/>
<path d="M35.2451 385.513H44.2371L44.7768 381.906H34.7825L35.2451 385.513Z" fill="#FFB800"/>
<path d="M45.5093 155.787C45.5093 155.787 29.048 160.52 24.8267 167.543C22.851 170.823 23.863 190.775 25.3664 206.331C27.8433 231.987 26.1182 236.903 27.6891 240.318C29.0962 243.377 41.5771 245.561 51.7834 245.561C61.9897 245.561 87.1442 245.061 85.1492 240.183C83.5493 236.258 82.2096 223.906 85.2455 185.946C87.3273 183.858 81.7374 155.787 45.5093 155.787Z" fill="#F41414"/>
<path d="M51.446 155.402C51.446 155.402 71.1937 151.708 85.6214 166.109C93.2352 173.719 96.2228 181.376 100.859 188.466C106.389 181.071 112.513 174.138 119.17 167.735L123.363 170.505C123.363 170.505 108.81 224.474 92.416 215.623C81.4097 209.688 65.3533 186.109 65.3533 186.109" fill="#F41414"/>
<path d="M65.257 134.873C66.5004 136.314 67.5591 137.904 68.4085 139.606C68.5475 139.865 68.645 140.144 68.6976 140.433C68.715 140.579 68.6989 140.726 68.6505 140.865C68.602 141.003 68.5226 141.129 68.4181 141.232C68.2858 141.331 68.1351 141.403 67.9748 141.443C66.6901 141.835 65.3176 141.835 64.033 141.443" fill="#FFDFD9"/>
<path d="M64.5727 128.706C64.5727 128.706 68.7747 146.022 64.3896 148.322C63.6844 148.752 62.8758 148.983 62.0494 148.992C61.2231 149 60.4098 148.785 59.696 148.37L60.6598 155.373C59.2719 158.057 46.8971 158.048 45.5286 155.787L47.0321 141.934C47.0321 141.934 49.268 128.466 52.3135 126.542C55.359 124.618 61.9801 124.464 64.5727 128.706Z" fill="#FFDFD9"/>
<path d="M56.1974 122.155C56.7493 122.117 57.3032 122.117 57.8551 122.155C59.3181 122.335 60.7449 122.738 62.0861 123.348C62.987 123.693 63.8315 124.169 64.5919 124.762C65.2596 125.244 65.7447 125.936 65.9687 126.727C66.1926 127.518 66.1422 128.361 65.8255 129.12C65.7467 129.422 65.6034 129.702 65.4054 129.943C65.2074 130.184 64.9594 130.379 64.6786 130.515C64.2541 130.616 63.8117 130.616 63.3872 130.515C62.2925 130.31 61.1631 130.393 60.1103 130.756C59.2622 131.112 58.1828 131.323 57.7877 132.276C57.2287 133.67 58.7514 135.162 58.3466 136.653C58.1423 137.227 57.7611 137.722 57.2576 138.067C57.1679 138.158 57.0478 138.213 56.9203 138.221C56.7873 138.196 56.6677 138.124 56.5829 138.019C55.9565 137.403 55.6192 136.326 54.5687 136.595C53.2579 136.941 52.9688 138.923 53.123 140.02C53.2148 140.731 53.5129 141.4 53.9808 141.944C54.4434 142.415 55.224 142.146 55.6192 142.559C55.6919 142.658 55.7432 142.77 55.7697 142.889C55.7963 143.009 55.7975 143.132 55.7734 143.252C55.7048 143.993 55.516 144.717 55.2144 145.397C54.9188 146.157 54.389 146.804 53.7013 147.244C52.5634 147.727 51.2833 147.754 50.1257 147.321C48.8316 147.028 47.6072 146.486 46.5212 145.724C44.9633 144.384 43.8647 142.592 43.3793 140.597C42.4793 137.629 42.2359 134.5 42.6661 131.429C42.8352 129.842 43.5346 128.358 44.6515 127.215C45.5598 126.297 46.5797 125.495 47.6873 124.83C48.639 124.1 49.6783 123.493 50.781 123.021C51.7543 122.736 52.7508 122.536 53.7591 122.425C54.5687 122.319 55.3782 122.203 56.1974 122.155Z" fill="#223554"/>
<path d="M62.9246 135.2C62.9577 135.269 62.9867 135.339 63.0114 135.412C63.1315 135.901 63.1315 136.413 63.0114 136.903C62.8861 137.74 61.5175 137.432 61.7295 136.595C61.8366 136.063 62.032 135.552 62.3078 135.085C62.5391 134.671 62.78 134.921 62.9246 135.2Z" fill="#223554"/>
<path d="M64.2256 132.593C62.5294 131.996 60.1393 132.054 59.0887 133.314" stroke="#223554" stroke-miterlimit="10"/>
<path d="M64.6691 143.512C63.8499 144.32 62.3078 144.185 60.6405 143.637" stroke="#D8889B" stroke-width="0.5" stroke-miterlimit="10"/>
<path d="M83.0289 208.004L69.3241 194.334" stroke="black" stroke-width="0.75" stroke-linejoin="round"/>
<path d="M25.3665 206.33C25.3665 206.33 24.7593 187.754 20.7982 183.8" stroke="black" stroke-width="0.75" stroke-linejoin="round"/>
<path d="M171.291 137.845H77.4004L83.5974 133.738V120.481C83.6 119.001 84.1911 117.581 85.2409 116.535C86.2907 115.489 87.7135 114.902 89.197 114.902H171.291C172.025 114.902 172.752 115.046 173.43 115.326C174.108 115.607 174.725 116.018 175.244 116.536C175.763 117.054 176.174 117.669 176.455 118.346C176.736 119.023 176.881 119.749 176.881 120.481V132.256C176.881 133.737 176.292 135.157 175.244 136.205C174.196 137.253 172.774 137.843 171.291 137.845Z" fill="white" stroke="#FF9189" stroke-miterlimit="10"/>
<path d="M99.5672 121.674L100.647 124.502L103.673 124.656C103.806 124.664 103.934 124.712 104.04 124.793C104.145 124.874 104.224 124.986 104.266 125.112C104.307 125.239 104.31 125.375 104.273 125.503C104.236 125.631 104.161 125.745 104.058 125.83L101.697 127.754L102.487 130.64C102.513 130.763 102.503 130.892 102.459 131.01C102.414 131.128 102.337 131.231 102.235 131.307C102.134 131.382 102.014 131.428 101.888 131.438C101.761 131.447 101.635 131.421 101.524 131.361L98.9889 129.716L96.3771 131.352C96.2655 131.411 96.1393 131.438 96.0132 131.428C95.8871 131.418 95.7664 131.373 95.6653 131.297C95.5641 131.221 95.4867 131.118 95.4421 131C95.3974 130.882 95.3875 130.754 95.4133 130.63L96.2036 127.744L93.8424 125.82C93.7396 125.735 93.6649 125.621 93.6279 125.493C93.5909 125.365 93.5933 125.229 93.6349 125.103C93.6765 124.976 93.7553 124.865 93.861 124.783C93.9668 124.702 94.0946 124.654 94.2279 124.647L97.2541 124.493L98.3432 121.664C98.3952 121.545 98.4812 121.443 98.5906 121.372C98.7 121.301 98.8279 121.264 98.9584 121.265C99.0888 121.266 99.2161 121.306 99.3244 121.378C99.4326 121.451 99.5171 121.554 99.5672 121.674Z" fill="#FF9189"/>
<path d="M115.209 121.674L116.298 124.502L119.325 124.656C119.458 124.664 119.586 124.712 119.691 124.793C119.797 124.874 119.876 124.986 119.917 125.112C119.959 125.239 119.962 125.375 119.925 125.503C119.888 125.631 119.813 125.745 119.71 125.83L117.349 127.754L118.129 130.64C118.16 130.764 118.153 130.895 118.11 131.015C118.066 131.136 117.988 131.241 117.886 131.318C117.783 131.395 117.66 131.44 117.532 131.448C117.404 131.455 117.277 131.425 117.166 131.362L114.621 129.717L112.048 131.352C111.937 131.416 111.809 131.446 111.681 131.438C111.553 131.43 111.43 131.385 111.328 131.308C111.225 131.232 111.147 131.126 111.104 131.006C111.061 130.885 111.054 130.755 111.084 130.63L111.865 127.744L109.513 125.82C109.401 125.74 109.317 125.627 109.272 125.496C109.227 125.366 109.224 125.225 109.263 125.093C109.302 124.96 109.382 124.844 109.491 124.759C109.599 124.673 109.732 124.624 109.87 124.618L112.906 124.464L113.985 121.636C114.04 121.517 114.128 121.418 114.239 121.349C114.351 121.281 114.479 121.246 114.61 121.25C114.741 121.254 114.867 121.297 114.974 121.372C115.08 121.448 115.162 121.553 115.209 121.674Z" fill="#FF9189"/>
<path d="M130.861 121.674L131.94 124.502L134.976 124.656C135.109 124.666 135.235 124.715 135.339 124.797C135.444 124.879 135.521 124.99 135.562 125.116C135.602 125.243 135.604 125.378 135.566 125.505C135.529 125.632 135.454 125.746 135.352 125.83L132.991 127.754L133.781 130.64C133.807 130.764 133.797 130.892 133.752 131.01C133.708 131.128 133.63 131.231 133.529 131.307C133.428 131.383 133.307 131.428 133.181 131.438C133.055 131.447 132.929 131.421 132.817 131.362L130.282 129.717L127.7 131.352C127.588 131.411 127.462 131.438 127.336 131.428C127.21 131.418 127.089 131.373 126.988 131.297C126.887 131.222 126.809 131.119 126.765 131C126.72 130.882 126.71 130.754 126.736 130.63L127.526 127.744L125.165 125.82C125.062 125.735 124.987 125.621 124.95 125.493C124.913 125.365 124.916 125.229 124.957 125.103C124.999 124.976 125.078 124.865 125.184 124.784C125.289 124.702 125.417 124.655 125.55 124.647L128.577 124.493L129.666 121.665C129.721 121.553 129.807 121.46 129.913 121.395C130.019 121.33 130.142 121.296 130.266 121.297C130.391 121.298 130.513 121.334 130.618 121.401C130.723 121.467 130.807 121.562 130.861 121.674Z" fill="#FF9189"/>
<path d="M146.493 121.674L147.582 124.502L150.608 124.656C150.742 124.664 150.87 124.712 150.975 124.793C151.081 124.874 151.16 124.986 151.201 125.112C151.243 125.239 151.246 125.375 151.208 125.503C151.171 125.631 151.097 125.745 150.994 125.83L148.633 127.754L149.423 130.64C149.449 130.764 149.439 130.892 149.394 131.01C149.35 131.128 149.272 131.231 149.171 131.307C149.07 131.383 148.949 131.428 148.823 131.438C148.697 131.447 148.571 131.421 148.459 131.362L145.915 129.717L143.342 131.352C143.231 131.416 143.103 131.446 142.975 131.438C142.847 131.43 142.724 131.385 142.621 131.308C142.519 131.232 142.441 131.126 142.398 131.006C142.355 130.885 142.348 130.755 142.378 130.63L143.159 127.744L140.807 125.82C140.705 125.736 140.63 125.623 140.593 125.496C140.555 125.368 140.557 125.233 140.597 125.107C140.638 124.98 140.715 124.869 140.819 124.787C140.924 124.705 141.05 124.656 141.183 124.647L144.219 124.493L145.298 121.665C145.354 121.553 145.439 121.46 145.546 121.395C145.652 121.33 145.774 121.296 145.899 121.297C146.023 121.298 146.145 121.334 146.25 121.401C146.355 121.467 146.439 121.562 146.493 121.674Z" fill="#FF9189"/>
<path d="M161.538 122.761L162.338 124.849L162.559 125.436H163.186L165.422 125.551L163.677 126.955L163.195 127.35L163.359 127.956L163.937 130.12L162.058 128.899L161.538 128.552L161.008 128.899L159.128 130.12L159.716 127.956L159.87 127.35L159.388 126.955L157.644 125.58L159.88 125.464H160.506L160.728 124.878L161.538 122.79M161.538 121.28C161.404 121.278 161.272 121.317 161.162 121.393C161.051 121.469 160.967 121.577 160.921 121.703L159.832 124.531L156.806 124.685C156.672 124.693 156.544 124.741 156.439 124.822C156.333 124.903 156.254 125.014 156.213 125.141C156.171 125.268 156.168 125.404 156.205 125.532C156.243 125.66 156.317 125.774 156.42 125.859L158.781 127.783L157.991 130.669C157.966 130.767 157.964 130.87 157.985 130.97C158.006 131.069 158.049 131.163 158.111 131.243C158.173 131.324 158.253 131.389 158.344 131.435C158.435 131.48 158.535 131.504 158.637 131.506C158.779 131.498 158.914 131.444 159.022 131.352L161.567 129.707L164.111 131.352C164.215 131.426 164.34 131.466 164.467 131.467C164.569 131.466 164.669 131.442 164.76 131.397C164.851 131.351 164.93 131.286 164.991 131.205C165.053 131.124 165.095 131.03 165.114 130.931C165.134 130.831 165.13 130.728 165.104 130.63L164.313 127.744L166.675 125.82C166.777 125.736 166.852 125.623 166.889 125.496C166.926 125.368 166.925 125.233 166.884 125.107C166.844 124.98 166.766 124.869 166.662 124.787C166.558 124.705 166.431 124.656 166.299 124.647L163.263 124.493L162.183 121.664C162.135 121.54 162.05 121.433 161.94 121.358C161.83 121.283 161.7 121.242 161.567 121.241L161.538 121.28Z" fill="#FF9189"/>
</g>
<defs>
<clipPath id="clip0_109_3976">
<rect width="577" height="398" fill="white"/>
</clipPath>
</defs>
</svg>
