<svg width="150" height="150" viewBox="0 0 150 150" fill="none" xmlns="http://www.w3.org/2000/svg">
<g clip-path="url(#clip0_297_2927)">
<rect x="69" y="36" width="51" height="50" fill="url(#paint0_radial_297_2927)"/>
<rect x="31" y="35" width="51" height="50" fill="url(#paint1_radial_297_2927)"/>
<path d="M149.512 132.586V80.8087C149.512 80.8087 109.515 85.9015 75.0772 102.955C40.6397 85.9015 0.642695 80.8087 0.642695 80.8087V132.586C-11.0939 135.21 -20.5912 138.373 -27 142C-5.38002 135.21 32.2233 130.657 75 130.657C117.777 130.657 155.38 135.132 177 142C170.668 138.373 161.248 135.21 149.512 132.586Z" fill="#1C1D4E"/>
<path d="M11.5298 75.2527V82.5834C25.7372 85.2841 51.6812 91.3029 75.0771 102.955C47.4344 81.2716 11.5298 75.2527 11.5298 75.2527Z" fill="#1C1D4E"/>
<path d="M138.702 75.2527C138.702 75.2527 102.797 81.2716 75.1545 102.955C98.5504 91.3801 124.494 85.2841 138.702 82.5834V75.2527Z" fill="#1C1D4E"/>
<path d="M75.1545 75.9473C73.6874 79.1882 71.4482 82.0432 68.8229 84.281L75.0773 95.1612L81.486 84.281C78.7835 82.0432 76.6216 79.1882 75.1545 75.9473Z" fill="#1C1D4E"/>
<path d="M56.1598 67.845C60.3293 67.845 63.804 64.4498 63.804 60.2057C63.804 56.0389 60.4066 52.5665 56.1598 52.5665C51.9902 52.5665 48.5156 55.9617 48.5156 60.2057C48.5156 64.4498 51.913 67.845 56.1598 67.845ZM53.6117 54.8814C55.2332 54.8814 56.5458 56.1932 56.5458 57.8136C56.5458 59.4341 55.2332 60.7459 53.6117 60.7459C51.9902 60.7459 50.6776 59.4341 50.6776 57.8136C50.6776 56.1932 51.9902 54.8814 53.6117 54.8814Z" fill="#1C1D4E"/>
<path d="M86.4278 60.2057C86.4278 64.3726 89.8252 67.845 93.9947 67.845C98.1643 67.845 101.639 64.4498 101.639 60.2057C101.639 56.0389 98.2415 52.5665 93.9947 52.5665C89.9024 52.6436 86.4278 56.0389 86.4278 60.2057ZM94.9213 57.8136C94.9213 59.4341 93.6087 60.7459 91.9872 60.7459C90.3657 60.7459 89.053 59.4341 89.053 57.8136C89.053 56.1932 90.3657 54.8814 91.9872 54.8814C93.6087 54.8814 94.9213 56.1932 94.9213 57.8136Z" fill="#1C1D4E"/>
<path d="M41.5663 75.1756C45.3498 78.8795 50.5231 81.1173 56.1598 81.1173C64.4989 81.1173 71.7571 76.1788 75.1545 69.0797C78.4747 76.1788 85.7328 81.1173 94.1492 81.1173C99.863 81.1173 104.959 78.8024 108.743 75.1756C110.364 77.4906 111.754 79.9598 112.912 82.5063C117.622 80.7315 121.946 79.4197 125.73 78.3394C123.259 73.2465 119.398 68.6938 114.534 64.8356C114.843 63.3695 115.074 61.749 115.074 60.2058C115.074 57.1192 114.379 54.1869 113.144 51.4862C111.677 47.165 109.438 43.1524 106.581 39.6029L106.426 19L89.2847 27.0251C84.8063 25.3275 80.019 24.4787 75.1545 24.4787C70.29 24.4787 65.5027 25.3275 61.0243 27.0251L43.8055 19L43.6511 39.6029C40.8714 43.1524 38.6321 47.0878 37.1651 51.3319C35.9296 54.0326 35.1575 57.042 35.1575 60.2058C35.1575 61.8262 35.3119 63.3695 35.698 64.8356C30.8335 68.6938 27.05 73.2465 24.5792 78.3394C28.2854 79.4197 32.6867 80.8086 37.3967 82.5063C38.5549 79.9598 39.9448 77.4906 41.5663 75.1756ZM110.596 60.2058C110.596 69.3111 103.183 76.7189 94.072 76.7189C84.9607 76.7189 77.5481 69.3111 77.5481 60.2058C77.5481 51.1004 84.9607 43.6926 94.072 43.6926C103.183 43.7698 110.596 51.1775 110.596 60.2058ZM75.0773 28.877C85.5784 28.877 95.153 33.4297 101.716 40.7603C99.3225 39.8344 96.6973 39.2942 93.9948 39.2942C85.6556 39.2942 78.3975 44.2327 75 51.3319C71.6798 44.2327 64.4217 39.2942 56.0053 39.2942C53.3028 39.2942 50.6776 39.8344 48.3611 40.7603C55.0788 33.4297 64.5761 28.877 75.0773 28.877ZM56.1598 43.7698C65.2711 43.7698 72.6836 51.1775 72.6836 60.2829C72.6836 69.3883 65.2711 76.7961 56.1598 76.7961C47.0485 76.7961 39.6359 69.3883 39.6359 60.2829C39.6359 51.1775 47.0485 43.7698 56.1598 43.7698Z" fill="#1C1D4E"/>
</g>
<defs>
<radialGradient id="paint0_radial_297_2927" cx="0" cy="0" r="1" gradientUnits="userSpaceOnUse" gradientTransform="translate(94.5 61) rotate(90) scale(25 25.5)">
<stop offset="0.346798" stop-color="#00C2FF" stop-opacity="0.92"/>
<stop offset="0.744792" stop-color="#00C2FF" stop-opacity="0"/>
</radialGradient>
<radialGradient id="paint1_radial_297_2927" cx="0" cy="0" r="1" gradientUnits="userSpaceOnUse" gradientTransform="translate(56.5 60) rotate(90) scale(25 25.5)">
<stop offset="0.346798" stop-color="#00C2FF" stop-opacity="0.92"/>
<stop offset="0.744792" stop-color="#00C2FF" stop-opacity="0"/>
</radialGradient>
<clipPath id="clip0_297_2927">
<rect width="150" height="150" fill="white"/>
</clipPath>
</defs>
</svg>
