<svg width="67" height="66" viewBox="0 0 67 66" fill="none" xmlns="http://www.w3.org/2000/svg">
<g clip-path="url(#clip0_345_1207)">
<g filter="url(#filter0_d_345_1207)">
<path d="M63.816 55.0201V33.1305C63.816 33.1305 47.5428 35.2836 33.5314 42.4931C19.5201 35.2836 3.24678 33.1305 3.24678 33.1305V55.0201C-1.52839 56.1292 -5.39251 57.4667 -8 59C0.796366 56.1292 16.0958 54.2045 33.5 54.2045C50.9042 54.2045 66.2036 56.0966 75 59C72.4239 57.4667 68.5912 56.1292 63.816 55.0201Z" fill="#A9A9A9"/>
<path d="M7.67633 30.7816V33.8808C13.4568 35.0225 24.0124 37.5671 33.5314 42.4931C22.2846 33.3262 7.67633 30.7816 7.67633 30.7816Z" fill="#6F6F6F"/>
<path d="M59.4179 30.7816C59.4179 30.7816 44.8096 33.3262 33.5629 42.4931C43.0818 37.5997 53.6374 35.0225 59.4179 33.8808V30.7816Z" fill="#6F6F6F"/>
<path d="M33.5629 31.0753C32.966 32.4454 32.0549 33.6524 30.9868 34.5985L33.5315 39.1982L36.139 34.5985C35.0394 33.6524 34.1598 32.4454 33.5629 31.0753Z" fill="#A9A9A9"/>
<path d="M25.8346 27.6499C27.5311 27.6499 28.9448 26.2145 28.9448 24.4203C28.9448 22.6587 27.5625 21.1907 25.8346 21.1907C24.1382 21.1907 22.7245 22.6261 22.7245 24.4203C22.7245 26.2145 24.1068 27.6499 25.8346 27.6499ZM24.7979 22.1694C25.4576 22.1694 25.9917 22.724 25.9917 23.409C25.9917 24.0941 25.4576 24.6487 24.7979 24.6487C24.1382 24.6487 23.6041 24.0941 23.6041 23.409C23.6041 22.724 24.1382 22.1694 24.7979 22.1694Z" fill="#A9A9A9"/>
<path d="M38.1495 24.4203C38.1495 26.1819 39.5318 27.6499 41.2283 27.6499C42.9247 27.6499 44.3384 26.2145 44.3384 24.4203C44.3384 22.6587 42.9561 21.1907 41.2283 21.1907C39.5632 21.2233 38.1495 22.6587 38.1495 24.4203ZM41.6053 23.409C41.6053 24.0941 41.0712 24.6487 40.4115 24.6487C39.7517 24.6487 39.2177 24.0941 39.2177 23.409C39.2177 22.724 39.7517 22.1694 40.4115 22.1694C41.0712 22.1694 41.6053 22.724 41.6053 23.409Z" fill="#A9A9A9"/>
<path d="M19.8971 30.7491C21.4365 32.3149 23.5413 33.261 25.8346 33.261C29.2275 33.261 32.1806 31.1731 33.5629 28.1719C34.9137 31.1731 37.8668 33.261 41.2911 33.261C43.6159 33.261 45.6893 32.2823 47.2287 30.7491C47.8884 31.7277 48.4539 32.7716 48.9251 33.8482C50.8414 33.0979 52.6007 32.5433 54.1401 32.0866C53.1348 29.9335 51.564 28.0088 49.5848 26.3777C49.7105 25.7578 49.8047 25.0728 49.8047 24.4203C49.8047 23.1154 49.522 21.8758 49.0193 20.734C48.4224 18.9071 47.5114 17.2108 46.349 15.7102L46.2862 7L39.3119 10.3927C37.4898 9.67503 35.5421 9.31619 33.5629 9.31619C31.5837 9.31619 29.6359 9.67503 27.8138 10.3927L20.8081 7L20.7453 15.7102C19.6143 17.2108 18.7033 18.8745 18.1064 20.6688C17.6037 21.8105 17.2896 23.0828 17.2896 24.4203C17.2896 25.1054 17.3524 25.7578 17.5095 26.3777C15.5303 28.0088 13.991 29.9335 12.9857 32.0866C14.4936 32.5433 16.2843 33.1305 18.2006 33.8482C18.6719 32.7716 19.2374 31.7277 19.8971 30.7491ZM47.9826 24.4203C47.9826 28.2698 44.9667 31.4015 41.2597 31.4015C37.5527 31.4015 34.5368 28.2698 34.5368 24.4203C34.5368 20.5709 37.5527 17.4391 41.2597 17.4391C44.9667 17.4718 47.9826 20.6035 47.9826 24.4203ZM33.5315 11.1757C37.804 11.1757 41.6995 13.1004 44.3698 16.1995C43.3959 15.808 42.3278 15.5797 41.2283 15.5797C37.8354 15.5797 34.8823 17.6675 33.5 20.6688C32.1492 17.6675 29.1961 15.5797 25.7718 15.5797C24.6723 15.5797 23.6041 15.808 22.6617 16.1995C25.3948 13.1004 29.2589 11.1757 33.5315 11.1757ZM25.8346 17.4718C29.5417 17.4718 32.5576 20.6035 32.5576 24.4529C32.5576 28.3024 29.5417 31.4341 25.8346 31.4341C22.1276 31.4341 19.1117 28.3024 19.1117 24.4529C19.1117 20.6035 22.1276 17.4718 25.8346 17.4718Z" fill="#A9A9A9"/>
</g>
</g>
<defs>
<filter id="filter0_d_345_1207" x="-13" y="2" width="93" height="62" filterUnits="userSpaceOnUse" color-interpolation-filters="sRGB">
<feFlood flood-opacity="0" result="BackgroundImageFix"/>
<feColorMatrix in="SourceAlpha" type="matrix" values="0 0 0 0 0 0 0 0 0 0 0 0 0 0 0 0 0 0 127 0" result="hardAlpha"/>
<feOffset/>
<feGaussianBlur stdDeviation="2.5"/>
<feComposite in2="hardAlpha" operator="out"/>
<feColorMatrix type="matrix" values="0 0 0 0 0 0 0 0 0 0 0 0 0 0 0 0 0 0 1 0"/>
<feBlend mode="normal" in2="BackgroundImageFix" result="effect1_dropShadow_345_1207"/>
<feBlend mode="normal" in="SourceGraphic" in2="effect1_dropShadow_345_1207" result="shape"/>
</filter>
<clipPath id="clip0_345_1207">
<rect width="67" height="66" fill="white"/>
</clipPath>
</defs>
</svg>
