<svg width="630" height="589" viewBox="0 0 630 589" fill="none" xmlns="http://www.w3.org/2000/svg">
<g filter="url(#filter0_f_331_505)">
<path d="M313.389 488.966C420.366 488.966 507.089 401.952 507.089 294.616C507.089 187.279 420.366 100.266 313.389 100.266C206.411 100.266 119.689 187.279 119.689 294.616C119.689 401.952 206.411 488.966 313.389 488.966Z" fill="#F1B1D5" fill-opacity="0.4"/>
</g>
<path d="M316.94 468.972C413.301 468.972 491.417 390.856 491.417 294.495C491.417 198.134 413.301 120.019 316.94 120.019C220.579 120.019 142.463 198.134 142.463 294.495C142.463 390.856 220.579 468.972 316.94 468.972Z" fill="#F1B1D5"/>
<path d="M528.009 232.625L499.722 260.912L467.583 251.583C466.5 251.282 466.139 249.898 466.921 249.055L492.741 223.236C493.102 222.875 493.704 222.694 494.245 222.875L528.009 232.625Z" fill="#F48914" stroke="#17005E" stroke-width="1.5" stroke-miterlimit="10" stroke-linecap="round" stroke-linejoin="round"/>
<path d="M470.472 249.116L493.102 226.486L500.805 257.12L470.472 249.116Z" fill="#17005E" stroke="#17005E" stroke-width="1.5" stroke-miterlimit="10" stroke-linecap="round" stroke-linejoin="round"/>
<path d="M472.037 247.551C474.505 245.083 478.176 244.181 481.486 245.143L481.968 245.264C488.768 247.31 494.907 250.981 499.903 255.977L502.25 258.324L470.412 249.116L472.037 247.551Z" fill="#DEFAE5" stroke="#17005E" stroke-width="1.5" stroke-miterlimit="10" stroke-linecap="round" stroke-linejoin="round"/>
<path d="M490.875 228.653C488.407 231.12 487.504 234.792 488.467 238.102L488.588 238.583C490.634 245.384 494.305 251.523 499.301 256.518L501.648 258.866L492.44 227.028L490.875 228.653Z" fill="#DEFAE5" stroke="#17005E" stroke-width="1.5" stroke-miterlimit="10" stroke-linecap="round" stroke-linejoin="round"/>
<path d="M528.792 231.843L499.722 260.912L489.972 227.208C489.792 226.667 489.972 226.125 490.333 225.704L516.995 199.042C517.778 198.259 519.162 198.56 519.523 199.704L528.792 231.843Z" fill="#F48914" stroke="#17005E" stroke-width="1.5" stroke-miterlimit="10" stroke-linecap="round" stroke-linejoin="round"/>
<path d="M522.111 231.782L503.875 250.018C503.333 250.56 502.37 250.319 502.13 249.597L495.93 228.231C495.75 227.63 495.93 226.907 496.412 226.486L514.648 208.25C515.19 207.708 516.153 207.949 516.393 208.671L522.593 230.037C522.713 230.639 522.593 231.301 522.111 231.782Z" fill="#F6A143" stroke="#17005E" stroke-width="1.5" stroke-miterlimit="10" stroke-linecap="round" stroke-linejoin="round"/>
<path d="M528.909 231.151L498.098 261.963L500.183 264.048L530.994 233.237L528.909 231.151Z" fill="#F48914" stroke="#17005E" stroke-width="1.5" stroke-miterlimit="10" stroke-linecap="round" stroke-linejoin="round"/>
<path d="M528.91 231.141L501.333 258.718L503.419 260.803L530.996 233.226L528.91 231.141Z" fill="#F48914" stroke="#17005E" stroke-width="1.5" stroke-miterlimit="10" stroke-linecap="round" stroke-linejoin="round"/>
<path d="M112.997 393.652L72.4929 366.689L70.3262 334.49C70.266 333.407 71.5901 332.986 72.7336 333.768L109.808 358.384C110.349 358.745 110.71 359.287 110.771 359.828L112.997 393.652Z" fill="#17005E" stroke="#17005E" stroke-width="1.5" stroke-miterlimit="10" stroke-linecap="round" stroke-linejoin="round"/>
<path d="M73.9974 337.259L106.437 358.805L76.8863 367.652L73.9974 337.259Z" fill="#DEFAE5" stroke="#17005E" stroke-width="1.5" stroke-miterlimit="10" stroke-linecap="round" stroke-linejoin="round"/>
<path d="M76.2243 338.764C79.7752 341.111 82.1224 344.722 82.303 348.092V348.574C82.7243 355.375 81.0993 361.634 77.7289 366.75L76.1039 369.157L73.9373 337.259L76.2243 338.764Z" fill="#DEFAE5" stroke="#17005E" stroke-width="1.5" stroke-miterlimit="10" stroke-linecap="round" stroke-linejoin="round"/>
<path d="M113.419 350.981C109.868 347.912 104.993 346.949 100.78 348.393L100.178 348.634C91.692 351.583 84.2892 356.699 78.5114 363.379L75.8031 366.509L115.706 352.907L113.419 350.981Z" fill="#DEFAE5" stroke="#17005E" stroke-width="1.5" stroke-miterlimit="10" stroke-linecap="round" stroke-linejoin="round"/>
<path d="M114.201 394.375L72.4928 366.689L115.706 350.74C116.609 350.439 117.572 350.56 118.354 351.041L154.826 375.296C156.451 376.379 156.15 378.907 154.345 379.569L114.201 394.375Z" fill="#45337E" stroke="#17005E" stroke-width="1.5" stroke-miterlimit="10" stroke-linecap="round" stroke-linejoin="round"/>
<path d="M115.766 388.597L86.7567 369.338L117.511 357.541L146.521 376.861L115.766 388.597Z" fill="#17005E" stroke="#17005E" stroke-width="1.5" stroke-miterlimit="10" stroke-linecap="round" stroke-linejoin="round"/>
<path d="M115.098 394.41L70.8853 365.028L68.8865 368.036L113.1 397.417L115.098 394.41Z" fill="#45337E" stroke="#17005E" stroke-width="1.5" stroke-miterlimit="10" stroke-linecap="round" stroke-linejoin="round"/>
<path d="M115.073 394.42L75.5217 368.136L73.523 371.144L113.074 397.427L115.073 394.42Z" fill="#17005E" stroke="#17005E" stroke-width="1.5" stroke-miterlimit="10" stroke-linecap="round" stroke-linejoin="round"/>
<path d="M452.778 475.352H411.009V494.671H452.778V475.352Z" fill="#E556A8" stroke="#17005E" stroke-width="1.5" stroke-miterlimit="10" stroke-linecap="round" stroke-linejoin="round"/>
<path d="M313.509 518.866L308.815 535.537H267.829L271.68 518.866H313.509Z" fill="#E556A8" stroke="#17005E" stroke-width="1.5" stroke-miterlimit="10" stroke-linecap="round" stroke-linejoin="round"/>
<path d="M264.218 559.491H345.708C346.671 559.491 347.454 558.648 347.333 557.685C346.069 547.333 338.065 539.148 327.773 537.643L313.268 535.537L307.972 530C306.768 528.736 305.083 528.014 303.338 528.014H294.009C291.421 528.014 289.074 529.579 288.051 531.926L287.028 534.333L275.532 534.213L269.875 530.843C268.31 529.94 266.324 530.722 265.843 532.468L260.005 553.954C259.282 556.782 261.389 559.491 264.218 559.491Z" fill="white" stroke="#17005E" stroke-width="1.5" stroke-miterlimit="10" stroke-linecap="round" stroke-linejoin="round"/>
<path d="M439.296 349.144L364.968 289.801H270.296L271.741 319.231C272.343 331.991 274.509 344.63 278.181 356.847L295.694 415.347L266.866 518.926H313.509L343.963 423.051C345.588 417.995 345.889 412.579 344.806 407.403L331.986 344.028L340.593 337.528L405.532 387.241V475.472H452.718V377.13C452.778 366.236 447.782 355.884 439.296 349.144Z" fill="#F48914" stroke="#17005E" stroke-width="1.5" stroke-miterlimit="10" stroke-linecap="round" stroke-linejoin="round"/>
<path d="M270.296 289.801L270.958 303.282L339.991 289.801H270.296Z" fill="#17005E" stroke="#17005E" stroke-width="1.5" stroke-miterlimit="10" stroke-linecap="round" stroke-linejoin="round"/>
<path d="M361.477 320.375L340.653 337.468L359.19 351.611L361.477 320.375Z" fill="#17005E" stroke="#17005E" stroke-width="1.5" stroke-miterlimit="10" stroke-linecap="round" stroke-linejoin="round"/>
<path d="M302.676 427.986L295.634 415.287L281.792 465.241L302.676 427.986Z" fill="#17005E" stroke="#17005E" stroke-width="1.5" stroke-miterlimit="10" stroke-linecap="round" stroke-linejoin="round"/>
<path d="M416.426 382.306L405.593 387.12V429.25L416.426 382.306Z" fill="#17005E" stroke="#17005E" stroke-width="1.5" stroke-miterlimit="10" stroke-linecap="round" stroke-linejoin="round"/>
<path d="M313.509 518.866H271.681L270.116 525.727L313.509 518.866Z" fill="#17005E" stroke="#17005E" stroke-width="1.5" stroke-miterlimit="10" stroke-linecap="round" stroke-linejoin="round"/>
<path d="M452.778 475.352L411.009 483.657V475.352H452.778Z" fill="#17005E" stroke="#17005E" stroke-width="1.5" stroke-miterlimit="10" stroke-linecap="round" stroke-linejoin="round"/>
<path d="M345.708 559.491C346.671 559.491 347.454 558.648 347.333 557.685C346.852 553.532 345.227 549.741 342.819 546.551H337.282L330.903 552.931H271.319L268.25 546.731L262.292 545.768L260.065 554.014C259.343 556.782 261.389 559.491 264.278 559.491H345.708V559.491Z" fill="#17005E" stroke="#17005E" stroke-width="1.5" stroke-miterlimit="10" stroke-linecap="round" stroke-linejoin="round"/>
<path d="M407.759 518.505H489.25C490.213 518.505 490.995 517.662 490.875 516.699C489.611 506.347 481.606 498.162 471.315 496.657L456.81 494.551L451.514 489.014C450.31 487.75 448.625 487.028 446.88 487.028H437.611C435.023 487.028 432.676 488.593 431.653 490.94L430.63 493.347L419.134 493.227L413.477 489.856C411.912 488.954 409.926 489.736 409.444 491.481L403.606 512.968C402.824 515.796 404.931 518.505 407.759 518.505Z" fill="white" stroke="#17005E" stroke-width="1.5" stroke-miterlimit="10" stroke-linecap="round" stroke-linejoin="round"/>
<path d="M489.25 518.505C490.213 518.505 490.995 517.662 490.875 516.699C490.394 512.546 488.769 508.755 486.361 505.565H480.824L474.444 511.944H414.861L411.792 505.745L405.833 504.782L403.606 513.028C402.884 515.796 404.931 518.505 407.819 518.505H489.25V518.505Z" fill="#17005E" stroke="#17005E" stroke-width="1.5" stroke-miterlimit="10" stroke-linecap="round" stroke-linejoin="round"/>
<path d="M339.389 396.63C329.398 405.537 331.083 421.667 342.639 428.347C343.12 428.648 343.542 427.866 343.06 427.625C331.926 421.185 330.421 405.778 339.991 397.231C340.412 396.87 339.81 396.268 339.389 396.63Z" fill="#17005E"/>
<path d="M437.009 349.023C436.287 355.764 436.829 363.227 439.778 369.366C441.944 373.88 445.856 378.093 451.273 377.731C451.815 377.671 451.815 376.829 451.273 376.889C445.555 377.25 441.704 372.134 439.838 367.38C437.611 361.602 437.19 355.102 437.852 349.023C437.912 348.481 437.069 348.481 437.009 349.023Z" fill="#17005E"/>
<path d="M279.023 296C279.023 296 279.143 296.722 279.444 298.046" stroke="#17005E" stroke-linecap="round" stroke-linejoin="round"/>
<path d="M280.287 302.199C282.153 311.468 286.185 330.907 292.384 358.713C302.255 402.829 302.616 427.986 302.616 427.986L282.273 514.773" stroke="#17005E" stroke-linecap="round" stroke-linejoin="round" stroke-dasharray="7 7"/>
<path d="M281.852 516.819L281.37 518.866" stroke="#17005E" stroke-linecap="round" stroke-linejoin="round"/>
<path d="M352.148 331.991L416.426 382.306L418.352 474.75" stroke="#17005E" stroke-miterlimit="10" stroke-linecap="round" stroke-linejoin="round" stroke-dasharray="7 7"/>
<path d="M292.685 296C293.407 303.343 290.338 310.625 284.44 315.079C284.018 315.38 284.44 316.162 284.861 315.801C290.94 311.167 294.25 303.644 293.528 296C293.468 295.458 292.625 295.458 292.685 296Z" fill="#17005E"/>
<path d="M324.764 292.75C329.037 299.852 332.347 307.556 334.574 315.5C336.741 323.144 337.523 331.148 340.653 338.551C340.893 339.032 341.616 338.611 341.375 338.13C338.065 330.366 337.343 321.88 334.935 313.875C332.708 306.292 329.458 299.069 325.426 292.329C325.185 291.847 324.463 292.269 324.764 292.75Z" fill="#17005E"/>
<path d="M332.167 291.667C335.537 297.143 342.458 308.579 334.755 313.454C334.273 313.755 334.694 314.477 335.176 314.176C343.421 308.94 336.56 297.083 332.889 291.245C332.588 290.764 331.866 291.185 332.167 291.667Z" fill="#17005E"/>
<path d="M448.143 317.306H183.509C180.5 317.306 178.093 314.898 178.093 311.889V61.1574C178.093 58.1481 180.5 55.7407 183.509 55.7407H448.143C451.153 55.7407 453.56 58.1481 453.56 61.1574V311.889C453.56 314.898 451.092 317.306 448.143 317.306Z" stroke="#17005E" stroke-width="3" stroke-miterlimit="10" stroke-linecap="round" stroke-linejoin="round"/>
<path d="M178.093 82.8241H453.56" stroke="#17005E" stroke-width="1.5" stroke-miterlimit="10" stroke-linecap="round" stroke-linejoin="round"/>
<path d="M428.403 75.3009H417.87C417.208 75.3009 416.727 74.7592 416.727 74.1574V63.625C416.727 62.9629 417.268 62.4814 417.87 62.4814H428.403C429.065 62.4814 429.546 63.0231 429.546 63.625V74.1574C429.606 74.7592 429.065 75.3009 428.403 75.3009Z" fill="#F5A3D2" stroke="#17005E" stroke-width="1.5" stroke-miterlimit="10" stroke-linecap="round" stroke-linejoin="round"/>
<path d="M424.31 67.7175H419.556V72.4722H424.31V67.7175Z" fill="#F5A3D2" stroke="#17005E" stroke-width="1.5" stroke-miterlimit="10" stroke-linecap="round" stroke-linejoin="round"/>
<path d="M426.778 65.3102V70.0046H424.31V67.7176H422.023V65.3102H426.778Z" fill="#F5A3D2" stroke="#17005E" stroke-width="1.5" stroke-miterlimit="10" stroke-linecap="round" stroke-linejoin="round"/>
<path d="M411.431 75.3009H400.898C400.236 75.3009 399.755 74.7592 399.755 74.1574V63.625C399.755 62.9629 400.296 62.4814 400.898 62.4814H411.431C412.093 62.4814 412.574 63.0231 412.574 63.625V74.1574C412.634 74.7592 412.093 75.3009 411.431 75.3009Z" fill="#F5A3D2" stroke="#17005E" stroke-width="1.5" stroke-miterlimit="10" stroke-linecap="round" stroke-linejoin="round"/>
<path d="M402.102 71.8102H410.287" stroke="#17005E" stroke-width="1.5" stroke-miterlimit="10" stroke-linecap="round" stroke-linejoin="round"/>
<path d="M445.375 75.3009H434.843C434.18 75.3009 433.699 74.7592 433.699 74.1574V63.625C433.699 62.9629 434.241 62.4814 434.843 62.4814H445.375C446.037 62.4814 446.518 63.0231 446.518 63.625V74.1574C446.579 74.7592 446.037 75.3009 445.375 75.3009Z" fill="#F5A3D2" stroke="#17005E" stroke-width="1.5" stroke-miterlimit="10" stroke-linecap="round" stroke-linejoin="round"/>
<path d="M435.866 64.5879L444.412 73.1944" stroke="#17005E" stroke-width="1.5" stroke-miterlimit="10" stroke-linecap="round" stroke-linejoin="round"/>
<path d="M444.412 64.5879L435.866 73.1944" stroke="#17005E" stroke-width="1.5" stroke-miterlimit="10" stroke-linecap="round" stroke-linejoin="round"/>
<path d="M192.838 341.681H275.592C277.217 341.681 278.542 340.356 278.542 338.731V330.125C278.542 328.5 277.217 327.176 275.592 327.176H192.838C191.213 327.176 189.889 328.5 189.889 330.125V338.731C189.889 340.356 191.213 341.681 192.838 341.681Z" fill="#82EC99" stroke="#17005E" stroke-width="1.5" stroke-miterlimit="10" stroke-linecap="round" stroke-linejoin="round"/>
<path d="M255.069 339.574H278.542V329.222H255.069C253.745 329.222 252.602 330.306 252.602 331.69V337.106C252.662 338.491 253.745 339.574 255.069 339.574Z" fill="#DEFAE5" stroke="#17005E" stroke-width="1.5" stroke-miterlimit="10" stroke-linecap="round" stroke-linejoin="round"/>
<path d="M194.777 339.573H198.81V329.222H194.777V339.573Z" fill="#F48914" stroke="#17005E" stroke-width="1.5" stroke-miterlimit="10" stroke-linecap="round" stroke-linejoin="round"/>
<path d="M244.019 339.573H248.052V329.222H244.019V339.573Z" fill="#17005E" stroke="#17005E" stroke-width="1.5" stroke-miterlimit="10" stroke-linecap="round" stroke-linejoin="round"/>
<path d="M278.542 331.268H252.662" stroke="#17005E" stroke-width="1.5" stroke-miterlimit="10" stroke-linecap="round" stroke-linejoin="round"/>
<path d="M278.542 333.315H252.662" stroke="#17005E" stroke-width="1.5" stroke-miterlimit="10" stroke-linecap="round" stroke-linejoin="round"/>
<path d="M278.542 335.301H252.662" stroke="#17005E" stroke-width="1.5" stroke-miterlimit="10" stroke-linecap="round" stroke-linejoin="round"/>
<path d="M278.542 337.287H252.662" stroke="#17005E" stroke-width="1.5" stroke-miterlimit="10" stroke-linecap="round" stroke-linejoin="round"/>
<path d="M260.967 331.569V336.866L258.259 334.819L255.491 336.866V331.389H260.967" fill="#E556A8"/>
<path d="M260.967 331.569V336.866L258.259 334.819L255.491 336.866V331.389H260.967" stroke="#17005E" stroke-width="1.5" stroke-miterlimit="10" stroke-linecap="round" stroke-linejoin="round"/>
<path d="M196.268 327.116H279.023C280.648 327.116 281.972 325.792 281.972 324.167V309.722C281.972 308.097 280.648 306.773 279.023 306.773H196.268C194.643 306.773 193.319 308.097 193.319 309.722V324.167C193.319 325.792 194.643 327.116 196.268 327.116Z" fill="#17005E" stroke="#17005E" stroke-width="1.5" stroke-miterlimit="10" stroke-linecap="round" stroke-linejoin="round"/>
<path d="M269.514 324.167H282.032V309.722H269.514C268.19 309.722 267.046 310.806 267.046 312.19V321.759C267.046 323.083 268.129 324.167 269.514 324.167Z" fill="#DEFAE5" stroke="#17005E" stroke-width="1.5" stroke-miterlimit="10" stroke-linecap="round" stroke-linejoin="round"/>
<path d="M198.197 324.151H202.229V309.707H198.197V324.151Z" fill="white" stroke="#17005E" stroke-width="1.5" stroke-miterlimit="10" stroke-linecap="round" stroke-linejoin="round"/>
<path d="M206.601 320.119H262.092V313.799H206.601V320.119Z" fill="#EF76BB" stroke="#17005E" stroke-width="1.5" stroke-miterlimit="10" stroke-linecap="round" stroke-linejoin="round"/>
<path d="M282.032 312.611H267.046" stroke="#17005E" stroke-width="1.5" stroke-miterlimit="10" stroke-linecap="round" stroke-linejoin="round"/>
<path d="M282.032 315.38H267.046" stroke="#17005E" stroke-width="1.5" stroke-miterlimit="10" stroke-linecap="round" stroke-linejoin="round"/>
<path d="M282.032 318.208H267.046" stroke="#17005E" stroke-width="1.5" stroke-miterlimit="10" stroke-linecap="round" stroke-linejoin="round"/>
<path d="M282.032 320.977H267.046" stroke="#17005E" stroke-width="1.5" stroke-miterlimit="10" stroke-linecap="round" stroke-linejoin="round"/>
<path d="M276.134 312.37V318.269L273.366 316.042L270.597 318.269V312.19H276.134" fill="#F48914"/>
<path d="M276.134 312.37V318.269L273.366 316.042L270.597 318.269V312.19H276.134" stroke="#17005E" stroke-width="1.5" stroke-miterlimit="10" stroke-linecap="round" stroke-linejoin="round"/>
<path d="M190.912 306.773H273.667C275.292 306.773 276.616 305.449 276.616 303.824V295.519C276.616 293.894 275.292 292.569 273.667 292.569H190.912C189.287 292.569 187.963 293.894 187.963 295.519V303.764C187.963 305.449 189.287 306.773 190.912 306.773Z" fill="#F48914" stroke="#17005E" stroke-width="1.5" stroke-miterlimit="10" stroke-linecap="round" stroke-linejoin="round"/>
<path d="M253.143 304.727H276.616V294.616H253.143C251.819 294.616 250.676 295.699 250.676 297.083V302.259C250.676 303.583 251.819 304.727 253.143 304.727Z" fill="#DEFAE5" stroke="#17005E" stroke-width="1.5" stroke-miterlimit="10" stroke-linecap="round" stroke-linejoin="round"/>
<path d="M246.102 297.083H201.204V302.259H246.102V297.083Z" fill="#8636CC" stroke="#17005E" stroke-width="1.5" stroke-miterlimit="10" stroke-linecap="round" stroke-linejoin="round"/>
<path d="M196.569 297.986H193.139V301.356H196.569V297.986Z" fill="#E556A8" stroke="#17005E" stroke-width="1.5" stroke-miterlimit="10" stroke-linecap="round" stroke-linejoin="round"/>
<path d="M276.616 296.602H250.676" stroke="#17005E" stroke-width="1.5" stroke-miterlimit="10" stroke-linecap="round" stroke-linejoin="round"/>
<path d="M276.616 298.588H250.676" stroke="#17005E" stroke-width="1.5" stroke-miterlimit="10" stroke-linecap="round" stroke-linejoin="round"/>
<path d="M276.616 300.514H250.676" stroke="#17005E" stroke-width="1.5" stroke-miterlimit="10" stroke-linecap="round" stroke-linejoin="round"/>
<path d="M276.616 302.5H250.676" stroke="#17005E" stroke-width="1.5" stroke-miterlimit="10" stroke-linecap="round" stroke-linejoin="round"/>
<path d="M265.542 302.62V306.713L268.31 305.148L271.018 306.713V302.44H265.542" fill="#E556A8"/>
<path d="M265.542 302.62V306.713L268.31 305.148L271.018 306.713V302.44H265.542" stroke="#17005E" stroke-width="1.5" stroke-miterlimit="10" stroke-linecap="round" stroke-linejoin="round"/>
<path d="M245.199 325.31L252.963 335.481C254.106 336.986 254.227 339.093 253.204 340.718C251.519 343.426 247.727 343.787 245.56 341.56L239.241 335L245.199 325.31Z" fill="#E556A8" stroke="#17005E" stroke-width="1.5" stroke-miterlimit="10" stroke-linecap="round" stroke-linejoin="round"/>
<path d="M249.231 330.546L245.199 325.31L239.181 335L244.356 340.356L249.231 330.546Z" fill="#17005E" stroke="#17005E" stroke-width="1.5" stroke-miterlimit="10" stroke-linecap="round" stroke-linejoin="round"/>
<path d="M241.106 308.579L246.523 225.764L231.838 188.449L217.213 199.523C208.185 206.384 203.852 217.759 206.139 228.894L222.569 309.782L221.065 310.505C218.176 311.949 216.25 314.898 216.069 318.088L215.167 336.023L232.56 341.259L224.676 351.069L225.579 351.671C228.588 353.597 232.5 353.477 235.329 351.25L240.144 347.519C242.37 345.713 243.815 343.185 244.296 340.356L246.042 329.343C246.343 327.597 246.222 325.852 245.681 324.167L241.106 308.579Z" fill="#E556A8" stroke="#17005E" stroke-width="1.5" stroke-miterlimit="10" stroke-linecap="round" stroke-linejoin="round"/>
<path d="M246.523 225.824L217.213 199.523L222.63 195.731L246.523 225.824Z" fill="#17005E" stroke="#17005E" stroke-width="1.5" stroke-miterlimit="10" stroke-linecap="round" stroke-linejoin="round"/>
<path d="M235.088 340.176L225.819 351.069C224.736 352.333 223.111 352.875 221.486 352.514C218.657 351.852 217.273 348.662 218.657 346.134L223.833 336.926" fill="#E556A8"/>
<path d="M235.088 340.176L225.819 351.069C224.736 352.333 223.111 352.875 221.486 352.514C218.657 351.852 217.273 348.662 218.657 346.134L223.833 336.926" stroke="#17005E" stroke-width="1.5" stroke-miterlimit="10" stroke-linecap="round" stroke-linejoin="round"/>
<path d="M215.287 334.579L212.157 342.222L210.653 341.139C209.269 340.116 207.343 340.296 206.139 341.5C204.694 342.944 204.815 345.352 206.38 346.676L208.306 348.301C209.931 349.625 211.977 350.347 214.083 350.167C216.792 349.986 219.259 348.421 220.523 346.014L226.06 335.722" fill="#E556A8"/>
<path d="M215.287 334.579L212.157 342.222L210.653 341.139C209.269 340.116 207.343 340.296 206.139 341.5C204.694 342.944 204.815 345.352 206.38 346.676L208.306 348.301C209.931 349.625 211.977 350.347 214.083 350.167C216.792 349.986 219.259 348.421 220.523 346.014L226.06 335.722" stroke="#17005E" stroke-width="1.5" stroke-miterlimit="10" stroke-linecap="round" stroke-linejoin="round"/>
<path d="M217.273 283.843L222.569 309.782L226.843 307.074L217.273 283.843Z" fill="#17005E" stroke="#17005E" stroke-width="1.5" stroke-miterlimit="10" stroke-linecap="round" stroke-linejoin="round"/>
<path d="M490.032 161.366V168.949H507.907C510.014 168.949 511.699 167.264 511.699 165.157C511.699 163.051 510.014 161.366 507.907 161.366H490.032Z" fill="#E556A8" stroke="#17005E" stroke-width="1.5" stroke-miterlimit="10" stroke-linecap="round" stroke-linejoin="round"/>
<path d="M484.315 161.366V168.949H502.25C504.356 168.949 506.042 167.264 506.042 165.157C506.042 163.051 504.356 161.366 502.25 161.366H484.315Z" fill="#E556A8" stroke="#17005E" stroke-width="1.5" stroke-miterlimit="10" stroke-linecap="round" stroke-linejoin="round"/>
<path d="M448.505 164.495L455.065 151.857C455.907 150.232 457.532 149.269 459.398 149.269H471.255C473.12 149.269 474.625 150.773 474.625 152.639C474.625 154.505 473.12 156.009 471.255 156.009H465.356C465.356 160.644 461.625 164.375 457.051 164.435L448.505 164.495Z" fill="#E556A8" stroke="#17005E" stroke-width="1.5" stroke-miterlimit="10" stroke-linecap="round" stroke-linejoin="round"/>
<path d="M495.449 161.366H453.319C450.19 161.366 447.12 162.269 444.532 163.954L387.597 200.847L355.097 222.333L378.75 240.569C385.37 245.685 394.88 244.903 400.597 238.824L459.579 175.81C465.958 173.764 475.829 170.574 480.704 168.949H495.389C497.495 168.949 499.181 167.264 499.181 165.157C499.181 163.051 497.495 161.366 495.449 161.366Z" fill="#E556A8" stroke="#17005E" stroke-width="1.5" stroke-miterlimit="10" stroke-linecap="round" stroke-linejoin="round"/>
<path d="M387.597 200.847L357.565 223.657L364.245 229.014L387.597 200.847Z" fill="#17005E" stroke="#17005E" stroke-width="1.5" stroke-miterlimit="10" stroke-linecap="round" stroke-linejoin="round"/>
<path d="M459.579 175.75L442.305 183.032L438.393 198.38L459.579 175.75Z" fill="#17005E" stroke="#17005E" stroke-width="1.5" stroke-miterlimit="10" stroke-linecap="round" stroke-linejoin="round"/>
<path d="M387.597 200.847L355.097 165.519C348.718 158.597 339.69 154.625 330.301 154.625H281.31C274.148 154.625 267.227 156.912 261.449 161.125L223.593 188.75C221.366 190.375 220.944 193.565 222.63 195.731L246.523 225.764L270.236 208.611V289.741H364.907L355.579 226.125L387.597 200.847Z" fill="#8636CC" stroke="#17005E" stroke-width="1.5" stroke-miterlimit="10" stroke-linecap="round" stroke-linejoin="round"/>
<path d="M326.63 154.685H297.62C297.741 162.569 304.181 168.949 312.125 168.949C320.069 168.949 326.509 162.569 326.63 154.685Z" fill="#17005E" stroke="#17005E" stroke-width="1.5" stroke-miterlimit="10" stroke-linecap="round" stroke-linejoin="round"/>
<path d="M355.579 226.125L349.44 186.523L361.056 212.824L355.579 226.125Z" fill="#17005E" stroke="#17005E" stroke-width="1.5" stroke-miterlimit="10" stroke-linecap="round" stroke-linejoin="round"/>
<path d="M270.296 208.671L277.097 182.671L246.523 225.824L270.296 208.671Z" fill="#17005E" stroke="#17005E" stroke-width="1.5" stroke-miterlimit="10" stroke-linecap="round" stroke-linejoin="round"/>
<path d="M293.588 179.241C295.333 179.241 297.079 179.241 298.824 179.241C299.366 179.241 299.366 178.398 298.824 178.398C297.079 178.398 295.333 178.398 293.588 178.398C292.986 178.398 292.986 179.241 293.588 179.241Z" fill="#17005E"/>
<path d="M308.815 185.741C308.815 187.486 308.815 189.231 308.815 190.977C308.815 191.519 309.657 191.519 309.657 190.977C309.657 189.231 309.657 187.486 309.657 185.741C309.657 185.199 308.815 185.199 308.815 185.741Z" fill="#17005E"/>
<path d="M297.199 199.102C297.199 200.245 297.199 201.449 297.199 202.593C297.199 203.134 298.042 203.134 298.042 202.593C298.042 201.449 298.042 200.245 298.042 199.102C298.042 198.56 297.199 198.56 297.199 199.102Z" fill="#17005E"/>
<path d="M288.592 206.926C287.208 208.31 285.884 209.634 284.5 211.019C284.139 211.38 284.741 211.981 285.102 211.62C286.486 210.236 287.81 208.912 289.194 207.528C289.616 207.167 289.014 206.565 288.592 206.926Z" fill="#17005E"/>
<path d="M296.176 221.43C297.921 223.176 299.667 224.921 301.412 226.667C301.773 227.028 302.375 226.426 302.014 226.065C300.268 224.319 298.523 222.574 296.778 220.829C296.356 220.468 295.755 221.069 296.176 221.43Z" fill="#17005E"/>
<path d="M311.704 217.097C311.704 218.662 311.704 220.167 311.704 221.731C311.704 222.273 312.546 222.273 312.546 221.731C312.546 220.167 312.546 218.662 312.546 217.097C312.546 216.556 311.704 216.556 311.704 217.097Z" fill="#17005E"/>
<path d="M325.787 211.018C327.352 212.583 328.856 214.088 330.421 215.653C330.782 216.014 331.384 215.412 331.023 215.051C329.458 213.486 327.954 211.981 326.389 210.417C325.968 210.055 325.366 210.597 325.787 211.018Z" fill="#17005E"/>
<path d="M335.056 202.292C335.657 202.893 336.199 203.435 336.801 204.037C337.162 204.398 337.764 203.796 337.403 203.435C336.801 202.833 336.259 202.292 335.657 201.69C335.236 201.329 334.634 201.93 335.056 202.292Z" fill="#17005E"/>
<path d="M336.801 188.389C337.944 187.245 339.148 186.042 340.292 184.898C340.653 184.537 340.051 183.935 339.69 184.296C338.546 185.44 337.343 186.643 336.199 187.787C335.838 188.148 336.44 188.75 336.801 188.389Z" fill="#17005E"/>
<path d="M338.546 173.282C339.148 172.68 339.69 172.139 340.292 171.537C340.653 171.176 340.051 170.574 339.69 170.935C339.088 171.537 338.546 172.079 337.944 172.68C337.583 173.102 338.185 173.643 338.546 173.282Z" fill="#17005E"/>
<path d="M346.069 164.555C347.032 165.518 347.995 166.481 348.958 167.444C349.319 167.805 349.921 167.204 349.56 166.843C348.597 165.88 347.634 164.917 346.671 163.954C346.31 163.593 345.708 164.194 346.069 164.555Z" fill="#17005E"/>
<path d="M353.472 176.472C353.472 177.616 353.472 178.819 353.472 179.963C353.472 180.505 354.315 180.505 354.315 179.963C354.315 178.819 354.315 177.616 354.315 176.472C354.315 175.931 353.472 175.931 353.472 176.472Z" fill="#17005E"/>
<path d="M332.468 177.194C331.083 177.194 329.759 177.194 328.375 177.194C327.833 177.194 327.833 178.037 328.375 178.037C329.759 178.037 331.083 178.037 332.468 178.037C333.009 178.037 333.009 177.194 332.468 177.194Z" fill="#17005E"/>
<path d="M322.718 189.231C322.718 190.375 322.718 191.579 322.718 192.722C322.718 193.264 323.56 193.264 323.56 192.722C323.56 191.579 323.56 190.375 323.56 189.231C323.56 188.69 322.718 188.69 322.718 189.231Z" fill="#17005E"/>
<path d="M311.282 176.171C310.319 175.208 309.356 174.245 308.393 173.282C308.032 172.921 307.431 173.523 307.792 173.884C308.755 174.847 309.718 175.81 310.681 176.773C311.042 177.134 311.643 176.532 311.282 176.171Z" fill="#17005E"/>
<path d="M293.287 165.699C292.685 165.097 292.143 164.555 291.542 163.954C291.18 163.593 290.579 164.194 290.94 164.555C291.542 165.157 292.083 165.699 292.685 166.301C293.046 166.722 293.648 166.12 293.287 165.699Z" fill="#17005E"/>
<path d="M279.806 168.347C279.806 169.13 279.806 169.912 279.806 170.694C279.806 171.236 280.648 171.236 280.648 170.694C280.648 169.912 280.648 169.13 280.648 168.347C280.648 167.806 279.806 167.806 279.806 168.347Z" fill="#17005E"/>
<path d="M282.273 160.523C283.236 159.56 284.199 158.597 285.162 157.634C285.523 157.273 284.921 156.671 284.56 157.032C283.597 157.995 282.634 158.958 281.671 159.921C281.25 160.282 281.852 160.884 282.273 160.523Z" fill="#17005E"/>
<path d="M267.588 164.856C267.588 166 267.588 167.204 267.588 168.347C267.588 168.889 268.43 168.889 268.43 168.347C268.43 167.204 268.43 166 268.43 164.856C268.43 164.315 267.588 164.315 267.588 164.856Z" fill="#17005E"/>
<path d="M257.718 174.125C257.718 176.472 257.718 178.759 257.718 181.106C257.718 181.648 258.56 181.648 258.56 181.106C258.56 178.759 258.56 176.472 258.56 174.125C258.56 173.583 257.718 173.583 257.718 174.125Z" fill="#17005E"/>
<path d="M243.935 183.153C242.972 184.116 242.009 185.079 241.046 186.042C240.685 186.403 241.287 187.005 241.648 186.643C242.611 185.68 243.574 184.718 244.537 183.755C244.898 183.333 244.296 182.731 243.935 183.153Z" fill="#17005E"/>
<path d="M247.968 194.768C248.569 195.37 249.111 195.912 249.713 196.514C250.074 196.875 250.676 196.273 250.315 195.912C249.713 195.31 249.171 194.768 248.569 194.167C248.208 193.805 247.606 194.347 247.968 194.768Z" fill="#17005E"/>
<path d="M245.56 207.227C245.56 208.972 245.56 210.718 245.56 212.463C245.56 213.005 246.403 213.005 246.403 212.463C246.403 210.718 246.403 208.972 246.403 207.227C246.403 206.685 245.56 206.685 245.56 207.227Z" fill="#17005E"/>
<path d="M236.954 195.31C235.991 194.347 235.028 193.384 234.065 192.421C233.704 192.06 233.102 192.662 233.463 193.023C234.426 193.986 235.389 194.949 236.352 195.912C236.773 196.333 237.375 195.731 236.954 195.31Z" fill="#17005E"/>
<path d="M228.588 191.699C227.444 191.699 226.241 191.699 225.097 191.699C224.556 191.699 224.556 192.542 225.097 192.542C226.241 192.542 227.444 192.542 228.588 192.542C229.13 192.542 229.13 191.699 228.588 191.699Z" fill="#17005E"/>
<path d="M237.435 201.991C237.435 203.134 237.435 204.338 237.435 205.481C237.435 206.023 238.278 206.023 238.278 205.481C238.278 204.338 238.278 203.134 238.278 201.991C238.278 201.449 237.435 201.449 237.435 201.991Z" fill="#17005E"/>
<path d="M260.486 194.889C261.268 194.889 262.051 194.889 262.833 194.889C263.375 194.889 263.375 194.046 262.833 194.046C262.051 194.046 261.268 194.046 260.486 194.046C259.944 194.046 259.944 194.889 260.486 194.889Z" fill="#17005E"/>
<path d="M251.639 176.472C251.639 175.69 251.639 174.907 251.639 174.125C251.639 173.583 250.796 173.583 250.796 174.125C250.796 174.907 250.796 175.69 250.796 176.472C250.796 177.014 251.639 177.014 251.639 176.472Z" fill="#17005E"/>
<path d="M269.755 179.241C270.718 179.241 271.681 179.241 272.644 179.241C273.185 179.241 273.185 178.398 272.644 178.398C271.681 178.398 270.718 178.398 269.755 178.398C269.213 178.398 269.213 179.241 269.755 179.241Z" fill="#17005E"/>
<path d="M285.162 192.421C284.56 193.023 284.018 193.565 283.417 194.167C283.056 194.528 283.657 195.13 284.018 194.769C284.62 194.167 285.162 193.625 285.764 193.023C286.125 192.662 285.523 192.06 285.162 192.421Z" fill="#17005E"/>
<path d="M273.968 219.444C273.968 221.551 273.968 223.717 273.968 225.824C273.968 226.366 274.81 226.366 274.81 225.824C274.81 223.717 274.81 221.551 274.81 219.444C274.81 218.903 273.968 218.903 273.968 219.444Z" fill="#17005E"/>
<path d="M282.815 231.903C283.597 232.685 284.38 233.468 285.162 234.25C285.523 234.611 286.125 234.009 285.764 233.648C284.981 232.866 284.199 232.083 283.417 231.301C282.995 230.94 282.454 231.542 282.815 231.903Z" fill="#17005E"/>
<path d="M282.694 244.361C282.694 245.926 282.694 247.431 282.694 248.995C282.694 249.537 283.537 249.537 283.537 248.995C283.537 247.431 283.537 245.926 283.537 244.361C283.537 243.819 282.694 243.819 282.694 244.361Z" fill="#17005E"/>
<path d="M286.306 255.676C286.907 256.278 287.449 256.819 288.051 257.421C288.412 257.782 289.014 257.18 288.653 256.819C288.051 256.218 287.509 255.676 286.907 255.074C286.486 254.713 285.884 255.315 286.306 255.676Z" fill="#17005E"/>
<path d="M299.366 251.764C300.329 251.764 301.292 251.764 302.255 251.764C302.796 251.764 302.796 250.921 302.255 250.921C301.292 250.921 300.329 250.921 299.366 250.921C298.824 250.921 298.824 251.764 299.366 251.764Z" fill="#17005E"/>
<path d="M299.065 237.68C300.208 238.824 301.412 240.028 302.556 241.171C302.917 241.532 303.518 240.93 303.157 240.569C302.014 239.426 300.81 238.222 299.667 237.079C299.245 236.718 298.704 237.319 299.065 237.68Z" fill="#17005E"/>
<path d="M311.523 236.657C312.486 236.657 313.449 236.657 314.412 236.657C314.954 236.657 314.954 235.815 314.412 235.815C313.449 235.815 312.486 235.815 311.523 235.815C310.981 235.815 310.981 236.657 311.523 236.657Z" fill="#17005E"/>
<path d="M322.176 231C322.176 232.926 322.176 234.852 322.176 236.778C322.176 237.319 323.019 237.319 323.019 236.778C323.019 234.852 323.019 232.926 323.019 231C323.019 230.458 322.176 230.458 322.176 231Z" fill="#17005E"/>
<path d="M332.046 239.125C332.046 240.509 332.046 241.833 332.046 243.218C332.046 243.759 332.889 243.759 332.889 243.218C332.889 241.833 332.889 240.509 332.889 239.125C332.889 238.583 332.046 238.583 332.046 239.125Z" fill="#17005E"/>
<path d="M319.106 251.764C320.491 251.764 321.815 251.764 323.199 251.764C323.741 251.764 323.741 250.921 323.199 250.921C321.815 250.921 320.491 250.921 319.106 250.921C318.565 250.921 318.565 251.764 319.106 251.764Z" fill="#17005E"/>
<path d="M337.944 229.555C338.727 230.338 339.509 231.12 340.292 231.903C340.653 232.264 341.255 231.662 340.893 231.301C340.111 230.518 339.329 229.736 338.546 228.954C338.185 228.593 337.583 229.194 337.944 229.555Z" fill="#17005E"/>
<path d="M347.815 222.634C348.176 222.995 348.597 223.417 348.958 223.778C349.319 224.139 349.921 223.537 349.56 223.176C349.199 222.815 348.778 222.393 348.417 222.032C347.995 221.611 347.454 222.213 347.815 222.634Z" fill="#17005E"/>
<path d="M275.171 248.995C275.171 249.778 275.171 250.56 275.171 251.343C275.171 251.884 276.014 251.884 276.014 251.343C276.014 250.56 276.014 249.778 276.014 248.995C276.014 248.454 275.171 248.454 275.171 248.995Z" fill="#17005E"/>
<path d="M273.847 265.125C275.773 265.125 277.699 265.125 279.625 265.125C280.167 265.125 280.167 264.282 279.625 264.282C277.699 264.282 275.773 264.282 273.847 264.282C273.306 264.282 273.306 265.125 273.847 265.125Z" fill="#17005E"/>
<path d="M274.569 273.37C274.569 274.514 274.569 275.718 274.569 276.861C274.569 277.403 275.412 277.403 275.412 276.861C275.412 275.718 275.412 274.514 275.412 273.37C275.412 272.829 274.569 272.829 274.569 273.37Z" fill="#17005E"/>
<path d="M279.324 280.051C280.106 279.268 280.889 278.486 281.671 277.704C282.032 277.343 281.431 276.741 281.069 277.102C280.287 277.884 279.505 278.667 278.722 279.449C278.361 279.87 278.963 280.472 279.324 280.051Z" fill="#17005E"/>
<path d="M293.829 273.13C294.611 273.912 295.393 274.694 296.176 275.477C296.537 275.838 297.139 275.236 296.778 274.875C295.995 274.093 295.213 273.31 294.43 272.528C294.069 272.106 293.468 272.708 293.829 273.13Z" fill="#17005E"/>
<path d="M273.968 286.731C273.968 287.333 273.968 287.875 273.968 288.477C273.968 289.018 274.81 289.018 274.81 288.477C274.81 287.875 274.81 287.333 274.81 286.731C274.81 286.19 273.968 286.19 273.968 286.731Z" fill="#17005E"/>
<path d="M288.352 284.866C289.736 284.866 291.06 284.866 292.444 284.866C292.986 284.866 292.986 284.023 292.444 284.023C291.06 284.023 289.736 284.023 288.352 284.023C287.81 284.023 287.81 284.866 288.352 284.866Z" fill="#17005E"/>
<path d="M307.912 286.731C307.912 285.347 307.912 284.023 307.912 282.639C307.912 282.097 307.069 282.097 307.069 282.639C307.069 284.023 307.069 285.347 307.069 286.731C307.069 287.273 307.912 287.273 307.912 286.731Z" fill="#17005E"/>
<path d="M314.171 274.273C315.917 276.019 317.662 277.764 319.407 279.509C319.768 279.87 320.37 279.269 320.009 278.907C318.264 277.162 316.518 275.417 314.773 273.671C314.352 273.31 313.75 273.912 314.171 274.273Z" fill="#17005E"/>
<path d="M329.819 281.796C330.421 281.194 330.963 280.653 331.565 280.051C331.926 279.69 331.324 279.088 330.963 279.449C330.361 280.051 329.819 280.593 329.218 281.194C328.856 281.616 329.458 282.218 329.819 281.796Z" fill="#17005E"/>
<path d="M341.435 270.782C342.218 271.565 343 272.347 343.782 273.13C344.143 273.491 344.745 272.889 344.384 272.528C343.602 271.745 342.819 270.963 342.037 270.181C341.616 269.819 341.074 270.421 341.435 270.782Z" fill="#17005E"/>
<path d="M300.268 262.657C301.653 261.273 302.977 259.949 304.361 258.565C304.722 258.204 304.12 257.602 303.759 257.963C302.375 259.347 301.051 260.671 299.667 262.056C299.245 262.477 299.847 263.018 300.268 262.657Z" fill="#17005E"/>
<path d="M307.671 262.958C307.671 264.343 307.671 265.667 307.671 267.051C307.671 267.593 308.514 267.593 308.514 267.051C308.514 265.667 308.514 264.343 308.514 262.958C308.514 262.417 307.671 262.417 307.671 262.958Z" fill="#17005E"/>
<path d="M316.759 264.523C317.903 264.523 319.106 264.523 320.25 264.523C320.792 264.523 320.792 263.681 320.25 263.681C319.106 263.681 317.903 263.681 316.759 263.681C316.217 263.681 316.217 264.523 316.759 264.523Z" fill="#17005E"/>
<path d="M329.819 260.37C330.421 260.972 330.963 261.514 331.565 262.116C331.926 262.477 332.528 261.875 332.167 261.514C331.565 260.912 331.023 260.37 330.421 259.768C330.06 259.347 329.458 259.949 329.819 260.37Z" fill="#17005E"/>
<path d="M342.579 253.93C343.361 254.713 344.143 255.495 344.926 256.278C345.287 256.639 345.889 256.037 345.528 255.676C344.745 254.893 343.963 254.111 343.18 253.329C342.819 252.968 342.218 253.569 342.579 253.93Z" fill="#17005E"/>
<path d="M349.259 245.384C350.824 245.384 352.329 245.384 353.893 245.384C354.435 245.384 354.435 244.542 353.893 244.542C352.329 244.542 350.824 244.542 349.259 244.542C348.717 244.542 348.717 245.384 349.259 245.384Z" fill="#17005E"/>
<path d="M347.273 214.509C347.875 213.907 348.417 213.366 349.018 212.764C349.38 212.403 348.778 211.801 348.417 212.162C347.815 212.764 347.273 213.306 346.671 213.907C346.25 214.269 346.852 214.87 347.273 214.509Z" fill="#17005E"/>
<path d="M314.713 201.148C313.148 202.713 311.643 204.218 310.079 205.782C309.718 206.143 310.319 206.745 310.68 206.384C312.245 204.819 313.75 203.315 315.315 201.75C315.736 201.329 315.134 200.727 314.713 201.148Z" fill="#17005E"/>
<path d="M299.065 185.44C297.681 186.824 296.356 188.148 294.972 189.532C294.611 189.893 295.213 190.495 295.574 190.134C296.958 188.75 298.282 187.426 299.667 186.042C300.028 185.68 299.426 185.079 299.065 185.44Z" fill="#17005E"/>
<path d="M285.162 177.917C284.801 178.278 284.38 178.699 284.018 179.06C283.657 179.421 284.259 180.023 284.62 179.662C284.981 179.301 285.403 178.88 285.764 178.518C286.125 178.097 285.523 177.555 285.162 177.917Z" fill="#17005E"/>
<path d="M329.94 166C329.94 164.435 329.94 162.931 329.94 161.366C329.94 160.824 329.097 160.824 329.097 161.366C329.097 162.931 329.097 164.435 329.097 166C329.097 166.542 329.94 166.542 329.94 166Z" fill="#17005E"/>
<path d="M336.801 159.38C337.162 159.018 337.583 158.597 337.944 158.236C338.305 157.875 337.704 157.273 337.343 157.634C336.981 157.995 336.56 158.417 336.199 158.778C335.838 159.139 336.44 159.741 336.801 159.38Z" fill="#17005E"/>
<path d="M361.176 187.185C360.574 187.787 360.032 188.329 359.431 188.93C359.069 189.292 359.671 189.893 360.032 189.532C360.634 188.93 361.176 188.389 361.778 187.787C362.139 187.426 361.537 186.824 361.176 187.185Z" fill="#17005E"/>
<path d="M368.699 185.5C369.06 185.861 369.481 186.282 369.843 186.643C370.204 187.005 370.805 186.403 370.444 186.042C370.083 185.68 369.662 185.259 369.301 184.898C368.94 184.477 368.338 185.079 368.699 185.5Z" fill="#17005E"/>
<path d="M361.718 175.569C361.356 175.93 360.935 176.352 360.574 176.713C360.213 177.074 360.815 177.676 361.176 177.315C361.537 176.954 361.958 176.532 362.319 176.171C362.741 175.81 362.139 175.208 361.718 175.569Z" fill="#17005E"/>
<path d="M367.255 196.333C365.87 196.333 364.546 196.333 363.162 196.333C362.62 196.333 362.62 197.176 363.162 197.176C364.546 197.176 365.87 197.176 367.255 197.176C367.796 197.236 367.796 196.333 367.255 196.333Z" fill="#17005E"/>
<path d="M366.412 204.037C366.773 204.398 367.194 204.819 367.556 205.18C367.917 205.542 368.518 204.94 368.157 204.579C367.796 204.218 367.375 203.796 367.014 203.435C366.593 203.074 365.991 203.676 366.412 204.037Z" fill="#17005E"/>
<path d="M366.954 211.56C366.171 212.342 365.389 213.125 364.606 213.907C364.245 214.268 364.847 214.87 365.208 214.509C365.991 213.727 366.773 212.944 367.556 212.162C367.917 211.801 367.375 211.199 366.954 211.56Z" fill="#17005E"/>
<path d="M377.546 201.991C377.546 200.606 377.546 199.282 377.546 197.898C377.546 197.356 376.704 197.356 376.704 197.898C376.704 199.282 376.704 200.606 376.704 201.991C376.704 202.532 377.546 202.532 377.546 201.991Z" fill="#17005E"/>
<path d="M380.917 200.005C381.278 200.366 381.699 200.787 382.06 201.148C382.421 201.509 383.023 200.907 382.662 200.546C382.301 200.185 381.88 199.764 381.518 199.403C381.097 198.981 380.495 199.583 380.917 200.005Z" fill="#17005E"/>
<path d="M355.218 268.736C355.218 269.518 355.218 270.301 355.218 271.083C355.218 271.625 356.06 271.625 356.06 271.083C356.06 270.301 356.06 269.518 356.06 268.736C356.06 268.194 355.218 268.194 355.218 268.736Z" fill="#17005E"/>
<path d="M349.56 280.051C350.162 280.653 350.704 281.194 351.306 281.796C351.667 282.157 352.268 281.555 351.907 281.194C351.306 280.593 350.764 280.051 350.162 279.449C349.741 279.088 349.199 279.69 349.56 280.051Z" fill="#17005E"/>
<path d="M358.287 285.287C358.889 284.685 359.431 284.143 360.032 283.542C360.393 283.18 359.792 282.579 359.431 282.94C358.829 283.542 358.287 284.083 357.685 284.685C357.324 285.106 357.866 285.708 358.287 285.287Z" fill="#17005E"/>
<path d="M355.398 258.625C356 258.023 356.542 257.481 357.143 256.88C357.505 256.518 356.903 255.917 356.542 256.278C355.94 256.88 355.398 257.421 354.796 258.023C354.375 258.384 354.977 258.986 355.398 258.625Z" fill="#17005E"/>
<path d="M343.181 282.398C343.542 282.759 343.963 283.181 344.324 283.542C344.685 283.903 345.287 283.301 344.926 282.94C344.565 282.579 344.143 282.157 343.782 281.796C343.361 281.435 342.759 282.037 343.181 282.398Z" fill="#17005E"/>
<path d="M331.023 272.528C331.986 271.565 332.949 270.602 333.912 269.639C334.273 269.278 333.671 268.676 333.31 269.037C332.347 270 331.384 270.963 330.421 271.926C330 272.347 330.602 272.889 331.023 272.528Z" fill="#17005E"/>
<path d="M255.972 203.736C255.972 204.699 255.972 205.662 255.972 206.625C255.972 207.167 256.815 207.167 256.815 206.625C256.815 205.662 256.815 204.699 256.815 203.736C256.815 203.194 255.972 203.194 255.972 203.736Z" fill="#17005E"/>
<path d="M256.153 188.389C255.37 187.606 254.588 186.824 253.805 186.042C253.444 185.681 252.843 186.282 253.204 186.643C253.986 187.426 254.768 188.208 255.551 188.991C255.912 189.352 256.514 188.75 256.153 188.389Z" fill="#17005E"/>
<path d="M301.111 110.87H299.005C294.491 110.87 291.12 115.144 292.204 119.537L294.972 130.792C295.634 133.38 297.981 135.245 300.63 135.245H302.435L301.111 110.87Z" fill="#17005E" stroke="#17005E" stroke-width="1.5" stroke-miterlimit="10" stroke-linecap="round" stroke-linejoin="round"/>
<path d="M318.505 104.13C309.417 104.13 301.773 109.968 298.944 118.032H297.019C294.491 118.032 292.384 120.139 292.384 122.667C292.384 125.194 294.491 127.301 297.019 127.301H297.921C299.185 137.532 307.912 145.477 318.444 145.477C329.88 145.477 339.148 136.208 339.148 124.773C339.208 113.398 329.94 104.13 318.505 104.13Z" fill="#E556A8" stroke="#17005E" stroke-width="1.5" stroke-miterlimit="10" stroke-linecap="round" stroke-linejoin="round"/>
<path d="M318.505 104.13C309.417 104.13 301.773 109.968 298.944 118.032H297.019C294.491 118.032 292.384 120.139 292.384 122.667C292.384 125.194 294.491 127.301 297.019 127.301H297.921C299.185 137.532 307.912 145.477 318.444 145.477C329.88 145.477 339.148 136.208 339.148 124.773C339.208 113.398 329.94 104.13 318.505 104.13Z" fill="#E556A8" stroke="#17005E" stroke-width="1.5" stroke-miterlimit="10" stroke-linecap="round" stroke-linejoin="round"/>
<path d="M295.574 121.824C296.718 122.065 297.741 122.546 298.704 123.269C298.704 123.028 298.704 122.787 298.704 122.546C297.861 123.088 297.018 123.69 296.176 124.232C295.755 124.532 296.176 125.255 296.597 124.954C297.44 124.412 298.282 123.81 299.125 123.269C299.426 123.088 299.366 122.727 299.125 122.546C298.102 121.824 297.018 121.282 295.755 121.042C295.273 120.921 295.032 121.704 295.574 121.824Z" fill="#17005E"/>
<path d="M299.968 113.819H329.519C336.801 113.819 342.699 107.921 342.699 100.639C342.699 98.8334 341.255 97.3287 339.389 97.3287H310.681C303.157 97.3287 297.62 104.431 299.426 111.713L299.968 113.819Z" fill="#17005E" stroke="#17005E" stroke-width="1.5" stroke-miterlimit="10" stroke-linecap="round" stroke-linejoin="round"/>
<path d="M311.343 112.255L310.44 114.602C309.718 116.588 307.792 117.912 305.685 117.912L298.884 118.032V111.773L311.343 112.255Z" fill="#17005E" stroke="#17005E" stroke-width="1.5" stroke-miterlimit="10" stroke-linecap="round" stroke-linejoin="round"/>
<path d="M323.801 123.148C323.801 123.81 323.259 124.352 322.597 124.352C321.935 124.352 321.394 123.81 321.394 123.148C321.394 122.486 321.935 121.944 322.597 121.944C323.259 121.944 323.801 122.486 323.801 123.148Z" fill="#17005E" stroke="#17005E" stroke-width="1.5" stroke-miterlimit="10" stroke-linecap="round" stroke-linejoin="round"/>
<path d="M336.801 123.148C336.801 123.81 336.259 124.352 335.597 124.352C334.935 124.352 334.393 123.81 334.393 123.148C334.393 122.486 334.935 121.944 335.597 121.944C336.259 121.944 336.801 122.486 336.801 123.148Z" fill="#17005E" stroke="#17005E" stroke-width="1.5" stroke-miterlimit="10" stroke-linecap="round" stroke-linejoin="round"/>
<path d="M330 119.236V123.81C330 125.014 330.963 125.917 332.106 125.917C333.31 125.917 334.213 126.88 334.213 128.023C334.213 130.25 332.407 132.116 330.12 132.116H328.375" stroke="#17005E" stroke-width="1.5" stroke-miterlimit="10" stroke-linecap="round" stroke-linejoin="round"/>
<path d="M302.856 120.62C303.94 120.62 304.963 120.62 306.046 120.62C306.588 120.62 306.588 119.778 306.046 119.778C304.963 119.778 303.94 119.778 302.856 119.778C302.315 119.778 302.315 120.62 302.856 120.62Z" fill="#17005E"/>
<path d="M302.917 122.426C303.639 122.426 304.421 122.426 305.143 122.426C305.685 122.426 305.685 121.583 305.143 121.583C304.421 121.583 303.639 121.583 302.917 121.583C302.375 121.583 302.375 122.426 302.917 122.426Z" fill="#17005E"/>
<path d="M303.218 124.352C303.518 124.352 303.88 124.352 304.181 124.352C304.722 124.352 304.722 123.509 304.181 123.509C303.88 123.509 303.518 123.509 303.218 123.509C302.676 123.509 302.676 124.352 303.218 124.352Z" fill="#17005E"/>
<path d="M322.657 134.583L329.759 136.449L326.509 138.977C325.607 139.639 324.463 139.94 323.38 139.699C321.574 139.338 320.431 137.653 320.732 135.847C320.852 134.944 321.755 134.403 322.657 134.583Z" fill="#17005E" stroke="#17005E" stroke-width="1.5" stroke-miterlimit="10" stroke-linecap="round" stroke-linejoin="round"/>
<path d="M535.171 161.366H463.009V158.356C463.009 156.37 464.634 154.806 466.56 154.806H535.111V161.366H535.171Z" fill="#17005E" stroke="#17005E" stroke-width="1.5" stroke-miterlimit="10" stroke-linecap="round" stroke-linejoin="round"/>
<path d="M536.074 161.366H484.917L496.713 119.958C497.074 118.755 498.097 117.972 499.361 117.972H549.435C551.241 117.972 552.565 119.718 552.083 121.463L541.972 156.972C541.13 159.56 538.782 161.366 536.074 161.366Z" fill="#17005E" stroke="#17005E" stroke-width="1.5" stroke-miterlimit="10" stroke-linecap="round" stroke-linejoin="round"/>
<path d="M535.954 150.532H492.62L500.204 123.87C500.444 123.088 501.106 122.606 501.889 122.606H544.5C545.644 122.606 546.486 123.75 546.185 124.833L539.685 147.704C539.204 149.389 537.699 150.532 535.954 150.532Z" fill="white" stroke="#17005E" stroke-width="1.5" stroke-miterlimit="10" stroke-linecap="round" stroke-linejoin="round"/>
<path d="M517.898 131.815L523.917 136.268C524.338 136.569 524.097 137.231 523.556 137.472L515.069 140.963C514.468 141.204 513.986 140.842 514.167 140.301L516.634 132.296C516.755 131.815 517.477 131.514 517.898 131.815Z" fill="white" stroke="#17005E" stroke-width="1.5" stroke-miterlimit="10" stroke-linecap="round" stroke-linejoin="round"/>
<path d="M530.958 133.56L534.93 136.389C535.171 136.569 535.051 137.051 534.69 137.171L529.032 139.579C528.671 139.759 528.31 139.518 528.43 139.157L530.176 133.921C530.236 133.56 530.718 133.319 530.958 133.56Z" fill="#17005E" stroke="#17005E" stroke-width="1.5" stroke-miterlimit="10" stroke-linecap="round" stroke-linejoin="round"/>
<path d="M535.051 139.458L536.796 134.222H537.819L536.074 139.458H535.051Z" fill="#17005E" stroke="#17005E" stroke-width="1.5" stroke-miterlimit="10" stroke-linecap="round" stroke-linejoin="round"/>
<path d="M507.546 139.819L503.574 136.991C503.333 136.81 503.454 136.329 503.815 136.208L509.472 133.801C509.833 133.62 510.194 133.861 510.074 134.222L508.329 139.458C508.329 139.819 507.847 140 507.546 139.819Z" fill="#17005E" stroke="#17005E" stroke-width="1.5" stroke-miterlimit="10" stroke-linecap="round" stroke-linejoin="round"/>
<path d="M503.454 133.921L501.769 139.157H500.685L502.431 133.921H503.454Z" fill="#17005E" stroke="#17005E" stroke-width="1.5" stroke-miterlimit="10" stroke-linecap="round" stroke-linejoin="round"/>
<path d="M444.532 190.856L428.764 171.778L435.143 167.685L450.671 185.5L444.532 190.856Z" fill="white" stroke="#17005E" stroke-width="1.5" stroke-miterlimit="10" stroke-linecap="round" stroke-linejoin="round"/>
<path d="M450.43 190.556C448.023 192.662 444.713 192.843 443.148 190.977C441.523 189.111 442.185 185.921 444.592 183.815C447 181.708 450.31 181.528 451.875 183.394C453.5 185.259 452.838 188.449 450.43 190.556Z" fill="white" stroke="#17005E" stroke-width="1.5" stroke-miterlimit="10" stroke-linecap="round" stroke-linejoin="round"/>
<path d="M451.572 191.865C453.981 189.773 454.627 186.571 453.014 184.714C451.401 182.857 448.141 183.048 445.731 185.14C443.322 187.232 442.677 190.434 444.29 192.291C445.902 194.148 449.163 193.957 451.572 191.865Z" fill="white" stroke="#17005E" stroke-width="1.5" stroke-miterlimit="10" stroke-linecap="round" stroke-linejoin="round"/>
<path d="M450.491 190.676C448.986 192 446.88 192.12 445.856 190.977C444.833 189.773 445.255 187.787 446.759 186.403C448.264 185.079 450.37 184.958 451.393 186.102C452.477 187.306 452.055 189.352 450.491 190.676Z" fill="#F48914" stroke="#17005E" stroke-width="1.5" stroke-miterlimit="10" stroke-linecap="round" stroke-linejoin="round"/>
<path d="M187.361 559.491H369" stroke="#17005E" stroke-width="3" stroke-miterlimit="10" stroke-linecap="round" stroke-linejoin="round"/>
<path d="M396.264 559.491H484.495" stroke="#17005E" stroke-width="3" stroke-miterlimit="10" stroke-linecap="round" stroke-linejoin="round"/>
<path d="M65.6666 422.81L77.3425 411.134C78.8471 409.63 81.3147 409.63 82.8193 411.134L83.8425 412.157C85.3471 413.662 85.3471 416.13 83.8425 417.634L72.1666 429.31C70.6619 430.815 68.1943 430.815 66.6897 429.31L65.6666 428.287C64.1619 426.782 64.1619 424.315 65.6666 422.81Z" fill="#FAD1E8"/>
<path d="M555.674 235.777C559.518 234.199 561.355 229.803 559.776 225.96C558.198 222.116 553.803 220.279 549.96 221.857C546.116 223.435 544.279 227.831 545.857 231.674C547.435 235.518 551.83 237.355 555.674 235.777Z" fill="white"/>
<path d="M549.074 307.195C548.773 306.894 548.592 306.532 548.592 306.111V299.551H542.032C541.19 299.551 540.467 298.889 540.467 297.986V289.921C540.467 289.079 541.129 288.357 542.032 288.357C542.875 288.357 543.597 289.079 543.597 289.921V296.482H550.157C551 296.482 551.722 297.144 551.722 298.046V304.607H558.282C559.125 304.607 559.847 305.269 559.847 306.171C559.847 307.014 559.185 307.736 558.282 307.736H550.217C549.796 307.676 549.375 307.495 549.074 307.195Z" fill="#D3D3D3"/>
<path d="M554.972 301.357C554.671 301.056 554.491 300.694 554.491 300.273V293.713H547.991C547.148 293.713 546.426 292.991 546.426 292.148V284.083C546.426 283.241 547.088 282.519 547.991 282.519C548.833 282.519 549.555 283.181 549.555 284.083V290.644H556.116C556.958 290.644 557.68 291.366 557.68 292.208V298.769H564.241C565.083 298.769 565.805 299.431 565.805 300.333C565.805 301.176 565.143 301.898 564.241 301.898H556.176C555.634 301.778 555.273 301.597 554.972 301.357Z" fill="#D3D3D3"/>
<path d="M141.907 34C142.389 34 142.87 34.1806 143.231 34.5417L148.889 40.1991L154.546 34.5417C155.268 33.8194 156.472 33.8194 157.255 34.5417L164.296 41.5833C165.018 42.3056 165.018 43.5093 164.296 44.2917C163.574 45.0139 162.37 45.0139 161.588 44.2917L155.93 38.6343L150.273 44.2917C149.551 45.0139 148.347 45.0139 147.565 44.2917L141.907 38.6343L136.25 44.2917C135.528 45.0139 134.324 45.0139 133.542 44.2917C132.819 43.5694 132.819 42.3657 133.542 41.5833L140.583 34.5417C140.944 34.1806 141.426 34 141.907 34Z" fill="#D3D3D3"/>
<path d="M141.907 51C142.389 51 142.87 51.1806 143.231 51.5417L148.889 57.1991L154.546 51.5417C155.268 50.8194 156.472 50.8194 157.255 51.5417L164.296 58.5833C165.018 59.3056 165.018 60.5093 164.296 61.2917C163.574 62.0139 162.37 62.0139 161.588 61.2917L155.93 55.6343L150.273 61.2917C149.551 62.0139 148.347 62.0139 147.565 61.2917L141.907 55.6343L136.25 61.2917C135.528 62.0139 134.324 62.0139 133.542 61.2917C132.819 60.5694 132.819 59.3657 133.542 58.5833L140.583 51.5417C140.944 51.1806 141.426 51 141.907 51Z" fill="#D3D3D3"/>
<path d="M79.213 241.685C79.213 242.889 78.25 243.792 77.1065 243.792C75.9028 243.792 75 242.829 75 241.685C75 240.482 75.963 239.579 77.1065 239.579C78.25 239.519 79.213 240.482 79.213 241.685Z" fill="#C5C5C5"/>
<path d="M85.713 241.685C85.713 242.889 84.75 243.792 83.6065 243.792C82.4028 243.792 81.5 242.829 81.5 241.685C81.5 240.482 82.463 239.579 83.6065 239.579C84.8102 239.519 85.713 240.482 85.713 241.685Z" fill="#C5C5C5"/>
<path d="M92.2731 241.685C92.2731 242.889 91.3102 243.792 90.1667 243.792C89.0231 243.792 88.0602 242.829 88.0602 241.685C88.0602 240.482 89.0231 239.579 90.1667 239.579C91.3102 239.579 92.2731 240.482 92.2731 241.685Z" fill="#C5C5C5"/>
<path d="M77.1065 231.213C78.2699 231.213 79.213 230.27 79.213 229.106C79.213 227.943 78.2699 227 77.1065 227C75.9431 227 75 227.943 75 229.106C75 230.27 75.9431 231.213 77.1065 231.213Z" fill="#C5C5C5"/>
<path d="M85.713 229.106C85.713 230.31 84.75 231.213 83.6065 231.213C82.4028 231.213 81.5 230.25 81.5 229.106C81.5 227.963 82.463 227 83.6065 227C84.8102 227 85.713 227.903 85.713 229.106Z" fill="#C5C5C5"/>
<path d="M90.1065 231.213C91.2699 231.213 92.213 230.27 92.213 229.106C92.213 227.943 91.2699 227 90.1065 227C88.9431 227 88 227.943 88 229.106C88 230.27 88.9431 231.213 90.1065 231.213Z" fill="#C5C5C5"/>
<path d="M79.213 235.366C79.213 236.569 78.25 237.472 77.1065 237.472C75.9028 237.472 75 236.509 75 235.366C75 234.162 75.963 233.259 77.1065 233.259C78.25 233.259 79.213 234.222 79.213 235.366Z" fill="#C5C5C5"/>
<path d="M85.713 235.366C85.713 236.569 84.75 237.472 83.6065 237.472C82.4028 237.472 81.5 236.509 81.5 235.366C81.5 234.162 82.463 233.259 83.6065 233.259C84.8102 233.259 85.713 234.222 85.713 235.366Z" fill="#C5C5C5"/>
<path d="M92.2731 235.366C92.2731 236.569 91.3102 237.472 90.1667 237.472C89.0231 237.472 88.0602 236.509 88.0602 235.366C88.0602 234.162 89.0231 233.259 90.1667 233.259C91.3102 233.259 92.2731 234.222 92.2731 235.366Z" fill="#C5C5C5"/>
<path d="M537.879 77.2268C537.879 79.1528 536.315 80.7176 534.389 80.7176C532.463 80.7176 530.898 79.1528 530.898 77.2268C530.898 75.3009 532.463 73.7361 534.389 73.7361C536.315 73.7361 537.879 75.3009 537.879 77.2268Z" fill="#C5C5C5"/>
<path d="M547.93 77.2268C547.93 79.1528 546.366 80.7176 544.44 80.7176C542.514 80.7176 540.949 79.1528 540.949 77.2268C540.949 75.3009 542.514 73.7361 544.44 73.7361C546.366 73.7361 547.93 75.3009 547.93 77.2268Z" fill="#C5C5C5"/>
<path d="M537.879 87.4583C537.879 89.3842 536.315 90.949 534.389 90.949C532.463 90.949 530.898 89.3842 530.898 87.4583C530.898 85.5323 532.463 83.9675 534.389 83.9675C536.315 84.0277 537.879 85.5323 537.879 87.4583Z" fill="#C5C5C5"/>
<path d="M547.93 87.4583C547.93 89.3842 546.366 90.949 544.44 90.949C542.514 90.949 540.949 89.3842 540.949 87.4583C540.949 85.5323 542.514 83.9675 544.44 83.9675C546.366 84.0277 547.93 85.5323 547.93 87.4583Z" fill="#C5C5C5"/>
<path d="M623.412 440.856H536.806C533.796 440.856 531.389 438.449 531.389 435.44V377.782C531.389 374.773 533.796 372.366 536.806 372.366H623.472C626.482 372.366 628.889 374.773 628.889 377.782V435.44C628.829 438.449 626.421 440.856 623.412 440.856Z" fill="#8E04EC" stroke="#17005E" stroke-width="1.5" stroke-miterlimit="10" stroke-linecap="round" stroke-linejoin="round"/>
<path d="M573.218 392.407L588.685 401.315C589.708 401.917 589.708 403.421 588.685 404.023L573.218 412.93C572.194 413.532 570.87 412.75 570.87 411.546V393.731C570.87 392.528 572.194 391.805 573.218 392.407Z" fill="white" stroke="#17005E" stroke-width="1.5" stroke-miterlimit="10" stroke-linecap="round" stroke-linejoin="round"/>
<path d="M620.944 430.745C620.944 431.347 620.463 431.768 619.921 431.768C619.38 431.768 618.898 431.287 618.898 430.745C618.898 430.143 619.38 429.722 619.921 429.722C620.463 429.722 620.944 430.143 620.944 430.745Z" fill="#17005E" stroke="#17005E" stroke-width="1.5" stroke-miterlimit="10" stroke-linecap="round" stroke-linejoin="round"/>
<path d="M549.264 430.745H619.861" stroke="#17005E" stroke-width="1.5" stroke-miterlimit="10" stroke-linecap="round" stroke-linejoin="round"/>
<path d="M615.889 377.963H623.171" stroke="#17005E" stroke-width="1.5" stroke-miterlimit="10" stroke-linecap="round" stroke-linejoin="round"/>
<path d="M615.889 380.972H623.171" stroke="#17005E" stroke-width="1.5" stroke-miterlimit="10" stroke-linecap="round" stroke-linejoin="round"/>
<path d="M615.889 383.981H623.171" stroke="#17005E" stroke-width="1.5" stroke-miterlimit="10" stroke-linecap="round" stroke-linejoin="round"/>
<path d="M543.606 428.699H538.31V432.792H543.606V428.699Z" fill="#F5A3D2" stroke="#17005E" stroke-width="1.5" stroke-miterlimit="10" stroke-linecap="round" stroke-linejoin="round"/>
<path d="M115.472 151.625H6.41667C3.40741 151.625 1 149.217 1 146.208V72.7823C1 69.773 3.40741 67.3656 6.41667 67.3656H115.472C118.481 67.3656 120.889 69.773 120.889 72.7823V146.148C120.889 149.157 118.481 151.625 115.472 151.625Z" fill="#00C2FF" stroke="#17005E" stroke-width="1.5" stroke-miterlimit="10" stroke-linecap="round" stroke-linejoin="round"/>
<path d="M52.4583 91.9814L71.5371 102.935C72.8611 103.657 72.8611 105.523 71.5371 106.305L52.4583 117.259C51.1945 117.981 49.5695 117.079 49.5695 115.574V93.6666C49.5695 92.1619 51.1945 91.2591 52.4583 91.9814Z" fill="#DC4298" stroke="#17005E" stroke-width="1.5" stroke-miterlimit="10" stroke-linecap="round" stroke-linejoin="round"/>
<path d="M61.9676 139.166C61.9676 139.889 61.3657 140.43 60.7037 140.43C60.0417 140.43 59.4398 139.829 59.4398 139.166C59.4398 138.444 60.0417 137.903 60.7037 137.903C61.3657 137.903 61.9676 138.444 61.9676 139.166Z" fill="#17005E" stroke="#17005E" stroke-width="1.5" stroke-miterlimit="10" stroke-linecap="round" stroke-linejoin="round"/>
<path d="M22.9677 139.167H109.875" stroke="#17005E" stroke-width="1.5" stroke-miterlimit="10" stroke-linecap="round" stroke-linejoin="round"/>
<path d="M105 74.2869H113.968" stroke="#17005E" stroke-width="1.5" stroke-miterlimit="10" stroke-linecap="round" stroke-linejoin="round"/>
<path d="M105 77.9581H113.968" stroke="#17005E" stroke-width="1.5" stroke-miterlimit="10" stroke-linecap="round" stroke-linejoin="round"/>
<path d="M105 81.6295H113.968" stroke="#17005E" stroke-width="1.5" stroke-miterlimit="10" stroke-linecap="round" stroke-linejoin="round"/>
<path d="M16.0463 136.639H9.54626V141.634H16.0463V136.639Z" fill="#E9D1FA" stroke="#17005E" stroke-width="1.5" stroke-miterlimit="10" stroke-linecap="round" stroke-linejoin="round"/>
<path d="M166.472 533.69H64.3979C61.3886 533.69 58.9812 531.282 58.9812 528.273V459.782C58.9812 456.773 61.3886 454.366 64.3979 454.366H166.472C169.481 454.366 171.889 456.773 171.889 459.782V528.273C171.889 531.222 169.481 533.69 166.472 533.69Z" fill="#DC4298" stroke="#17005E" stroke-width="1.5" stroke-miterlimit="10" stroke-linecap="round" stroke-linejoin="round"/>
<path d="M107.49 477.537L125.426 487.829C126.629 488.551 126.629 490.296 125.426 491.018L107.49 501.31C106.287 502.032 104.782 501.13 104.782 499.745V479.102C104.722 477.717 106.287 476.815 107.49 477.537Z" fill="#E9D1FA" stroke="#17005E" stroke-width="1.5" stroke-miterlimit="10" stroke-linecap="round" stroke-linejoin="round"/>
<path d="M142.699 521.954C142.699 522.616 142.157 523.157 141.495 523.157C140.833 523.157 140.291 522.616 140.291 521.954C140.291 521.291 140.833 520.75 141.495 520.75C142.157 520.75 142.699 521.291 142.699 521.954Z" fill="#17005E" stroke="#17005E" stroke-width="1.5" stroke-miterlimit="10" stroke-linecap="round" stroke-linejoin="round"/>
<path d="M79.6849 521.954H161.537" stroke="#17005E" stroke-width="1.5" stroke-miterlimit="10" stroke-linecap="round" stroke-linejoin="round"/>
<path d="M156.902 460.866H165.389" stroke="#17005E" stroke-width="1.5" stroke-miterlimit="10" stroke-linecap="round" stroke-linejoin="round"/>
<path d="M156.902 464.296H165.389" stroke="#17005E" stroke-width="1.5" stroke-miterlimit="10" stroke-linecap="round" stroke-linejoin="round"/>
<path d="M156.902 467.727H165.389" stroke="#17005E" stroke-width="1.5" stroke-miterlimit="10" stroke-linecap="round" stroke-linejoin="round"/>
<path d="M73.1849 519.606H67.046V524.361H73.1849V519.606Z" fill="white" stroke="#17005E" stroke-width="1.5" stroke-miterlimit="10" stroke-linecap="round" stroke-linejoin="round"/>
<defs>
<filter id="filter0_f_331_505" x="19.6887" y="0.265625" width="587.4" height="588.7" filterUnits="userSpaceOnUse" color-interpolation-filters="sRGB">
<feFlood flood-opacity="0" result="BackgroundImageFix"/>
<feBlend mode="normal" in="SourceGraphic" in2="BackgroundImageFix" result="shape"/>
<feGaussianBlur stdDeviation="50" result="effect1_foregroundBlur_331_505"/>
</filter>
</defs>
</svg>
