<svg width="84" height="20" viewBox="0 0 84 20" fill="none" xmlns="http://www.w3.org/2000/svg">
<path d="M31.2222 9.52544C31.3667 9.41777 31.474 9.26756 31.5288 9.09588C31.5837 8.9242 31.5834 8.73965 31.5281 8.56812C31.4728 8.39659 31.3652 8.24667 31.2203 8.13938C31.0755 8.0321 30.9007 7.97283 30.7205 7.96989L27.2205 7.83766C27.2033 7.83648 27.1868 7.83034 27.173 7.81999C27.1592 7.80964 27.1487 7.79552 27.1428 7.77933L25.9333 4.51267C25.8725 4.34647 25.7622 4.20296 25.6171 4.10157C25.4721 4.00018 25.2994 3.9458 25.1225 3.9458C24.9455 3.9458 24.7728 4.00018 24.6278 4.10157C24.4828 4.20296 24.3724 4.34647 24.3116 4.51267L23.1061 7.791C23.1001 7.80719 23.0896 7.82131 23.0758 7.83166C23.062 7.842 23.0455 7.84814 23.0283 7.84933L19.5283 7.98155C19.3481 7.9845 19.1733 8.04377 19.0285 8.15105C18.8837 8.25833 18.7761 8.40825 18.7207 8.57979C18.6654 8.75132 18.6652 8.93586 18.72 9.10755C18.7749 9.27923 18.8821 9.42944 19.0266 9.53711L21.7722 11.6954C21.7859 11.7063 21.7962 11.7209 21.8017 11.7374C21.8073 11.754 21.8078 11.7719 21.8033 11.7888L20.8583 15.1371C20.8093 15.3076 20.8141 15.4891 20.8719 15.6568C20.9297 15.8245 21.0378 15.9703 21.1814 16.0744C21.3251 16.1786 21.4973 16.2359 21.6747 16.2387C21.852 16.2414 22.0259 16.1895 22.1728 16.0899L25.0739 14.1454C25.0882 14.1356 25.1051 14.1303 25.1225 14.1303C25.1398 14.1303 25.1568 14.1356 25.1711 14.1454L28.0722 16.0899C28.217 16.1929 28.3903 16.2482 28.568 16.2482C28.7457 16.2482 28.919 16.1929 29.0639 16.0899C29.2075 15.9868 29.3157 15.8416 29.3735 15.6745C29.4313 15.5074 29.4359 15.3264 29.3866 15.1566L28.4339 11.7966C28.4288 11.7797 28.4291 11.7617 28.4347 11.745C28.4402 11.7283 28.4508 11.7137 28.465 11.7032L31.2222 9.52544Z" fill="#373737"/>
<path d="M47.2222 9.52544C47.3667 9.41777 47.474 9.26756 47.5288 9.09588C47.5837 8.9242 47.5834 8.73965 47.5281 8.56812C47.4728 8.39659 47.3652 8.24667 47.2203 8.13938C47.0755 8.0321 46.9007 7.97283 46.7205 7.96989L43.2205 7.83766C43.2033 7.83648 43.1868 7.83034 43.173 7.81999C43.1592 7.80964 43.1487 7.79552 43.1428 7.77933L41.9333 4.51267C41.8725 4.34647 41.7622 4.20296 41.6171 4.10157C41.4721 4.00018 41.2994 3.9458 41.1225 3.9458C40.9455 3.9458 40.7728 4.00018 40.6278 4.10157C40.4828 4.20296 40.3724 4.34647 40.3116 4.51267L39.1061 7.791C39.1001 7.80719 39.0896 7.82131 39.0758 7.83166C39.062 7.842 39.0455 7.84814 39.0283 7.84933L35.5283 7.98155C35.3481 7.9845 35.1733 8.04377 35.0285 8.15105C34.8837 8.25833 34.7761 8.40825 34.7207 8.57979C34.6654 8.75132 34.6652 8.93586 34.72 9.10755C34.7749 9.27923 34.8821 9.42944 35.0266 9.53711L37.7722 11.6954C37.7859 11.7063 37.7962 11.7209 37.8017 11.7374C37.8073 11.754 37.8078 11.7719 37.8033 11.7888L36.8583 15.1371C36.8093 15.3076 36.8141 15.4891 36.8719 15.6568C36.9297 15.8245 37.0378 15.9703 37.1814 16.0744C37.3251 16.1786 37.4973 16.2359 37.6747 16.2387C37.852 16.2414 38.0259 16.1895 38.1728 16.0899L41.0739 14.1454C41.0882 14.1356 41.1051 14.1303 41.1225 14.1303C41.1398 14.1303 41.1568 14.1356 41.1711 14.1454L44.0722 16.0899C44.217 16.1929 44.3903 16.2482 44.568 16.2482C44.7457 16.2482 44.919 16.1929 45.0639 16.0899C45.2075 15.9868 45.3157 15.8416 45.3735 15.6745C45.4313 15.5074 45.4359 15.3264 45.3866 15.1566L44.4339 11.7966C44.4288 11.7797 44.4291 11.7617 44.4347 11.745C44.4402 11.7283 44.4508 11.7137 44.465 11.7032L47.2222 9.52544Z" fill="#373737"/>
<path d="M63.2222 9.52544C63.3667 9.41777 63.474 9.26756 63.5288 9.09588C63.5837 8.9242 63.5834 8.73965 63.5281 8.56812C63.4728 8.39659 63.3652 8.24667 63.2203 8.13938C63.0755 8.0321 62.9007 7.97283 62.7205 7.96989L59.2205 7.83766C59.2033 7.83648 59.1868 7.83034 59.173 7.81999C59.1592 7.80964 59.1487 7.79552 59.1428 7.77933L57.9333 4.51267C57.8725 4.34647 57.7622 4.20296 57.6171 4.10157C57.4721 4.00018 57.2994 3.9458 57.1225 3.9458C56.9455 3.9458 56.7728 4.00018 56.6278 4.10157C56.4828 4.20296 56.3724 4.34647 56.3116 4.51267L55.1061 7.791C55.1001 7.80719 55.0896 7.82131 55.0758 7.83166C55.062 7.842 55.0455 7.84814 55.0283 7.84933L51.5283 7.98155C51.3481 7.9845 51.1733 8.04377 51.0285 8.15105C50.8837 8.25833 50.7761 8.40825 50.7207 8.57979C50.6654 8.75132 50.6652 8.93586 50.72 9.10755C50.7749 9.27923 50.8821 9.42944 51.0266 9.53711L53.7722 11.6954C53.7859 11.7063 53.7962 11.7209 53.8017 11.7374C53.8073 11.754 53.8078 11.7719 53.8033 11.7888L52.8583 15.1371C52.8093 15.3076 52.8141 15.4891 52.8719 15.6568C52.9297 15.8245 53.0378 15.9703 53.1814 16.0744C53.3251 16.1786 53.4973 16.2359 53.6747 16.2387C53.852 16.2414 54.0259 16.1895 54.1728 16.0899L57.0739 14.1454C57.0882 14.1356 57.1051 14.1303 57.1225 14.1303C57.1398 14.1303 57.1568 14.1356 57.1711 14.1454L60.0722 16.0899C60.217 16.1929 60.3903 16.2482 60.568 16.2482C60.7457 16.2482 60.919 16.1929 61.0639 16.0899C61.2075 15.9868 61.3157 15.8416 61.3735 15.6745C61.4313 15.5074 61.4359 15.3264 61.3866 15.1566L60.4339 11.7966C60.4288 11.7797 60.4291 11.7617 60.4347 11.745C60.4402 11.7283 60.4508 11.7137 60.465 11.7032L63.2222 9.52544Z" fill="#373737"/>
<path d="M79.2222 9.52544C79.3667 9.41777 79.474 9.26756 79.5288 9.09588C79.5837 8.9242 79.5834 8.73965 79.5281 8.56812C79.4728 8.39659 79.3652 8.24667 79.2203 8.13938C79.0755 8.0321 78.9007 7.97283 78.7205 7.96989L75.2205 7.83766C75.2033 7.83648 75.1868 7.83034 75.173 7.81999C75.1592 7.80964 75.1487 7.79552 75.1428 7.77933L73.9333 4.51267C73.8725 4.34647 73.7622 4.20296 73.6171 4.10157C73.4721 4.00018 73.2994 3.9458 73.1225 3.9458C72.9455 3.9458 72.7728 4.00018 72.6278 4.10157C72.4828 4.20296 72.3724 4.34647 72.3116 4.51267L71.1061 7.791C71.1001 7.80719 71.0896 7.82131 71.0758 7.83166C71.062 7.842 71.0455 7.84814 71.0283 7.84933L67.5283 7.98155C67.3481 7.9845 67.1733 8.04377 67.0285 8.15105C66.8837 8.25833 66.7761 8.40825 66.7207 8.57979C66.6654 8.75132 66.6652 8.93586 66.72 9.10755C66.7749 9.27923 66.8821 9.42944 67.0266 9.53711L69.7722 11.6954C69.7859 11.7063 69.7962 11.7209 69.8017 11.7374C69.8073 11.754 69.8078 11.7719 69.8033 11.7888L68.8583 15.1371C68.8093 15.3076 68.8141 15.4891 68.8719 15.6568C68.9297 15.8245 69.0378 15.9703 69.1814 16.0744C69.3251 16.1786 69.4973 16.2359 69.6747 16.2387C69.852 16.2414 70.0259 16.1895 70.1728 16.0899L73.0739 14.1454C73.0882 14.1356 73.1051 14.1303 73.1225 14.1303C73.1398 14.1303 73.1568 14.1356 73.1711 14.1454L76.0722 16.0899C76.217 16.1929 76.3903 16.2482 76.568 16.2482C76.7457 16.2482 76.919 16.1929 77.0639 16.0899C77.2075 15.9868 77.3157 15.8416 77.3735 15.6745C77.4313 15.5074 77.4359 15.3264 77.3866 15.1566L76.4339 11.7966C76.4288 11.7797 76.4291 11.7617 76.4347 11.745C76.4402 11.7283 76.4508 11.7137 76.465 11.7032L79.2222 9.52544Z" fill="#373737"/>
<g clip-path="url(#clip0_225_1022)">
<path d="M16.2223 9.52544C16.3669 9.41777 16.4741 9.26756 16.5289 9.09588C16.5838 8.9242 16.5835 8.73965 16.5282 8.56812C16.4729 8.39659 16.3653 8.24667 16.2205 8.13938C16.0756 8.0321 15.9009 7.97283 15.7207 7.96989L12.2207 7.83766C12.2034 7.83648 12.187 7.83034 12.1732 7.81999C12.1594 7.80964 12.1488 7.79552 12.1429 7.77933L10.9334 4.51267C10.8727 4.34647 10.7623 4.20296 10.6173 4.10157C10.4722 4.00018 10.2996 3.9458 10.1226 3.9458C9.94565 3.9458 9.77296 4.00018 9.62793 4.10157C9.4829 4.20296 9.37254 4.34647 9.31177 4.51267L8.10621 7.791C8.10025 7.80719 8.08974 7.82131 8.07594 7.83166C8.06214 7.842 8.04564 7.84814 8.02844 7.84933L4.52843 7.98155C4.34823 7.9845 4.17346 8.04377 4.02863 8.15105C3.88381 8.25833 3.77619 8.40825 3.72087 8.57979C3.66555 8.75132 3.6653 8.93586 3.72016 9.10755C3.77502 9.27923 3.88223 9.42944 4.02677 9.53711L6.77232 11.6954C6.78606 11.7063 6.79633 11.7209 6.80186 11.7374C6.80739 11.754 6.80794 11.7719 6.80343 11.7888L5.85843 15.1371C5.80947 15.3076 5.81421 15.4891 5.87202 15.6568C5.92983 15.8245 6.03791 15.9703 6.18154 16.0744C6.32518 16.1786 6.4974 16.2359 6.67477 16.2387C6.85215 16.2414 7.02607 16.1895 7.17288 16.0899L10.074 14.1454C10.0883 14.1356 10.1052 14.1303 10.1226 14.1303C10.14 14.1303 10.1569 14.1356 10.1712 14.1454L13.0723 16.0899C13.2171 16.1929 13.3904 16.2482 13.5682 16.2482C13.7459 16.2482 13.9192 16.1929 14.064 16.0899C14.2077 15.9868 14.3158 15.8416 14.3736 15.6745C14.4314 15.5074 14.436 15.3264 14.3868 15.1566L13.434 11.7966C13.4289 11.7797 13.4292 11.7617 13.4348 11.745C13.4404 11.7283 13.4509 11.7137 13.4651 11.7032L16.2223 9.52544Z" fill="#373737"/>
</g>
<defs>
<clipPath id="clip0_225_1022">
<rect width="14" height="14" fill="white" transform="translate(3 4)"/>
</clipPath>
</defs>
</svg>
