<svg width="84" height="20" viewBox="0 0 84 20" fill="none" xmlns="http://www.w3.org/2000/svg">
<path d="M32.2222 9.52556C32.3668 9.41789 32.474 9.26768 32.5288 9.096C32.5837 8.92432 32.5834 8.73977 32.5281 8.56824C32.4728 8.39671 32.3652 8.24679 32.2204 8.13951C32.0755 8.03222 31.9008 7.97295 31.7206 7.97001L28.2206 7.83779C28.2033 7.8366 28.1868 7.83046 28.173 7.82011C28.1592 7.80976 28.1487 7.79564 28.1428 7.77945L26.9333 4.51279C26.8726 4.34659 26.7622 4.20308 26.6172 4.10169C26.4721 4.0003 26.2995 3.94592 26.1225 3.94592C25.9455 3.94592 25.7729 4.0003 25.6278 4.10169C25.4828 4.20308 25.3724 4.34659 25.3117 4.51279L24.1061 7.79112C24.1001 7.80731 24.0896 7.82143 24.0758 7.83178C24.062 7.84213 24.0455 7.84827 24.0283 7.84945L20.5283 7.98168C20.3481 7.98462 20.1733 8.04389 20.0285 8.15117C19.8837 8.25846 19.7761 8.40837 19.7208 8.57991C19.6654 8.75144 19.6652 8.93599 19.7201 9.10767C19.7749 9.27935 19.8821 9.42956 20.0267 9.53723L22.7722 11.6956C22.786 11.7064 22.7962 11.721 22.8018 11.7376C22.8073 11.7542 22.8078 11.772 22.8033 11.7889L21.8583 15.1372C21.8094 15.3077 21.8141 15.4892 21.8719 15.6569C21.9297 15.8246 22.0378 15.9704 22.1814 16.0746C22.3251 16.1787 22.4973 16.236 22.6747 16.2388C22.852 16.2415 23.026 16.1896 23.1728 16.09L26.0739 14.1456C26.0882 14.1357 26.1051 14.1304 26.1225 14.1304C26.1399 14.1304 26.1568 14.1357 26.1711 14.1456L29.0722 16.09C29.217 16.193 29.3903 16.2483 29.5681 16.2483C29.7458 16.2483 29.9191 16.193 30.0639 16.09C30.2076 15.9869 30.3157 15.8418 30.3735 15.6746C30.4313 15.5075 30.4359 15.3265 30.3867 15.1567L29.4339 11.7967C29.4288 11.7798 29.4291 11.7618 29.4347 11.7451C29.4403 11.7284 29.4508 11.7138 29.465 11.7033L32.2222 9.52556Z" fill="#CCCCCC"/>
<path d="M48.5431 9.57964C48.6877 9.47197 48.7949 9.32176 48.8497 9.15008C48.9046 8.9784 48.9043 8.79385 48.849 8.62232C48.7937 8.45079 48.6861 8.30087 48.5413 8.19358C48.3964 8.0863 48.2217 8.02703 48.0415 8.02409L44.5415 7.89186C44.5243 7.89068 44.5078 7.88454 44.494 7.87419C44.4802 7.86384 44.4696 7.84972 44.4637 7.83353L43.2542 4.56686C43.1935 4.40067 43.0831 4.25716 42.9381 4.15577C42.793 4.05438 42.6204 4 42.4434 4C42.2664 4 42.0938 4.05438 41.9487 4.15577C41.8037 4.25716 41.6933 4.40067 41.6326 4.56686L40.427 7.8452C40.4211 7.86138 40.4105 7.8755 40.3967 7.88585C40.3829 7.8962 40.3664 7.90234 40.3492 7.90353L36.8492 8.03575C36.669 8.0387 36.4943 8.09796 36.3494 8.20525C36.2046 8.31253 36.097 8.46245 36.0417 8.63399C35.9864 8.80552 35.9861 8.99006 36.041 9.16175C36.0958 9.33343 36.203 9.48363 36.3476 9.59131L39.0931 11.7496C39.1069 11.7605 39.1171 11.7751 39.1227 11.7916C39.1282 11.8082 39.1287 11.8261 39.1242 11.843L38.1792 15.1913C38.1303 15.3618 38.135 15.5433 38.1928 15.711C38.2506 15.8787 38.3587 16.0245 38.5023 16.1286C38.646 16.2328 38.8182 16.2901 38.9956 16.2929C39.173 16.2956 39.3469 16.2437 39.4937 16.1441L42.3948 14.1996C42.4091 14.1898 42.426 14.1845 42.4434 14.1845C42.4608 14.1845 42.4777 14.1898 42.492 14.1996L45.3931 16.1441C45.5379 16.2471 45.7112 16.3024 45.889 16.3024C46.0667 16.3024 46.24 16.2471 46.3848 16.1441C46.5285 16.041 46.6366 15.8958 46.6944 15.7287C46.7522 15.5616 46.7568 15.3806 46.7076 15.2108L45.7548 11.8508C45.7497 11.8339 45.75 11.8159 45.7556 11.7992C45.7612 11.7825 45.7717 11.7679 45.7859 11.7574L48.5431 9.57964Z" fill="#CCCCCC"/>
<path d="M64.2222 9.52556C64.3668 9.41789 64.474 9.26768 64.5288 9.096C64.5837 8.92432 64.5834 8.73977 64.5281 8.56824C64.4728 8.39671 64.3652 8.24679 64.2204 8.13951C64.0755 8.03222 63.9008 7.97295 63.7206 7.97001L60.2206 7.83779C60.2034 7.8366 60.1869 7.83046 60.1731 7.82011C60.1593 7.80976 60.1487 7.79564 60.1428 7.77945L58.9333 4.51279C58.8726 4.34659 58.7622 4.20308 58.6172 4.10169C58.4721 4.0003 58.2995 3.94592 58.1225 3.94592C57.9455 3.94592 57.7729 4.0003 57.6278 4.10169C57.4828 4.20308 57.3724 4.34659 57.3117 4.51279L56.1061 7.79112C56.1002 7.80731 56.0896 7.82143 56.0758 7.83178C56.062 7.84213 56.0455 7.84827 56.0283 7.84945L52.5283 7.98168C52.3481 7.98462 52.1734 8.04389 52.0285 8.15117C51.8837 8.25846 51.7761 8.40837 51.7208 8.57991C51.6655 8.75144 51.6652 8.93599 51.7201 9.10767C51.7749 9.27935 51.8821 9.42956 52.0267 9.53723L54.7722 11.6956C54.786 11.7064 54.7962 11.721 54.8018 11.7376C54.8073 11.7542 54.8078 11.772 54.8033 11.7889L53.8583 15.1372C53.8094 15.3077 53.8141 15.4892 53.8719 15.6569C53.9297 15.8246 54.0378 15.9704 54.1814 16.0746C54.3251 16.1787 54.4973 16.236 54.6747 16.2388C54.8521 16.2415 55.026 16.1896 55.1728 16.09L58.0739 14.1456C58.0882 14.1357 58.1051 14.1304 58.1225 14.1304C58.1399 14.1304 58.1568 14.1357 58.1711 14.1456L61.0722 16.09C61.217 16.193 61.3903 16.2483 61.5681 16.2483C61.7458 16.2483 61.9191 16.193 62.0639 16.09C62.2076 15.9869 62.3157 15.8418 62.3735 15.6746C62.4313 15.5075 62.4359 15.3265 62.3867 15.1567L61.4339 11.7967C61.4288 11.7798 61.4291 11.7618 61.4347 11.7451C61.4403 11.7284 61.4508 11.7138 61.465 11.7033L64.2222 9.52556Z" fill="#CCCCCC"/>
<path d="M80.2222 9.52556C80.3668 9.41789 80.474 9.26768 80.5288 9.096C80.5837 8.92432 80.5834 8.73977 80.5281 8.56824C80.4728 8.39671 80.3652 8.24679 80.2204 8.13951C80.0755 8.03222 79.9008 7.97295 79.7206 7.97001L76.2206 7.83779C76.2034 7.8366 76.1869 7.83046 76.1731 7.82011C76.1593 7.80976 76.1487 7.79564 76.1428 7.77945L74.9333 4.51279C74.8726 4.34659 74.7622 4.20308 74.6172 4.10169C74.4721 4.0003 74.2995 3.94592 74.1225 3.94592C73.9455 3.94592 73.7729 4.0003 73.6278 4.10169C73.4828 4.20308 73.3724 4.34659 73.3117 4.51279L72.1061 7.79112C72.1002 7.80731 72.0896 7.82143 72.0758 7.83178C72.062 7.84213 72.0455 7.84827 72.0283 7.84945L68.5283 7.98168C68.3481 7.98462 68.1734 8.04389 68.0285 8.15117C67.8837 8.25846 67.7761 8.40837 67.7208 8.57991C67.6655 8.75144 67.6652 8.93599 67.7201 9.10767C67.7749 9.27935 67.8821 9.42956 68.0267 9.53723L70.7722 11.6956C70.786 11.7064 70.7962 11.721 70.8018 11.7376C70.8073 11.7542 70.8078 11.772 70.8033 11.7889L69.8583 15.1372C69.8094 15.3077 69.8141 15.4892 69.8719 15.6569C69.9297 15.8246 70.0378 15.9704 70.1814 16.0746C70.3251 16.1787 70.4973 16.236 70.6747 16.2388C70.8521 16.2415 71.026 16.1896 71.1728 16.09L74.0739 14.1456C74.0882 14.1357 74.1051 14.1304 74.1225 14.1304C74.1399 14.1304 74.1568 14.1357 74.1711 14.1456L77.0722 16.09C77.217 16.193 77.3903 16.2483 77.5681 16.2483C77.7458 16.2483 77.9191 16.193 78.0639 16.09C78.2076 15.9869 78.3157 15.8418 78.3735 15.6746C78.4313 15.5075 78.4359 15.3265 78.3867 15.1567L77.4339 11.7967C77.4288 11.7798 77.4291 11.7618 77.4347 11.7451C77.4403 11.7284 77.4508 11.7138 77.465 11.7033L80.2222 9.52556Z" fill="#CCCCCC"/>
<path d="M16.5431 9.57964C16.6877 9.47197 16.7949 9.32176 16.8497 9.15008C16.9046 8.9784 16.9043 8.79385 16.849 8.62232C16.7937 8.45079 16.6861 8.30087 16.5413 8.19358C16.3964 8.0863 16.2217 8.02703 16.0415 8.02409L12.5415 7.89186C12.5243 7.89068 12.5078 7.88454 12.494 7.87419C12.4802 7.86384 12.4696 7.84972 12.4637 7.83353L11.2542 4.56686C11.1935 4.40067 11.0831 4.25716 10.9381 4.15577C10.793 4.05438 10.6204 4 10.4434 4C10.2664 4 10.0938 4.05438 9.94873 4.15577C9.80371 4.25716 9.69334 4.40067 9.63257 4.56686L8.42701 7.8452C8.42105 7.86138 8.41054 7.8755 8.39674 7.88585C8.38294 7.8962 8.36644 7.90234 8.34924 7.90353L4.84924 8.03575C4.66903 8.0387 4.49426 8.09796 4.34943 8.20525C4.20461 8.31253 4.09699 8.46245 4.04167 8.63399C3.98635 8.80552 3.9861 8.99006 4.04096 9.16175C4.09582 9.33343 4.20303 9.48363 4.34757 9.59131L7.09312 11.7496C7.10687 11.7605 7.11714 11.7751 7.12266 11.7916C7.12819 11.8082 7.12874 11.8261 7.12424 11.843L6.17924 15.1913C6.13027 15.3618 6.13501 15.5433 6.19282 15.711C6.25064 15.8787 6.35871 16.0245 6.50234 16.1286C6.64598 16.2328 6.8182 16.2901 6.99557 16.2929C7.17295 16.2956 7.34687 16.2437 7.49368 16.1441L10.3948 14.1996C10.4091 14.1898 10.426 14.1845 10.4434 14.1845C10.4608 14.1845 10.4777 14.1898 10.492 14.1996L13.3931 16.1441C13.5379 16.2471 13.7112 16.3024 13.889 16.3024C14.0667 16.3024 14.24 16.2471 14.3848 16.1441C14.5285 16.041 14.6366 15.8958 14.6944 15.7287C14.7522 15.5616 14.7568 15.3806 14.7076 15.2108L13.7548 11.8508C13.7497 11.8339 13.75 11.8159 13.7556 11.7992C13.7612 11.7825 13.7717 11.7679 13.7859 11.7574L16.5431 9.57964Z" fill="#CCCCCC"/>
</svg>
