<svg width="13" height="13" viewBox="0 0 13 13" fill="none" xmlns="http://www.w3.org/2000/svg">
<path d="M12.5431 5.57964C12.6877 5.47197 12.7949 5.32176 12.8497 5.15008C12.9046 4.9784 12.9043 4.79385 12.849 4.62232C12.7937 4.45079 12.6861 4.30087 12.5413 4.19358C12.3964 4.0863 12.2217 4.02703 12.0415 4.02409L8.54146 3.89186C8.52425 3.89068 8.50775 3.88454 8.49395 3.87419C8.48015 3.86384 8.46964 3.84972 8.46368 3.83353L7.25424 0.566865C7.19347 0.400669 7.0831 0.25716 6.93807 0.155769C6.79304 0.0543769 6.62036 0 6.4434 0C6.26645 0 6.09376 0.0543769 5.94873 0.155769C5.80371 0.25716 5.69334 0.400669 5.63257 0.566865L4.42701 3.8452C4.42105 3.86138 4.41054 3.8755 4.39674 3.88585C4.38294 3.8962 4.36644 3.90234 4.34924 3.90353L0.849235 4.03575C0.669026 4.0387 0.494257 4.09796 0.349433 4.20525C0.204608 4.31253 0.0969917 4.46245 0.0416722 4.63399C-0.0136473 4.80552 -0.0138955 4.99006 0.0409624 5.16175C0.0958203 5.33343 0.203033 5.48363 0.347569 5.59131L3.09312 7.74964C3.10687 7.76045 3.11714 7.77506 3.12266 7.79165C3.12819 7.80823 3.12874 7.82608 3.12424 7.84297L2.17924 11.1913C2.13027 11.3618 2.13501 11.5433 2.19282 11.711C2.25064 11.8787 2.35871 12.0245 2.50234 12.1286C2.64598 12.2328 2.8182 12.2901 2.99557 12.2929C3.17295 12.2956 3.34687 12.2437 3.49368 12.1441L6.39479 10.1996C6.40908 10.1898 6.42604 10.1845 6.4434 10.1845C6.46077 10.1845 6.47772 10.1898 6.49201 10.1996L9.39313 12.1441C9.53795 12.2471 9.71125 12.3024 9.88896 12.3024C10.0667 12.3024 10.24 12.2471 10.3848 12.1441C10.5285 12.041 10.6366 11.8958 10.6944 11.7287C10.7522 11.5616 10.7568 11.3806 10.7076 11.2108L9.75479 7.85075C9.74974 7.83388 9.75002 7.81587 9.75559 7.79917C9.76116 7.78246 9.77175 7.76788 9.7859 7.75742L12.5431 5.57964Z" fill="#252525"/>
</svg>
